<svg xmlns="http://www.w3.org/2000/svg" xmlns:xlink="http://www.w3.org/1999/xlink" width="264px" height="280px" viewBox="0 0 264 280" version="1.1">
    <title id="transparent_Title">Avataaar/Default</title>
    <desc>Created with python_avatars</desc>
    <defs>
        <path d="M100,0 C130.927946,-5.68137151e-15 156,25.072054 156,56 L156.000809,62.1660527 C161.675838,63.1185422 166,68.05429 166,74 L166,88 C166,94.0524166 161.519235,99.0582945 155.693975,99.8813638 C153.627928,119.686472 141.237929,136.421678 124.001014,144.610469 L124,163 L128,163 C167.764502,163 200,195.235498 200,235 L200,244 L0,244 L0,235 C-4.86974701e-15,195.235498 32.235498,163 72,163 L76,163 L75.9999836,144.610943 C58.7625487,136.422324 46.3721119,119.686854 44.3051107,99.8809698 C38.480765,99.0582945 34,94.0524166 34,88 L34,74 C34,68.053942 38.3246685,63.1179645 44.0001873,62.1658855 L44,56 C44,25.072054 69.072054,5.68137151e-15 100,0 Z" id="transparent_path-1" />
        <path d="M83,36.3476251 C83,52.6289957 105.161905,65.8276544 132.5,65.8276544 C159.838095,65.8276544 182,52.6289957 182,36.3476251 C182,34.9853134 181.844841,33.6445843 181.544472,32.3313638 C210.784239,41.4879251 232,68.792221 232,101.051724 L232,110 L32,110 L32,101.051724 C32,68.3970853 53.7386736,40.8197864 83.5337207,32.0021267 C83.1821692,33.4207025 83,34.871494 83,36.3476251 Z" id="transparent_path-3" />
        <rect id="transparent_path-5" x="0" y="0" width="264" height="280" />
        <path d="M74,0 C114.869071,0 148,33.1309285 148,74 L148,84.1482318 L148,197.608051 C135.525121,187.236892 119.490913,181 102,181 L102,181 L98,181 L98,162.610951 C115.530782,154.282984 128.048193,137.114792 129.791419,116.867187 C135.569129,116.002364 140,111.018625 140,105 L140,105 L140,92 C140,87.3536213 137.359271,83.3240177 133.496777,81.3301515 C132.723933,81.0500337 131.951808,80.748163 131.180891,80.4262497 C130.794819,80.3202581 130.400778,80.2331546 130,80.1659169 L130,80.1659169 L130.000458,79.9172528 C117.224481,74.2339715 104.877985,63.0706967 96.1104311,47.8848473 C93.1752556,42.8009742 90.8310687,37.5951441 89.0661426,32.3970356 C80.4313947,42.9409152 67.7445474,53.6023901 52.3415164,62.4953343 C42.777598,68.0170651 33.1467898,72.2910056 24,75.2659587 L24.0003852,137.246608 C29.6019576,148.318362 38.7728825,157.277529 50,162.610951 L50,162.610951 L50,181 L46,181 C38.3273639,181 30.9350359,182.200142 24.0004995,184.422941 L24,230 C24,244.105888 13.5691766,255.775526 0,257.716445 L0,74 C0,33.1309285 33.1309285,0 74,0 Z" id="transparent_path-7" />
    </defs>
    <g id="transparent_Avataaar/Default" stroke="none" stroke-width="1" fill="none" fill-rule="evenodd">
        <g id="transparent_Body" transform="translate(32.000000, 36.000000)">
            <mask id="transparent_mask-2" fill="white">
                <use xlink:href="#transparent_path-1" />
            </mask>
            <use fill="#D0C6AC" xlink:href="#transparent_path-1" />
            <g id="transparent_Skin-Color" mask="url(#transparent_mask-2)" fill="#EDB98A">
                <g transform="translate(-32.000000, 0.000000)" id="transparent_Color">
                    <rect x="0" y="0" width="264" height="244" />
                </g>
            </g>
            <path d="M44,94 C44,124.927946 69.072054,150 100,150 C130.927946,150 156,124.927946 156,94 L156,94 L156,102 C156,132.927946 130.927946,158 100,158 C69.072054,158 44,132.927946 44,102 Z" id="transparent_Neck-Shadow" fill-opacity="0.100000001" fill="#000000" mask="url(#transparent_mask-2)" />
        </g>
        <g id="transparent_Clothing" transform="translate(0.000000, 170.000000)">
            
        <defs>
        <path d="M196.000348,38.6320038 L196,110 L68,110 L67.999672,38.6319925 C75.8495147,34.0910485 84.6362412,30.9895697 93.9989132,29.6884945 L93.999,73.9993435 L170,73.9993435 L170.001087,29.6884945 C179.363767,30.9895707 188.1505,34.0910536 196.000348,38.6320038 Z" id="overall_path-1" />
    </defs>
    <g id="overall_Clothing/Overall" stroke="none" stroke-width="1" fill="none" fill-rule="evenodd">
        <mask id="overall_mask-2" fill="white">
            <use xlink:href="#overall_path-1" />
        </mask>
        <use id="overall_Overall" fill="#B7C1DB" xlink:href="#overall_path-1" />
        <g id="overall_Fabric-Color" mask="url(#overall_mask-2)" fill="#B1E2FF">
            <rect id="overall_ðŸ–Color" x="0" y="0" width="264" height="110" />
        </g>
        <circle id="overall_Button" fill="#F4F4F4" cx="81" cy="83" r="5" />
        <circle id="overall_Button" fill="#F4F4F4" cx="183" cy="83" r="5" />
    </g>
</g>
        <g id="transparent_Face" transform="translate(76.000000, 82.000000)" fill="#000000">
            <g id="transparent_Mouth" transform="translate(2.000000, 52.000000)">    
                
            <g id="serious_Mouth/Serious" stroke="none" stroke-width="1" fill="none" fill-rule="evenodd" fill-opacity="0.699999988">
        <rect id="serious_Why-so-serious?" fill="#000000" x="42" y="18" width="24" height="6" rx="3" />
    </g>
</g>
            <g id="transparent_Nose" transform="translate(28.000000, 40.000000)" fill-opacity="0.16">
                
            <g id="default_Nose/Default" stroke="none" stroke-width="1" fill="none" fill-rule="evenodd" fill-opacity="0.16">
        <path d="M16,8 C16,12.418278 21.372583,16 28,16 L28,16 C34.627417,16 40,12.418278 40,8" id="default_Nose" fill="#000000" />
    </g>
</g>
            <g id="transparent_Eyes" transform="translate(0.000000, 8.000000)">
                
            <g id="wink_Eyes/Wink-ðŸ˜‰" stroke="none" stroke-width="1" fill="none" fill-rule="evenodd" fill-opacity="0.599999964">
        <circle id="wink_Eye" fill="#000000" cx="30" cy="22" r="6" />
        <path d="M70.4123979,24.204889 C72.2589064,20.4060854 76.4166529,17.7575774 81.2498107,17.7575774 C86.065907,17.7575774 90.2113521,20.3874194 92.0675822,24.1647016 C92.618991,25.2867751 91.8343342,26.2050591 91.0428374,25.5246002 C88.5917368,23.4173607 85.1109468,22.1013658 81.2498107,22.1013658 C77.5094365,22.1013658 74.1259889,23.3363293 71.6897696,25.3292186 C70.7990233,26.0578718 69.8723316,25.3159619 70.4123979,24.204889 Z" id="wink_Winky-Wink" fill="#000000" transform="translate(81.252230, 21.757577) rotate(-4.000000) translate(-81.252230, -21.757577) " />
    </g>
</g>
            <g id="transparent_Eyebrow" fill-opacity="0.599999964">
                
            <g id="sad_concerned_natural_Eyebrow/Natural/Sad-Concerned-Natural" stroke="none" stroke-width="1" fill="none" fill-rule="evenodd" fill-opacity="0.599999964">
        <path d="M22.7663531,5.57844898 L23.6772984,5.17582144 C28.9190996,3.09473425 36.8645466,3.96712704 41.7227321,6.29911638 C42.2897848,6.57148957 41.9021563,7.4519421 41.3211012,7.40711006 C26.4021788,6.25602197 16.3582869,15.5525942 12.9460869,21.8470939 C12.8449215,22.0337142 12.5391523,22.05489 12.4635344,21.8808353 C10.156283,16.5620676 16.9134476,7.89614725 22.7663531,5.57844898 Z" id="sad_concerned_natural_Eyebrow" fill="#000000" transform="translate(27.000000, 13.000000) scale(-1, -1) translate(-27.000000, -13.000000) " />
        <path d="M80.7663531,5.57844898 L81.6772984,5.17582144 C86.9190996,3.09473425 94.8645466,3.96712704 99.7227321,6.29911638 C100.289785,6.57148957 99.9021563,7.4519421 99.3211012,7.40711006 C84.4021788,6.25602197 74.3582869,15.5525942 70.9460869,21.8470939 C70.8449215,22.0337142 70.5391523,22.05489 70.4635344,21.8808353 C68.156283,16.5620676 74.9134476,7.89614725 80.7663531,5.57844898 Z" id="sad_concerned_natural_Eyebrow" fill="#000000" transform="translate(85.000000, 13.000000) scale(1, -1) translate(-85.000000, -13.000000) " />
    </g>
</g>
        </g>
        <g id="transparent_Top">
            
        <defs>
        <path d="M167.308863,35.006118 C147.121091,23.3065109 127.128954,25.2219854 112.036894,29.0299707 C96.9448338,32.8379559 88.0168242,43.6513048 80.3566792,59.6480618 C76.5956048,67.5028569 74.3660182,76.7914798 74.0230569,85.4813651 C73.8884429,88.8932666 74.3484305,92.415154 75.267729,95.7003546 C75.6049405,96.9061873 77.4232441,101.086987 77.9224658,97.70885 C78.0885348,96.584253 77.4804043,95.0327505 77.4215529,93.8376154 C77.3444374,92.2693977 77.4273028,90.6807875 77.5341822,89.1149098 C77.7340739,86.1874141 78.2559568,83.3154127 79.1847257,80.524647 C80.5119249,76.5367405 82.2013644,72.212859 84.7874413,68.8480942 C91.1883705,60.5205939 102.268658,60.045883 111.066257,55.4635848 C110.302881,56.8686624 107.359637,59.1432635 108.379389,60.7268592 C109.083576,61.8207003 111.749474,61.4890712 113.022219,61.4539693 C116.370996,61.3623702 119.734993,60.7796791 123.042844,60.306974 C128.255923,59.5618115 133.140585,58.0517626 138.046555,56.2181078 C142.06299,54.7164165 146.650012,53.3257139 149.66868,50.1404701 C154.539813,55.1881187 160.809849,59.9345599 167.070414,63.1428706 C172.68835,66.0222267 181.748751,67.461069 185.182761,73.3006826 C189.2479,80.2147477 187.37751,88.7073939 188.619138,96.2008069 C189.091302,99.05041 190.164155,98.986558 190.751315,96.4378281 C191.748406,92.1082634 192.219217,87.6102098 191.901961,83.1592929 C191.183568,73.1114668 187.496636,46.7057251 167.308863,35.006118 Z" id="short_round_path-1" />
    </defs>
    <g id="short_round_Top/Short-Hair/Short-Round" stroke="none" stroke-width="1" fill="none" fill-rule="evenodd" transform="translate(-1 0)">
        <g id="short_round_Facial-Hair" transform="translate(49.000000, 72.000000)"><defs>
        <path d="M84.5044337,93.8410391 C72.9930718,94.2191416 67.8580835,99.7213834 63.9909333,94.1296214 C61.0884259,89.9323547 62.3028943,82.8739117 65.014944,78.9027173 C68.8738581,73.2512381 74.1088724,75.9847769 79.9622738,75.3400279 C81.5538829,75.1648137 83.1526985,74.7228407 84.5044337,74 C85.856169,74.7228407 87.4546414,75.1648137 89.0462504,75.3400279 C94.899995,75.9847769 100.134666,73.2512381 103.993923,78.9027173 C106.70563,82.8739117 107.920098,89.9323547 105.017591,94.1296214 C101.150441,99.7213834 96.0157956,93.4629366 84.5044337,93.8410391 Z M140.39109,26 C136.966521,40.0748212 135.393023,54.4337754 132.909944,68.6711471 C132.392536,71.6390145 131.826063,74.5963095 131.224594,77.5496398 C131.098329,78.1697764 130.973781,80.4725746 130.362704,80.7643064 C128.511632,81.6484223 124.739149,76.9466834 123.730409,75.8851496 C121.196893,73.219256 118.684993,70.5292442 115.599415,68.437233 C109.364783,64.2102603 102.065485,61.7108818 94.4700836,61.117837 C91.2922091,60.8693859 86.9951134,61.3025234 84.000116,63.1104016 C81.0051185,61.3025234 76.7080229,60.8693859 73.5298053,61.117837 C65.9344039,61.7108818 58.6351055,64.2102603 52.4004739,68.437233 C49.3148957,70.5292442 46.8033387,73.219256 44.2694796,75.8851496 C43.2607395,76.9466834 39.4882573,81.6484223 37.6371849,80.7643064 C37.0261079,80.4725746 36.9015594,78.1697764 36.7752954,77.5496398 C36.1738255,74.5963095 35.6073527,71.6390145 35.0899445,68.6711471 C32.6072086,54.4337754 31.0337113,40.0748212 27.6091415,26 C26.6127533,26 25.7385119,44.7478165 25.6273446,46.4945731 C25.174784,53.5889755 24.6463963,60.5254529 25.3216346,67.6261326 C26.485803,79.8749043 27.6993791,95.2339402 37.032627,104.58753 C45.4659003,113.039493 57.7103052,114.806417 68.2713185,120.141327 C69.631059,120.828202 71.4347824,121.676306 73.3798667,122.37111 C75.4289129,123.934171 79.4926946,125 84.1740722,125 C89.0846465,125 93.3155222,123.827456 95.2540874,122.137856 C96.9548781,121.49261 98.5180822,120.752874 99.7285704,120.141327 C110.288776,114.805245 122.533989,113.039493 130.967262,104.58753 C140.30051,95.2339402 141.514086,79.8749043 142.678597,67.6261326 C143.353493,60.5254529 142.825105,53.5889755 142.372887,46.4945731 C142.261377,44.7478165 141.387136,26 140.39109,26 Z" id="beard_medium_path-1" />
    </defs>
    <g id="beard_medium_Facial-Hair/Beard-Medium" stroke="none" stroke-width="1" fill="none" fill-rule="evenodd">
        <mask id="beard_medium_mask-2" fill="white">
            <use xlink:href="#beard_medium_path-1" />
        </mask>
        <use id="beard_medium_Beardness" fill="#252E32" xlink:href="#beard_medium_path-1" />
        <g id="beard_medium_Facial-Hair-Color" mask="url(#beard_medium_mask-2)" fill="#D6B370">
            <rect id="beard_medium_Color" x="0" y="0" width="168" height="152" />
        </g>
    </g>
</g>
        <mask id="short_round_mask-2" fill="white">
            <use xlink:href="#short_round_path-1" />
        </mask>
        <use id="short_round_Short-Hair" fill="#28354B" xlink:href="#short_round_path-1" />
        <g id="short_round_Hair-Color" mask="url(#short_round_mask-2)" fill="#F59797">
            <g transform="translate(1.000000, 0.000000)" id="short_round_Color">
                <rect x="0" y="0" width="264" height="280" />
            </g>
        </g>
        <g id="short_round_Accessory" transform="translate(62.000000, 85.000000)"><defs>
        <filter x="-3.0%" y="-8.0%" width="106.1%" height="116.0%" filterUnits="objectBoundingBox" id="kurt_filter-1">
            <feOffset dx="0" dy="2" in="SourceAlpha" result="shadowOffsetOuter1" />
            <feColorMatrix values="0 0 0 0 0   0 0 0 0 0   0 0 0 0 0  0 0 0 0.16 0" type="matrix" in="shadowOffsetOuter1" result="shadowMatrixOuter1" />
            <feMerge>
                <feMergeNode in="shadowMatrixOuter1" />
                <feMergeNode in="SourceGraphic" />
            </feMerge>
        </filter>
    </defs>
    <g id="kurt_Top/_Resources/Kurt" stroke="none" stroke-width="1" fill="none" fill-rule="evenodd">
        <g id="kurt_Kurts" filter="url(#kurt_filter-1)" transform="translate(5.000000, 2.000000)" fill-rule="nonzero">
            <path d="M66,11.1111111 C54.9625586,11.1111111 53.3705645,2.0266011 30.6705882,0.740740741 C7.98552275,-0.283199952 0.815225204,6.4494855 0.776470588,11.1111111 C0.813236892,15.4042795 -0.352293566,26.5612661 14.3647059,39.6296296 C29.1367705,55.1420807 44.2704162,49.8818301 49.6941176,44.8148148 C55.1352081,42.4731118 61.3403442,21.4596351 66,21.4814815 C70.6596558,21.5033279 76.8647919,42.4731118 82.3058824,44.8148148 C87.7295838,49.8818301 102.86323,55.1420807 117.635294,39.6296296 C132.352294,26.5612661 131.186763,15.4042795 131.223529,11.1111111 C131.184775,6.4494855 124.014477,-0.283199952 101.329412,0.740740741 C78.6294355,2.0266011 77.0374414,11.1111111 66,11.1111111 Z" id="kurt_It!" fill="#F4F4F4" />
            <path d="M55.1294118,21.4814815 C55.5103632,13.8233491 42.2156493,5.64243259 27.9529412,5.92592593 C13.6973442,6.22450879 11.8417942,15.3786982 11.6470588,18.8888889 C11.2982286,27.0220633 20.014463,45.3037598 36.1058824,44.8148148 C52.1972736,44.305848 54.9092435,26.5344305 55.1294118,21.4814815 Z" id="kurt_Did" fill="#2F383B" />
            <path d="M120.352941,21.4814815 C120.733893,13.8233491 107.439179,5.64243259 93.1764706,5.92592593 C78.9208736,6.22450879 77.0653236,15.3786982 76.8705882,18.8888889 C76.521758,27.0220633 85.2379924,45.3037598 101.329412,44.8148148 C117.420803,44.305848 120.132773,26.5344305 120.352941,21.4814815 Z" id="kurt_Courtney" fill="#2F383B" transform="translate(98.611765, 25.370370) scale(-1, 1) translate(-98.611765, -25.370370) " />
        </g>
    </g>
</g>
    </g>
</g>
    </g>
</svg>