<svg xmlns="http://www.w3.org/2000/svg" xmlns:xlink="http://www.w3.org/1999/xlink" width="264px" height="280px" viewBox="0 0 264 280" version="1.1">
    <title id="circle_Title">Avataaar/Circle</title>
    <desc>Created with python_avatars</desc>
    <defs>
        <circle id="circle_path-1" cx="120" cy="120" r="120" />
        <path d="M-3.19744231e-14,160 L-3.19744231e-14,-1.42108547e-14 L264,-1.42108547e-14 L264,160 L252,160 C252,226.27417 198.27417,280 132,280 C65.72583,280 12,226.27417 12,160 L12,160 L-3.19744231e-14,160 Z" id="circle_path-3" />
        <path d="M100,0 C130.927946,-5.68137151e-15 156,25.072054 156,56 L156.000809,62.1660527 C161.675838,63.1185422 166,68.05429 166,74 L166,88 C166,94.0524166 161.519235,99.0582945 155.693975,99.8813638 C153.627928,119.686472 141.237929,136.421678 124.001014,144.610469 L124,163 L128,163 C167.764502,163 200,195.235498 200,235 L200,244 L0,244 L0,235 C-4.86974701e-15,195.235498 32.235498,163 72,163 L76,163 L75.9999836,144.610943 C58.7625487,136.422324 46.3721119,119.686854 44.3051107,99.8809698 C38.480765,99.0582945 34,94.0524166 34,88 L34,74 C34,68.053942 38.3246685,63.1179645 44.0001873,62.1658855 L44,56 C44,25.072054 69.072054,5.68137151e-15 100,0 Z" id="circle_path-5" />
        <path d="M83,36.3476251 C83,52.6289957 105.161905,65.8276544 132.5,65.8276544 C159.838095,65.8276544 182,52.6289957 182,36.3476251 C182,34.9853134 181.844841,33.6445843 181.544472,32.3313638 C210.784239,41.4879251 232,68.792221 232,101.051724 L232,110 L32,110 L32,101.051724 C32,68.3970853 53.7386736,40.8197864 83.5337207,32.0021267 C83.1821692,33.4207025 83,34.871494 83,36.3476251 Z" id="circle_path-7" />
        <rect id="circle_path-9" x="0" y="0" width="264" height="280" />
        <path d="M74,0 C114.869071,0 148,33.1309285 148,74 L148,84.1482318 L148,197.608051 C135.525121,187.236892 119.490913,181 102,181 L102,181 L98,181 L98,162.610951 C115.530782,154.282984 128.048193,137.114792 129.791419,116.867187 C135.569129,116.002364 140,111.018625 140,105 L140,105 L140,92 C140,87.3536213 137.359271,83.3240177 133.496777,81.3301515 C132.723933,81.0500337 131.951808,80.748163 131.180891,80.4262497 C130.794819,80.3202581 130.400778,80.2331546 130,80.1659169 L130,80.1659169 L130.000458,79.9172528 C117.224481,74.2339715 104.877985,63.0706967 96.1104311,47.8848473 C93.1752556,42.8009742 90.8310687,37.5951441 89.0661426,32.3970356 C80.4313947,42.9409152 67.7445474,53.6023901 52.3415164,62.4953343 C42.777598,68.0170651 33.1467898,72.2910056 24,75.2659587 L24.0003852,137.246608 C29.6019576,148.318362 38.7728825,157.277529 50,162.610951 L50,162.610951 L50,181 L46,181 C38.3273639,181 30.9350359,182.200142 24.0004995,184.422941 L24,230 C24,244.105888 13.5691766,255.775526 0,257.716445 L0,74 C0,33.1309285 33.1309285,0 74,0 Z" id="circle_path-11" />
    </defs>
    <g id="circle_Avataaar/Circle" stroke="none" stroke-width="1" fill="none" fill-rule="evenodd">
        <g id="circle_Circle" transform="translate(12.000000, 40.000000)">
            <mask id="circle_mask-2" fill="white">
                <use xlink:href="#circle_path-1" />
            </mask>
            <use id="circle_Background-Color" fill="rgba(0,0,0,0.0" xlink:href="#circle_path-1" />
            <g id="circle_Fabric-Color" mask="url(#circle_mask-2)" fill="">
                <rect id="circle_ðŸ–Color" x="0" y="0" width="240" height="240" />
            </g>
        </g>
        <mask id="circle_mask-4" fill="white">
            <use xlink:href="#circle_path-3" />
        </mask>
        <g id="circle_Mask" />
        <g id="circle_Avataaar" mask="url(#circle_mask-4)">
            <g id="circle_Body" transform="translate(32.000000, 36.000000)">
                <mask id="circle_mask-6" fill="white">
                    <use xlink:href="#circle_path-5" />
                </mask>
                <use fill="#D0C6AC" xlink:href="#circle_path-5" />
                <g id="circle_Skin-Color" mask="url(#circle_mask-6)" fill="#FD9841">
                    <g transform="translate(-32.000000, 0.000000)" id="circle_Color">
                        <rect x="0" y="0" width="264" height="244" />
                    </g>
                </g>
                <path d="M44,94 C44,124.927946 69.072054,150 100,150 C130.927946,150 156,124.927946 156,94 L156,94 L156,102 C156,132.927946 130.927946,158 100,158 C69.072054,158 44,132.927946 44,102 Z" id="circle_Neck-Shadow" fill-opacity="0.100000001" fill="#000000" mask="url(#circle_mask-6)" />
            </g>
            <g id="circle_Clothing" transform="translate(0.000000, 170.000000)">
                
            <defs>
        <path d="M196.000348,38.6320038 L196,110 L68,110 L67.999672,38.6319925 C75.8495147,34.0910485 84.6362412,30.9895697 93.9989132,29.6884945 L93.999,73.9993435 L170,73.9993435 L170.001087,29.6884945 C179.363767,30.9895707 188.1505,34.0910536 196.000348,38.6320038 Z" id="overall_path-1" />
    </defs>
    <g id="overall_Clothing/Overall" stroke="none" stroke-width="1" fill="none" fill-rule="evenodd">
        <mask id="overall_mask-2" fill="white">
            <use xlink:href="#overall_path-1" />
        </mask>
        <use id="overall_Overall" fill="#B7C1DB" xlink:href="#overall_path-1" />
        <g id="overall_Fabric-Color" mask="url(#overall_mask-2)" fill="#B1E2FF">
            <rect id="overall_ðŸ–Color" x="0" y="0" width="264" height="110" />
        </g>
        <circle id="overall_Button" fill="#F4F4F4" cx="81" cy="83" r="5" />
        <circle id="overall_Button" fill="#F4F4F4" cx="183" cy="83" r="5" />
    </g>
</g>
            <g id="circle_Face" transform="translate(76.000000, 82.000000)" fill="#000000">
                <g id="circle_Mouth" transform="translate(2.000000, 52.000000)">    
                    
                <defs>
        <path d="M35.117844,15.1280772 C36.1757121,24.6198025 44.2259873,32 54,32 C63.8042055,32 71.8740075,24.574136 72.8917593,15.0400546 C72.9736685,14.272746 72.1167429,13 71.042767,13 C56.1487536,13 44.7379213,13 37.0868244,13 C36.0066168,13 35.0120058,14.1784435 35.117844,15.1280772 Z" id="smile_path-1" />
    </defs>
    <g id="smile_Mouth/Smile" stroke="none" stroke-width="1" fill="none" fill-rule="evenodd">
        <mask id="smile_mask-2" fill="white">
            <use xlink:href="#smile_path-1" />
        </mask>
        <use id="smile_Mouth" fill-opacity="0.699999988" fill="#000000" xlink:href="#smile_path-1" />
        <path d="M44,2 L65,2 C67.7614237,2 70,4.23857625 70,7 L70,13 C70,15.7614237 67.7614237,18 65,18 L44,18 C41.2385763,18 39,15.7614237 39,13 L39,7 C39,4.23857625 41.2385763,2 44,2 Z" id="smile_Teeth" fill="#FFFFFF" mask="url(#smile_mask-2)" />
        <g id="smile_Tongue" mask="url(#smile_mask-2)" fill="#FF4F6D">
            <g transform="translate(38.000000, 24.000000)">
                <circle cx="11" cy="11" r="11" />
                <circle cx="21" cy="11" r="11" />
            </g>
        </g>
    </g>
</g>
                <g id="circle_Nose" transform="translate(28.000000, 40.000000)" fill-opacity="0.16">
                    
                <g id="default_Nose/Default" stroke="none" stroke-width="1" fill="none" fill-rule="evenodd" fill-opacity="0.16">
        <path d="M16,8 C16,12.418278 21.372583,16 28,16 L28,16 C34.627417,16 40,12.418278 40,8" id="default_Nose" fill="#000000" />
    </g>
</g>
                <g id="circle_Eyes" transform="translate(0.000000, 8.000000)">
                    
                <g id="happy_Eyes/Happy-ðŸ˜" stroke="none" stroke-width="1" fill="none" fill-rule="evenodd" fill-opacity="0.599999964">
        <path d="M16.1601674,22.4473116 C18.006676,18.648508 22.1644225,16 26.9975803,16 C31.8136766,16 35.9591217,18.629842 37.8153518,22.4071242 C38.3667605,23.5291977 37.5821037,24.4474817 36.790607,23.7670228 C34.3395063,21.6597833 30.8587163,20.3437884 26.9975803,20.3437884 C23.2572061,20.3437884 19.8737584,21.5787519 17.4375392,23.5716412 C16.5467928,24.3002944 15.6201012,23.5583844 16.1601674,22.4473116 Z" id="happy_Squint" fill="#000000" />
        <path d="M74.1601674,22.4473116 C76.006676,18.648508 80.1644225,16 84.9975803,16 C89.8136766,16 93.9591217,18.629842 95.8153518,22.4071242 C96.3667605,23.5291977 95.5821037,24.4474817 94.790607,23.7670228 C92.3395063,21.6597833 88.8587163,20.3437884 84.9975803,20.3437884 C81.2572061,20.3437884 77.8737584,21.5787519 75.4375392,23.5716412 C74.5467928,24.3002944 73.6201012,23.5583844 74.1601674,22.4473116 Z" id="happy_Squint" fill="#000000" />
    </g>
</g>
                <g id="circle_Eyebrow" fill-opacity="0.599999964">
                    
                <g id="unibrow_natural_Eyebrow/Natural/Unibrow-Natural" stroke="none" stroke-width="1" fill="none" fill-rule="evenodd" fill-opacity="0.599999964">
        <path d="M57.000525,12 C56.999825,11.9961 56.999825,11.9961 57.000525,12 M96.2812935,8.14993193 C97.7243204,8.76008291 105.241692,14.8939029 103.822605,17.5722412 C103.563259,18.0619945 102.91024,18.1443003 102.524546,17.7511372 C101.997542,17.2147893 100.987756,16.584232 100.86041,16.507708 C95.8563653,13.4967455 89.636055,14.1895424 84.1715051,15.0153209 C78.0153663,15.945512 71.9486685,18.0766191 65.7030886,17.0505179 C64.112573,16.7893996 61.3100901,16.0581965 59.4577569,14.8912505 C59.2166111,15.3812089 58.7733181,15.7165315 58.0750241,15.6547468 C55.8451696,15.4574504 57.5922879,12 58.7633758,12 C58.9879322,12 59.1830493,12.1416326 59.3360395,12.3691906 C60.6258515,12.2076142 61.9177831,11.6174215 63.2409655,11.2908151 C66.9279989,10.3803501 70.6888462,9.98718701 74.4284137,9.38927986 C81.0899445,8.32440654 89.7471082,5.39200867 96.2812935,8.14993193 Z" id="unibrow_natural_Kahlo" fill="#000000" transform="translate(80.500000, 12.500000) rotate(-2.000000) translate(-80.500000, -12.500000) " />
        <path d="M54.999475,12 C55.000175,11.9961 55.000175,11.9961 54.999475,12 M15.7187065,8.14993193 C22.2528918,5.39200867 30.9100555,8.32440654 37.5715863,9.38927986 C41.3111538,9.98718701 45.0720011,10.3803501 48.7590345,11.2908151 C50.2416282,11.6567696 51.6849876,12.3536477 53.1313394,12.4128263 C53.8325707,12.4413952 54.2674737,13.2763566 53.8149484,13.8242681 C52.3320222,15.6179895 48.3271239,16.7172136 46.2969114,17.0505179 C40.0513315,18.0766191 33.9846337,15.945512 27.8284949,15.0153209 C22.363945,14.1895424 16.1436347,13.4967455 11.1395899,16.507708 C11.0122444,16.584232 10.0024581,17.2147893 9.47545402,17.7511372 C9.0897602,18.1443003 8.43674067,18.0619945 8.17739482,17.5722412 C6.75830756,14.8939029 14.2756796,8.76008291 15.7187065,8.14993193 Z M54.9339874,11 C56.1050753,11 57.8521936,15.4015737 55.6223391,15.6527457 C53.3924847,15.9039176 53.7628995,11 54.9339874,11 Z" id="unibrow_natural_Frida" fill="#000000" transform="translate(32.348682, 12.500000) rotate(2.000000) translate(-32.348682, -12.500000) " />
    </g>
</g>
            </g>
            <g id="circle_Top">
                
            <defs>
        <path d="M180.14998,39.9204083 C177.390206,37.1003988 174.185913,34.7068297 171.069252,32.3065503 C170.381566,31.777442 169.682843,31.2610833 169.010544,30.7118441 C168.857687,30.5870323 167.291999,29.4657388 167.104691,29.0530544 C166.653816,28.0602634 166.915042,28.8332916 166.977255,27.6485857 C167.055857,26.150508 170.11064,21.9193194 167.831176,20.9490079 C166.828413,20.522232 165.039628,21.6579526 164.077671,22.0330592 C162.196235,22.7671676 160.291721,23.3932399 158.346734,23.9330847 C159.278588,22.0763407 161.055333,18.3594977 157.71591,19.3543018 C155.114345,20.1293431 152.690052,22.1219709 150.075777,23.0594018 C150.940735,21.6415124 154.399901,17.2479341 151.274209,17.0023366 C150.301549,16.925839 147.471201,18.7503735 146.423952,19.1395717 C143.287223,20.3054888 140.083264,21.0590571 136.789999,21.6525844 C125.59203,23.6707114 112.497238,23.0953019 102.1368,28.1934632 C94.1494796,32.1236942 86.262502,38.2220278 81.648386,45.987539 C77.2011742,53.472559 75.537818,61.6641751 74.6069673,70.2412987 C73.9239644,76.535909 73.8684412,83.0425652 74.1878671,89.3599905 C74.2922241,91.4297869 74.5250203,100.970847 77.5319724,98.0813859 C79.0300967,96.641688 79.019059,90.8282073 79.3963495,88.8604076 C80.1472513,84.9452748 80.870057,81.0126951 82.122006,77.2227096 C84.3282191,70.5439339 86.9307879,63.4296587 92.4269209,58.8297383 C95.9539853,55.8782066 98.4307906,51.8889248 101.806002,48.9112229 C103.322188,47.5738572 102.165231,47.7130963 104.602902,47.888571 C106.240504,48.006337 107.885464,48.0512961 109.52641,48.0942421 C113.322394,48.1928837 117.124399,48.16772 120.921387,48.1811407 C128.56821,48.208653 136.179243,48.316689 143.818708,47.9164188 C147.213653,47.7385955 150.617965,47.6423024 154.00388,47.3282597 C155.895349,47.152785 159.251496,45.9405668 160.808488,46.8669256 C162.233362,47.7144383 163.71309,50.4817719 164.736257,51.615144 C167.153525,54.2935659 170.035717,56.3392052 172.862385,58.5354911 C178.756547,63.114945 181.732392,68.8666908 183.522515,76.023241 C185.305949,83.1532854 184.805905,89.76815 187.013456,96.78479 C187.401784,98.0184813 188.428965,100.14498 189.695296,98.2389151 C189.930434,97.8849461 189.869559,95.9390277 189.869559,94.819339 C189.869559,90.2995934 191.014141,86.9083772 190.999893,82.3591197 C190.943566,68.5271489 190.49637,50.4908308 180.14998,39.9204083 Z" id="short_flat_path-1" />
    </defs>
    <g id="short_flat_Top/Short-Hair/Short-Flat" stroke="none" stroke-width="1" fill="none" fill-rule="evenodd">
        <g id="short_flat_Facial-Hair" transform="translate(49.000000, 72.000000)" />
        <mask id="short_flat_mask-2" fill="white">
            <use xlink:href="#short_flat_path-1" />
        </mask>
        <use id="short_flat_Short-Hair" fill="#1F3140" xlink:href="#short_flat_path-1" />
        <g id="short_flat_Hair-Color" mask="url(#short_flat_mask-2)" fill="#724133">
            <g transform="translate(1.000000, 0.000000)" id="short_flat_Color">
                <rect x="0" y="0" width="264" height="280" />
            </g>
        </g>
        <g id="short_flat_Accessory" transform="translate(62.000000, 85.000000)">
        <defs>
        <path d="M102,3 C110.919724,3 118.702944,7.86594657 122.839966,15.0881434 C123.049977,15.0306809 123.271405,15 123.5,15 L131.5,15 C132.880712,15 134,16.1192881 134,17.5 C134,18.8807119 132.880712,20 131.5,20 L124.963112,19.9999542 C125.63735,22.2145597 126,24.5649291 126,27 C126,40.254834 115.254834,51 102,51 C88.745166,51 78,40.254834 78,27 C78,25.5817328 78.1230214,24.1921987 78.3589754,22.8414867 C78.2814883,18.460693 74.9167538,15 70.8624171,15 C67.1244063,15 63.9725878,17.9417418 63.4412238,21.8340095 C63.8076631,23.4981856 64,25.2266315 64,27 C64,40.254834 53.254834,51 40,51 C26.745166,51 16,40.254834 16,27 C16,24.5649291 16.3626501,22.2145597 17.0368877,19.9999542 L10.5,20 C9.11928813,20 8,18.8807119 8,17.5 C8,16.1192881 9.11928813,15 10.5,15 L18.5,15 C18.7285947,15 18.9500235,15.0306809 19.1603931,15.0881495 C23.2970555,7.86594657 31.0802764,3 40,3 C49.3522436,3 57.4550935,8.34929022 61.4157763,16.1550973 C63.492635,13.0394413 66.9492812,11 70.8624171,11 C74.874933,11 78.4074783,13.1443461 80.4650049,16.3947271 C84.3793874,8.45920672 92.5521607,3 102,3 Z M40,7 C28.954305,7 20,15.954305 20,27 C20,38.045695 28.954305,47 40,47 C51.045695,47 60,38.045695 60,27 C60,15.954305 51.045695,7 40,7 Z M102,7 C90.954305,7 82,15.954305 82,27 C82,38.045695 90.954305,47 102,47 C113.045695,47 122,38.045695 122,27 C122,15.954305 113.045695,7 102,7 Z" id="round_path-1" />
        <filter x="-0.8%" y="-2.1%" width="101.6%" height="108.3%" filterUnits="objectBoundingBox" id="round_filter-2">
            <feOffset dx="0" dy="2" in="SourceAlpha" result="shadowOffsetOuter1" />
            <feColorMatrix values="0 0 0 0 0   0 0 0 0 0   0 0 0 0 0  0 0 0 0.1 0" type="matrix" in="shadowOffsetOuter1" />
        </filter>
    </defs>
    <g id="round_Top/_Resources/Round" stroke="none" stroke-width="1" fill="none" fill-rule="evenodd">
        <g id="round_Lennon-Glasses">
            <use fill="black" fill-opacity="1" filter="url(#round_filter-2)" xlink:href="#round_path-1" />
            <use fill="#252C2F" fill-rule="evenodd" xlink:href="#round_path-1" />
        </g>
    </g>
</g>
    </g>
</g>
        </g>
    </g>
</svg>