<svg xmlns="http://www.w3.org/2000/svg" xmlns:xlink="http://www.w3.org/1999/xlink" width="264px" height="280px" viewBox="0 0 264 280" version="1.1">
    <title id="circle_Title">Avataaar/Circle</title>
    <desc>Created with python_avatars</desc>
    <defs>
        <circle id="circle_path-1" cx="120" cy="120" r="120" />
        <path d="M-3.19744231e-14,160 L-3.19744231e-14,-1.42108547e-14 L264,-1.42108547e-14 L264,160 L252,160 C252,226.27417 198.27417,280 132,280 C65.72583,280 12,226.27417 12,160 L12,160 L-3.19744231e-14,160 Z" id="circle_path-3" />
        <path d="M100,0 C130.927946,-5.68137151e-15 156,25.072054 156,56 L156.000809,62.1660527 C161.675838,63.1185422 166,68.05429 166,74 L166,88 C166,94.0524166 161.519235,99.0582945 155.693975,99.8813638 C153.627928,119.686472 141.237929,136.421678 124.001014,144.610469 L124,163 L128,163 C167.764502,163 200,195.235498 200,235 L200,244 L0,244 L0,235 C-4.86974701e-15,195.235498 32.235498,163 72,163 L76,163 L75.9999836,144.610943 C58.7625487,136.422324 46.3721119,119.686854 44.3051107,99.8809698 C38.480765,99.0582945 34,94.0524166 34,88 L34,74 C34,68.053942 38.3246685,63.1179645 44.0001873,62.1658855 L44,56 C44,25.072054 69.072054,5.68137151e-15 100,0 Z" id="circle_path-5" />
        <path d="M83,36.3476251 C83,52.6289957 105.161905,65.8276544 132.5,65.8276544 C159.838095,65.8276544 182,52.6289957 182,36.3476251 C182,34.9853134 181.844841,33.6445843 181.544472,32.3313638 C210.784239,41.4879251 232,68.792221 232,101.051724 L232,110 L32,110 L32,101.051724 C32,68.3970853 53.7386736,40.8197864 83.5337207,32.0021267 C83.1821692,33.4207025 83,34.871494 83,36.3476251 Z" id="circle_path-7" />
        <rect id="circle_path-9" x="0" y="0" width="264" height="280" />
        <path d="M74,0 C114.869071,0 148,33.1309285 148,74 L148,84.1482318 L148,197.608051 C135.525121,187.236892 119.490913,181 102,181 L102,181 L98,181 L98,162.610951 C115.530782,154.282984 128.048193,137.114792 129.791419,116.867187 C135.569129,116.002364 140,111.018625 140,105 L140,105 L140,92 C140,87.3536213 137.359271,83.3240177 133.496777,81.3301515 C132.723933,81.0500337 131.951808,80.748163 131.180891,80.4262497 C130.794819,80.3202581 130.400778,80.2331546 130,80.1659169 L130,80.1659169 L130.000458,79.9172528 C117.224481,74.2339715 104.877985,63.0706967 96.1104311,47.8848473 C93.1752556,42.8009742 90.8310687,37.5951441 89.0661426,32.3970356 C80.4313947,42.9409152 67.7445474,53.6023901 52.3415164,62.4953343 C42.777598,68.0170651 33.1467898,72.2910056 24,75.2659587 L24.0003852,137.246608 C29.6019576,148.318362 38.7728825,157.277529 50,162.610951 L50,162.610951 L50,181 L46,181 C38.3273639,181 30.9350359,182.200142 24.0004995,184.422941 L24,230 C24,244.105888 13.5691766,255.775526 0,257.716445 L0,74 C0,33.1309285 33.1309285,0 74,0 Z" id="circle_path-11" />
    </defs>
    <g id="circle_Avataaar/Circle" stroke="none" stroke-width="1" fill="none" fill-rule="evenodd">
        <g id="circle_Circle" transform="translate(12.000000, 40.000000)">
            <mask id="circle_mask-2" fill="white">
                <use xlink:href="#circle_path-1" />
            </mask>
            <use id="circle_Background-Color" fill="rgba(0,0,0,0.0" xlink:href="#circle_path-1" />
            <g id="circle_Fabric-Color" mask="url(#circle_mask-2)" fill="">
                <rect id="circle_ðŸ–Color" x="0" y="0" width="240" height="240" />
            </g>
        </g>
        <mask id="circle_mask-4" fill="white">
            <use xlink:href="#circle_path-3" />
        </mask>
        <g id="circle_Mask" />
        <g id="circle_Avataaar" mask="url(#circle_mask-4)">
            <g id="circle_Body" transform="translate(32.000000, 36.000000)">
                <mask id="circle_mask-6" fill="white">
                    <use xlink:href="#circle_path-5" />
                </mask>
                <use fill="#D0C6AC" xlink:href="#circle_path-5" />
                <g id="circle_Skin-Color" mask="url(#circle_mask-6)" fill="#FFDBB4">
                    <g transform="translate(-32.000000, 0.000000)" id="circle_Color">
                        <rect x="0" y="0" width="264" height="244" />
                    </g>
                </g>
                <path d="M44,94 C44,124.927946 69.072054,150 100,150 C130.927946,150 156,124.927946 156,94 L156,94 L156,102 C156,132.927946 130.927946,158 100,158 C69.072054,158 44,132.927946 44,102 Z" id="circle_Neck-Shadow" fill-opacity="0.100000001" fill="#000000" mask="url(#circle_mask-6)" />
            </g>
            <g id="circle_Clothing" transform="translate(0.000000, 170.000000)">
                
            <defs>
        <path d="M232,101.051724 L232,110 L32,110 L32,101.051724 C32,65.1384292 58.2938256,35.3663869 92.6806879,29.9363855 C93.5844961,35.0070695 96.1171239,39.8245023 100.236125,43.5389794 L100.236125,43.5389794 L129.321203,69.7676333 C130.843316,71.1402598 133.156684,71.1402598 134.678797,69.7676333 L134.678797,69.7676333 L163.763875,43.5389794 C164.189462,43.1551884 164.601167,42.7562772 164.998197,42.3430127 C168.413626,38.7879269 170.516642,34.4534098 171.319249,29.9385703 C205.706684,35.3669637 232,65.1387771 232,101.051724 Z" id="shirt_v_neck_path-1" />
    </defs>
    <g id="shirt_v_neck_Clothing/Shirt-V-Neck" stroke="none" stroke-width="1" fill="none" fill-rule="evenodd">
        <mask id="shirt_v_neck_mask-2" fill="white">
            <use xlink:href="#shirt_v_neck_path-1" />
        </mask>
        <use id="shirt_v_neck_Clothes" fill="#E6E6E6" xlink:href="#shirt_v_neck_path-1" />
        <g id="shirt_v_neck_Fabric-Color" mask="url(#shirt_v_neck_mask-2)" fill="#929598">
            <rect id="shirt_v_neck_ðŸ–Color" x="0" y="0" width="264" height="110" />
        </g>
    </g>
</g>
            <g id="circle_Face" transform="translate(76.000000, 82.000000)" fill="#000000">
                <g id="circle_Mouth" transform="translate(2.000000, 52.000000)">    
                    
                <g id="eating_Mouth/Eating" stroke="none" stroke-width="1" fill="none" fill-rule="evenodd">
        <g id="eating_Om-Nom-Nom" opacity="0.599999964" transform="translate(28.000000, 6.000000)" fill="#000000" fill-opacity="0.599999964">
            <path d="M45.7064761,0 C42.3399588,1.95870633 40.0195381,5.49520667 40.0195381,9.67694348 C40.0195381,15.344608 45.4930527,20.2451296 51.8234083,20.2451296 C51.8823878,20.2451296 51.9412524,20.2447983 52,20.244138 C50.6423552,20.7317259 49.1600404,21 47.6077404,21 C42.2861196,21 37.787011,17.8470634 36.3137083,13.513833 C33.8402487,15.6694366 30.1376666,17.0394229 26,17.0394229 C21.8623334,17.0394229 18.1597513,15.6694366 15.6851623,13.5125989 C14.212989,17.8470634 9.71388039,21 4.39225962,21 C2.83995964,21 1.35764479,20.7317259 0,20.244138 C0.0587475828,20.2447983 0.11761218,20.2451296 0.176591694,20.2451296 C6.50694731,20.2451296 11.9804619,15.344608 11.9804619,9.67694348 C11.9804619,5.49520667 9.66004124,1.95870633 6.29352385,0 C11.7918498,0.797121661 16.0171848,4.99477485 16.1905909,10.1049337 C18.754121,11.8420922 22.2048056,12.9056086 26,12.9056086 C29.7951944,12.9056086 33.245879,11.8420922 35.8100516,10.1058522 C35.9828152,4.99477485 40.2081502,0.797121661 45.7064761,0 Z" id="eating_Delicious" />
        </g>
        <circle id="eating_Redish" fill-opacity="0.2" fill="#FF4646" cx="17" cy="15" r="9" />
        <circle id="eating_Redish" fill-opacity="0.2" fill="#FF4646" cx="91" cy="15" r="9" />
    </g>
</g>
                <g id="circle_Nose" transform="translate(28.000000, 40.000000)" fill-opacity="0.16">
                    
                <g id="default_Nose/Default" stroke="none" stroke-width="1" fill="none" fill-rule="evenodd" fill-opacity="0.16">
        <path d="M16,8 C16,12.418278 21.372583,16 28,16 L28,16 C34.627417,16 40,12.418278 40,8" id="default_Nose" fill="#000000" />
    </g>
</g>
                <g id="circle_Eyes" transform="translate(0.000000, 8.000000)">
                    
                <g id="side_Eyes/Side-ðŸ˜’" stroke="none" stroke-width="1" fill="none" fill-rule="evenodd" fill-opacity="0.599999964">
        <path d="M26.9975803,16 C30.5023373,16 33.8908881,17.3142215 36.0178027,19.5426914 C36.76432,20.2169977 37.3413788,21.076429 37.6755948,22.0487876 C37.7255661,22.1661456 37.7719796,22.285947 37.8153518,22.4071242 C37.9093375,22.6697105 37.9470658,22.9204105 37.9396792,23.1420431 C37.9792021,23.4217112 38,23.7084268 38,24 C38,27.3137085 35.3137085,30 32,30 C28.6862915,30 26,27.3137085 26,24 C26,22.6248836 26.4625977,21.3578126 27.2406617,20.3459186 C27.1600773,20.3443723 27.0789132,20.3437884 26.9975803,20.3437884 C23.2572061,20.3437884 19.8737584,21.5787519 17.4375392,23.5716412 C16.5467928,24.3002944 15.6201012,23.5583844 16.1601674,22.4473116 C18.006676,18.648508 22.1644225,16 26.9975803,16 Z" id="side_Eye" fill="#000000" />
        <path d="M84.9975803,16 C88.5023373,16 91.8908881,17.3142215 94.0178027,19.5426914 C94.76432,20.2169977 95.3413788,21.076429 95.6755948,22.0487876 C95.7255661,22.1661456 95.7719796,22.285947 95.8153518,22.4071242 C95.9093375,22.6697105 95.9470658,22.9204105 95.9396792,23.1420431 C95.9792021,23.4217112 96,23.7084268 96,24 C96,27.3137085 93.3137085,30 90,30 C86.6862915,30 84,27.3137085 84,24 C84,22.6248836 84.4625977,21.3578126 85.2406617,20.3459186 C85.1600773,20.3443723 85.0789132,20.3437884 84.9975803,20.3437884 C81.2572061,20.3437884 77.8737584,21.5787519 75.4375392,23.5716412 C74.5467928,24.3002944 73.6201012,23.5583844 74.1601674,22.4473116 C76.006676,18.648508 80.1644225,16 84.9975803,16 Z" id="side_Eye" fill="#000000" />
    </g>
</g>
                <g id="circle_Eyebrow" fill-opacity="0.599999964">
                    
                <g id="default_natural_Eyebrow/Natural/Default-Natural" stroke="none" stroke-width="1" fill="none" fill-rule="evenodd" fill-opacity="0.599999964">
        <path d="M26.0390934,6.21012364 C20.2775554,6.98346216 11.2929313,12.0052479 12.04426,17.8178111 C12.0689481,18.0080543 12.3567302,18.0673468 12.4809077,17.9084937 C14.9674041,14.7203351 34.1927973,10.0365481 41.1942673,11.0147151 C41.8350523,11.1044465 42.2580662,10.4430343 41.8210501,10.0302067 C38.0765663,6.49485426 31.2003792,5.51224825 26.0390934,6.21012364" id="default_natural_Eyebrow" fill="#000000" transform="translate(27.000000, 12.000000) rotate(5.000000) translate(-27.000000, -12.000000) " />
        <path d="M85.0390934,6.21012364 C79.2775554,6.98346216 70.2929313,12.0052479 71.04426,17.8178111 C71.0689481,18.0080543 71.3567302,18.0673468 71.4809077,17.9084937 C73.9674041,14.7203351 93.1927973,10.0365481 100.194267,11.0147151 C100.835052,11.1044465 101.258066,10.4430343 100.82105,10.0302067 C97.0765663,6.49485426 90.2003792,5.51224825 85.0390934,6.21012364" id="default_natural_Eyebrow" fill="#000000" transform="translate(86.000000, 12.000000) scale(-1, 1) rotate(5.000000) translate(-86.000000, -12.000000) " />
    </g>
</g>
            </g>
            <g id="circle_Top">
                
            <defs>
        <path d="M32.4485915,77.5347425 C26.3649028,77.5347425 22.6330986,80.4596103 22.6330986,86.5347425 L22.6330986,165.988782 C22.6330986,196.446757 0,196.404852 0,176.910255 L0,103.04488 C0,68.8032255 17.2273451,21 72,21 L73.6319364,21.0142796 C127.115479,21.9547084 144,69.1456421 144,103.04488 L144,103.04488 L144,176.910255 C144,196.404852 121.366901,196.446757 121.366901,165.988782 L121.366901,165.988782 L121.366901,86.5347425 C121.366901,80.4596103 117.635097,77.5347425 111.551408,77.5347425 L111.551408,77.5347425 L72,77.5347425 L32.4485915,77.5347425 Z" id="winter_hat_2_path-1" />
    </defs>
    <g id="winter_hat_2_Facial-Hair" transform="translate(49.000000, 72.000000)"><defs>
        <path d="M101.428403,98.1685688 C98.9148372,100.462621 96.23722,101.494309 92.8529444,100.772863 C92.2705777,100.648833 89.8963391,96.2345713 83.9998344,96.2345713 C78.1033297,96.2345713 75.7294253,100.648833 75.1467245,100.772863 C71.7624488,101.494309 69.0848316,100.462621 66.5712661,98.1685688 C61.8461772,93.855604 57.9166219,87.9081858 60.2778299,81.4191814 C61.5083844,78.0369425 63.5097479,74.3237342 67.1506257,73.2459109 C71.0384163,72.0955419 76.4968931,73.2439051 80.4147542,72.4582708 C81.6840664,72.2035248 83.0706538,71.7508657 83.9998344,71 C84.929015,71.7508657 86.3159365,72.2035248 87.5845805,72.4582708 C91.5027758,73.2439051 96.9612525,72.0955419 100.849043,73.2459109 C104.489921,74.3237342 106.491284,78.0369425 107.722173,81.4191814 C110.083381,87.9081858 106.153826,93.855604 101.428403,98.1685688 M140.081033,26 C136.670693,34.4002532 137.987774,44.8580348 137.356666,53.6758724 C136.844038,60.8431942 135.33712,71.5857526 128.972858,76.214531 C125.718361,78.5816138 119.79436,82.5598986 115.54187,81.4501943 C112.614539,80.6863848 112.302182,72.290096 108.455284,69.1469801 C104.09172,65.5823153 98.6429854,64.0160432 93.1491481,64.2578722 C90.7785381,64.3622683 85.9841367,64.3374908 83.9999331,66.1604584 C82.0157295,64.3374908 77.2216647,64.3622683 74.8510547,64.2578722 C69.3568808,64.0160432 63.9081467,65.5823153 59.5445817,69.1469801 C55.6976839,72.290096 55.3856641,80.6863848 52.4583326,81.4501943 C48.2058427,82.5598986 42.2818421,78.5816138 39.0270077,76.214531 C32.6624096,71.5857526 31.1561652,60.8431942 30.642864,53.6758724 C30.0120926,44.8580348 31.3291729,34.4002532 27.9188335,26 C26.2597768,26 27.3540339,42.1288693 27.3540339,42.1288693 L27.3540339,62.4851205 C27.3856735,77.7732046 36.935095,100.655445 58.1080116,109.393004 C63.2861266,111.52982 75.0153111,115 83.9999331,115 C92.9845551,115 104.71374,111.860188 109.891855,109.723371 C131.064771,100.985813 140.614193,77.7732046 140.646169,62.4851205 L140.646169,42.1288693 C140.646169,42.1288693 141.740089,26 140.081033,26" id="beard_light_path-1" />
    </defs>
    <g id="beard_light_Facial-Hair/Beard-Light" stroke="none" stroke-width="1" fill="none" fill-rule="evenodd">
        <mask id="beard_light_mask-2" fill="white">
            <use xlink:href="#beard_light_path-1" />
        </mask>
        <use id="beard_light_Lite-Beard" fill="#331B0C" xlink:href="#beard_light_path-1" />
        <g id="beard_light_Facial-Hair-Color" mask="url(#beard_light_mask-2)" fill="#B58143">
            <rect id="beard_light_Color" x="0" y="0" width="168" height="152" />
        </g>
    </g>
</g>
    <g id="winter_hat_2_Top/Accessories/Winter-Hat-2" stroke="none" stroke-width="1" fill="none" fill-rule="evenodd">
        <g id="winter_hat_2_hat" transform="translate(61.000000, 0.000000)">
            <g id="winter_hat_2_string" transform="translate(0.000000, 176.000000)" fill="#F4F4F4">
                <circle id="winter_hat_2_puff" cx="9" cy="65" r="9" />
                <rect x="8" y="0" width="2" height="58" />
            </g>
            <g id="winter_hat_2_string" transform="translate(126.000000, 168.000000)" fill="#F4F4F4">
                <circle id="winter_hat_2_puff" cx="9" cy="65" r="9" />
                <rect x="8" y="0" width="2" height="58" />
            </g>
            <circle id="winter_hat_2_puff" fill="#F4F4F4" cx="72" cy="20" r="20" />
            <mask id="winter_hat_2_mask-2" fill="white">
                <use xlink:href="#winter_hat_2_path-1" />
            </mask>
            <use id="winter_hat_2_Combined-Shape" fill="#F4F4F4" xlink:href="#winter_hat_2_path-1" />
            <g id="winter_hat_2_Fabric-Color" mask="url(#winter_hat_2_mask-2)" fill="#65C9FF">
                <g transform="translate(-2.000000, 19.000000)" id="winter_hat_2_ðŸ–Color">
                    <rect x="0" y="0" width="149" height="172" />
                </g>
            </g>
            <rect id="winter_hat_2_color-dark" fill-opacity="0.2" fill="#000000" mask="url(#winter_hat_2_mask-2)" x="-1" y="21" width="146" height="46" />
            <g id="winter_hat_2_light-triangles" mask="url(#winter_hat_2_mask-2)" fill="#FFFFFF" fill-opacity="0.5">
                <g transform="translate(29.000000, 32.000000)" id="winter_hat_2_Triangle">
                    <polygon transform="translate(12.500000, 9.000000) rotate(180.000000) translate(-12.500000, -9.000000) " points="12.5 0 25 18 0 18" />
                    <polygon transform="translate(43.500000, 9.000000) rotate(180.000000) translate(-43.500000, -9.000000) " points="43.5 0 56 18 31 18" />
                    <polygon transform="translate(74.500000, 9.000000) rotate(180.000000) translate(-74.500000, -9.000000) " points="74.5 0 87 18 62 18" />
                </g>
            </g>
            <g id="winter_hat_2_dark-triangles" mask="url(#winter_hat_2_mask-2)" fill="#000000" fill-opacity="0.5">
                <g transform="translate(13.000000, 41.000000)" id="winter_hat_2_Triangle">
                    <polygon points="12.5 0 25 18 0 18" />
                    <polygon points="43.5 0 56 18 31 18" />
                    <polygon points="74.5 0 87 18 62 18" />
                    <polygon points="105.5 0 118 18 93 18" />
                </g>
            </g>
        </g>
        <g id="winter_hat_2_Accessory" transform="translate(62.000000, 85.000000)" />
    </g>
</g>
        </g>
    </g>
</svg>