<svg xmlns="http://www.w3.org/2000/svg" xmlns:xlink="http://www.w3.org/1999/xlink" width="264px" height="280px" viewBox="0 0 264 280" version="1.1">
    <title id="transparent_Title">Avataaar/Default</title>
    <desc>Created with python_avatars</desc>
    <defs>
        <path d="M100,0 C130.927946,-5.68137151e-15 156,25.072054 156,56 L156.000809,62.1660527 C161.675838,63.1185422 166,68.05429 166,74 L166,88 C166,94.0524166 161.519235,99.0582945 155.693975,99.8813638 C153.627928,119.686472 141.237929,136.421678 124.001014,144.610469 L124,163 L128,163 C167.764502,163 200,195.235498 200,235 L200,244 L0,244 L0,235 C-4.86974701e-15,195.235498 32.235498,163 72,163 L76,163 L75.9999836,144.610943 C58.7625487,136.422324 46.3721119,119.686854 44.3051107,99.8809698 C38.480765,99.0582945 34,94.0524166 34,88 L34,74 C34,68.053942 38.3246685,63.1179645 44.0001873,62.1658855 L44,56 C44,25.072054 69.072054,5.68137151e-15 100,0 Z" id="transparent_path-1" />
        <path d="M83,36.3476251 C83,52.6289957 105.161905,65.8276544 132.5,65.8276544 C159.838095,65.8276544 182,52.6289957 182,36.3476251 C182,34.9853134 181.844841,33.6445843 181.544472,32.3313638 C210.784239,41.4879251 232,68.792221 232,101.051724 L232,110 L32,110 L32,101.051724 C32,68.3970853 53.7386736,40.8197864 83.5337207,32.0021267 C83.1821692,33.4207025 83,34.871494 83,36.3476251 Z" id="transparent_path-3" />
        <rect id="transparent_path-5" x="0" y="0" width="264" height="280" />
        <path d="M74,0 C114.869071,0 148,33.1309285 148,74 L148,84.1482318 L148,197.608051 C135.525121,187.236892 119.490913,181 102,181 L102,181 L98,181 L98,162.610951 C115.530782,154.282984 128.048193,137.114792 129.791419,116.867187 C135.569129,116.002364 140,111.018625 140,105 L140,105 L140,92 C140,87.3536213 137.359271,83.3240177 133.496777,81.3301515 C132.723933,81.0500337 131.951808,80.748163 131.180891,80.4262497 C130.794819,80.3202581 130.400778,80.2331546 130,80.1659169 L130,80.1659169 L130.000458,79.9172528 C117.224481,74.2339715 104.877985,63.0706967 96.1104311,47.8848473 C93.1752556,42.8009742 90.8310687,37.5951441 89.0661426,32.3970356 C80.4313947,42.9409152 67.7445474,53.6023901 52.3415164,62.4953343 C42.777598,68.0170651 33.1467898,72.2910056 24,75.2659587 L24.0003852,137.246608 C29.6019576,148.318362 38.7728825,157.277529 50,162.610951 L50,162.610951 L50,181 L46,181 C38.3273639,181 30.9350359,182.200142 24.0004995,184.422941 L24,230 C24,244.105888 13.5691766,255.775526 0,257.716445 L0,74 C0,33.1309285 33.1309285,0 74,0 Z" id="transparent_path-7" />
    </defs>
    <g id="transparent_Avataaar/Default" stroke="none" stroke-width="1" fill="none" fill-rule="evenodd">
        <g id="transparent_Body" transform="translate(32.000000, 36.000000)">
            <mask id="transparent_mask-2" fill="white">
                <use xlink:href="#transparent_path-1" />
            </mask>
            <use fill="#D0C6AC" xlink:href="#transparent_path-1" />
            <g id="transparent_Skin-Color" mask="url(#transparent_mask-2)" fill="#FFDBB4">
                <g transform="translate(-32.000000, 0.000000)" id="transparent_Color">
                    <rect x="0" y="0" width="264" height="244" />
                </g>
            </g>
            <path d="M44,94 C44,124.927946 69.072054,150 100,150 C130.927946,150 156,124.927946 156,94 L156,94 L156,102 C156,132.927946 130.927946,158 100,158 C69.072054,158 44,132.927946 44,102 Z" id="transparent_Neck-Shadow" fill-opacity="0.100000001" fill="#000000" mask="url(#transparent_mask-2)" />
        </g>
        <g id="transparent_Clothing" transform="translate(0.000000, 170.000000)">
            
        <defs>
        <path d="M160,29.0517235 C199.764502,29.0517235 232,61.2872215 232,101.051724 L232,110 L32,110 L32,101.051724 C32,61.2872215 64.235498,29.0517235 104,29.0517235 L105.192363,29.0520252 C105.065349,30.0355191 105,31.0365551 105,32.0517235 C105,45.8588423 117.088312,57.0517235 132,57.0517235 C146.911688,57.0517235 159,45.8588423 159,32.0517235 C159,31.0365551 158.934651,30.0355191 158.807637,29.0520252 L160,29.0517235 Z" id="blazer_sweater_path-1" />
    </defs>
    <g id="blazer_sweater_Clothing/Blazer-+-Sweater" stroke="none" stroke-width="1" fill="none" fill-rule="evenodd">
        <mask id="blazer_sweater_mask-2" fill="white">
            <use xlink:href="#blazer_sweater_path-1" />
        </mask>
        <use id="blazer_sweater_Clothes" fill="#E6E6E6" xlink:href="#blazer_sweater_path-1" />
        <g id="blazer_sweater_Fabric-Color" mask="url(#blazer_sweater_mask-2)" fill="#929598">
            <rect id="blazer_sweater_ðŸ–Color" x="0" y="0" width="264" height="110" />
        </g>
        <g id="blazer_sweater_Blazer" transform="translate(32.000000, 28.000000)">
            <path d="M64,40.5 C64,55.7092257 65.9608691,69.9209213 69.3620096,82.0011822 L0,82 L0,73.0517235 C-4.73779789e-15,34.3646678 30.512279,2.80413671 68.7847355,1.12223161 C65.7400343,12.7307619 64,26.1727873 64,40.5 Z M200,73.0517235 L200,82 L131.63799,82.0011822 C135.039131,69.9209213 137,55.7092257 137,40.5 C137,26.194165 135.265154,12.7708778 132.228695,1.1737534 C170.025091,3.36299447 200,34.7068514 200,73.0517235 Z" id="blazer_sweater_Saco" fill="#3A4C5A" />
            <path d="M149,58 L158.555853,50.83311 C159.998897,49.7508275 161.987779,49.7682725 163.411616,50.8757011 L170,56 L170,56 L149,58 Z" id="blazer_sweater_Pocket-hanky" fill="#E6E6E6" />
            <path d="M69,0 C65,19.3333333 66.6666667,46.6666667 74,82 L58,82 L44,46 L50,37 L44,31 L63,1 C65.027659,0.369238637 67.027659,0.0359053037 69,0 Z" id="blazer_sweater_Wing" fill="#2F4351" />
            <path d="M151,0 C147,19.3333333 148.666667,46.6666667 156,82 L140,82 L126,46 L132,37 L126,31 L145,1 C147.027659,0.369238637 149.027659,0.0359053037 151,0 Z" id="blazer_sweater_Wing" fill="#2F4351" transform="translate(141.000000, 41.000000) scale(-1, 1) translate(-141.000000, -41.000000) " />
        </g>
        <path d="M167,39.8878801 C167,47.2887654 162.572022,53.9447584 155.520121,58.5564834 L149.58,53.8760062 L145,54.207887 L146,51.0567821 L145.92205,50.9956082 C152.022413,47.8531513 156,42.7004148 156,36.8768102 L156.000381,21.539265 C162.772478,26.1362012 167,32.6564553 167,39.8878801 Z M118.07795,50.9956082 L118,51.0567821 L119,54.207887 L114.419,53.8760062 L108.479879,58.5564834 C101.427978,53.9447584 97,47.2887654 97,39.8878801 C97,32.6560965 101.227942,26.1355541 108.000627,21.5385807 L108,36.8768102 C108,42.7004148 111.977587,47.8531513 118.07795,50.9956082 Z" id="blazer_sweater_Collar" fill="#F2F2F2" />
    </g>
</g>
        <g id="transparent_Face" transform="translate(76.000000, 82.000000)" fill="#000000">
            <g id="transparent_Mouth" transform="translate(2.000000, 52.000000)">    
                
            <defs>
        <path d="M29,15.6086957 C30.410031,25.2313711 41.062182,33 54,33 C66.9681454,33 77.6461342,25.183301 79,14.7391304 C79.1012093,14.3397326 78.775269,13 76.826087,13 C56.838426,13 41.7395748,13 31.173913,13 C29.3833142,13 28.870211,14.2404669 29,15.6086957 Z" id="tongue_path-1" />
    </defs>
    <g id="tongue_Mouth/Tongue" stroke="none" stroke-width="1" fill="none" fill-rule="evenodd">
        <mask id="tongue_mask-2" fill="white">
            <use xlink:href="#tongue_path-1" />
        </mask>
        <use id="tongue_Mouth" fill-opacity="0.699999988" fill="#000000" xlink:href="#tongue_path-1" />
        <path d="M44,2 L65,2 C67.7614237,2 70,4.23857625 70,7 L70,13 C70,15.7614237 67.7614237,18 65,18 L44,18 C41.2385763,18 39,15.7614237 39,13 L39,7 C39,4.23857625 41.2385763,2 44,2 Z" id="tongue_Teeth" fill="#FFFFFF" mask="url(#tongue_mask-2)" />
        <path d="M59.5,20 C63.0898509,20 66,21.5670034 66,23.5 C66,23.5829439 65.9946418,23.6652139 65.9841015,23.7467151 C65.9945755,23.8293228 66,23.9140279 66,24 L66,33 C66,39.0751322 61.0751322,44 55,44 L54,44 C47.9248678,44 43,39.0751322 43,33 L43,24 C43,23.9140279 43.0054245,23.8293228 43.0159499,23.7462082 C43.0053582,23.6652139 43,23.5829439 43,23.5 C43,21.5670034 45.9101491,20 49.5,20 C51.5110191,20 53.3087347,20.4917558 54.5010337,21.2641296 C55.6909749,20.4918353 57.4888185,20 59.5,20 Z" id="tongue_Tongue" fill="#FF4F6D" />
    </g>
</g>
            <g id="transparent_Nose" transform="translate(28.000000, 40.000000)" fill-opacity="0.16">
                
            <g id="default_Nose/Default" stroke="none" stroke-width="1" fill="none" fill-rule="evenodd" fill-opacity="0.16">
        <path d="M16,8 C16,12.418278 21.372583,16 28,16 L28,16 C34.627417,16 40,12.418278 40,8" id="default_Nose" fill="#000000" />
    </g>
</g>
            <g id="transparent_Eyes" transform="translate(0.000000, 8.000000)">
                
            <defs>
        <path d="M14,14.0481187 C23.6099827,14.0481187 28,18.4994466 28,11.5617716 C28,4.62409673 21.7319865,0 14,0 C6.2680135,0 0,4.62409673 0,11.5617716 C0,18.4994466 4.39001726,14.0481187 14,14.0481187 Z" id="squint_path-1" />
        <path d="M14,14.0481187 C23.6099827,14.0481187 28,18.4994466 28,11.5617716 C28,4.62409673 21.7319865,0 14,0 C6.2680135,0 0,4.62409673 0,11.5617716 C0,18.4994466 4.39001726,14.0481187 14,14.0481187 Z" id="squint_path-3" />
    </defs>
    <g id="squint_Eyes/Squint-ðŸ˜Š" stroke="none" stroke-width="1" fill="none" fill-rule="evenodd">
        <g id="squint_Eye" transform="translate(16.000000, 13.000000)">
            <mask id="squint_mask-2" fill="white">
                <use xlink:href="#squint_path-1" />
            </mask>
            <use id="squint_The-white-stuff" fill="#FFFFFF" xlink:href="#squint_path-1" />
            <circle fill-opacity="0.699999988" fill="#000000" mask="url(#squint_mask-2)" cx="14" cy="10" r="6" />
        </g>
        <g id="squint_Eye" transform="translate(68.000000, 13.000000)">
            <mask id="squint_mask-4" fill="white">
                <use xlink:href="#squint_path-3" />
            </mask>
            <use id="squint_Eyeball-Mask" fill="#FFFFFF" xlink:href="#squint_path-3" />
            <circle fill-opacity="0.699999988" fill="#000000" mask="url(#squint_mask-4)" cx="14" cy="10" r="6" />
        </g>
    </g>
</g>
            <g id="transparent_Eyebrow" fill-opacity="0.599999964">
                
            <g id="frown_natural_Eyebrow/Natural/Frown-Natural" stroke="none" stroke-width="1" fill="none" fill-rule="evenodd" fill-opacity="0.599999964">
        <path d="M36.3692975,6.87618545 C34.3991755,9.78053246 30.8236346,11.5165625 27.6315757,12.5601676 C23.6890255,13.8490851 9.08080143,15.9390364 12.5196198,23.9079177 C12.572332,24.029546 12.7390347,24.0312591 12.7920764,23.9096308 C13.9448284,21.2646433 30.256648,18.7865093 31.7648785,18.2064622 C36.2101722,16.4974987 40.1579937,12.7153722 40.9269343,7.66282939 C41.2794477,5.34640965 40.2901039,1.6143049 39.3791695,0.113308759 C39.2697915,-0.0669067099 39.0052417,-0.02339461 38.9498938,0.181831751 C38.5898029,1.51323348 37.5385221,5.15317482 36.3692975,6.87618545" id="frown_natural_Fill-5" fill="#000000" />
        <path d="M95.3692975,6.87618545 C93.3991755,9.78053246 89.8236346,11.5165625 86.6315757,12.5601676 C82.6890255,13.8490851 68.0808014,15.9390364 71.5196198,23.9079177 C71.572332,24.029546 71.7390347,24.0312591 71.7920764,23.9096308 C72.9448284,21.2646433 89.256648,18.7865093 90.7648785,18.2064622 C95.2101722,16.4974987 99.1579937,12.7153722 99.9269343,7.66282939 C100.279448,5.34640965 99.2901039,1.6143049 98.3791695,0.113308759 C98.2697915,-0.0669067099 98.0052417,-0.02339461 97.9498938,0.181831751 C97.5898029,1.51323348 96.5385221,5.15317482 95.3692975,6.87618545" id="frown_natural_Fill-5" fill="#000000" transform="translate(85.500000, 12.000000) scale(-1, 1) translate(-85.500000, -12.000000) " />
    </g>
</g>
        </g>
        <g id="transparent_Top">
            
        <defs>
        <path d="M32.4485915,77.5347425 C26.3649028,77.5347425 22.6330986,80.4596103 22.6330986,86.5347425 L22.6330986,165.988782 C22.6330986,196.446757 0,196.404852 0,176.910255 L0,103.04488 C0,68.8032255 17.2273451,21 72,21 L73.6319364,21.0142796 C127.115479,21.9547084 144,69.1456421 144,103.04488 L144,103.04488 L144,176.910255 C144,196.404852 121.366901,196.446757 121.366901,165.988782 L121.366901,165.988782 L121.366901,86.5347425 C121.366901,80.4596103 117.635097,77.5347425 111.551408,77.5347425 L111.551408,77.5347425 L72,77.5347425 L32.4485915,77.5347425 Z" id="winter_hat_2_path-1" />
    </defs>
    <g id="winter_hat_2_Facial-Hair" transform="translate(49.000000, 72.000000)" />
    <g id="winter_hat_2_Top/Accessories/Winter-Hat-2" stroke="none" stroke-width="1" fill="none" fill-rule="evenodd">
        <g id="winter_hat_2_hat" transform="translate(61.000000, 0.000000)">
            <g id="winter_hat_2_string" transform="translate(0.000000, 176.000000)" fill="#F4F4F4">
                <circle id="winter_hat_2_puff" cx="9" cy="65" r="9" />
                <rect x="8" y="0" width="2" height="58" />
            </g>
            <g id="winter_hat_2_string" transform="translate(126.000000, 168.000000)" fill="#F4F4F4">
                <circle id="winter_hat_2_puff" cx="9" cy="65" r="9" />
                <rect x="8" y="0" width="2" height="58" />
            </g>
            <circle id="winter_hat_2_puff" fill="#F4F4F4" cx="72" cy="20" r="20" />
            <mask id="winter_hat_2_mask-2" fill="white">
                <use xlink:href="#winter_hat_2_path-1" />
            </mask>
            <use id="winter_hat_2_Combined-Shape" fill="#F4F4F4" xlink:href="#winter_hat_2_path-1" />
            <g id="winter_hat_2_Fabric-Color" mask="url(#winter_hat_2_mask-2)" fill="#262E33">
                <g transform="translate(-2.000000, 19.000000)" id="winter_hat_2_ðŸ–Color">
                    <rect x="0" y="0" width="149" height="172" />
                </g>
            </g>
            <rect id="winter_hat_2_color-dark" fill-opacity="0.2" fill="#000000" mask="url(#winter_hat_2_mask-2)" x="-1" y="21" width="146" height="46" />
            <g id="winter_hat_2_light-triangles" mask="url(#winter_hat_2_mask-2)" fill="#FFFFFF" fill-opacity="0.5">
                <g transform="translate(29.000000, 32.000000)" id="winter_hat_2_Triangle">
                    <polygon transform="translate(12.500000, 9.000000) rotate(180.000000) translate(-12.500000, -9.000000) " points="12.5 0 25 18 0 18" />
                    <polygon transform="translate(43.500000, 9.000000) rotate(180.000000) translate(-43.500000, -9.000000) " points="43.5 0 56 18 31 18" />
                    <polygon transform="translate(74.500000, 9.000000) rotate(180.000000) translate(-74.500000, -9.000000) " points="74.5 0 87 18 62 18" />
                </g>
            </g>
            <g id="winter_hat_2_dark-triangles" mask="url(#winter_hat_2_mask-2)" fill="#000000" fill-opacity="0.5">
                <g transform="translate(13.000000, 41.000000)" id="winter_hat_2_Triangle">
                    <polygon points="12.5 0 25 18 0 18" />
                    <polygon points="43.5 0 56 18 31 18" />
                    <polygon points="74.5 0 87 18 62 18" />
                    <polygon points="105.5 0 118 18 93 18" />
                </g>
            </g>
        </g>
        <g id="winter_hat_2_Accessory" transform="translate(62.000000, 85.000000)" />
    </g>
</g>
    </g>
</svg>