<svg xmlns="http://www.w3.org/2000/svg" xmlns:xlink="http://www.w3.org/1999/xlink" width="264px" height="280px" viewBox="0 0 264 280" version="1.1">
    <title id="circle_Title">Avataaar/Circle</title>
    <desc>Created with python_avatars</desc>
    <defs>
        <circle id="circle_path-1" cx="120" cy="120" r="120" />
        <path d="M-3.19744231e-14,160 L-3.19744231e-14,-1.42108547e-14 L264,-1.42108547e-14 L264,160 L252,160 C252,226.27417 198.27417,280 132,280 C65.72583,280 12,226.27417 12,160 L12,160 L-3.19744231e-14,160 Z" id="circle_path-3" />
        <path d="M100,0 C130.927946,-5.68137151e-15 156,25.072054 156,56 L156.000809,62.1660527 C161.675838,63.1185422 166,68.05429 166,74 L166,88 C166,94.0524166 161.519235,99.0582945 155.693975,99.8813638 C153.627928,119.686472 141.237929,136.421678 124.001014,144.610469 L124,163 L128,163 C167.764502,163 200,195.235498 200,235 L200,244 L0,244 L0,235 C-4.86974701e-15,195.235498 32.235498,163 72,163 L76,163 L75.9999836,144.610943 C58.7625487,136.422324 46.3721119,119.686854 44.3051107,99.8809698 C38.480765,99.0582945 34,94.0524166 34,88 L34,74 C34,68.053942 38.3246685,63.1179645 44.0001873,62.1658855 L44,56 C44,25.072054 69.072054,5.68137151e-15 100,0 Z" id="circle_path-5" />
        <path d="M83,36.3476251 C83,52.6289957 105.161905,65.8276544 132.5,65.8276544 C159.838095,65.8276544 182,52.6289957 182,36.3476251 C182,34.9853134 181.844841,33.6445843 181.544472,32.3313638 C210.784239,41.4879251 232,68.792221 232,101.051724 L232,110 L32,110 L32,101.051724 C32,68.3970853 53.7386736,40.8197864 83.5337207,32.0021267 C83.1821692,33.4207025 83,34.871494 83,36.3476251 Z" id="circle_path-7" />
        <rect id="circle_path-9" x="0" y="0" width="264" height="280" />
        <path d="M74,0 C114.869071,0 148,33.1309285 148,74 L148,84.1482318 L148,197.608051 C135.525121,187.236892 119.490913,181 102,181 L102,181 L98,181 L98,162.610951 C115.530782,154.282984 128.048193,137.114792 129.791419,116.867187 C135.569129,116.002364 140,111.018625 140,105 L140,105 L140,92 C140,87.3536213 137.359271,83.3240177 133.496777,81.3301515 C132.723933,81.0500337 131.951808,80.748163 131.180891,80.4262497 C130.794819,80.3202581 130.400778,80.2331546 130,80.1659169 L130,80.1659169 L130.000458,79.9172528 C117.224481,74.2339715 104.877985,63.0706967 96.1104311,47.8848473 C93.1752556,42.8009742 90.8310687,37.5951441 89.0661426,32.3970356 C80.4313947,42.9409152 67.7445474,53.6023901 52.3415164,62.4953343 C42.777598,68.0170651 33.1467898,72.2910056 24,75.2659587 L24.0003852,137.246608 C29.6019576,148.318362 38.7728825,157.277529 50,162.610951 L50,162.610951 L50,181 L46,181 C38.3273639,181 30.9350359,182.200142 24.0004995,184.422941 L24,230 C24,244.105888 13.5691766,255.775526 0,257.716445 L0,74 C0,33.1309285 33.1309285,0 74,0 Z" id="circle_path-11" />
    </defs>
    <g id="circle_Avataaar/Circle" stroke="none" stroke-width="1" fill="none" fill-rule="evenodd">
        <g id="circle_Circle" transform="translate(12.000000, 40.000000)">
            <mask id="circle_mask-2" fill="white">
                <use xlink:href="#circle_path-1" />
            </mask>
            <use id="circle_Background-Color" fill="rgba(0,0,0,0.0" xlink:href="#circle_path-1" />
            <g id="circle_Fabric-Color" mask="url(#circle_mask-2)" fill="">
                <rect id="circle_ðŸ–Color" x="0" y="0" width="240" height="240" />
            </g>
        </g>
        <mask id="circle_mask-4" fill="white">
            <use xlink:href="#circle_path-3" />
        </mask>
        <g id="circle_Mask" />
        <g id="circle_Avataaar" mask="url(#circle_mask-4)">
            <g id="circle_Body" transform="translate(32.000000, 36.000000)">
                <mask id="circle_mask-6" fill="white">
                    <use xlink:href="#circle_path-5" />
                </mask>
                <use fill="#D0C6AC" xlink:href="#circle_path-5" />
                <g id="circle_Skin-Color" mask="url(#circle_mask-6)" fill="#614335">
                    <g transform="translate(-32.000000, 0.000000)" id="circle_Color">
                        <rect x="0" y="0" width="264" height="244" />
                    </g>
                </g>
                <path d="M44,94 C44,124.927946 69.072054,150 100,150 C130.927946,150 156,124.927946 156,94 L156,94 L156,102 C156,132.927946 130.927946,158 100,158 C69.072054,158 44,132.927946 44,102 Z" id="circle_Neck-Shadow" fill-opacity="0.100000001" fill="#000000" mask="url(#circle_mask-6)" />
            </g>
            <g id="circle_Clothing" transform="translate(0.000000, 170.000000)">
                
            <defs>
        <path d="M196.000348,38.6320038 L196,110 L68,110 L67.999672,38.6319925 C75.8495147,34.0910485 84.6362412,30.9895697 93.9989132,29.6884945 L93.999,73.9993435 L170,73.9993435 L170.001087,29.6884945 C179.363767,30.9895707 188.1505,34.0910536 196.000348,38.6320038 Z" id="overall_path-1" />
    </defs>
    <g id="overall_Clothing/Overall" stroke="none" stroke-width="1" fill="none" fill-rule="evenodd">
        <mask id="overall_mask-2" fill="white">
            <use xlink:href="#overall_path-1" />
        </mask>
        <use id="overall_Overall" fill="#B7C1DB" xlink:href="#overall_path-1" />
        <g id="overall_Fabric-Color" mask="url(#overall_mask-2)" fill="#FFFFFF">
            <rect id="overall_ðŸ–Color" x="0" y="0" width="264" height="110" />
        </g>
        <circle id="overall_Button" fill="#F4F4F4" cx="81" cy="83" r="5" />
        <circle id="overall_Button" fill="#F4F4F4" cx="183" cy="83" r="5" />
    </g>
</g>
            <g id="circle_Face" transform="translate(76.000000, 82.000000)" fill="#000000">
                <g id="circle_Mouth" transform="translate(2.000000, 52.000000)">    
                    
                <defs>
        <path d="M35.117844,15.1280772 C36.1757121,24.6198025 44.2259873,32 54,32 C63.8042055,32 71.8740075,24.574136 72.8917593,15.0400546 C72.9736685,14.272746 72.1167429,13 71.042767,13 C56.1487536,13 44.7379213,13 37.0868244,13 C36.0066168,13 35.0120058,14.1784435 35.117844,15.1280772 Z" id="concerned_path-1" />
    </defs>
    <g id="concerned_Mouth/Concerned" stroke="none" stroke-width="1" fill="none" fill-rule="evenodd">
        <mask id="concerned_mask-2" fill="white">
            <use xlink:href="#concerned_path-1" transform="translate(54.003637, 22.500000) scale(1, -1) translate(-54.003637, -22.500000)" />
        </mask>
        <use id="concerned_Mouth" fill-opacity="0.699999988" fill="#000000" transform="translate(54.003637, 22.500000) scale(1, -1) translate(-54.003637, -22.500000)" xlink:href="#concerned_path-1" />
        <path d="M44,2 L65,2 C67.7614237,2 70,4.23857625 70,7 L70,13 C70,15.7614237 67.7614237,18 65,18 L44,18 C41.2385763,18 39,15.7614237 39,13 L39,7 C39,4.23857625 41.2385763,2 44,2 Z" id="concerned_Teeth" fill="#FFFFFF" mask="url(#concerned_mask-2)" />
        <g id="concerned_Tongue" mask="url(#concerned_mask-2)" fill="#FF4F6D">
            <g transform="translate(38.000000, 24.000000)">
                <circle id="concerned_friend?" cx="11" cy="11" r="11" />
                <circle id="concerned_How-you-doing" cx="21" cy="11" r="11" />
            </g>
        </g>
    </g>
</g>
                <g id="circle_Nose" transform="translate(28.000000, 40.000000)" fill-opacity="0.16">
                    
                <g id="default_Nose/Default" stroke="none" stroke-width="1" fill="none" fill-rule="evenodd" fill-opacity="0.16">
        <path d="M16,8 C16,12.418278 21.372583,16 28,16 L28,16 C34.627417,16 40,12.418278 40,8" id="default_Nose" fill="#000000" />
    </g>
</g>
                <g id="circle_Eyes" transform="translate(0.000000, 8.000000)">
                    
                <g id="default_Eyes/Default-ðŸ˜€" stroke="none" stroke-width="1" fill="none" fill-rule="evenodd" fill-opacity="0.599999964">
        <circle id="default_Eye" fill="#000000" cx="30" cy="22" r="6" />
        <circle id="default_Eye" fill="#000000" cx="82" cy="22" r="6" />
    </g>
</g>
                <g id="circle_Eyebrow" fill-opacity="0.599999964">
                    
                <g id="sad_concerned_Eyebrow/Outline/Sad-Concerned" stroke="none" stroke-width="1" fill="none" fill-rule="evenodd" fill-opacity="0.599999964">
        <path d="M15.9726042,19.4088529 C17.452356,11.0203704 30.0622688,5.22829657 39.2106453,8.9774793 C40.2254706,9.39337449 41.4016967,8.94600219 41.8378196,7.97824531 C42.2739426,7.01048842 41.8048116,5.88881678 40.7899862,5.47292159 C29.3457328,0.782843812 13.9550264,7.85221132 12.0280273,18.7760684 C11.84479,19.8148122 12.5792704,20.798534 13.6685352,20.9732726 C14.7578,21.1480113 15.7893668,20.4475967 15.9726042,19.4088529 Z" id="sad_concerned_Eyebrow" fill="#000000" fill-rule="nonzero" transform="translate(27.000414, 12.500000) scale(-1, -1) translate(-27.000414, -12.500000) " />
        <path d="M73.9726042,19.4088529 C75.452356,11.0203704 88.0622688,5.22829657 97.2106453,8.9774793 C98.2254706,9.39337449 99.4016967,8.94600219 99.8378196,7.97824531 C100.273943,7.01048842 99.8048116,5.88881678 98.7899862,5.47292159 C87.3457328,0.782843812 71.9550264,7.85221132 70.0280273,18.7760684 C69.84479,19.8148122 70.5792704,20.798534 71.6685352,20.9732726 C72.7578,21.1480113 73.7893668,20.4475967 73.9726042,19.4088529 Z" id="sad_concerned_Eyebrow" fill="#000000" fill-rule="nonzero" transform="translate(85.000414, 12.500000) scale(1, -1) translate(-85.000414, -12.500000) " />
    </g>
</g>
            </g>
            <g id="circle_Top">
                
            <defs>
        <path d="M130,0 C148.878945,0 164.980853,11.8899097 171.225984,28.5899895 C192.088295,32.0369637 208,50.1602929 208,72 C208,81.6675383 204.882152,90.6068643 199.597131,97.8673034 C209.650914,106.664611 216,119.590851 216,134 C216,160.509668 194.509668,182 168,182 C163.278876,182 158.716946,181.318407 154.407246,180.048254 C150.225855,183.577838 145.636551,186.639426 140.72013,189.152328 C139.549827,189.076535 138.371946,189.028747 137.187119,189.00959 L136,189 L132,189 L132.001014,170.610469 C149.531251,162.282329 162.048207,145.114429 163.791415,124.867236 C169.471002,124.017289 173.849484,119.186467 173.9962,113.304975 L174,113 L174,100 C174,95.77573 171.817281,92.0612614 168.518149,89.9229005 C167.448191,89.5331245 166.372488,89.0432753 165.29634,88.4602229 C164.873966,88.3379847 164.44146,88.2400109 164.000809,88.1660527 L164.00094,87.7136046 C155.319987,82.4108349 146.764886,71.1752936 141.449951,56.7992877 C131.312295,58.8351061 119.547256,60 107,60 C95.038684,60 83.7882341,58.9413637 73.9808476,57.0787685 C68.75481,71.0638309 60.4641576,82.0426902 52.000575,87.4226513 L52.0001873,88.1658855 C50.9522364,88.3416812 49.9503407,88.6533017 49.0132207,89.0820264 C48.9409951,89.1180529 48.8681644,89.1522806 48.7953478,89.1860695 C44.8606242,91.0812352 42.1193678,95.0621754 42.0037999,99.6950252 L42,100 L42,113 C42,119.018777 46.4310943,124.002616 52.2090181,124.867253 C53.9518263,145.114813 66.4692242,162.28298 83.9999836,170.610943 L84,189 L80,189 C78.4141498,189 76.8402744,189.051271 75.2799411,189.152244 C70.362623,186.639876 65.7728878,183.578504 61.5908566,180.049243 C57.2830538,181.318407 52.7211243,182 48,182 C21.490332,182 0,160.509668 0,134 C0,119.590851 6.34908591,106.664611 16.4022802,97.8662563 C11.1178478,90.6068643 8,81.6675383 8,72 C8,50.1602929 23.9117053,32.0369637 44.7747628,28.5903656 C51.0191469,11.8899097 67.1210549,0 86,0 C94.0146516,0 101.528813,2.14285314 108.00081,5.88688533 C114.471958,2.14263328 121.98576,0 130,0 Z" id="curly_path-1" />
    </defs>
    <g id="curly_Top/Long-Hair/Curly" stroke="none" stroke-width="1" fill="none" fill-rule="evenodd" transform="translate(-1 0)">
        <path d="M132,26 C142.357028,26 152.18109,26.7937051 160.996853,28.2157826 C183.450437,38.7479324 199,61.5580686 199,88 L199.000816,105.044165 C187.518153,104.674952 173.96279,90.8986839 166.557139,71.0876134 L166.45,70.798 L165.465631,70.9932266 C155.553819,72.9089172 144.143236,74 132,74 C120.038433,74 108.787761,72.9413193 98.9802296,71.0786512 L99.2335907,70.3935102 C91.9856565,90.3070459 78.5154621,104.29362 66.999761,105.021917 L67,88 C67,61.1728391 83.0059435,38.0840666 105.98912,27.7623933 C114.016531,26.6265601 122.7979,26 132,26 Z M166.446,70.785 L166.45,70.798 L166.451788,70.7989188 L166.446,70.785 Z" id="curly_Shadow" fill-opacity="0.16" fill="#000000" />
        <g id="curly_Hair" transform="translate(25.000000, 10.000000)">
            <mask id="curly_mask-2" fill="white">
                <use xlink:href="#curly_path-1" />
            </mask>
            <use id="curly_Curly!" fill="#314756" xlink:href="#curly_path-1" />
            <g id="curly_Hair-Color" mask="url(#curly_mask-2)" fill="#C93305">
                <g transform="translate(-24.000000, -10.000000)" id="curly_Color">
                    <rect x="0" y="0" width="264" height="280" />
                </g>
            </g>
        </g>
        <g id="curly_Facial-Hair" transform="translate(49.000000, 72.000000)"><defs>
        <path d="M101.428403,98.1685688 C98.9148372,100.462621 96.23722,101.494309 92.8529444,100.772863 C92.2705777,100.648833 89.8963391,96.2345713 83.9998344,96.2345713 C78.1033297,96.2345713 75.7294253,100.648833 75.1467245,100.772863 C71.7624488,101.494309 69.0848316,100.462621 66.5712661,98.1685688 C61.8461772,93.855604 57.9166219,87.9081858 60.2778299,81.4191814 C61.5083844,78.0369425 63.5097479,74.3237342 67.1506257,73.2459109 C71.0384163,72.0955419 76.4968931,73.2439051 80.4147542,72.4582708 C81.6840664,72.2035248 83.0706538,71.7508657 83.9998344,71 C84.929015,71.7508657 86.3159365,72.2035248 87.5845805,72.4582708 C91.5027758,73.2439051 96.9612525,72.0955419 100.849043,73.2459109 C104.489921,74.3237342 106.491284,78.0369425 107.722173,81.4191814 C110.083381,87.9081858 106.153826,93.855604 101.428403,98.1685688 M140.081033,26 C136.670693,34.4002532 137.987774,44.8580348 137.356666,53.6758724 C136.844038,60.8431942 135.33712,71.5857526 128.972858,76.214531 C125.718361,78.5816138 119.79436,82.5598986 115.54187,81.4501943 C112.614539,80.6863848 112.302182,72.290096 108.455284,69.1469801 C104.09172,65.5823153 98.6429854,64.0160432 93.1491481,64.2578722 C90.7785381,64.3622683 85.9841367,64.3374908 83.9999331,66.1604584 C82.0157295,64.3374908 77.2216647,64.3622683 74.8510547,64.2578722 C69.3568808,64.0160432 63.9081467,65.5823153 59.5445817,69.1469801 C55.6976839,72.290096 55.3856641,80.6863848 52.4583326,81.4501943 C48.2058427,82.5598986 42.2818421,78.5816138 39.0270077,76.214531 C32.6624096,71.5857526 31.1561652,60.8431942 30.642864,53.6758724 C30.0120926,44.8580348 31.3291729,34.4002532 27.9188335,26 C26.2597768,26 27.3540339,42.1288693 27.3540339,42.1288693 L27.3540339,62.4851205 C27.3856735,77.7732046 36.935095,100.655445 58.1080116,109.393004 C63.2861266,111.52982 75.0153111,115 83.9999331,115 C92.9845551,115 104.71374,111.860188 109.891855,109.723371 C131.064771,100.985813 140.614193,77.7732046 140.646169,62.4851205 L140.646169,42.1288693 C140.646169,42.1288693 141.740089,26 140.081033,26" id="beard_light_path-1" />
    </defs>
    <g id="beard_light_Facial-Hair/Beard-Light" stroke="none" stroke-width="1" fill="none" fill-rule="evenodd">
        <mask id="beard_light_mask-2" fill="white">
            <use xlink:href="#beard_light_path-1" />
        </mask>
        <use id="beard_light_Lite-Beard" fill="#331B0C" xlink:href="#beard_light_path-1" />
        <g id="beard_light_Facial-Hair-Color" mask="url(#beard_light_mask-2)" fill="#B58143">
            <rect id="beard_light_Color" x="0" y="0" width="168" height="152" />
        </g>
    </g>
</g>
        <g id="curly_Accessory" transform="translate(62.000000, 85.000000)" />
    </g>
</g>
        </g>
    </g>
</svg>