<svg xmlns="http://www.w3.org/2000/svg" xmlns:xlink="http://www.w3.org/1999/xlink" width="264px" height="280px" viewBox="0 0 264 280" version="1.1">
    <title id="circle_Title">Avataaar/Circle</title>
    <desc>Created with python_avatars</desc>
    <defs>
        <circle id="circle_path-1" cx="120" cy="120" r="120" />
        <path d="M-3.19744231e-14,160 L-3.19744231e-14,-1.42108547e-14 L264,-1.42108547e-14 L264,160 L252,160 C252,226.27417 198.27417,280 132,280 C65.72583,280 12,226.27417 12,160 L12,160 L-3.19744231e-14,160 Z" id="circle_path-3" />
        <path d="M100,0 C130.927946,-5.68137151e-15 156,25.072054 156,56 L156.000809,62.1660527 C161.675838,63.1185422 166,68.05429 166,74 L166,88 C166,94.0524166 161.519235,99.0582945 155.693975,99.8813638 C153.627928,119.686472 141.237929,136.421678 124.001014,144.610469 L124,163 L128,163 C167.764502,163 200,195.235498 200,235 L200,244 L0,244 L0,235 C-4.86974701e-15,195.235498 32.235498,163 72,163 L76,163 L75.9999836,144.610943 C58.7625487,136.422324 46.3721119,119.686854 44.3051107,99.8809698 C38.480765,99.0582945 34,94.0524166 34,88 L34,74 C34,68.053942 38.3246685,63.1179645 44.0001873,62.1658855 L44,56 C44,25.072054 69.072054,5.68137151e-15 100,0 Z" id="circle_path-5" />
        <path d="M83,36.3476251 C83,52.6289957 105.161905,65.8276544 132.5,65.8276544 C159.838095,65.8276544 182,52.6289957 182,36.3476251 C182,34.9853134 181.844841,33.6445843 181.544472,32.3313638 C210.784239,41.4879251 232,68.792221 232,101.051724 L232,110 L32,110 L32,101.051724 C32,68.3970853 53.7386736,40.8197864 83.5337207,32.0021267 C83.1821692,33.4207025 83,34.871494 83,36.3476251 Z" id="circle_path-7" />
        <rect id="circle_path-9" x="0" y="0" width="264" height="280" />
        <path d="M74,0 C114.869071,0 148,33.1309285 148,74 L148,84.1482318 L148,197.608051 C135.525121,187.236892 119.490913,181 102,181 L102,181 L98,181 L98,162.610951 C115.530782,154.282984 128.048193,137.114792 129.791419,116.867187 C135.569129,116.002364 140,111.018625 140,105 L140,105 L140,92 C140,87.3536213 137.359271,83.3240177 133.496777,81.3301515 C132.723933,81.0500337 131.951808,80.748163 131.180891,80.4262497 C130.794819,80.3202581 130.400778,80.2331546 130,80.1659169 L130,80.1659169 L130.000458,79.9172528 C117.224481,74.2339715 104.877985,63.0706967 96.1104311,47.8848473 C93.1752556,42.8009742 90.8310687,37.5951441 89.0661426,32.3970356 C80.4313947,42.9409152 67.7445474,53.6023901 52.3415164,62.4953343 C42.777598,68.0170651 33.1467898,72.2910056 24,75.2659587 L24.0003852,137.246608 C29.6019576,148.318362 38.7728825,157.277529 50,162.610951 L50,162.610951 L50,181 L46,181 C38.3273639,181 30.9350359,182.200142 24.0004995,184.422941 L24,230 C24,244.105888 13.5691766,255.775526 0,257.716445 L0,74 C0,33.1309285 33.1309285,0 74,0 Z" id="circle_path-11" />
    </defs>
    <g id="circle_Avataaar/Circle" stroke="none" stroke-width="1" fill="none" fill-rule="evenodd">
        <g id="circle_Circle" transform="translate(12.000000, 40.000000)">
            <mask id="circle_mask-2" fill="white">
                <use xlink:href="#circle_path-1" />
            </mask>
            <use id="circle_Background-Color" fill="rgba(0,0,0,0.0" xlink:href="#circle_path-1" />
            <g id="circle_Fabric-Color" mask="url(#circle_mask-2)" fill="">
                <rect id="circle_ðŸ–Color" x="0" y="0" width="240" height="240" />
            </g>
        </g>
        <mask id="circle_mask-4" fill="white">
            <use xlink:href="#circle_path-3" />
        </mask>
        <g id="circle_Mask" />
        <g id="circle_Avataaar" mask="url(#circle_mask-4)">
            <g id="circle_Body" transform="translate(32.000000, 36.000000)">
                <mask id="circle_mask-6" fill="white">
                    <use xlink:href="#circle_path-5" />
                </mask>
                <use fill="#D0C6AC" xlink:href="#circle_path-5" />
                <g id="circle_Skin-Color" mask="url(#circle_mask-6)" fill="#D08B5B">
                    <g transform="translate(-32.000000, 0.000000)" id="circle_Color">
                        <rect x="0" y="0" width="264" height="244" />
                    </g>
                </g>
                <path d="M44,94 C44,124.927946 69.072054,150 100,150 C130.927946,150 156,124.927946 156,94 L156,94 L156,102 C156,132.927946 130.927946,158 100,158 C69.072054,158 44,132.927946 44,102 Z" id="circle_Neck-Shadow" fill-opacity="0.100000001" fill="#000000" mask="url(#circle_mask-6)" />
            </g>
            <g id="circle_Clothing" transform="translate(0.000000, 170.000000)">
                
            <defs>
        <path d="M99,32.5 C99,44.3741221 113.998461,54 132.5,54 C151.001539,54 166,44.3741221 166,32.5 C166,31.4019929 165.871751,30.3232102 165.624342,29.2694852 C202.75978,32.1370674 232,63.1796858 232,101.051724 L232,110 L32,110 L32,101.051724 C32,62.8342194 61.7761079,31.571298 99.3946469,29.196636 C99.1341902,30.2738104 99,31.3768477 99,32.5 Z" id="graphic_shirt_path-1" />
    </defs>
    <g id="graphic_shirt_Clothing/Graphic-Shirt" stroke="none" stroke-width="1" fill="none" fill-rule="evenodd">
        <mask id="graphic_shirt_mask-2" fill="white">
            <use xlink:href="#graphic_shirt_path-1" />
        </mask>
        <use id="graphic_shirt_Clothes" fill="#E6E6E6" xlink:href="#graphic_shirt_path-1" />
        <g id="graphic_shirt_Fabric-Color" mask="url(#graphic_shirt_mask-2)" fill="#FFDEB5">
            <rect id="graphic_shirt_ðŸ–Color" x="0" y="0" width="264" height="110" />
        </g>
        <g id="graphic_shirt_Graphic" fill="#FFFFFF" transform="translate(77.000000, 58.000000)">
        <g id="diamond_Clothing/Graphic/Diamond" stroke="none" stroke-width="1" fill="none" fill-rule="evenodd">
        <g id="diamond_Diamond" transform="translate(29.000000, 2.000000)" fill="#FFFFFF">
            <path d="M34.7804613,27.7365051 C32.3910217,30.3933795 29.9226048,32.9801662 27.4446301,35.5565142 C28.4300853,32.0044048 29.1846452,27.9785814 30.6489944,24.5994547 C31.0655115,23.6371144 30.7485963,23.5153306 31.576097,23.1057395 C32.1847753,22.8045111 33.6536519,23.1494823 34.3825567,23.1678741 C35.9404713,23.2066461 37.5335988,23.3597457 39.0789374,23.1186635 C37.6281703,24.6436945 36.1869609,26.1712109 34.7804613,27.7365051 M19.5162179,31.798118 C16.8174087,28.5164183 14.1321816,25.2302449 10.8578947,22.4814113 C12.146683,22.6176103 13.5536857,22.4376686 14.8163159,22.687201 C16.7595591,23.0714412 16.6534177,23.6778747 17.6358547,25.6458009 C19.0866218,28.5522078 20.5248129,31.434755 21.6858291,34.4689106 C20.9750337,33.5692019 20.2446197,32.6844056 19.5162179,31.798118 M10.4182378,19.266817 C11.3810563,17.6920783 11.5616476,16.294796 13.3373785,15.4865494 C15.3988361,14.5480688 18.6379102,14.7454082 20.8256308,14.5709343 C19.4553501,16.093977 17.7887788,17.6736865 17.2223558,19.6928116 C16.3480725,17.9749149 15.2599971,16.5189775 13.5521766,15.5223389 C13.3368755,15.4159645 14.7101745,20.0725781 14.8897597,20.3926954 C13.1743936,20.2967597 11.3684803,19.9850926 9.66518708,20.3012334 C9.916204,19.9562622 10.1672209,19.611291 10.4182378,19.266817 M26.8243819,14.2592673 C28.4154971,14.2945597 29.9940364,14.4183318 31.563521,14.6783029 C30.2968665,16.353451 29.9150592,18.3104416 29.4653415,20.3086895 C28.9869505,18.0509676 27.2564932,15.9473394 25.7312761,14.2607585 C26.095477,14.2602615 26.4596779,14.2597644 26.8243819,14.2592673 M23.3257392,15.3334498 C23.5601558,15.1748824 27.7826729,20.4190405 28.3923573,20.889275 C25.0798394,20.8813217 21.7743641,20.7192748 18.4658705,20.5736313 C20.3728949,19.0868752 21.4886374,16.8863171 23.3257392,15.3334498 M26.0124754,32.4289082 C25.6105465,33.7779741 25.2352788,35.1369815 24.797634,36.4756088 C23.2432407,31.7444337 20.9357965,27.288142 18.7898282,22.8020257 C22.1295103,22.8900083 25.465671,23.0107979 28.8058561,23.0575231 C27.9864041,26.2164449 26.9441054,29.3032906 26.0124754,32.4289082 M33.2416622,14.9656131 C34.5188805,16.093977 36.338879,18.4063774 36.9284418,19.1833081 C36.9867944,19.260355 37.0461531,19.3369048 37.1070209,19.4124604 C37.3177947,19.6744198 38.0733606,20.6680759 38.3701542,21.0567898 C36.1426934,20.8306199 33.8251885,20.9270528 31.5901821,20.9066727 C32.0881916,18.8527521 32.6938517,16.8952645 32.1737084,14.7787123 C32.5308668,14.8363732 32.886516,14.8985078 33.2416622,14.9656131 M40.8898811,20.5830758 C38.7323429,17.9068154 36.5199733,13.3247633 33.025858,12.5055811 C29.5538765,11.6918667 25.478247,12.0517501 21.9519372,12.2754346 C18.8773572,12.4702886 13.8690917,12.0721303 11.1572035,13.8690622 C9.76378291,14.7921334 8.73154499,16.8738902 8.2491297,18.4202955 C7.81450321,19.8131041 8.51523782,20.7048596 7.00259677,20.7048596 C6.90651615,20.7048596 9.50672951,24.3777585 9.81308082,24.66656 C12.0853121,26.8064748 14.2574385,28.8688456 16.2701013,31.2642577 C19.1047312,34.6379166 21.6747622,39.6022206 25.414864,41 C24.7292206,40.6609938 28.2067356,38.0334469 28.6242587,37.5811072 C30.7355173,35.2930636 32.8709217,33.0268914 34.9967685,30.7517718 C36.9349813,28.6779682 39.0472459,26.7209776 40.9271061,24.6004489 C42.361776,22.9824645 42.3658003,22.4262358 40.8898811,20.5830758" id="diamond_Fill-21" />
            <path d="M6.99858316,11.9999257 C7.04159508,12.0142408 6.09038895,9.95483812 6.17394084,10.0812061 C5.69932656,9.36248835 5.12830624,8.8402333 4.43566602,8.35351923 C3.70792411,7.84261755 0.1270582,7.25421678 0,7 C1.49355183,9.65224611 4.16721231,11.1276907 6.99858316,11.9999257" id="diamond_Fill-23" />
            <path d="M22.3553325,7.19614224 C22.5279973,7.84840006 22.7925782,8.44932951 23.1490753,8.99893058 C23.2186566,9.07737584 24.0076748,4.81518326 23.9999436,4.45201075 C23.9866286,3.8317121 23.6120919,0 22.814054,0 C21.4769753,0 22.1397162,6.46931298 22.3553325,7.19614224" id="diamond_Fill-25" />
            <path d="M48.969198,5 C45.977552,5 39.2896081,10.8535875 40.0615528,13.9997703 C40.0673207,14.0103781 40.50905,13.6497123 40.4129174,13.7172166 C40.4321439,13.7032335 40.4508897,13.6887683 40.4691549,13.6738209 C41.7405084,12.649202 43.1873037,11.6544779 44.4605798,10.4683308 C45.3723974,9.61874094 46.4476403,8.85642448 47.2772645,7.92727594 C47.3618612,7.83276992 49.2628831,5 48.969198,5" id="diamond_Fill-27" />
        </g>
    </g>
</g>
    </g>
</g>
            <g id="circle_Face" transform="translate(76.000000, 82.000000)" fill="#000000">
                <g id="circle_Mouth" transform="translate(2.000000, 52.000000)">    
                    
                <g id="sad_Mouth/Sad" stroke="none" stroke-width="1" fill="none" fill-rule="evenodd" fill-opacity="0.699999988">
        <path d="M40.0582943,16.6539438 C40.7076459,23.6831146 46.7016363,28.3768187 54,28.3768187 C61.3416045,28.3768187 67.3633339,23.627332 67.9526838,16.5287605 C67.9840218,16.1513016 67.0772329,15.8529531 66.6289111,16.077395 C61.0902255,18.8502083 56.8805885,20.2366149 54,20.2366149 C51.1558456,20.2366149 47.0072148,18.8804569 41.5541074,16.168141 C41.0473376,15.9160792 40.0197139,16.2363147 40.0582943,16.6539438 Z" id="sad_Mouth" fill="#000000" transform="translate(54.005357, 22.188409) scale(1, -1) translate(-54.005357, -22.188409) " />
    </g>
</g>
                <g id="circle_Nose" transform="translate(28.000000, 40.000000)" fill-opacity="0.16">
                    
                <g id="default_Nose/Default" stroke="none" stroke-width="1" fill="none" fill-rule="evenodd" fill-opacity="0.16">
        <path d="M16,8 C16,12.418278 21.372583,16 28,16 L28,16 C34.627417,16 40,12.418278 40,8" id="default_Nose" fill="#000000" />
    </g>
</g>
                <g id="circle_Eyes" transform="translate(0.000000, 8.000000)">
                    
                <g id="eye_roll_Eyes/Eye-Roll-ðŸ™„" stroke="none" stroke-width="1" fill="none" fill-rule="evenodd">
        <circle id="eye_roll_Eyeball" fill="#FFFFFF" cx="30" cy="22" r="14" />
        <circle id="eye_roll_The-white-stuff" fill="#FFFFFF" cx="82" cy="22" r="14" />
        <circle id="eye_roll_Eye" fill-opacity="0.699999988" fill="#000000" cx="30" cy="14" r="6" />
        <circle id="eye_roll_Eye" fill-opacity="0.699999988" fill="#000000" cx="82" cy="14" r="6" />
    </g>
</g>
                <g id="circle_Eyebrow" fill-opacity="0.599999964">
                    
                <g id="sad_concerned_Eyebrow/Outline/Sad-Concerned" stroke="none" stroke-width="1" fill="none" fill-rule="evenodd" fill-opacity="0.599999964">
        <path d="M15.9726042,19.4088529 C17.452356,11.0203704 30.0622688,5.22829657 39.2106453,8.9774793 C40.2254706,9.39337449 41.4016967,8.94600219 41.8378196,7.97824531 C42.2739426,7.01048842 41.8048116,5.88881678 40.7899862,5.47292159 C29.3457328,0.782843812 13.9550264,7.85221132 12.0280273,18.7760684 C11.84479,19.8148122 12.5792704,20.798534 13.6685352,20.9732726 C14.7578,21.1480113 15.7893668,20.4475967 15.9726042,19.4088529 Z" id="sad_concerned_Eyebrow" fill="#000000" fill-rule="nonzero" transform="translate(27.000414, 12.500000) scale(-1, -1) translate(-27.000414, -12.500000) " />
        <path d="M73.9726042,19.4088529 C75.452356,11.0203704 88.0622688,5.22829657 97.2106453,8.9774793 C98.2254706,9.39337449 99.4016967,8.94600219 99.8378196,7.97824531 C100.273943,7.01048842 99.8048116,5.88881678 98.7899862,5.47292159 C87.3457328,0.782843812 71.9550264,7.85221132 70.0280273,18.7760684 C69.84479,19.8148122 70.5792704,20.798534 71.6685352,20.9732726 C72.7578,21.1480113 73.7893668,20.4475967 73.9726042,19.4088529 Z" id="sad_concerned_Eyebrow" fill="#000000" fill-rule="nonzero" transform="translate(85.000414, 12.500000) scale(1, -1) translate(-85.000414, -12.500000) " />
    </g>
</g>
            </g>
            <g id="circle_Top">
                
            <defs>
        <path d="M58,1 C115,0.274362825 115.719178,53.7019177 115,64 C114.653144,65.488448 113.327244,65.2226722 113,64 C113.46274,62.445722 109.704055,35.2480719 100,28 C98.2407597,26.7763806 92.7529656,25.6102528 85.359342,24.7391156 L89,16 L82.01872,24.3785401 C74.9866735,23.6847668 66.6576417,23.2514723 58.3126144,23.245568 C39.0082164,23.2319099 19.618222,25.4833872 16,28 C6.29594493,35.2480719 2.53726005,62.445722 3,64 C2.67275588,65.2226722 1.34685629,65.488448 1,64 C0.280821545,53.7019177 1,1.72563718 58,1 Z" id="caesar_side_part_path-1" />
    </defs>
    <g id="caesar_side_part_Top/Short-Hair/The-Caesar-+-Side-Part" stroke="none" stroke-width="1" fill="none" fill-rule="evenodd">
        <g id="caesar_side_part_Facial-Hair" transform="translate(49.000000, 72.000000)" />
        <g id="caesar_side_part_Hair" transform="translate(75.000000, 34.000000)">
            <mask id="caesar_side_part_mask-2" fill="white">
                <use xlink:href="#caesar_side_part_path-1" />
            </mask>
            <use id="caesar_side_part_Caesar" fill="#28354B" xlink:href="#caesar_side_part_path-1" />
            <g id="caesar_side_part_Hair-Color" mask="url(#caesar_side_part_mask-2)" fill="#E8E1E1">
                <g transform="translate(-74.000000, -34.000000)" id="caesar_side_part_Color">
                    <rect x="0" y="0" width="264" height="280" />
                </g>
            </g>
        </g>
        <g id="caesar_side_part_Accessory" transform="translate(62.000000, 85.000000)" />
    </g>
</g>
        </g>
    </g>
</svg>