<svg xmlns="http://www.w3.org/2000/svg" xmlns:xlink="http://www.w3.org/1999/xlink" width="264px" height="280px" viewBox="0 0 264 280" version="1.1">
    <title id="circle_Title">Avataaar/Circle</title>
    <desc>Created with python_avatars</desc>
    <defs>
        <circle id="circle_path-1" cx="120" cy="120" r="120" />
        <path d="M-3.19744231e-14,160 L-3.19744231e-14,-1.42108547e-14 L264,-1.42108547e-14 L264,160 L252,160 C252,226.27417 198.27417,280 132,280 C65.72583,280 12,226.27417 12,160 L12,160 L-3.19744231e-14,160 Z" id="circle_path-3" />
        <path d="M100,0 C130.927946,-5.68137151e-15 156,25.072054 156,56 L156.000809,62.1660527 C161.675838,63.1185422 166,68.05429 166,74 L166,88 C166,94.0524166 161.519235,99.0582945 155.693975,99.8813638 C153.627928,119.686472 141.237929,136.421678 124.001014,144.610469 L124,163 L128,163 C167.764502,163 200,195.235498 200,235 L200,244 L0,244 L0,235 C-4.86974701e-15,195.235498 32.235498,163 72,163 L76,163 L75.9999836,144.610943 C58.7625487,136.422324 46.3721119,119.686854 44.3051107,99.8809698 C38.480765,99.0582945 34,94.0524166 34,88 L34,74 C34,68.053942 38.3246685,63.1179645 44.0001873,62.1658855 L44,56 C44,25.072054 69.072054,5.68137151e-15 100,0 Z" id="circle_path-5" />
        <path d="M83,36.3476251 C83,52.6289957 105.161905,65.8276544 132.5,65.8276544 C159.838095,65.8276544 182,52.6289957 182,36.3476251 C182,34.9853134 181.844841,33.6445843 181.544472,32.3313638 C210.784239,41.4879251 232,68.792221 232,101.051724 L232,110 L32,110 L32,101.051724 C32,68.3970853 53.7386736,40.8197864 83.5337207,32.0021267 C83.1821692,33.4207025 83,34.871494 83,36.3476251 Z" id="circle_path-7" />
        <rect id="circle_path-9" x="0" y="0" width="264" height="280" />
        <path d="M74,0 C114.869071,0 148,33.1309285 148,74 L148,84.1482318 L148,197.608051 C135.525121,187.236892 119.490913,181 102,181 L102,181 L98,181 L98,162.610951 C115.530782,154.282984 128.048193,137.114792 129.791419,116.867187 C135.569129,116.002364 140,111.018625 140,105 L140,105 L140,92 C140,87.3536213 137.359271,83.3240177 133.496777,81.3301515 C132.723933,81.0500337 131.951808,80.748163 131.180891,80.4262497 C130.794819,80.3202581 130.400778,80.2331546 130,80.1659169 L130,80.1659169 L130.000458,79.9172528 C117.224481,74.2339715 104.877985,63.0706967 96.1104311,47.8848473 C93.1752556,42.8009742 90.8310687,37.5951441 89.0661426,32.3970356 C80.4313947,42.9409152 67.7445474,53.6023901 52.3415164,62.4953343 C42.777598,68.0170651 33.1467898,72.2910056 24,75.2659587 L24.0003852,137.246608 C29.6019576,148.318362 38.7728825,157.277529 50,162.610951 L50,162.610951 L50,181 L46,181 C38.3273639,181 30.9350359,182.200142 24.0004995,184.422941 L24,230 C24,244.105888 13.5691766,255.775526 0,257.716445 L0,74 C0,33.1309285 33.1309285,0 74,0 Z" id="circle_path-11" />
    </defs>
    <g id="circle_Avataaar/Circle" stroke="none" stroke-width="1" fill="none" fill-rule="evenodd">
        <g id="circle_Circle" transform="translate(12.000000, 40.000000)">
            <mask id="circle_mask-2" fill="white">
                <use xlink:href="#circle_path-1" />
            </mask>
            <use id="circle_Background-Color" fill="rgba(0,0,0,0.0" xlink:href="#circle_path-1" />
            <g id="circle_Fabric-Color" mask="url(#circle_mask-2)" fill="">
                <rect id="circle_ðŸ–Color" x="0" y="0" width="240" height="240" />
            </g>
        </g>
        <mask id="circle_mask-4" fill="white">
            <use xlink:href="#circle_path-3" />
        </mask>
        <g id="circle_Mask" />
        <g id="circle_Avataaar" mask="url(#circle_mask-4)">
            <g id="circle_Body" transform="translate(32.000000, 36.000000)">
                <mask id="circle_mask-6" fill="white">
                    <use xlink:href="#circle_path-5" />
                </mask>
                <use fill="#D0C6AC" xlink:href="#circle_path-5" />
                <g id="circle_Skin-Color" mask="url(#circle_mask-6)" fill="#F8D25C">
                    <g transform="translate(-32.000000, 0.000000)" id="circle_Color">
                        <rect x="0" y="0" width="264" height="244" />
                    </g>
                </g>
                <path d="M44,94 C44,124.927946 69.072054,150 100,150 C130.927946,150 156,124.927946 156,94 L156,94 L156,102 C156,132.927946 130.927946,158 100,158 C69.072054,158 44,132.927946 44,102 Z" id="circle_Neck-Shadow" fill-opacity="0.100000001" fill="#000000" mask="url(#circle_mask-6)" />
            </g>
            <g id="circle_Clothing" transform="translate(0.000000, 170.000000)">
                
            <defs>
        <path d="M160,29.0517235 C199.764502,29.0517235 232,61.2872215 232,101.051724 L232,110 L32,110 L32,101.051724 C32,61.2872215 64.235498,29.0517235 104,29.0517235 L105.192363,29.0520252 C105.065349,30.0355191 105,31.0365551 105,32.0517235 C105,45.8588423 117.088312,57.0517235 132,57.0517235 C146.911688,57.0517235 159,45.8588423 159,32.0517235 C159,31.0365551 158.934651,30.0355191 158.807637,29.0520252 L160,29.0517235 Z" id="blazer_sweater_path-1" />
    </defs>
    <g id="blazer_sweater_Clothing/Blazer-+-Sweater" stroke="none" stroke-width="1" fill="none" fill-rule="evenodd">
        <mask id="blazer_sweater_mask-2" fill="white">
            <use xlink:href="#blazer_sweater_path-1" />
        </mask>
        <use id="blazer_sweater_Clothes" fill="#E6E6E6" xlink:href="#blazer_sweater_path-1" />
        <g id="blazer_sweater_Fabric-Color" mask="url(#blazer_sweater_mask-2)" fill="#A7FFC4">
            <rect id="blazer_sweater_ðŸ–Color" x="0" y="0" width="264" height="110" />
        </g>
        <g id="blazer_sweater_Blazer" transform="translate(32.000000, 28.000000)">
            <path d="M64,40.5 C64,55.7092257 65.9608691,69.9209213 69.3620096,82.0011822 L0,82 L0,73.0517235 C-4.73779789e-15,34.3646678 30.512279,2.80413671 68.7847355,1.12223161 C65.7400343,12.7307619 64,26.1727873 64,40.5 Z M200,73.0517235 L200,82 L131.63799,82.0011822 C135.039131,69.9209213 137,55.7092257 137,40.5 C137,26.194165 135.265154,12.7708778 132.228695,1.1737534 C170.025091,3.36299447 200,34.7068514 200,73.0517235 Z" id="blazer_sweater_Saco" fill="#3A4C5A" />
            <path d="M149,58 L158.555853,50.83311 C159.998897,49.7508275 161.987779,49.7682725 163.411616,50.8757011 L170,56 L170,56 L149,58 Z" id="blazer_sweater_Pocket-hanky" fill="#E6E6E6" />
            <path d="M69,0 C65,19.3333333 66.6666667,46.6666667 74,82 L58,82 L44,46 L50,37 L44,31 L63,1 C65.027659,0.369238637 67.027659,0.0359053037 69,0 Z" id="blazer_sweater_Wing" fill="#2F4351" />
            <path d="M151,0 C147,19.3333333 148.666667,46.6666667 156,82 L140,82 L126,46 L132,37 L126,31 L145,1 C147.027659,0.369238637 149.027659,0.0359053037 151,0 Z" id="blazer_sweater_Wing" fill="#2F4351" transform="translate(141.000000, 41.000000) scale(-1, 1) translate(-141.000000, -41.000000) " />
        </g>
        <path d="M167,39.8878801 C167,47.2887654 162.572022,53.9447584 155.520121,58.5564834 L149.58,53.8760062 L145,54.207887 L146,51.0567821 L145.92205,50.9956082 C152.022413,47.8531513 156,42.7004148 156,36.8768102 L156.000381,21.539265 C162.772478,26.1362012 167,32.6564553 167,39.8878801 Z M118.07795,50.9956082 L118,51.0567821 L119,54.207887 L114.419,53.8760062 L108.479879,58.5564834 C101.427978,53.9447584 97,47.2887654 97,39.8878801 C97,32.6560965 101.227942,26.1355541 108.000627,21.5385807 L108,36.8768102 C108,42.7004148 111.977587,47.8531513 118.07795,50.9956082 Z" id="blazer_sweater_Collar" fill="#F2F2F2" />
    </g>
</g>
            <g id="circle_Face" transform="translate(76.000000, 82.000000)" fill="#000000">
                <g id="circle_Mouth" transform="translate(2.000000, 52.000000)">    
                    
                <g id="sad_Mouth/Sad" stroke="none" stroke-width="1" fill="none" fill-rule="evenodd" fill-opacity="0.699999988">
        <path d="M40.0582943,16.6539438 C40.7076459,23.6831146 46.7016363,28.3768187 54,28.3768187 C61.3416045,28.3768187 67.3633339,23.627332 67.9526838,16.5287605 C67.9840218,16.1513016 67.0772329,15.8529531 66.6289111,16.077395 C61.0902255,18.8502083 56.8805885,20.2366149 54,20.2366149 C51.1558456,20.2366149 47.0072148,18.8804569 41.5541074,16.168141 C41.0473376,15.9160792 40.0197139,16.2363147 40.0582943,16.6539438 Z" id="sad_Mouth" fill="#000000" transform="translate(54.005357, 22.188409) scale(1, -1) translate(-54.005357, -22.188409) " />
    </g>
</g>
                <g id="circle_Nose" transform="translate(28.000000, 40.000000)" fill-opacity="0.16">
                    
                <g id="default_Nose/Default" stroke="none" stroke-width="1" fill="none" fill-rule="evenodd" fill-opacity="0.16">
        <path d="M16,8 C16,12.418278 21.372583,16 28,16 L28,16 C34.627417,16 40,12.418278 40,8" id="default_Nose" fill="#000000" />
    </g>
</g>
                <g id="circle_Eyes" transform="translate(0.000000, 8.000000)">
                    
                <g id="closed_Eyes/Closed-ðŸ˜Œ" stroke="none" stroke-width="1" fill="none" fill-rule="evenodd" fill-opacity="0.599999964">
        <path d="M16.1601674,32.4473116 C18.006676,28.648508 22.1644225,26 26.9975803,26 C31.8136766,26 35.9591217,28.629842 37.8153518,32.4071242 C38.3667605,33.5291977 37.5821037,34.4474817 36.790607,33.7670228 C34.3395063,31.6597833 30.8587163,30.3437884 26.9975803,30.3437884 C23.2572061,30.3437884 19.8737584,31.5787519 17.4375392,33.5716412 C16.5467928,34.3002944 15.6201012,33.5583844 16.1601674,32.4473116 Z" id="closed_Closed-Eye" fill="#000000" transform="translate(27.000000, 30.000000) scale(1, -1) translate(-27.000000, -30.000000) " />
        <path d="M74.1601674,32.4473116 C76.006676,28.648508 80.1644225,26 84.9975803,26 C89.8136766,26 93.9591217,28.629842 95.8153518,32.4071242 C96.3667605,33.5291977 95.5821037,34.4474817 94.790607,33.7670228 C92.3395063,31.6597833 88.8587163,30.3437884 84.9975803,30.3437884 C81.2572061,30.3437884 77.8737584,31.5787519 75.4375392,33.5716412 C74.5467928,34.3002944 73.6201012,33.5583844 74.1601674,32.4473116 Z" id="closed_Closed-Eye" fill="#000000" transform="translate(85.000000, 30.000000) scale(1, -1) translate(-85.000000, -30.000000) " />
    </g>
</g>
                <g id="circle_Eyebrow" fill-opacity="0.599999964">
                    
                <g id="up_down_natural_Eyebrow/Natural/Up-Down-Natural" stroke="none" stroke-width="1" fill="none" fill-rule="evenodd" fill-opacity="0.599999964">
        <path d="M22.7663531,1.57844898 L23.6772984,1.17582144 C28.9190996,-0.905265751 36.8645466,-0.0328729562 41.7227321,2.29911638 C42.2897848,2.57148957 41.9021563,3.4519421 41.3211012,3.40711006 C26.4021788,2.25602197 16.3582869,11.5525942 12.9460869,17.8470939 C12.8449215,18.0337142 12.5391523,18.05489 12.4635344,17.8808353 C10.156283,12.5620676 16.9134476,3.89614725 22.7663531,1.57844898 Z" id="up_down_natural_Eye-Browse-Reddit" fill="#000000" />
        <path d="M86.535177,12.0246305 C92.3421916,12.2928751 101.730304,16.5124899 101.488432,22.3684172 C101.480419,22.5600881 101.1989,22.6442368 101.06135,22.496811 C98.306449,19.5374968 78.7459953,16.5471364 71.8564209,18.1317995 C71.2258949,18.2770375 70.7468448,17.6550104 71.1462176,17.2056651 C74.5683263,13.3574126 81.3327077,11.7792465 86.535177,12.0246305 Z" id="up_down_natural_Eyebrow" fill="#000000" transform="translate(86.246508, 17.285912) rotate(5.000000) translate(-86.246508, -17.285912) " />
    </g>
</g>
            </g>
            <g id="circle_Top">
                
            <defs>
        <path d="M58,1 C115,0.274362825 115.719178,53.7019177 115,64 C114.653144,65.488448 113.327244,65.2226722 113,64 C113.46274,62.445722 109.704055,35.2480719 100,28 C98.2407597,26.7763806 92.7529656,25.6102528 85.359342,24.7391156 L89,16 L82.01872,24.3785401 C74.9866735,23.6847668 66.6576417,23.2514723 58.3126144,23.245568 C39.0082164,23.2319099 19.618222,25.4833872 16,28 C6.29594493,35.2480719 2.53726005,62.445722 3,64 C2.67275588,65.2226722 1.34685629,65.488448 1,64 C0.280821545,53.7019177 1,1.72563718 58,1 Z" id="caesar_side_part_path-1" />
    </defs>
    <g id="caesar_side_part_Top/Short-Hair/The-Caesar-+-Side-Part" stroke="none" stroke-width="1" fill="none" fill-rule="evenodd">
        <g id="caesar_side_part_Facial-Hair" transform="translate(49.000000, 72.000000)" />
        <g id="caesar_side_part_Hair" transform="translate(75.000000, 34.000000)">
            <mask id="caesar_side_part_mask-2" fill="white">
                <use xlink:href="#caesar_side_part_path-1" />
            </mask>
            <use id="caesar_side_part_Caesar" fill="#28354B" xlink:href="#caesar_side_part_path-1" />
            <g id="caesar_side_part_Hair-Color" mask="url(#caesar_side_part_mask-2)" fill="#F59797">
                <g transform="translate(-74.000000, -34.000000)" id="caesar_side_part_Color">
                    <rect x="0" y="0" width="264" height="280" />
                </g>
            </g>
        </g>
        <g id="caesar_side_part_Accessory" transform="translate(62.000000, 85.000000)"><defs>
        <path d="M83.4984286,93.8410391 C72.1241067,94.2191416 67.0502492,99.7213834 63.2291365,94.1296214 C60.3611827,89.9323547 61.5611932,82.8739117 64.2409566,78.9027173 C68.0539313,73.2512381 73.2266239,75.9847769 79.010342,75.3400279 C80.5830033,75.1648137 82.1627854,74.7228407 83.4984286,74 C84.8340717,74.7228407 86.4135147,75.1648137 87.986176,75.3400279 C93.7702332,75.9847769 98.9425868,73.2512381 102.755901,78.9027173 C105.435325,82.8739117 106.635335,89.9323547 103.767382,94.1296214 C99.9462689,99.7213834 94.8727504,93.4629366 83.4984286,93.8410391 Z M138.719768,26 C135.335967,40.0748212 133.781202,54.4337754 131.327683,68.6711471 C130.816435,71.6390145 130.256705,74.5963095 129.662396,77.5496398 C129.537635,78.1697764 129.414569,80.4725746 128.810767,80.7643064 C126.981731,81.6484223 123.254159,76.9466834 122.257428,75.8851496 C119.754073,73.219256 117.272077,70.5292442 114.223231,68.437233 C108.062822,64.2102603 100.85042,61.7108818 93.3454397,61.117837 C90.2053971,60.8693859 85.9594573,61.3025234 83.0001146,63.1104016 C80.0407719,61.3025234 75.7948321,60.8693859 72.6544504,61.117837 C65.1494705,61.7108818 57.9370685,64.2102603 51.7766588,68.437233 C48.7278137,70.5292442 46.2461561,73.219256 43.742462,75.8851496 C42.7457307,76.9466834 39.018159,81.6484223 37.1891231,80.7643064 C36.5853209,80.4725746 36.4622551,78.1697764 36.3374942,77.5496398 C35.7431847,74.5963095 35.1834557,71.6390145 34.6722071,68.6711471 C32.2190276,54.4337754 30.6642623,40.0748212 27.2804612,26 C26.2959348,26 25.432101,44.7478165 25.3222572,46.4945731 C24.8750842,53.5889755 24.3529868,60.5254529 25.0201865,67.6261326 C26.1704958,79.8749043 27.3696246,95.2339402 36.5917624,104.58753 C44.9246396,113.039493 57.0232778,114.806417 67.4585647,120.141327 C68.8021178,120.828202 70.5843683,121.676306 72.5062968,122.37111 C74.5309497,123.934171 78.546353,125 83.1719999,125 C88.024115,125 92.2046231,123.827456 94.1201102,122.137856 C95.8006534,121.49261 97.3452479,120.752874 98.5413255,120.141327 C108.975814,114.805245 121.075251,113.039493 129.408128,104.58753 C138.630266,95.2339402 139.829394,79.8749043 140.980043,67.6261326 C141.646903,60.5254529 141.124806,53.5889755 140.677972,46.4945731 C140.567789,44.7478165 139.703955,26 138.719768,26 Z" id="eyepatch_path-1" />
    </defs>
    <g id="eyepatch_Top/Accesories/Eyepatch" stroke="none" stroke-width="1" fill="none" fill-rule="evenodd" transform="translate(-62 -85)">
        <path d="M160.395307,39.7810237 C157.318088,36.6927979 154.11865,43.6386608 152.623361,45.4281124 C149.013122,49.7486528 145.540256,54.182935 141.868413,58.4518947 C134.616309,66.8823544 127.439316,75.3743141 120.233991,83.8401528 C119.140279,85.1257012 119.27271,85.2649028 117.837048,85.3885641 C116.88598,85.4708947 115.563312,84.9802173 114.5737,84.9256608 C111.823607,84.774556 109.112057,85.2348141 106.435756,85.8227012 C101.091389,86.9961608 95.4264863,88.9291124 90.7890799,91.898306 C89.5718308,92.677306 88.7874545,93.5971608 87.4670933,93.841177 C86.3183659,94.0534512 84.794416,93.6295641 83.622299,93.5194592 C81.5412806,93.3237173 78.5378542,92.4726366 76.4953793,92.9137173 C73.9027538,93.4738302 72.9174244,96.6109915 75.5604528,98.0003624 C77.570314,99.0564431 81.5706,98.4761608 83.8235816,98.6447899 C86.3971,98.8372253 85.6120649,98.704306 85.2473843,101.164306 C84.7239177,104.69758 85.5985582,108.646475 87.0885766,111.878201 C90.5482655,119.383185 100.122861,127.335201 108.8551,126.603153 C116.142123,125.992451 122.526834,119.413274 125.519389,113.099935 C127.050916,109.868871 127.954546,106.192096 128.250376,102.628403 C128.438811,100.36183 128.333722,97.9580399 127.684083,95.7632173 C127.362888,94.6783705 126.853916,93.5554995 126.308378,92.5695157 C125.866281,91.7710076 123.908799,89.9203866 123.788886,89.1165882 C123.556307,87.5602415 127.973324,83.3874995 128.816339,82.3443141 C132.788953,77.4276205 136.780344,72.5320882 140.721662,67.5889431 C144.603353,62.7201931 148.506456,57.8640076 152.489612,53.0785802 C154.294237,50.9098786 163.318023,42.7148382 160.395307,39.7810237" id="eyepatch_Badass-Eyepatch" fill="#28354B" />
    </g>
</g>
    </g>
</g>
        </g>
    </g>
</svg>