<svg xmlns="http://www.w3.org/2000/svg" xmlns:xlink="http://www.w3.org/1999/xlink" width="264px" height="280px" viewBox="0 0 264 280" version="1.1">
    <title id="transparent_Title">Avataaar/Default</title>
    <desc>Created with python_avatars</desc>
    <defs>
        <path d="M100,0 C130.927946,-5.68137151e-15 156,25.072054 156,56 L156.000809,62.1660527 C161.675838,63.1185422 166,68.05429 166,74 L166,88 C166,94.0524166 161.519235,99.0582945 155.693975,99.8813638 C153.627928,119.686472 141.237929,136.421678 124.001014,144.610469 L124,163 L128,163 C167.764502,163 200,195.235498 200,235 L200,244 L0,244 L0,235 C-4.86974701e-15,195.235498 32.235498,163 72,163 L76,163 L75.9999836,144.610943 C58.7625487,136.422324 46.3721119,119.686854 44.3051107,99.8809698 C38.480765,99.0582945 34,94.0524166 34,88 L34,74 C34,68.053942 38.3246685,63.1179645 44.0001873,62.1658855 L44,56 C44,25.072054 69.072054,5.68137151e-15 100,0 Z" id="transparent_path-1" />
        <path d="M83,36.3476251 C83,52.6289957 105.161905,65.8276544 132.5,65.8276544 C159.838095,65.8276544 182,52.6289957 182,36.3476251 C182,34.9853134 181.844841,33.6445843 181.544472,32.3313638 C210.784239,41.4879251 232,68.792221 232,101.051724 L232,110 L32,110 L32,101.051724 C32,68.3970853 53.7386736,40.8197864 83.5337207,32.0021267 C83.1821692,33.4207025 83,34.871494 83,36.3476251 Z" id="transparent_path-3" />
        <rect id="transparent_path-5" x="0" y="0" width="264" height="280" />
        <path d="M74,0 C114.869071,0 148,33.1309285 148,74 L148,84.1482318 L148,197.608051 C135.525121,187.236892 119.490913,181 102,181 L102,181 L98,181 L98,162.610951 C115.530782,154.282984 128.048193,137.114792 129.791419,116.867187 C135.569129,116.002364 140,111.018625 140,105 L140,105 L140,92 C140,87.3536213 137.359271,83.3240177 133.496777,81.3301515 C132.723933,81.0500337 131.951808,80.748163 131.180891,80.4262497 C130.794819,80.3202581 130.400778,80.2331546 130,80.1659169 L130,80.1659169 L130.000458,79.9172528 C117.224481,74.2339715 104.877985,63.0706967 96.1104311,47.8848473 C93.1752556,42.8009742 90.8310687,37.5951441 89.0661426,32.3970356 C80.4313947,42.9409152 67.7445474,53.6023901 52.3415164,62.4953343 C42.777598,68.0170651 33.1467898,72.2910056 24,75.2659587 L24.0003852,137.246608 C29.6019576,148.318362 38.7728825,157.277529 50,162.610951 L50,162.610951 L50,181 L46,181 C38.3273639,181 30.9350359,182.200142 24.0004995,184.422941 L24,230 C24,244.105888 13.5691766,255.775526 0,257.716445 L0,74 C0,33.1309285 33.1309285,0 74,0 Z" id="transparent_path-7" />
    </defs>
    <g id="transparent_Avataaar/Default" stroke="none" stroke-width="1" fill="none" fill-rule="evenodd">
        <g id="transparent_Body" transform="translate(32.000000, 36.000000)">
            <mask id="transparent_mask-2" fill="white">
                <use xlink:href="#transparent_path-1" />
            </mask>
            <use fill="#D0C6AC" xlink:href="#transparent_path-1" />
            <g id="transparent_Skin-Color" mask="url(#transparent_mask-2)" fill="#D08B5B">
                <g transform="translate(-32.000000, 0.000000)" id="transparent_Color">
                    <rect x="0" y="0" width="264" height="244" />
                </g>
            </g>
            <path d="M44,94 C44,124.927946 69.072054,150 100,150 C130.927946,150 156,124.927946 156,94 L156,94 L156,102 C156,132.927946 130.927946,158 100,158 C69.072054,158 44,132.927946 44,102 Z" id="transparent_Neck-Shadow" fill-opacity="0.100000001" fill="#000000" mask="url(#transparent_mask-2)" />
        </g>
        <g id="transparent_Clothing" transform="translate(0.000000, 170.000000)">
            
        <defs>
        <path d="M99,32.5 C99,44.3741221 113.998461,54 132.5,54 C151.001539,54 166,44.3741221 166,32.5 C166,31.4019929 165.871751,30.3232102 165.624342,29.2694852 C202.75978,32.1370674 232,63.1796858 232,101.051724 L232,110 L32,110 L32,101.051724 C32,62.8342194 61.7761079,31.571298 99.3946469,29.196636 C99.1341902,30.2738104 99,31.3768477 99,32.5 Z" id="graphic_shirt_path-1" />
    </defs>
    <g id="graphic_shirt_Clothing/Graphic-Shirt" stroke="none" stroke-width="1" fill="none" fill-rule="evenodd">
        <mask id="graphic_shirt_mask-2" fill="white">
            <use xlink:href="#graphic_shirt_path-1" />
        </mask>
        <use id="graphic_shirt_Clothes" fill="#E6E6E6" xlink:href="#graphic_shirt_path-1" />
        <g id="graphic_shirt_Fabric-Color" mask="url(#graphic_shirt_mask-2)" fill="#E6E6E6">
            <rect id="graphic_shirt_ðŸ–Color" x="0" y="0" width="264" height="110" />
        </g>
        <g id="graphic_shirt_Graphic" fill="#FFFFFF" transform="translate(77.000000, 58.000000)">
        <g id="resist_Clothing/Graphic/Resist" stroke="none" stroke-width="1" fill="none" fill-rule="evenodd">
        <g id="resist_Resist" transform="translate(3.000000, 9.000000)" fill="#FFFFFF">
            <path d="M102.565245,21.0710109 C99.4833509,20.4054313 97.3728781,24.6059197 100.65303,25.85541 C103.46796,26.9271503 105.497722,21.7103865 102.565245,21.0710109" id="resist_!" />
            <path d="M101.191001,18 C104.847558,18 103.499462,12.0185653 103.512139,10.034892 C103.52569,7.89835492 105.057378,1.43936922 102.622588,0.300988793 C98.4060734,-1.67043963 99.5622709,6.62567562 99.5876242,8.26886181 C99.6156003,10.0850565 99.7546063,11.9885455 99.3594446,13.7770905 C99.009744,15.3574722 98.2303489,18 101.191001,18" id="resist_H" />
            <path d="M96.057932,1.97392328 C94.9756601,1.35173361 93.2567577,1.65427333 92.0711316,1.60022061 C90.7220251,1.53916824 89.3807782,1.40539746 88.0356015,1.30662485 C85.8592683,1.14718875 83.080101,0.743543202 80.9175222,1.23857286 C79.6922049,1.51933595 78.5800664,2.46389764 79.1565707,3.84671419 C79.777482,5.33646958 81.4602301,4.95187859 82.7370279,4.87682696 C83.3217848,4.84221766 84.7703158,4.58750876 85.3421043,4.78816493 C86.3390991,5.13853549 85.9154647,4.67967061 86.1430012,5.85522022 C86.491969,7.66229234 86.2825097,9.85512207 86.2675764,11.6929148 C86.2420326,14.8668599 86.2322081,18.0567485 86.1650082,21.2287493 C86.1386784,22.4645735 85.7244756,23.8606116 86.9218911,24.6768466 C87.9196719,25.3569777 89.1379155,24.9023904 89.6550795,23.8835548 C90.1694927,22.8705522 89.6806234,20.8169375 89.6259989,19.6876632 C89.5599779,18.3406226 89.4900272,17.0122476 89.5293254,15.6628738 C89.6330726,12.0775058 89.8110933,8.49563763 89.8971563,4.90910305 C90.8399197,4.95537841 91.8188373,4.92737987 92.7525621,5.05842857 C93.4359574,5.15409023 94.4184119,5.59351169 95.0754775,5.55890239 C96.9743656,5.45818543 97.7689748,2.97175996 96.057932,1.97392328" id="resist_C" />
            <path d="M67.7216119,8.81264097 C67.7100258,8.75972031 67.6397369,8.1691564 67.7216119,8.81264097 M67.6853088,8.53730013 C67.6887847,8.56222653 67.685695,8.5449698 67.6853088,8.53730013 M69.1169633,5.42725256 C72.533315,1.44593148 73.7004204,9.77441647 76.3625176,9.42199554 C80.623109,8.85827545 75.4217272,2.46944776 73.6942412,1.64649312 C70.1786354,-0.0289443454 67.0886252,1.72587411 65.4167525,4.9126183 C63.3188978,8.91234656 64.6466637,11.6208874 68.6751471,13.3572987 C70.1461943,13.9915796 75.714469,15.8848355 74.2051877,18.3157346 C73.4451402,19.5398125 70.6791544,19.6445033 69.5047111,19.402142 C67.1492591,18.916269 67.5161519,17.3159942 66.3699015,15.8288469 C65.3371947,14.4885737 63.3397528,14.8820273 63.028087,16.6100019 C62.7828481,17.9675319 64.198282,20.0348891 65.1433208,20.9897619 C67.3759602,23.2457927 71.1831493,23.4271802 74.0298516,22.3998291 C78.4155727,20.816811 78.9473743,16.6909168 75.8357368,13.4953526 C74.0870096,11.6995014 71.9026455,11.154572 69.7225296,10.0773681 C67.0781977,8.7712248 67.5725376,7.68673472 69.1169633,5.42725256" id="resist_A" />
            <path d="M58.749962,20.5676943 C58.1855671,15.7434329 58.0538346,10.8505093 57.9696387,6.00460433 C57.9426476,4.45075032 58.6758373,0.798596322 56.5169562,0.139962235 C53.6023258,-0.749287073 53.9890632,2.83233897 54.0502966,4.30372379 C54.255348,9.21679823 54.8922562,14.0929294 55.1210758,19.0000333 C55.193992,20.5568726 54.6924419,23.5739018 56.9520358,23.9463193 C59.7027058,24.4000865 58.9598476,21.8648117 58.749962,20.5676943" id="resist_E" />
            <path d="M49.4716454,4.67909741 C47.1120678,1.521124 42.3181606,1.01110068 39.382093,3.92183601 C37.3101733,5.97595969 36.00495,10.8410892 37.9661116,13.3252251 C40.0904751,16.016404 45.3211527,13.6574039 46.6913436,16.7080638 C48.3726748,20.4511421 43.9611374,21.8560762 41.6168232,19.3708027 C40.7738094,18.4774087 40.9581453,16.917382 39.7163241,16.3637507 C37.9539791,15.5788077 36.853443,17.2916519 37.2001979,18.7227508 C38.0479082,22.2235205 41.8524287,24.1130716 45.3011927,23.9947614 C49.0689244,23.8650751 50.7028996,21.0184245 50.4641631,17.5957699 C50.1342371,12.8603265 46.4792204,12.1186123 42.4747091,11.597213 C40.7761576,11.3761397 40.5534673,11.3966165 40.6583549,9.64547322 C40.7855505,7.52650643 42.0277631,5.07763608 44.6491681,5.58159221 C46.7551372,5.98657727 46.942604,9.15327227 49.1037564,9.30040167 C52.5998763,9.53853896 50.3604497,5.86712943 49.4716454,4.67909741" id="resist_P" />
            <path d="M31.7209696,20.4381695 C30.3835461,20.7580967 28.7579173,20.5355712 27.3944988,20.5112208 C26.3407598,20.4924897 22.8201338,20.9379153 22.1329619,20.2148947 C21.3727026,19.4150766 21.6202201,16.9680453 21.5881973,15.9288437 C21.5422351,14.4753101 21.1839563,14.2599024 22.4595946,13.9298603 C23.2085518,13.7361807 24.3674009,13.8332078 25.1415996,13.7976187 C26.6572206,13.727939 28.606845,14.008531 30.0716062,13.7099572 C31.4414292,13.4304891 32.5739067,11.958599 31.3223797,10.7058628 C30.4355361,9.81763391 28.7797682,10.2949024 27.6909924,10.3200021 C25.6573553,10.3664552 23.6222112,10.3555912 21.5881973,10.3915549 C21.5964855,8.82376157 21.5448723,7.2454788 21.6669357,5.68105705 C24.5143291,5.82154032 27.4788884,6.56329201 30.3255283,6.42655496 C31.766555,6.35724988 33.3654353,5.43530497 32.6368221,3.69630934 C32.0121888,2.20606276 30.1149312,2.40985716 28.792954,2.35066687 C27.1398233,2.27611708 25.4848088,2.23790563 23.8313013,2.18096308 C22.6068996,2.13900541 20.8260543,1.73628668 19.6721027,2.28847961 C17.3095724,3.41833976 18.121445,7.29867513 18.1873743,9.39955568 C18.2706336,12.0657409 18.2721406,14.6678658 18.3644416,17.3561538 C18.4484544,19.7885748 18.3271445,22.9972128 21.2159792,23.6808981 C24.1051906,24.364958 27.4611816,23.7142395 30.4084109,23.8565959 C31.6166129,23.9150369 33.2693669,24.2671816 33.8631075,22.8608504 C34.4319834,21.512211 33.1326106,20.086774 31.7209696,20.4381695" id="resist_M" />
            <path d="M8.41021607,5.87934286 C10.7314099,6.38056324 11.3520318,8.89406466 11.4306011,11.0286326 C11.4842397,12.4898438 11.613048,12.4018284 10.4273316,12.768689 C9.23708235,13.1371074 7.50704692,12.9377097 6.28808963,12.8851342 C3.74516418,12.7756991 4.0526421,12.6070678 4.00353629,9.93973422 C3.99220418,9.31505862 3.52947636,6.4362544 3.89625898,6.02967003 C4.37220759,5.5015777 7.73482232,5.8267673 8.41021607,5.87934286 M13.4870013,20.7181143 C12.1966517,19.2140637 10.9010138,17.7773878 9.45277018,16.4318428 C11.6107816,16.3722571 13.9557729,15.9594416 14.7229567,13.6130136 C15.3711534,11.6307201 14.8079476,8.6132722 14.05474,6.74080322 C13.0612917,4.27092005 10.9928039,2.62238402 8.42003723,2.26253349 C6.62389782,2.01172858 2.14242611,1.58956627 0.799948834,2.97327723 C-0.664537495,4.48161175 0.351952758,8.62222952 0.4422319,10.4701632 C0.602014649,13.7411422 0.486049391,16.987586 0.285471047,20.2550599 C0.220500284,21.3096868 -0.296621662,23.0423437 0.243919977,23.9918195 C0.843766325,25.0456674 2.30296434,25.3089347 3.21255502,24.5288691 C4.19693763,23.6845445 3.74176455,22.6513373 3.68132663,21.5678912 C3.58802559,19.8917044 3.75574082,18.1644997 3.85546339,16.4937651 C5.46348977,17.806207 7.10551249,19.0851563 8.61683821,20.5163799 C10.1096548,21.9300785 11.1809169,23.7184265 12.6076296,25.143419 C13.618076,26.1528699 15.4266807,26.5676327 15.9381366,24.6947742 C16.377067,23.0871303 14.3667507,21.7435326 13.4870013,20.7181143" id="resist_I" />
        </g>
    </g>
</g>
    </g>
</g>
        <g id="transparent_Face" transform="translate(76.000000, 82.000000)" fill="#000000">
            <g id="transparent_Mouth" transform="translate(2.000000, 52.000000)">    
                
            <g id="eating_Mouth/Eating" stroke="none" stroke-width="1" fill="none" fill-rule="evenodd">
        <g id="eating_Om-Nom-Nom" opacity="0.599999964" transform="translate(28.000000, 6.000000)" fill="#000000" fill-opacity="0.599999964">
            <path d="M45.7064761,0 C42.3399588,1.95870633 40.0195381,5.49520667 40.0195381,9.67694348 C40.0195381,15.344608 45.4930527,20.2451296 51.8234083,20.2451296 C51.8823878,20.2451296 51.9412524,20.2447983 52,20.244138 C50.6423552,20.7317259 49.1600404,21 47.6077404,21 C42.2861196,21 37.787011,17.8470634 36.3137083,13.513833 C33.8402487,15.6694366 30.1376666,17.0394229 26,17.0394229 C21.8623334,17.0394229 18.1597513,15.6694366 15.6851623,13.5125989 C14.212989,17.8470634 9.71388039,21 4.39225962,21 C2.83995964,21 1.35764479,20.7317259 0,20.244138 C0.0587475828,20.2447983 0.11761218,20.2451296 0.176591694,20.2451296 C6.50694731,20.2451296 11.9804619,15.344608 11.9804619,9.67694348 C11.9804619,5.49520667 9.66004124,1.95870633 6.29352385,0 C11.7918498,0.797121661 16.0171848,4.99477485 16.1905909,10.1049337 C18.754121,11.8420922 22.2048056,12.9056086 26,12.9056086 C29.7951944,12.9056086 33.245879,11.8420922 35.8100516,10.1058522 C35.9828152,4.99477485 40.2081502,0.797121661 45.7064761,0 Z" id="eating_Delicious" />
        </g>
        <circle id="eating_Redish" fill-opacity="0.2" fill="#FF4646" cx="17" cy="15" r="9" />
        <circle id="eating_Redish" fill-opacity="0.2" fill="#FF4646" cx="91" cy="15" r="9" />
    </g>
</g>
            <g id="transparent_Nose" transform="translate(28.000000, 40.000000)" fill-opacity="0.16">
                
            <g id="default_Nose/Default" stroke="none" stroke-width="1" fill="none" fill-rule="evenodd" fill-opacity="0.16">
        <path d="M16,8 C16,12.418278 21.372583,16 28,16 L28,16 C34.627417,16 40,12.418278 40,8" id="default_Nose" fill="#000000" />
    </g>
</g>
            <g id="transparent_Eyes" transform="translate(0.000000, 8.000000)">
                
            <g id="default_Eyes/Default-ðŸ˜€" stroke="none" stroke-width="1" fill="none" fill-rule="evenodd" fill-opacity="0.599999964">
        <circle id="default_Eye" fill="#000000" cx="30" cy="22" r="6" />
        <circle id="default_Eye" fill="#000000" cx="82" cy="22" r="6" />
    </g>
</g>
            <g id="transparent_Eyebrow" fill-opacity="0.599999964">
                
            <g id="sad_concerned_natural_Eyebrow/Natural/Sad-Concerned-Natural" stroke="none" stroke-width="1" fill="none" fill-rule="evenodd" fill-opacity="0.599999964">
        <path d="M22.7663531,5.57844898 L23.6772984,5.17582144 C28.9190996,3.09473425 36.8645466,3.96712704 41.7227321,6.29911638 C42.2897848,6.57148957 41.9021563,7.4519421 41.3211012,7.40711006 C26.4021788,6.25602197 16.3582869,15.5525942 12.9460869,21.8470939 C12.8449215,22.0337142 12.5391523,22.05489 12.4635344,21.8808353 C10.156283,16.5620676 16.9134476,7.89614725 22.7663531,5.57844898 Z" id="sad_concerned_natural_Eyebrow" fill="#000000" transform="translate(27.000000, 13.000000) scale(-1, -1) translate(-27.000000, -13.000000) " />
        <path d="M80.7663531,5.57844898 L81.6772984,5.17582144 C86.9190996,3.09473425 94.8645466,3.96712704 99.7227321,6.29911638 C100.289785,6.57148957 99.9021563,7.4519421 99.3211012,7.40711006 C84.4021788,6.25602197 74.3582869,15.5525942 70.9460869,21.8470939 C70.8449215,22.0337142 70.5391523,22.05489 70.4635344,21.8808353 C68.156283,16.5620676 74.9134476,7.89614725 80.7663531,5.57844898 Z" id="sad_concerned_natural_Eyebrow" fill="#000000" transform="translate(85.000000, 13.000000) scale(1, -1) translate(-85.000000, -13.000000) " />
    </g>
</g>
        </g>
        <g id="transparent_Top">
            
        <g id="no_hair_Top/-No-Hair" stroke="none" stroke-width="1" fill="none" fill-rule="evenodd">
        <g id="no_hair_Facial-Hair" transform="translate(49.000000, 72.000000)"><defs>
        <path d="M105.612044,67.1316942 C111.386129,69.3374281 116.495271,75.5829845 125.36175,72.8283797 C125.730639,72.7136458 126.091098,73.0449523 125.980498,73.408662 C124.607113,77.9183313 116.972736,81.0068878 114.378714,81.1080652 C103.039714,81.5495987 93.9060174,72.8306951 84.0009784,72.1615262 C74.0951698,72.8301081 64.9612417,81.5496135 53.6221945,81.1080652 C51.0278347,81.0068878 43.3937943,77.9183313 42.0204089,73.408662 C41.9094725,73.0449523 42.2699314,72.7136458 42.6388201,72.8283797 C51.5052994,75.5829845 56.6144416,69.3374281 62.3885276,67.1316942 C67.5783507,65.1488567 77.2089224,65.7112779 84.0008729,69.2973744 C90.7925576,65.7112249 100.422466,65.1489502 105.612044,67.1316942 Z" id="moustache_fancy_path-1" />
    </defs>
    <g id="moustache_fancy_Facial-Hair/Moustache-Fancy" stroke="none" stroke-width="1" fill="none" fill-rule="evenodd">
        <mask id="moustache_fancy_mask-2" fill="white">
            <use xlink:href="#moustache_fancy_path-1" />
        </mask>
        <use id="moustache_fancy_Moustache-U-a-Question" fill="#28354B" xlink:href="#moustache_fancy_path-1" />
        <g id="moustache_fancy_Facial-Hair-Color" mask="url(#moustache_fancy_mask-2)" fill="#2C1B18">
            <rect id="moustache_fancy_Color" x="0" y="0" width="168" height="152" />
        </g>
    </g>
</g>
        <g id="no_hair_Accessory" transform="translate(62.000000, 85.000000)" />
        <g id="no_hair_Hair-Color" fill="#2C1B18" />
    </g>
</g>
    </g>
</svg>