<svg xmlns="http://www.w3.org/2000/svg" xmlns:xlink="http://www.w3.org/1999/xlink" width="264px" height="280px" viewBox="0 0 264 280" version="1.1">
    <title id="transparent_Title">Avataaar/Default</title>
    <desc>Created with python_avatars</desc>
    <defs>
        <path d="M100,0 C130.927946,-5.68137151e-15 156,25.072054 156,56 L156.000809,62.1660527 C161.675838,63.1185422 166,68.05429 166,74 L166,88 C166,94.0524166 161.519235,99.0582945 155.693975,99.8813638 C153.627928,119.686472 141.237929,136.421678 124.001014,144.610469 L124,163 L128,163 C167.764502,163 200,195.235498 200,235 L200,244 L0,244 L0,235 C-4.86974701e-15,195.235498 32.235498,163 72,163 L76,163 L75.9999836,144.610943 C58.7625487,136.422324 46.3721119,119.686854 44.3051107,99.8809698 C38.480765,99.0582945 34,94.0524166 34,88 L34,74 C34,68.053942 38.3246685,63.1179645 44.0001873,62.1658855 L44,56 C44,25.072054 69.072054,5.68137151e-15 100,0 Z" id="transparent_path-1" />
        <path d="M83,36.3476251 C83,52.6289957 105.161905,65.8276544 132.5,65.8276544 C159.838095,65.8276544 182,52.6289957 182,36.3476251 C182,34.9853134 181.844841,33.6445843 181.544472,32.3313638 C210.784239,41.4879251 232,68.792221 232,101.051724 L232,110 L32,110 L32,101.051724 C32,68.3970853 53.7386736,40.8197864 83.5337207,32.0021267 C83.1821692,33.4207025 83,34.871494 83,36.3476251 Z" id="transparent_path-3" />
        <rect id="transparent_path-5" x="0" y="0" width="264" height="280" />
        <path d="M74,0 C114.869071,0 148,33.1309285 148,74 L148,84.1482318 L148,197.608051 C135.525121,187.236892 119.490913,181 102,181 L102,181 L98,181 L98,162.610951 C115.530782,154.282984 128.048193,137.114792 129.791419,116.867187 C135.569129,116.002364 140,111.018625 140,105 L140,105 L140,92 C140,87.3536213 137.359271,83.3240177 133.496777,81.3301515 C132.723933,81.0500337 131.951808,80.748163 131.180891,80.4262497 C130.794819,80.3202581 130.400778,80.2331546 130,80.1659169 L130,80.1659169 L130.000458,79.9172528 C117.224481,74.2339715 104.877985,63.0706967 96.1104311,47.8848473 C93.1752556,42.8009742 90.8310687,37.5951441 89.0661426,32.3970356 C80.4313947,42.9409152 67.7445474,53.6023901 52.3415164,62.4953343 C42.777598,68.0170651 33.1467898,72.2910056 24,75.2659587 L24.0003852,137.246608 C29.6019576,148.318362 38.7728825,157.277529 50,162.610951 L50,162.610951 L50,181 L46,181 C38.3273639,181 30.9350359,182.200142 24.0004995,184.422941 L24,230 C24,244.105888 13.5691766,255.775526 0,257.716445 L0,74 C0,33.1309285 33.1309285,0 74,0 Z" id="transparent_path-7" />
    </defs>
    <g id="transparent_Avataaar/Default" stroke="none" stroke-width="1" fill="none" fill-rule="evenodd">
        <g id="transparent_Body" transform="translate(32.000000, 36.000000)">
            <mask id="transparent_mask-2" fill="white">
                <use xlink:href="#transparent_path-1" />
            </mask>
            <use fill="#D0C6AC" xlink:href="#transparent_path-1" />
            <g id="transparent_Skin-Color" mask="url(#transparent_mask-2)" fill="#F8D25C">
                <g transform="translate(-32.000000, 0.000000)" id="transparent_Color">
                    <rect x="0" y="0" width="264" height="244" />
                </g>
            </g>
            <path d="M44,94 C44,124.927946 69.072054,150 100,150 C130.927946,150 156,124.927946 156,94 L156,94 L156,102 C156,132.927946 130.927946,158 100,158 C69.072054,158 44,132.927946 44,102 Z" id="transparent_Neck-Shadow" fill-opacity="0.100000001" fill="#000000" mask="url(#transparent_mask-2)" />
        </g>
        <g id="transparent_Clothing" transform="translate(0.000000, 170.000000)">
            
        <defs>
        <path d="M187.997478,34.7419477 L187.994775,34.6445513 C213.853089,45.5674185 232,71.1642324 232,100.999485 L232,110 L32,110 L32,100.999485 C32,71.1638494 50.1473773,45.5667611 76.0062213,34.6441305 C76.281568,20.5515788 90.0823522,15.075879 108.000323,13.0708785 L108,32 C108,45.254834 118.745166,56 132,56 C145.254834,56 156,45.254834 156,32 L156,32 L156.001405,13.0710429 C173.960465,15.0808175 187.783368,20.5773078 187.997478,34.7419477 Z" id="hoodie_path-1" />
    </defs>
    <g id="hoodie_Clothing/Hoodie" stroke="none" stroke-width="1" fill="none" fill-rule="evenodd">
        <mask id="hoodie_mask-2" fill="white">
            <use xlink:href="#hoodie_path-1" />
        </mask>
        <use id="hoodie_Hoodie" fill="#B7C1DB" xlink:href="#hoodie_path-1" />
        <g id="hoodie_Fabric-Color" mask="url(#hoodie_mask-2)" fill="#3C4F5C">
            <rect id="hoodie_ðŸ–Color" x="0" y="0" width="264" height="110" />
        </g>
        <path d="M101.999618,61.7388852 L102,110 L95,110 L94.9990839,58.149718 C97.2029904,59.4596568 99.5461861,60.6605136 101.999618,61.7388852 Z M169.001367,58.1494501 L169,98.5 C169,100.432997 167.432997,102 165.5,102 C163.567003,102 162,100.432997 162,98.5 L162.001384,61.7384448 C164.454619,60.6601132 166.797629,59.4593148 169.001367,58.1494501 Z" id="hoodie_Straps" fill="#F4F4F4" mask="url(#hoodie_mask-2)" />
        <path d="M132,68 L130.99629,67.9952183 C97.8802308,67.680027 65.5,51.8228864 65.5,32.3076923 C65.5,21.2431784 75.908757,15.5714792 90.9589345,12.7245804 C81.8748056,16.0747223 76,21.706273 76,31.0769231 C76,51.4689754 103.821205,68 132,68 Z M132,68 C160.178795,68 188,51.4689754 188,31.0769231 C188,21.706273 182.125194,16.0747223 173.040502,12.724588 C188.091243,15.5714792 198.5,21.2431784 198.5,32.3076923 C198.5,52.0200095 165.462319,68 132,68 L132,68 Z" id="hoodie_Shadow" fill-opacity="0.16" fill="#000000" mask="url(#hoodie_mask-2)" />
    </g>
</g>
        <g id="transparent_Face" transform="translate(76.000000, 82.000000)" fill="#000000">
            <g id="transparent_Mouth" transform="translate(2.000000, 52.000000)">    
                
            <defs>
        <path d="M34.0082051,12.6020819 C35.1280248,23.0929366 38.2345159,31.9944054 53.9961505,31.9999965 C69.757785,32.0055894 72.9169073,23.0424631 73.9942614,12.5047938 C74.0809675,11.6567158 73.1738581,10.9999965 72.0369872,10.9999965 C65.3505138,10.9999965 62.6703194,12.4951994 53.9894323,12.4999965 C45.3085452,12.5047938 40.7567994,10.9999965 36.0924943,10.9999965 C34.9490269,10.9999965 33.8961688,11.5524868 34.0082051,12.6020819 Z" id="vomit_path-1" />
        <path d="M66,25 C69.3137085,25 72,27.6862915 72,31 L72,36 C72,39.3137085 69.3137085,42 66,42 C62.6862915,42 60,39.3137085 60,36 L59.9170737,36.0001915 C59.4410745,33.1623839 56.9730632,31 54,31 C51.0269368,31 48.5589255,33.1623839 48.0829263,36.0001915 L48,36 L48,38 C48,41.3137085 45.3137085,44 42,44 C38.6862915,44 36,41.3137085 36,38 L36,31 C36,27.6862915 38.6862915,25 42,25 L66,25 Z" id="vomit_path-3" />
        <filter x="-1.4%" y="-2.6%" width="102.8%" height="105.3%" filterUnits="objectBoundingBox" id="vomit_filter-4">
            <feOffset dx="0" dy="-1" in="SourceAlpha" result="shadowOffsetInner1" />
            <feComposite in="shadowOffsetInner1" in2="SourceAlpha" operator="arithmetic" k2="-1" k3="1" result="shadowInnerInner1" />
            <feColorMatrix values="0 0 0 0 0   0 0 0 0 0   0 0 0 0 0  0 0 0 0.1 0" type="matrix" in="shadowInnerInner1" />
        </filter>
    </defs>
    <g id="vomit_Mouth/Vomit" stroke="none" stroke-width="1" fill="none" fill-rule="evenodd">
        <mask id="vomit_mask-2" fill="white">
            <use xlink:href="#vomit_path-1" transform="translate(54.000000, 21.499998) scale(1, -1) translate(-54.000000, -21.499998)" />
        </mask>
        <use id="vomit_Mouth" fill-opacity="0.699999988" fill="#000000" transform="translate(54.000000, 21.499998) scale(1, -1) translate(-54.000000, -21.499998)" xlink:href="#vomit_path-1" />
        <path d="M44,0 L65,0 C67.7614237,-5.07265313e-16 70,2.23857625 70,5 L70,11 C70,13.7614237 67.7614237,16 65,16 L44,16 C41.2385763,16 39,13.7614237 39,11 L39,5 C39,2.23857625 41.2385763,5.07265313e-16 44,0 Z" id="vomit_Teeth" fill="#FFFFFF" mask="url(#vomit_mask-2)" />
        <g id="vomit_Vomit-Stuff">
            <use fill="#88C553" fill-rule="evenodd" xlink:href="#vomit_path-3" />
        </g>
    </g>
</g>
            <g id="transparent_Nose" transform="translate(28.000000, 40.000000)" fill-opacity="0.16">
                
            <g id="default_Nose/Default" stroke="none" stroke-width="1" fill="none" fill-rule="evenodd" fill-opacity="0.16">
        <path d="M16,8 C16,12.418278 21.372583,16 28,16 L28,16 C34.627417,16 40,12.418278 40,8" id="default_Nose" fill="#000000" />
    </g>
</g>
            <g id="transparent_Eyes" transform="translate(0.000000, 8.000000)">
                
            <defs>
        <path d="M14,14.0481187 C23.6099827,14.0481187 28,18.4994466 28,11.5617716 C28,4.62409673 21.7319865,0 14,0 C6.2680135,0 0,4.62409673 0,11.5617716 C0,18.4994466 4.39001726,14.0481187 14,14.0481187 Z" id="squint_path-1" />
        <path d="M14,14.0481187 C23.6099827,14.0481187 28,18.4994466 28,11.5617716 C28,4.62409673 21.7319865,0 14,0 C6.2680135,0 0,4.62409673 0,11.5617716 C0,18.4994466 4.39001726,14.0481187 14,14.0481187 Z" id="squint_path-3" />
    </defs>
    <g id="squint_Eyes/Squint-ðŸ˜Š" stroke="none" stroke-width="1" fill="none" fill-rule="evenodd">
        <g id="squint_Eye" transform="translate(16.000000, 13.000000)">
            <mask id="squint_mask-2" fill="white">
                <use xlink:href="#squint_path-1" />
            </mask>
            <use id="squint_The-white-stuff" fill="#FFFFFF" xlink:href="#squint_path-1" />
            <circle fill-opacity="0.699999988" fill="#000000" mask="url(#squint_mask-2)" cx="14" cy="10" r="6" />
        </g>
        <g id="squint_Eye" transform="translate(68.000000, 13.000000)">
            <mask id="squint_mask-4" fill="white">
                <use xlink:href="#squint_path-3" />
            </mask>
            <use id="squint_Eyeball-Mask" fill="#FFFFFF" xlink:href="#squint_path-3" />
            <circle fill-opacity="0.699999988" fill="#000000" mask="url(#squint_mask-4)" cx="14" cy="10" r="6" />
        </g>
    </g>
</g>
            <g id="transparent_Eyebrow" fill-opacity="0.599999964">
                
            <g id="sad_concerned_Eyebrow/Outline/Sad-Concerned" stroke="none" stroke-width="1" fill="none" fill-rule="evenodd" fill-opacity="0.599999964">
        <path d="M15.9726042,19.4088529 C17.452356,11.0203704 30.0622688,5.22829657 39.2106453,8.9774793 C40.2254706,9.39337449 41.4016967,8.94600219 41.8378196,7.97824531 C42.2739426,7.01048842 41.8048116,5.88881678 40.7899862,5.47292159 C29.3457328,0.782843812 13.9550264,7.85221132 12.0280273,18.7760684 C11.84479,19.8148122 12.5792704,20.798534 13.6685352,20.9732726 C14.7578,21.1480113 15.7893668,20.4475967 15.9726042,19.4088529 Z" id="sad_concerned_Eyebrow" fill="#000000" fill-rule="nonzero" transform="translate(27.000414, 12.500000) scale(-1, -1) translate(-27.000414, -12.500000) " />
        <path d="M73.9726042,19.4088529 C75.452356,11.0203704 88.0622688,5.22829657 97.2106453,8.9774793 C98.2254706,9.39337449 99.4016967,8.94600219 99.8378196,7.97824531 C100.273943,7.01048842 99.8048116,5.88881678 98.7899862,5.47292159 C87.3457328,0.782843812 71.9550264,7.85221132 70.0280273,18.7760684 C69.84479,19.8148122 70.5792704,20.798534 71.6685352,20.9732726 C72.7578,21.1480113 73.7893668,20.4475967 73.9726042,19.4088529 Z" id="sad_concerned_Eyebrow" fill="#000000" fill-rule="nonzero" transform="translate(85.000414, 12.500000) scale(1, -1) translate(-85.000414, -12.500000) " />
    </g>
</g>
        </g>
        <g id="transparent_Top">
            
        <defs>
        <path d="M81.0706626,152.100303 L81.3139331,151.591294 C86.6470672,164.343025 96.5616299,174.702121 108.999984,180.610943 L109.000498,189.610276 C106.639234,190.401998 104.095411,191.063242 101.273548,191.569729 C92.2609618,193.18734 66.9485528,188.041497 55.8287461,179.588187 C54.9804404,178.942941 55.4105393,177.670743 56.4993303,177.596328 C68.2421528,176.792949 74.2106831,165.300379 79.0058562,156.190972 C79.7177834,154.838538 80.404519,153.474084 81.0706626,152.100303 L81.3139331,151.591294 Z M175.127522,166.89656 C175.840743,169.13621 176.874235,171.230121 178.55519,172.685954 C180.17619,174.090053 183.068114,173.745469 185.098621,173.802748 C186.770693,173.850632 188.444623,173.856087 190.114529,173.783655 C190.95366,173.747287 191.327571,174.79771 190.648775,175.281705 C190.518773,175.374442 190.388771,175.462634 190.25846,175.543856 C189.20761,176.198779 188.11838,176.802787 187.008721,177.356184 C184.485135,178.614206 181.821334,179.600077 179.02722,180.090436 C177.110999,180.426483 175.211641,180.489655 173.373193,180.266583 C173.858789,180.986758 174.419512,181.642311 175.071506,182.207788 C176.801481,183.708407 179.887821,183.340135 182.054832,183.401352 C183.839313,183.452528 185.625776,183.458358 187.407944,183.380946 C188.303488,183.342078 188.702535,184.464709 187.978106,184.981974 C187.839364,185.081086 187.700623,185.175341 187.561551,185.262145 C186.440057,185.962089 185.2776,186.607617 184.093342,187.199055 C181.400104,188.543555 178.557223,189.597195 175.57527,190.121262 C170.075488,191.087126 164.705859,189.943766 160.380755,186.413279 C159.163245,185.419467 158.026681,184.286937 156.999075,183.051889 L157.000016,180.610943 C163.950154,177.30929 170.112313,172.618171 175.127522,166.89656 Z M101.441738,25.5998777 C121.403017,20.3995724 135.651446,29.4743102 136.862131,30.2568033 C138.299428,31.1854765 138.85043,30.796545 140.483286,30.4052984 C146.829392,28.8846292 153.741035,28.1960616 160.187893,29.4782789 C166.528383,30.7396605 172.606255,34.0244119 177.74696,37.856181 C187.273882,44.9574883 195.508524,56.4379129 195.90592,68.6796644 C196.081329,74.1868816 195.28885,79.9070851 194.184533,85.2955724 C193.189889,90.1482867 189.869671,93.9714569 188.837367,98.7289227 C184.809898,85.0481908 169.433037,80.4838679 160.242068,71.1548033 C162.238626,74.9478777 165.29094,78.1026546 167.294435,81.8328914 C158.047309,76.1675881 149.087576,67.953725 145.262273,57.5379012 C144.554691,62.9359795 142.545911,67.9275978 139.15401,72.2035294 C136.142657,76.0002417 131.572444,80.0744315 126.858864,81.5445 C129.286511,76.0372828 131.361358,70.327001 133.266412,64.6190342 C131.249704,67.2357231 124.568637,78.352682 122.891185,81.1086057 C121.234875,83.8298033 119.37772,86.426318 117.383805,88.9120401 C116.450603,90.0751967 115.455298,91.1993278 114.453055,92.302954 C113.869349,92.9458816 113.274082,93.578226 112.665931,94.1980029 C112.450882,94.4169423 110.823641,96.2071517 111.753871,95.0036468 C109.537639,97.8062025 106.276221,99.9826977 103.44325,102.112561 C100.59079,104.256976 97.4833088,106.08125 94.2522818,107.589351 C87.0932166,110.931649 79.7402436,112.148383 71.9327267,110.752066 L72.147048,110.788105 L72.3284821,110.800693 C73.5480643,110.828501 75.5398586,109.975832 76.6941053,109.626246 L76.8887739,109.570058 C78.6980301,109.07761 80.3625987,108.452872 82.0017312,107.546357 C85.2753717,105.735312 88.3514706,103.576015 91.1778346,101.127995 C88.4707222,102.280238 86.2726593,104.461694 83.513684,105.671152 C81.2270908,106.673576 78.9669245,107.196782 76.4817987,107.437218 C71.0203357,107.966046 64.4865987,106.716901 59.7607964,103.849523 C54.2686121,100.517478 51.2186099,94.7989286 49.7717335,88.7129442 C48.0913088,81.6460323 49.1355043,73.6726057 53.0992189,67.6388757 C53.2336661,69.781637 57.5349852,70.703365 61.0154166,70.1662691 C70.6728211,68.675365 76.4180436,32.1184491 101.441738,25.5998777 Z M71.9327267,110.752066 L72.147048,110.788105 L72.1216054,110.786364 C72.055537,110.778353 71.9924682,110.767014 71.9327267,110.752066 Z" id="shaggy_mullet_path-1" />
    </defs>
    <g id="shaggy_mullet_Top/Short-Hair/Shaggy-Mullet" stroke="none" stroke-width="1" fill="none" fill-rule="evenodd" transform="translate(-1 0)">
        <g id="shaggy_mullet_Accessory" transform="translate(62.000000, 85.000000)"><defs>
        <filter x="-3.1%" y="-9.8%" width="106.2%" height="119.5%" filterUnits="objectBoundingBox" id="prescription_02_filter-1">
            <feOffset dx="0" dy="2" in="SourceAlpha" result="shadowOffsetOuter1" />
            <feColorMatrix values="0 0 0 0 0   0 0 0 0 0   0 0 0 0 0  0 0 0 0.2 0" type="matrix" in="shadowOffsetOuter1" result="shadowMatrixOuter1" />
            <feMerge>
                <feMergeNode in="shadowMatrixOuter1" />
                <feMergeNode in="SourceGraphic" />
            </feMerge>
        </filter>
    </defs>
    <g id="prescription_02_Top/_Resources/Prescription-02" stroke="none" stroke-width="1" fill="none" fill-rule="evenodd">
        <g id="prescription_02_Wayfarers" filter="url(#prescription_02_filter-1)" transform="translate(6.000000, 7.000000)" fill="#252C2F" fill-rule="nonzero">
            <path d="M35.4700694,0 C57.1829942,0 59,10.127 59,20.5 C59,32.5686429 48.7212748,41 34,41 L31.2421498,41 C17.3147125,41 9,33.3359286 9,20.5 C9,10.127 10.8170058,0 32.5299306,0 L35.4700694,0 Z M35.6146394,6 L32.3853606,6 C13,6 13,12.8410159 13,21.5015498 C13,28.5719428 16.116254,37 30.9709365,37 L34,37 C46.3649085,37 55,30.6270373 55,21.5015498 L54.9994766,20.7271501 C54.9825532,12.4367119 54.4184392,6 35.6146394,6 Z" id="prescription_02_Left" />
            <path d="M97.4700694,0 C119.182994,0 121,10.127 121,20.5 C121,32.5686429 110.721275,41 96,41 L93.2421498,41 C79.3147125,41 71,33.3359286 71,20.5 C71,10.127 72.8170058,0 94.5299306,0 L97.4700694,0 Z M97.6146394,6 L94.3853606,6 C75.5815608,6 75.0174468,12.4367119 75.0005234,20.7271501 L75,21.5015498 C75,28.5719428 78.1194833,37 92.9709365,37 L96,37 C108.364909,37 117,30.6270373 117,21.5015498 C117,12.8410159 117,6 97.6146394,6 Z" id="prescription_02_Right" />
            <path d="M2.95454545,5.77156439 C3.64590909,5.09629136 11.2095455,0 32.5,0 C50.3513636,0 54.1302273,1.85267217 59.8502273,4.6518809 L60.2689233,4.85850899 C60.6666014,4.99901896 62.7002447,5.68982981 65.0790606,5.76579519 C67.2462948,5.67278567 69.1000195,5.08540191 69.641698,4.89719767 C76.1703915,1.7220864 82.5610971,0 97.5,0 C118.790455,0 126.354091,5.09629136 127.045455,5.77156439 C128.679318,5.77156439 130,7.06150904 130,8.65734659 L130,11.5431288 C130,13.1389663 128.679318,14.428911 127.045455,14.428911 C127.045455,14.428911 120.143997,14.428911 120.143997,17.3146932 C120.143997,20.2004754 118.181818,13.1389663 118.181818,11.5431288 L118.181818,8.73240251 C114.578575,7.35340151 108.128411,4.78617535 97.5,4.78617535 C85.6584651,4.78617535 79.7610984,6.88602813 74.7022935,8.97112368 L74.7588636,9.10752861 L74.7563667,11.0937608 L72.5391666,16.4436339 L69.8004908,15.3608351 C69.5558969,15.2641292 69.0281396,15.090392 68.2963505,14.9099044 C66.256272,14.4067419 64.1589087,14.253569 62.3040836,14.6343084 C61.6235903,14.7739931 60.9922286,14.9836085 60.4128127,15.266732 L57.7704824,16.5578701 L55.1266751,11.3962031 L55.2440909,9.10175705 L55.3248203,8.90683855 C50.9620526,6.87386374 46.9392639,4.78617535 32.5,4.78617535 C21.8721459,4.78617535 15.422131,7.3524397 11.8181818,8.7314671 L11.8181818,11.5431288 C11.8181818,13.1389663 8.86363636,20.2004754 8.86363636,17.3146932 C8.86363636,14.428911 2.95454545,14.428911 2.95454545,14.428911 C1.32363636,14.428911 0,13.1389663 0,11.5431288 L0,8.65734659 C0,7.06150904 1.32363636,5.77156439 2.95454545,5.77156439 Z" id="prescription_02_Stuff" />
        </g>
    </g>
</g>
        <mask id="shaggy_mullet_mask-2" fill="white">
            <use xlink:href="#shaggy_mullet_path-1" />
        </mask>
        <use id="shaggy_mullet_Hair" fill="#1D2633" xlink:href="#shaggy_mullet_path-1" />
        <g id="shaggy_mullet_Hair-Color" mask="url(#shaggy_mullet_mask-2)" fill="#C93305">
            <g transform="translate(1.000000, 0.000000)" id="shaggy_mullet_Color">
                <rect x="0" y="0" width="264" height="280" />
            </g>
        </g>
        <path d="M81.3138259,151.591038 C86.6469671,164.342965 96.5616685,174.702208 109.000213,180.611052 L109.000871,189.610151 C106.639502,190.401928 104.095559,191.063216 101.273548,191.569729 C92.2609618,193.18734 66.9485528,188.041497 55.8287461,179.588187 C54.9804404,178.942941 55.4105393,177.670743 56.4993303,177.596328 C68.2421528,176.792949 74.2106831,165.300379 79.0058562,156.190972 C79.7177834,154.838538 80.404519,153.474084 81.0706626,152.100303 Z M178.55519,172.685954 C180.17619,174.090053 183.068114,173.745469 185.098621,173.802748 C186.770693,173.850632 188.444623,173.856087 190.114529,173.783655 C190.95366,173.747287 191.327571,174.79771 190.648775,175.281705 C190.518773,175.374442 190.388771,175.462634 190.25846,175.543856 C189.20761,176.198779 188.11838,176.802787 187.008721,177.356184 C184.485135,178.614206 181.821334,179.600077 179.02722,180.090436 C177.111347,180.426422 175.212329,180.489632 173.374193,180.266704 C173.858789,180.986758 174.419512,181.642311 175.071506,182.207788 C176.801481,183.708407 179.887821,183.340135 182.054832,183.401352 C183.839313,183.452528 185.625776,183.458358 187.407944,183.380946 C188.303488,183.342078 188.702535,184.464709 187.978106,184.981974 C187.839364,185.081086 187.700623,185.175341 187.561551,185.262145 C186.440057,185.962089 185.2776,186.607617 184.093342,187.199055 C181.400104,188.543555 178.557223,189.597195 175.57527,190.121262 C170.075488,191.087126 164.705859,189.943766 160.380755,186.413279 C159.163898,185.42 158.0279,184.288152 157.000729,183.053876 L157.001784,180.610103 C163.951199,177.308494 170.112739,172.617686 175.127522,166.89656 C175.840743,169.13621 176.874235,171.230121 178.55519,172.685954 Z" id="shaggy_mullet_Shadow" fill-opacity="0.16" fill="#000000" />
        <g id="shaggy_mullet_Facial-Hair" transform="translate(49.000000, 72.000000)"><defs>
        <path d="M105.612044,67.1316942 C111.386129,69.3374281 116.495271,75.5829845 125.36175,72.8283797 C125.730639,72.7136458 126.091098,73.0449523 125.980498,73.408662 C124.607113,77.9183313 116.972736,81.0068878 114.378714,81.1080652 C103.039714,81.5495987 93.9060174,72.8306951 84.0009784,72.1615262 C74.0951698,72.8301081 64.9612417,81.5496135 53.6221945,81.1080652 C51.0278347,81.0068878 43.3937943,77.9183313 42.0204089,73.408662 C41.9094725,73.0449523 42.2699314,72.7136458 42.6388201,72.8283797 C51.5052994,75.5829845 56.6144416,69.3374281 62.3885276,67.1316942 C67.5783507,65.1488567 77.2089224,65.7112779 84.0008729,69.2973744 C90.7925576,65.7112249 100.422466,65.1489502 105.612044,67.1316942 Z" id="moustache_fancy_path-1" />
    </defs>
    <g id="moustache_fancy_Facial-Hair/Moustache-Fancy" stroke="none" stroke-width="1" fill="none" fill-rule="evenodd">
        <mask id="moustache_fancy_mask-2" fill="white">
            <use xlink:href="#moustache_fancy_path-1" />
        </mask>
        <use id="moustache_fancy_Moustache-U-a-Question" fill="#28354B" xlink:href="#moustache_fancy_path-1" />
        <g id="moustache_fancy_Facial-Hair-Color" mask="url(#moustache_fancy_mask-2)" fill="#ECDCBF">
            <rect id="moustache_fancy_Color" x="0" y="0" width="168" height="152" />
        </g>
    </g>
</g>
    </g>
</g>
    </g>
</svg>