<svg xmlns="http://www.w3.org/2000/svg" xmlns:xlink="http://www.w3.org/1999/xlink" width="264px" height="280px" viewBox="0 0 264 280" version="1.1">
    <title id="transparent_Title">Avataaar/Default</title>
    <desc>Created with python_avatars</desc>
    <defs>
        <path d="M100,0 C130.927946,-5.68137151e-15 156,25.072054 156,56 L156.000809,62.1660527 C161.675838,63.1185422 166,68.05429 166,74 L166,88 C166,94.0524166 161.519235,99.0582945 155.693975,99.8813638 C153.627928,119.686472 141.237929,136.421678 124.001014,144.610469 L124,163 L128,163 C167.764502,163 200,195.235498 200,235 L200,244 L0,244 L0,235 C-4.86974701e-15,195.235498 32.235498,163 72,163 L76,163 L75.9999836,144.610943 C58.7625487,136.422324 46.3721119,119.686854 44.3051107,99.8809698 C38.480765,99.0582945 34,94.0524166 34,88 L34,74 C34,68.053942 38.3246685,63.1179645 44.0001873,62.1658855 L44,56 C44,25.072054 69.072054,5.68137151e-15 100,0 Z" id="transparent_path-1" />
        <path d="M83,36.3476251 C83,52.6289957 105.161905,65.8276544 132.5,65.8276544 C159.838095,65.8276544 182,52.6289957 182,36.3476251 C182,34.9853134 181.844841,33.6445843 181.544472,32.3313638 C210.784239,41.4879251 232,68.792221 232,101.051724 L232,110 L32,110 L32,101.051724 C32,68.3970853 53.7386736,40.8197864 83.5337207,32.0021267 C83.1821692,33.4207025 83,34.871494 83,36.3476251 Z" id="transparent_path-3" />
        <rect id="transparent_path-5" x="0" y="0" width="264" height="280" />
        <path d="M74,0 C114.869071,0 148,33.1309285 148,74 L148,84.1482318 L148,197.608051 C135.525121,187.236892 119.490913,181 102,181 L102,181 L98,181 L98,162.610951 C115.530782,154.282984 128.048193,137.114792 129.791419,116.867187 C135.569129,116.002364 140,111.018625 140,105 L140,105 L140,92 C140,87.3536213 137.359271,83.3240177 133.496777,81.3301515 C132.723933,81.0500337 131.951808,80.748163 131.180891,80.4262497 C130.794819,80.3202581 130.400778,80.2331546 130,80.1659169 L130,80.1659169 L130.000458,79.9172528 C117.224481,74.2339715 104.877985,63.0706967 96.1104311,47.8848473 C93.1752556,42.8009742 90.8310687,37.5951441 89.0661426,32.3970356 C80.4313947,42.9409152 67.7445474,53.6023901 52.3415164,62.4953343 C42.777598,68.0170651 33.1467898,72.2910056 24,75.2659587 L24.0003852,137.246608 C29.6019576,148.318362 38.7728825,157.277529 50,162.610951 L50,162.610951 L50,181 L46,181 C38.3273639,181 30.9350359,182.200142 24.0004995,184.422941 L24,230 C24,244.105888 13.5691766,255.775526 0,257.716445 L0,74 C0,33.1309285 33.1309285,0 74,0 Z" id="transparent_path-7" />
    </defs>
    <g id="transparent_Avataaar/Default" stroke="none" stroke-width="1" fill="none" fill-rule="evenodd">
        <g id="transparent_Body" transform="translate(32.000000, 36.000000)">
            <mask id="transparent_mask-2" fill="white">
                <use xlink:href="#transparent_path-1" />
            </mask>
            <use fill="#D0C6AC" xlink:href="#transparent_path-1" />
            <g id="transparent_Skin-Color" mask="url(#transparent_mask-2)" fill="#F8D25C">
                <g transform="translate(-32.000000, 0.000000)" id="transparent_Color">
                    <rect x="0" y="0" width="264" height="244" />
                </g>
            </g>
            <path d="M44,94 C44,124.927946 69.072054,150 100,150 C130.927946,150 156,124.927946 156,94 L156,94 L156,102 C156,132.927946 130.927946,158 100,158 C69.072054,158 44,132.927946 44,102 Z" id="transparent_Neck-Shadow" fill-opacity="0.100000001" fill="#000000" mask="url(#transparent_mask-2)" />
        </g>
        <g id="transparent_Clothing" transform="translate(0.000000, 170.000000)">
            
        <defs>
        <path d="M232,101.051724 L232,110 L32,110 L32,101.051724 C32,65.1384292 58.2938256,35.3663869 92.6806879,29.9363855 C93.5844961,35.0070695 96.1171239,39.8245023 100.236125,43.5389794 L100.236125,43.5389794 L129.321203,69.7676333 C130.843316,71.1402598 133.156684,71.1402598 134.678797,69.7676333 L134.678797,69.7676333 L163.763875,43.5389794 C164.189462,43.1551884 164.601167,42.7562772 164.998197,42.3430127 C168.413626,38.7879269 170.516642,34.4534098 171.319249,29.9385703 C205.706684,35.3669637 232,65.1387771 232,101.051724 Z" id="shirt_v_neck_path-1" />
    </defs>
    <g id="shirt_v_neck_Clothing/Shirt-V-Neck" stroke="none" stroke-width="1" fill="none" fill-rule="evenodd">
        <mask id="shirt_v_neck_mask-2" fill="white">
            <use xlink:href="#shirt_v_neck_path-1" />
        </mask>
        <use id="shirt_v_neck_Clothes" fill="#E6E6E6" xlink:href="#shirt_v_neck_path-1" />
        <g id="shirt_v_neck_Fabric-Color" mask="url(#shirt_v_neck_mask-2)" fill="#B1E2FF">
            <rect id="shirt_v_neck_ðŸ–Color" x="0" y="0" width="264" height="110" />
        </g>
    </g>
</g>
        <g id="transparent_Face" transform="translate(76.000000, 82.000000)" fill="#000000">
            <g id="transparent_Mouth" transform="translate(2.000000, 52.000000)">    
                
            <defs>
        <path d="M34.0082051,12.6020819 C35.1280248,23.0929366 38.2345159,31.9944054 53.9961505,31.9999965 C69.757785,32.0055894 72.9169073,23.0424631 73.9942614,12.5047938 C74.0809675,11.6567158 73.1738581,10.9999965 72.0369872,10.9999965 C65.3505138,10.9999965 62.6703194,12.4951994 53.9894323,12.4999965 C45.3085452,12.5047938 40.7567994,10.9999965 36.0924943,10.9999965 C34.9490269,10.9999965 33.8961688,11.5524868 34.0082051,12.6020819 Z" id="vomit_path-1" />
        <path d="M66,25 C69.3137085,25 72,27.6862915 72,31 L72,36 C72,39.3137085 69.3137085,42 66,42 C62.6862915,42 60,39.3137085 60,36 L59.9170737,36.0001915 C59.4410745,33.1623839 56.9730632,31 54,31 C51.0269368,31 48.5589255,33.1623839 48.0829263,36.0001915 L48,36 L48,38 C48,41.3137085 45.3137085,44 42,44 C38.6862915,44 36,41.3137085 36,38 L36,31 C36,27.6862915 38.6862915,25 42,25 L66,25 Z" id="vomit_path-3" />
        <filter x="-1.4%" y="-2.6%" width="102.8%" height="105.3%" filterUnits="objectBoundingBox" id="vomit_filter-4">
            <feOffset dx="0" dy="-1" in="SourceAlpha" result="shadowOffsetInner1" />
            <feComposite in="shadowOffsetInner1" in2="SourceAlpha" operator="arithmetic" k2="-1" k3="1" result="shadowInnerInner1" />
            <feColorMatrix values="0 0 0 0 0   0 0 0 0 0   0 0 0 0 0  0 0 0 0.1 0" type="matrix" in="shadowInnerInner1" />
        </filter>
    </defs>
    <g id="vomit_Mouth/Vomit" stroke="none" stroke-width="1" fill="none" fill-rule="evenodd">
        <mask id="vomit_mask-2" fill="white">
            <use xlink:href="#vomit_path-1" transform="translate(54.000000, 21.499998) scale(1, -1) translate(-54.000000, -21.499998)" />
        </mask>
        <use id="vomit_Mouth" fill-opacity="0.699999988" fill="#000000" transform="translate(54.000000, 21.499998) scale(1, -1) translate(-54.000000, -21.499998)" xlink:href="#vomit_path-1" />
        <path d="M44,0 L65,0 C67.7614237,-5.07265313e-16 70,2.23857625 70,5 L70,11 C70,13.7614237 67.7614237,16 65,16 L44,16 C41.2385763,16 39,13.7614237 39,11 L39,5 C39,2.23857625 41.2385763,5.07265313e-16 44,0 Z" id="vomit_Teeth" fill="#FFFFFF" mask="url(#vomit_mask-2)" />
        <g id="vomit_Vomit-Stuff">
            <use fill="#88C553" fill-rule="evenodd" xlink:href="#vomit_path-3" />
        </g>
    </g>
</g>
            <g id="transparent_Nose" transform="translate(28.000000, 40.000000)" fill-opacity="0.16">
                
            <g id="default_Nose/Default" stroke="none" stroke-width="1" fill="none" fill-rule="evenodd" fill-opacity="0.16">
        <path d="M16,8 C16,12.418278 21.372583,16 28,16 L28,16 C34.627417,16 40,12.418278 40,8" id="default_Nose" fill="#000000" />
    </g>
</g>
            <g id="transparent_Eyes" transform="translate(0.000000, 8.000000)">
                
            <g id="closed_Eyes/Closed-ðŸ˜Œ" stroke="none" stroke-width="1" fill="none" fill-rule="evenodd" fill-opacity="0.599999964">
        <path d="M16.1601674,32.4473116 C18.006676,28.648508 22.1644225,26 26.9975803,26 C31.8136766,26 35.9591217,28.629842 37.8153518,32.4071242 C38.3667605,33.5291977 37.5821037,34.4474817 36.790607,33.7670228 C34.3395063,31.6597833 30.8587163,30.3437884 26.9975803,30.3437884 C23.2572061,30.3437884 19.8737584,31.5787519 17.4375392,33.5716412 C16.5467928,34.3002944 15.6201012,33.5583844 16.1601674,32.4473116 Z" id="closed_Closed-Eye" fill="#000000" transform="translate(27.000000, 30.000000) scale(1, -1) translate(-27.000000, -30.000000) " />
        <path d="M74.1601674,32.4473116 C76.006676,28.648508 80.1644225,26 84.9975803,26 C89.8136766,26 93.9591217,28.629842 95.8153518,32.4071242 C96.3667605,33.5291977 95.5821037,34.4474817 94.790607,33.7670228 C92.3395063,31.6597833 88.8587163,30.3437884 84.9975803,30.3437884 C81.2572061,30.3437884 77.8737584,31.5787519 75.4375392,33.5716412 C74.5467928,34.3002944 73.6201012,33.5583844 74.1601674,32.4473116 Z" id="closed_Closed-Eye" fill="#000000" transform="translate(85.000000, 30.000000) scale(1, -1) translate(-85.000000, -30.000000) " />
    </g>
</g>
            <g id="transparent_Eyebrow" fill-opacity="0.599999964">
                
            <g id="unibrow_natural_Eyebrow/Natural/Unibrow-Natural" stroke="none" stroke-width="1" fill="none" fill-rule="evenodd" fill-opacity="0.599999964">
        <path d="M57.000525,12 C56.999825,11.9961 56.999825,11.9961 57.000525,12 M96.2812935,8.14993193 C97.7243204,8.76008291 105.241692,14.8939029 103.822605,17.5722412 C103.563259,18.0619945 102.91024,18.1443003 102.524546,17.7511372 C101.997542,17.2147893 100.987756,16.584232 100.86041,16.507708 C95.8563653,13.4967455 89.636055,14.1895424 84.1715051,15.0153209 C78.0153663,15.945512 71.9486685,18.0766191 65.7030886,17.0505179 C64.112573,16.7893996 61.3100901,16.0581965 59.4577569,14.8912505 C59.2166111,15.3812089 58.7733181,15.7165315 58.0750241,15.6547468 C55.8451696,15.4574504 57.5922879,12 58.7633758,12 C58.9879322,12 59.1830493,12.1416326 59.3360395,12.3691906 C60.6258515,12.2076142 61.9177831,11.6174215 63.2409655,11.2908151 C66.9279989,10.3803501 70.6888462,9.98718701 74.4284137,9.38927986 C81.0899445,8.32440654 89.7471082,5.39200867 96.2812935,8.14993193 Z" id="unibrow_natural_Kahlo" fill="#000000" transform="translate(80.500000, 12.500000) rotate(-2.000000) translate(-80.500000, -12.500000) " />
        <path d="M54.999475,12 C55.000175,11.9961 55.000175,11.9961 54.999475,12 M15.7187065,8.14993193 C22.2528918,5.39200867 30.9100555,8.32440654 37.5715863,9.38927986 C41.3111538,9.98718701 45.0720011,10.3803501 48.7590345,11.2908151 C50.2416282,11.6567696 51.6849876,12.3536477 53.1313394,12.4128263 C53.8325707,12.4413952 54.2674737,13.2763566 53.8149484,13.8242681 C52.3320222,15.6179895 48.3271239,16.7172136 46.2969114,17.0505179 C40.0513315,18.0766191 33.9846337,15.945512 27.8284949,15.0153209 C22.363945,14.1895424 16.1436347,13.4967455 11.1395899,16.507708 C11.0122444,16.584232 10.0024581,17.2147893 9.47545402,17.7511372 C9.0897602,18.1443003 8.43674067,18.0619945 8.17739482,17.5722412 C6.75830756,14.8939029 14.2756796,8.76008291 15.7187065,8.14993193 Z M54.9339874,11 C56.1050753,11 57.8521936,15.4015737 55.6223391,15.6527457 C53.3924847,15.9039176 53.7628995,11 54.9339874,11 Z" id="unibrow_natural_Frida" fill="#000000" transform="translate(32.348682, 12.500000) rotate(2.000000) translate(-32.348682, -12.500000) " />
    </g>
</g>
        </g>
        <g id="transparent_Top">
            
        <g id="no_hair_Top/-No-Hair" stroke="none" stroke-width="1" fill="none" fill-rule="evenodd">
        <g id="no_hair_Facial-Hair" transform="translate(49.000000, 72.000000)" />
        <g id="no_hair_Accessory" transform="translate(62.000000, 85.000000)"><defs>
        <filter x="-3.2%" y="-10.5%" width="106.3%" height="121.1%" filterUnits="objectBoundingBox" id="prescription_01_filter-1">
            <feOffset dx="0" dy="2" in="SourceAlpha" result="shadowOffsetOuter1" />
            <feColorMatrix values="0 0 0 0 0   0 0 0 0 0   0 0 0 0 0  0 0 0 0.1 0" type="matrix" in="shadowOffsetOuter1" result="shadowMatrixOuter1" />
            <feMerge>
                <feMergeNode in="shadowMatrixOuter1" />
                <feMergeNode in="SourceGraphic" />
            </feMerge>
        </filter>
    </defs>
    <g id="prescription_01_Top/_Resources/Prescription-01" stroke="none" stroke-width="1" fill="none" fill-rule="evenodd">
        <g id="prescription_01_Glasses" filter="url(#prescription_01_filter-1)" transform="translate(8.000000, 8.000000)" fill="#D6EAF2">
            <path d="M46.2491397,7.27516667 C48.6207695,7.2975 49.7419096,7.69183333 50.1459601,10.1651667 C50.5553446,12.6705 50.1572949,15.4871667 49.6852359,17.9548333 C48.9648125,21.7228333 47.7666627,25.4145 44.9776475,28.1685 C43.5084639,29.6188333 41.7165732,30.7748333 39.8106684,31.5641667 C38.7985419,31.9835 37.7297416,32.2861667 36.6612747,32.5158333 C36.3489024,32.5828333 33.6822357,32.9501667 35.3177735,32.7635 C31.5009631,33.1991667 27.3601122,33.1818333 24.1723805,30.7525 C20.6396056,28.0601667 18.2203032,23.7998333 17.1565036,19.5561667 C16.5340925,17.0731667 15.2262624,11.1345 17.6158944,9.14916667 C20.3532365,6.8745 46.2491397,7.27516667 46.2491397,7.27516667 L46.2491397,7.27516667 Z M22.2178029,0.4905 C16.7774562,0.677833333 13.1466691,1.63383333 10.4633337,7.06916667 C5.54571911,17.0301667 13.9627711,31.9688333 23.352278,36.0395 C34.3293166,40.7991667 46.5921826,35.5318333 52.3955746,26.0058333 C55.4689587,20.9621667 57.0224862,13.3231667 56.9224737,7.50383333 C56.7951245,0.0765 51.6071427,-0.1295 45.5090472,0.0338333333 L22.2178029,0.4905 Z" id="prescription_01_Frame-Stuff" />
            <path d="M79.6805515,7.27256667 C77.3089217,7.29523333 76.1877816,7.68923333 75.7837311,10.1625667 C75.3743466,12.6679 75.7723963,15.4845667 76.244122,17.9522333 C76.9648787,21.7202333 78.1630285,25.4119 80.9520437,28.1659 C82.4212273,29.6162333 84.213118,30.7722333 86.1190228,31.5619 C87.1311493,31.9809 88.1999496,32.2835667 89.2684165,32.5132333 C89.5807888,32.5802333 92.2471221,32.9479 90.6119177,32.7609 C94.4287281,33.1965667 98.569579,33.1792333 101.757311,30.7499 C105.290086,28.0575667 107.709388,23.7975667 108.773188,19.5539 C109.395599,17.0705667 110.703095,11.1322333 108.313797,9.14656667 C105.576455,6.8719 79.6805515,7.27256667 79.6805515,7.27256667 L79.6805515,7.27256667 Z M103.711555,0.4879 C109.152235,0.675233333 112.783022,1.63156667 115.466357,7.06656667 C120.383639,17.0275667 111.96692,31.9662333 102.577413,36.0372333 C91.6003746,40.7965667 79.3375086,35.5292333 73.5337832,26.0035667 C70.4607325,20.9595667 68.907205,13.3205667 69.0068841,7.50123333 C69.1345667,0.0739 74.3225485,-0.1321 80.420644,0.0315666667 L103.711555,0.4879 Z" id="prescription_01_Frame-Stuff" />
            <path d="M13.1969483,4.9267 C9.78501392,5.11836667 5.88606327,5.16436667 2.69005822,6.63936667 C-0.69461078,8.20136667 -1.2176675,11.7387 3.04920921,12.2260333 C4.97094906,12.4457 6.89488267,12.0827 8.78716336,11.7450333 C10.336903,11.4683667 12.4419791,11.5580333 13.9064752,10.9657 C16.6355213,9.86236667 16.4603333,4.74003333 13.1969483,4.9267" id="prescription_01_Frame-Stuff" />
            <path d="M112.73467,4.9267 C116.146606,5.11836667 120.045559,5.16436667 123.241565,6.63936667 C126.626236,8.20136667 127.149293,11.7387 122.882414,12.2260333 C120.960673,12.4457 119.036739,12.0827 117.144457,11.7450333 C115.594717,11.4683667 113.489639,11.5580333 112.025143,10.9657 C109.295782,9.86236667 109.471283,4.74003333 112.73467,4.9267" id="prescription_01_Frame-Stuff" />
            <path d="M73.1094302,7.01263333 C71.1631869,4.71263333 66.0912197,3.38463333 62.8914864,3.38463333 C59.6914198,3.38463333 54.7681378,4.71263333 52.8222279,7.01263333 C51.8407719,8.1723 51.8074344,9.72396667 53.5083137,10.4509667 C55.6262451,11.3566333 57.5174814,9.7143 59.2126933,8.8553 C61.3809643,7.75663333 64.7120473,7.8773 66.7189648,8.8553 C68.4271783,9.68796667 70.3050797,11.3566333 72.4233444,10.4509667 C74.1242237,9.72396667 74.0908862,8.1723 73.1094302,7.01263333" id="prescription_01_Frame-Stuff" />
        </g>
    </g>
</g>
        <g id="no_hair_Hair-Color" fill="#F59797" />
    </g>
</g>
    </g>
</svg>