<svg xmlns="http://www.w3.org/2000/svg" xmlns:xlink="http://www.w3.org/1999/xlink" width="264px" height="280px" viewBox="0 0 264 280" version="1.1">
    <title id="circle_Title">Avataaar/Circle</title>
    <desc>Created with python_avatars</desc>
    <defs>
        <circle id="circle_path-1" cx="120" cy="120" r="120" />
        <path d="M-3.19744231e-14,160 L-3.19744231e-14,-1.42108547e-14 L264,-1.42108547e-14 L264,160 L252,160 C252,226.27417 198.27417,280 132,280 C65.72583,280 12,226.27417 12,160 L12,160 L-3.19744231e-14,160 Z" id="circle_path-3" />
        <path d="M100,0 C130.927946,-5.68137151e-15 156,25.072054 156,56 L156.000809,62.1660527 C161.675838,63.1185422 166,68.05429 166,74 L166,88 C166,94.0524166 161.519235,99.0582945 155.693975,99.8813638 C153.627928,119.686472 141.237929,136.421678 124.001014,144.610469 L124,163 L128,163 C167.764502,163 200,195.235498 200,235 L200,244 L0,244 L0,235 C-4.86974701e-15,195.235498 32.235498,163 72,163 L76,163 L75.9999836,144.610943 C58.7625487,136.422324 46.3721119,119.686854 44.3051107,99.8809698 C38.480765,99.0582945 34,94.0524166 34,88 L34,74 C34,68.053942 38.3246685,63.1179645 44.0001873,62.1658855 L44,56 C44,25.072054 69.072054,5.68137151e-15 100,0 Z" id="circle_path-5" />
        <path d="M83,36.3476251 C83,52.6289957 105.161905,65.8276544 132.5,65.8276544 C159.838095,65.8276544 182,52.6289957 182,36.3476251 C182,34.9853134 181.844841,33.6445843 181.544472,32.3313638 C210.784239,41.4879251 232,68.792221 232,101.051724 L232,110 L32,110 L32,101.051724 C32,68.3970853 53.7386736,40.8197864 83.5337207,32.0021267 C83.1821692,33.4207025 83,34.871494 83,36.3476251 Z" id="circle_path-7" />
        <rect id="circle_path-9" x="0" y="0" width="264" height="280" />
        <path d="M74,0 C114.869071,0 148,33.1309285 148,74 L148,84.1482318 L148,197.608051 C135.525121,187.236892 119.490913,181 102,181 L102,181 L98,181 L98,162.610951 C115.530782,154.282984 128.048193,137.114792 129.791419,116.867187 C135.569129,116.002364 140,111.018625 140,105 L140,105 L140,92 C140,87.3536213 137.359271,83.3240177 133.496777,81.3301515 C132.723933,81.0500337 131.951808,80.748163 131.180891,80.4262497 C130.794819,80.3202581 130.400778,80.2331546 130,80.1659169 L130,80.1659169 L130.000458,79.9172528 C117.224481,74.2339715 104.877985,63.0706967 96.1104311,47.8848473 C93.1752556,42.8009742 90.8310687,37.5951441 89.0661426,32.3970356 C80.4313947,42.9409152 67.7445474,53.6023901 52.3415164,62.4953343 C42.777598,68.0170651 33.1467898,72.2910056 24,75.2659587 L24.0003852,137.246608 C29.6019576,148.318362 38.7728825,157.277529 50,162.610951 L50,162.610951 L50,181 L46,181 C38.3273639,181 30.9350359,182.200142 24.0004995,184.422941 L24,230 C24,244.105888 13.5691766,255.775526 0,257.716445 L0,74 C0,33.1309285 33.1309285,0 74,0 Z" id="circle_path-11" />
    </defs>
    <g id="circle_Avataaar/Circle" stroke="none" stroke-width="1" fill="none" fill-rule="evenodd">
        <g id="circle_Circle" transform="translate(12.000000, 40.000000)">
            <mask id="circle_mask-2" fill="white">
                <use xlink:href="#circle_path-1" />
            </mask>
            <use id="circle_Background-Color" fill="rgba(0,0,0,0.0" xlink:href="#circle_path-1" />
            <g id="circle_Fabric-Color" mask="url(#circle_mask-2)" fill="">
                <rect id="circle_ðŸ–Color" x="0" y="0" width="240" height="240" />
            </g>
        </g>
        <mask id="circle_mask-4" fill="white">
            <use xlink:href="#circle_path-3" />
        </mask>
        <g id="circle_Mask" />
        <g id="circle_Avataaar" mask="url(#circle_mask-4)">
            <g id="circle_Body" transform="translate(32.000000, 36.000000)">
                <mask id="circle_mask-6" fill="white">
                    <use xlink:href="#circle_path-5" />
                </mask>
                <use fill="#D0C6AC" xlink:href="#circle_path-5" />
                <g id="circle_Skin-Color" mask="url(#circle_mask-6)" fill="#EDB98A">
                    <g transform="translate(-32.000000, 0.000000)" id="circle_Color">
                        <rect x="0" y="0" width="264" height="244" />
                    </g>
                </g>
                <path d="M44,94 C44,124.927946 69.072054,150 100,150 C130.927946,150 156,124.927946 156,94 L156,94 L156,102 C156,132.927946 130.927946,158 100,158 C69.072054,158 44,132.927946 44,102 Z" id="circle_Neck-Shadow" fill-opacity="0.100000001" fill="#000000" mask="url(#circle_mask-6)" />
            </g>
            <g id="circle_Clothing" transform="translate(0.000000, 170.000000)">
                
            <defs>
        <path d="M160,29.0517235 C199.764502,29.0517235 232,61.2872215 232,101.051724 L232,110 L32,110 L32,101.051724 C32,61.2872215 64.235498,29.0517235 104,29.0517235 L105.192363,29.0520252 C105.065349,30.0355191 105,31.0365551 105,32.0517235 C105,45.8588423 117.088312,57.0517235 132,57.0517235 C146.911688,57.0517235 159,45.8588423 159,32.0517235 C159,31.0365551 158.934651,30.0355191 158.807637,29.0520252 L160,29.0517235 Z" id="collar_sweater_path-1" />
    </defs>
    <g id="collar_sweater_Clothing/Collar-+-Sweater" stroke="none" stroke-width="1" fill="none" fill-rule="evenodd">
        <mask id="collar_sweater_mask-2" fill="white">
            <use xlink:href="#collar_sweater_path-1" />
        </mask>
        <use id="collar_sweater_Clothes" fill="#E6E6E6" xlink:href="#collar_sweater_path-1" />
        <g id="collar_sweater_Fabric-Color" mask="url(#collar_sweater_mask-2)" fill="#FF488E">
            <rect id="collar_sweater_ðŸ–Color" x="0" y="0" width="264" height="110" />
        </g>
        <path d="M118.07795,50.9956082 L118,51.0567821 L119,54.207887 L114.421,53.8754994 L108.308702,58.6917545 C101.361717,54.0802103 97,47.4262523 97,40.027915 C97,32.7399202 101.232581,26.1742662 107.999601,21.5717708 L108,36.8768102 C108,42.7004148 111.977587,47.8531513 118.07795,50.9956082 Z M166,40.027915 C166,47.2334229 161.862687,53.7328485 155.229194,58.3270307 L149.58,53.8754994 L145,54.207887 L146,51.0567821 L146.015,51.0664994 L145.923049,50.9950934 C152.022847,47.8525885 156,42.7000968 156,36.8768102 L156.000973,22.2802074 C162.182048,26.8358435 166,33.1060895 166,40.027915 Z" id="collar_sweater_Collar" fill="#F2F2F2" />
    </g>
</g>
            <g id="circle_Face" transform="translate(76.000000, 82.000000)" fill="#000000">
                <g id="circle_Mouth" transform="translate(2.000000, 52.000000)">    
                    
                <defs>
        <path d="M34.0082051,12.6020819 C35.1280248,23.0929366 38.2345159,31.9944054 53.9961505,31.9999965 C69.757785,32.0055894 72.9169073,23.0424631 73.9942614,12.5047938 C74.0809675,11.6567158 73.1738581,10.9999965 72.0369872,10.9999965 C65.3505138,10.9999965 62.6703194,12.4951994 53.9894323,12.4999965 C45.3085452,12.5047938 40.7567994,10.9999965 36.0924943,10.9999965 C34.9490269,10.9999965 33.8961688,11.5524868 34.0082051,12.6020819 Z" id="vomit_path-1" />
        <path d="M66,25 C69.3137085,25 72,27.6862915 72,31 L72,36 C72,39.3137085 69.3137085,42 66,42 C62.6862915,42 60,39.3137085 60,36 L59.9170737,36.0001915 C59.4410745,33.1623839 56.9730632,31 54,31 C51.0269368,31 48.5589255,33.1623839 48.0829263,36.0001915 L48,36 L48,38 C48,41.3137085 45.3137085,44 42,44 C38.6862915,44 36,41.3137085 36,38 L36,31 C36,27.6862915 38.6862915,25 42,25 L66,25 Z" id="vomit_path-3" />
        <filter x="-1.4%" y="-2.6%" width="102.8%" height="105.3%" filterUnits="objectBoundingBox" id="vomit_filter-4">
            <feOffset dx="0" dy="-1" in="SourceAlpha" result="shadowOffsetInner1" />
            <feComposite in="shadowOffsetInner1" in2="SourceAlpha" operator="arithmetic" k2="-1" k3="1" result="shadowInnerInner1" />
            <feColorMatrix values="0 0 0 0 0   0 0 0 0 0   0 0 0 0 0  0 0 0 0.1 0" type="matrix" in="shadowInnerInner1" />
        </filter>
    </defs>
    <g id="vomit_Mouth/Vomit" stroke="none" stroke-width="1" fill="none" fill-rule="evenodd">
        <mask id="vomit_mask-2" fill="white">
            <use xlink:href="#vomit_path-1" transform="translate(54.000000, 21.499998) scale(1, -1) translate(-54.000000, -21.499998)" />
        </mask>
        <use id="vomit_Mouth" fill-opacity="0.699999988" fill="#000000" transform="translate(54.000000, 21.499998) scale(1, -1) translate(-54.000000, -21.499998)" xlink:href="#vomit_path-1" />
        <path d="M44,0 L65,0 C67.7614237,-5.07265313e-16 70,2.23857625 70,5 L70,11 C70,13.7614237 67.7614237,16 65,16 L44,16 C41.2385763,16 39,13.7614237 39,11 L39,5 C39,2.23857625 41.2385763,5.07265313e-16 44,0 Z" id="vomit_Teeth" fill="#FFFFFF" mask="url(#vomit_mask-2)" />
        <g id="vomit_Vomit-Stuff">
            <use fill="#88C553" fill-rule="evenodd" xlink:href="#vomit_path-3" />
        </g>
    </g>
</g>
                <g id="circle_Nose" transform="translate(28.000000, 40.000000)" fill-opacity="0.16">
                    
                <g id="default_Nose/Default" stroke="none" stroke-width="1" fill="none" fill-rule="evenodd" fill-opacity="0.16">
        <path d="M16,8 C16,12.418278 21.372583,16 28,16 L28,16 C34.627417,16 40,12.418278 40,8" id="default_Nose" fill="#000000" />
    </g>
</g>
                <g id="circle_Eyes" transform="translate(0.000000, 8.000000)">
                    
                <g id="wink_Eyes/Wink-ðŸ˜‰" stroke="none" stroke-width="1" fill="none" fill-rule="evenodd" fill-opacity="0.599999964">
        <circle id="wink_Eye" fill="#000000" cx="30" cy="22" r="6" />
        <path d="M70.4123979,24.204889 C72.2589064,20.4060854 76.4166529,17.7575774 81.2498107,17.7575774 C86.065907,17.7575774 90.2113521,20.3874194 92.0675822,24.1647016 C92.618991,25.2867751 91.8343342,26.2050591 91.0428374,25.5246002 C88.5917368,23.4173607 85.1109468,22.1013658 81.2498107,22.1013658 C77.5094365,22.1013658 74.1259889,23.3363293 71.6897696,25.3292186 C70.7990233,26.0578718 69.8723316,25.3159619 70.4123979,24.204889 Z" id="wink_Winky-Wink" fill="#000000" transform="translate(81.252230, 21.757577) rotate(-4.000000) translate(-81.252230, -21.757577) " />
    </g>
</g>
                <g id="circle_Eyebrow" fill-opacity="0.599999964">
                    
                <g id="raised_excited_Eyebrow/Outline/Raised-Excited" stroke="none" stroke-width="1" fill="none" fill-rule="evenodd" fill-opacity="0.599999964">
        <g id="raised_excited_I-Browse" transform="translate(12.000000, 0.000000)" fill="#000000" fill-rule="nonzero">
            <path d="M3.97579559,17.1279169 C5.47099148,7.60476158 18.0585488,1.10867597 27.1635167,5.30104271 C28.1668367,5.76301969 29.3546946,5.32417444 29.8166716,4.32085442 C30.2786486,3.3175344 29.8398033,2.12967649 28.8364833,1.66769952 C17.3488212,-3.62177466 1.93575948,4.3324746 0.0242044059,16.507492 C-0.147121205,17.5986938 0.598585765,18.6221744 1.68978754,18.7935 C2.78098932,18.9648257 3.80446998,18.2191187 3.97579559,17.1279169 Z" id="raised_excited_Eyebrow" />
            <path d="M61.9757956,17.1279169 C63.4709915,7.60476158 76.0585488,1.10867597 85.1635167,5.30104271 C86.1668367,5.76301969 87.3546946,5.32417444 87.8166716,4.32085442 C88.2786486,3.3175344 87.8398033,2.12967649 86.8364833,1.66769952 C75.3488212,-3.62177466 59.9357595,4.3324746 58.0242044,16.507492 C57.8528788,17.5986938 58.5985858,18.6221744 59.6897875,18.7935 C60.7809893,18.9648257 61.80447,18.2191187 61.9757956,17.1279169 Z" id="raised_excited_Eyebrow" transform="translate(73.000097, 9.410436) scale(-1, 1) translate(-73.000097, -9.410436) " />
        </g>
    </g>
</g>
            </g>
            <g id="circle_Top">
                
            <defs>
        <path d="M73,-7.10542736e-15 C85.7219537,-9.44241233e-15 97.5342942,3.89451668 107.309847,10.5563754 C117.203155,4.65354893 125.906598,2.84119251 133.419297,5.12029235 C137.342181,13.7864707 136.088687,24.8654742 129.658817,38.3573029 C132.459583,45.3577133 134,52.9989648 134,61 L134,69 L2,69 L2,61 C2,52.9746294 3.54980175,45.3112343 6.36644521,38.2927749 C-0.0371877014,24.830427 -1.28052214,13.7727611 2.63615554,5.12029235 C10.1413088,2.84348155 18.8348158,4.64991255 28.7166765,10.5395853 C38.486587,3.88763544 50.2892906,-4.77050791e-15 63,-7.10542736e-15 L73,-7.10542736e-15 Z" id="winter_hat_4_path-1" />
        <path d="M133.419297,5.12029235 C137.342181,13.7864707 136.088687,24.8654742 129.658817,38.3573029 C125.120783,27.0107832 117.273218,17.3462285 107.309847,10.5563754 C117.203155,4.65354893 125.906598,2.84119251 133.419297,5.12029235 Z M28.7166765,10.5395853 L28.5059632,10.6823903 C18.6487145,17.4527497 10.8806015,27.044485 6.36644521,38.2927749 C-0.0371877014,24.830427 -1.28052214,13.7727611 2.63615554,5.12029235 C10.1413088,2.84348155 18.8348158,4.64991255 28.7166765,10.5395853 Z" id="winter_hat_4_path-3" />
        <path d="M21.8611602,15.9589276 L21.211192,16.562208 C17.0135267,20.5111528 13.3754262,25.0481848 10.4284992,30.0416954 C7.50362993,21.9329304 7.00274925,16.3216092 8.92709323,13.2081228 C11.5781533,12.0616266 15.8895089,12.9785616 21.8611602,15.9589276 Z M126.68574,13.3144617 C128.572237,16.3667136 128.127967,21.819514 125.352931,29.6728628 C122.278019,24.5465243 118.471615,19.9084275 114.077772,15.9038065 C119.880435,13.0520581 124.083155,12.1889293 126.68574,13.3144617 Z" id="winter_hat_4_path-5" />
        <path d="M67.2845981,61.4514245 C83.2297066,49.8171415 105.159178,44 133.073012,44 C160.985408,44 182.871591,49.8165424 198.731559,61.4496271 C200.786178,62.9566691 202,65.3523287 202,67.9003936 L202,98.3697692 C201.999998,100.578907 200.209138,102.369767 198,102.369767 C197.244438,102.369767 196.504327,102.155772 195.86535,101.752557 C179.223259,91.2508523 158.53625,86 133.804323,86 C108.883259,86 87.6403936,91.3314713 70.075727,101.994414 C68.1873197,103.140807 65.7271281,102.539284 64.5807363,100.650876 C64.2008721,100.02514 64,99.3071624 64,98.5751498 L64,67.914014 C63.999995,65.3588919 65.2205111,62.957477 67.2845981,61.4514245 Z" id="winter_hat_4_path-7" />
        <filter x="-0.7%" y="-1.7%" width="101.4%" height="106.8%" filterUnits="objectBoundingBox" id="winter_hat_4_filter-8">
            <feOffset dx="0" dy="2" in="SourceAlpha" result="shadowOffsetOuter1" />
            <feColorMatrix values="0 0 0 0 0   0 0 0 0 0   0 0 0 0 0  0 0 0 0.1 0" type="matrix" in="shadowOffsetOuter1" />
        </filter>
    </defs>
    <g id="winter_hat_4_Facial-Hair" transform="translate(49.000000, 72.000000)"><defs>
        <path d="M101.428403,98.1685688 C98.9148372,100.462621 96.23722,101.494309 92.8529444,100.772863 C92.2705777,100.648833 89.8963391,96.2345713 83.9998344,96.2345713 C78.1033297,96.2345713 75.7294253,100.648833 75.1467245,100.772863 C71.7624488,101.494309 69.0848316,100.462621 66.5712661,98.1685688 C61.8461772,93.855604 57.9166219,87.9081858 60.2778299,81.4191814 C61.5083844,78.0369425 63.5097479,74.3237342 67.1506257,73.2459109 C71.0384163,72.0955419 76.4968931,73.2439051 80.4147542,72.4582708 C81.6840664,72.2035248 83.0706538,71.7508657 83.9998344,71 C84.929015,71.7508657 86.3159365,72.2035248 87.5845805,72.4582708 C91.5027758,73.2439051 96.9612525,72.0955419 100.849043,73.2459109 C104.489921,74.3237342 106.491284,78.0369425 107.722173,81.4191814 C110.083381,87.9081858 106.153826,93.855604 101.428403,98.1685688 M140.081033,26 C136.670693,34.4002532 137.987774,44.8580348 137.356666,53.6758724 C136.844038,60.8431942 135.33712,71.5857526 128.972858,76.214531 C125.718361,78.5816138 119.79436,82.5598986 115.54187,81.4501943 C112.614539,80.6863848 112.302182,72.290096 108.455284,69.1469801 C104.09172,65.5823153 98.6429854,64.0160432 93.1491481,64.2578722 C90.7785381,64.3622683 85.9841367,64.3374908 83.9999331,66.1604584 C82.0157295,64.3374908 77.2216647,64.3622683 74.8510547,64.2578722 C69.3568808,64.0160432 63.9081467,65.5823153 59.5445817,69.1469801 C55.6976839,72.290096 55.3856641,80.6863848 52.4583326,81.4501943 C48.2058427,82.5598986 42.2818421,78.5816138 39.0270077,76.214531 C32.6624096,71.5857526 31.1561652,60.8431942 30.642864,53.6758724 C30.0120926,44.8580348 31.3291729,34.4002532 27.9188335,26 C26.2597768,26 27.3540339,42.1288693 27.3540339,42.1288693 L27.3540339,62.4851205 C27.3856735,77.7732046 36.935095,100.655445 58.1080116,109.393004 C63.2861266,111.52982 75.0153111,115 83.9999331,115 C92.9845551,115 104.71374,111.860188 109.891855,109.723371 C131.064771,100.985813 140.614193,77.7732046 140.646169,62.4851205 L140.646169,42.1288693 C140.646169,42.1288693 141.740089,26 140.081033,26" id="beard_light_path-1" />
    </defs>
    <g id="beard_light_Facial-Hair/Beard-Light" stroke="none" stroke-width="1" fill="none" fill-rule="evenodd">
        <mask id="beard_light_mask-2" fill="white">
            <use xlink:href="#beard_light_path-1" />
        </mask>
        <use id="beard_light_Lite-Beard" fill="#331B0C" xlink:href="#beard_light_path-1" />
        <g id="beard_light_Facial-Hair-Color" mask="url(#beard_light_mask-2)" fill="#C93305">
            <rect id="beard_light_Color" x="0" y="0" width="168" height="152" />
        </g>
    </g>
</g>
    <g id="winter_hat_4_Top/Accessories/Winter-Hat-4" stroke="none" stroke-width="1" fill="none" fill-rule="evenodd">
        <g id="winter_hat_4_hat" transform="translate(65.000000, 4.000000)">
            <mask id="winter_hat_4_mask-2" fill="white">
                <use xlink:href="#winter_hat_4_path-1" />
            </mask>
            <use id="winter_hat_4_hat-mask" fill="#D8D8D8" xlink:href="#winter_hat_4_path-1" />
            <g id="winter_hat_4_Fabric-Color" mask="url(#winter_hat_4_mask-2)" fill="#5199E4">
                <g transform="translate(-22.000000, -4.000000)" id="winter_hat_4_ðŸ–Color">
                    <rect x="0" y="0" width="180" height="191" />
                </g>
            </g>
            <mask id="winter_hat_4_mask-4" fill="white">
                <use xlink:href="#winter_hat_4_path-3" />
            </mask>
            <use id="winter_hat_4_shadow" fill-opacity="0.24" fill="#000000" xlink:href="#winter_hat_4_path-3" />
            <mask id="winter_hat_4_mask-6" fill="white">
                <use xlink:href="#winter_hat_4_path-5" />
            </mask>
            <use id="winter_hat_4_light" fill-opacity="0.300000012" fill="#FFFFFF" xlink:href="#winter_hat_4_path-5" />
        </g>
        <g id="winter_hat_4_hat-front">
            <use fill="black" fill-opacity="1" filter="url(#winter_hat_4_filter-8)" xlink:href="#winter_hat_4_path-7" />
            <use fill="#F4F4F4" fill-rule="evenodd" xlink:href="#winter_hat_4_path-7" />
        </g>
        <g id="winter_hat_4_Accessory" transform="translate(62.000000, 85.000000)" />
    </g>
</g>
        </g>
    </g>
</svg>