<svg xmlns="http://www.w3.org/2000/svg" xmlns:xlink="http://www.w3.org/1999/xlink" width="264px" height="280px" viewBox="0 0 264 280" version="1.1">
    <title id="transparent_Title">Avataaar/Default</title>
    <desc>Created with python_avatars</desc>
    <defs>
        <path d="M100,0 C130.927946,-5.68137151e-15 156,25.072054 156,56 L156.000809,62.1660527 C161.675838,63.1185422 166,68.05429 166,74 L166,88 C166,94.0524166 161.519235,99.0582945 155.693975,99.8813638 C153.627928,119.686472 141.237929,136.421678 124.001014,144.610469 L124,163 L128,163 C167.764502,163 200,195.235498 200,235 L200,244 L0,244 L0,235 C-4.86974701e-15,195.235498 32.235498,163 72,163 L76,163 L75.9999836,144.610943 C58.7625487,136.422324 46.3721119,119.686854 44.3051107,99.8809698 C38.480765,99.0582945 34,94.0524166 34,88 L34,74 C34,68.053942 38.3246685,63.1179645 44.0001873,62.1658855 L44,56 C44,25.072054 69.072054,5.68137151e-15 100,0 Z" id="transparent_path-1" />
        <path d="M83,36.3476251 C83,52.6289957 105.161905,65.8276544 132.5,65.8276544 C159.838095,65.8276544 182,52.6289957 182,36.3476251 C182,34.9853134 181.844841,33.6445843 181.544472,32.3313638 C210.784239,41.4879251 232,68.792221 232,101.051724 L232,110 L32,110 L32,101.051724 C32,68.3970853 53.7386736,40.8197864 83.5337207,32.0021267 C83.1821692,33.4207025 83,34.871494 83,36.3476251 Z" id="transparent_path-3" />
        <rect id="transparent_path-5" x="0" y="0" width="264" height="280" />
        <path d="M74,0 C114.869071,0 148,33.1309285 148,74 L148,84.1482318 L148,197.608051 C135.525121,187.236892 119.490913,181 102,181 L102,181 L98,181 L98,162.610951 C115.530782,154.282984 128.048193,137.114792 129.791419,116.867187 C135.569129,116.002364 140,111.018625 140,105 L140,105 L140,92 C140,87.3536213 137.359271,83.3240177 133.496777,81.3301515 C132.723933,81.0500337 131.951808,80.748163 131.180891,80.4262497 C130.794819,80.3202581 130.400778,80.2331546 130,80.1659169 L130,80.1659169 L130.000458,79.9172528 C117.224481,74.2339715 104.877985,63.0706967 96.1104311,47.8848473 C93.1752556,42.8009742 90.8310687,37.5951441 89.0661426,32.3970356 C80.4313947,42.9409152 67.7445474,53.6023901 52.3415164,62.4953343 C42.777598,68.0170651 33.1467898,72.2910056 24,75.2659587 L24.0003852,137.246608 C29.6019576,148.318362 38.7728825,157.277529 50,162.610951 L50,162.610951 L50,181 L46,181 C38.3273639,181 30.9350359,182.200142 24.0004995,184.422941 L24,230 C24,244.105888 13.5691766,255.775526 0,257.716445 L0,74 C0,33.1309285 33.1309285,0 74,0 Z" id="transparent_path-7" />
    </defs>
    <g id="transparent_Avataaar/Default" stroke="none" stroke-width="1" fill="none" fill-rule="evenodd">
        <g id="transparent_Body" transform="translate(32.000000, 36.000000)">
            <mask id="transparent_mask-2" fill="white">
                <use xlink:href="#transparent_path-1" />
            </mask>
            <use fill="#D0C6AC" xlink:href="#transparent_path-1" />
            <g id="transparent_Skin-Color" mask="url(#transparent_mask-2)" fill="#FD9841">
                <g transform="translate(-32.000000, 0.000000)" id="transparent_Color">
                    <rect x="0" y="0" width="264" height="244" />
                </g>
            </g>
            <path d="M44,94 C44,124.927946 69.072054,150 100,150 C130.927946,150 156,124.927946 156,94 L156,94 L156,102 C156,132.927946 130.927946,158 100,158 C69.072054,158 44,132.927946 44,102 Z" id="transparent_Neck-Shadow" fill-opacity="0.100000001" fill="#000000" mask="url(#transparent_mask-2)" />
        </g>
        <g id="transparent_Clothing" transform="translate(0.000000, 170.000000)">
            
        <defs>
        <path d="M99,32.5 C99,44.3741221 113.998461,54 132.5,54 C151.001539,54 166,44.3741221 166,32.5 C166,31.4019929 165.871751,30.3232102 165.624342,29.2694852 C202.75978,32.1370674 232,63.1796858 232,101.051724 L232,110 L32,110 L32,101.051724 C32,62.8342194 61.7761079,31.571298 99.3946469,29.196636 C99.1341902,30.2738104 99,31.3768477 99,32.5 Z" id="graphic_shirt_path-1" />
    </defs>
    <g id="graphic_shirt_Clothing/Graphic-Shirt" stroke="none" stroke-width="1" fill="none" fill-rule="evenodd">
        <mask id="graphic_shirt_mask-2" fill="white">
            <use xlink:href="#graphic_shirt_path-1" />
        </mask>
        <use id="graphic_shirt_Clothes" fill="#E6E6E6" xlink:href="#graphic_shirt_path-1" />
        <g id="graphic_shirt_Fabric-Color" mask="url(#graphic_shirt_mask-2)" fill="#FF488E">
            <rect id="graphic_shirt_ðŸ–Color" x="0" y="0" width="264" height="110" />
        </g>
        <g id="graphic_shirt_Graphic" fill="#FFFFFF" transform="translate(77.000000, 58.000000)">
        <g id="cumbia_Clothing/Graphic/Cumbia" stroke="none" stroke-width="1" fill="none" fill-rule="evenodd">
        <g id="cumbia_Cumbia" transform="translate(0.000000, 6.000000)" fill="#FFFFFF">
            <path d="M10.271566,24.1315073 C13.5453197,23.5731503 16.0029461,20.5783262 15.4519585,17.3443595 C14.9878717,14.6197774 13.7065483,17.0011951 12.4758861,18.1969085 C11.1405733,19.4948562 10.0263951,20.7706412 7.9400381,20.2508902 C4.33273358,19.3518711 3.08247252,14.8503409 4.09976568,11.7711556 C4.65593031,10.0878629 5.87660814,8.76060323 7.57838317,8.07498941 C9.42992328,7.32896437 10.7818767,8.16542752 12.3264908,9.1691833 C12.6145575,9.35649386 14.0556303,10.5386236 14.3204002,10.4181586 C14.7822683,10.2079704 14.435405,7.98955578 14.3651448,7.69393398 C14.0267867,6.27266155 13.0993526,5.11877135 11.7481388,4.45603516 C8.41484886,2.82099993 4.23436935,4.94468693 2.10881463,7.51091298 C-2.77648522,13.4083357 1.18803674,25.6753895 10.271566,24.1315073" id="cumbia_Fill-1" />
            <path d="M20.283037,5.0382162 C20.2819296,5.04100097 20.2826679,5.03926048 20.283037,5.0382162 M18.6886879,17.9031695 C19.1918363,21.3771733 21.6658646,24.4038731 25.6412168,24.2597611 C29.9192703,24.1048581 31.6970859,20.1616201 32.6494871,16.7739442 C33.6055798,13.3751292 34.7008413,9.09110464 33.3132148,5.68149867 C32.8931247,4.64939232 32.6284457,3.30051808 31.5966777,4.15126612 C30.3445285,5.18372056 30.188379,8.18953451 30.0824336,9.59271181 C29.8819863,12.2396382 29.3005786,19.5639383 25.9741881,20.5368682 C21.7954354,21.7593834 21.9264829,14.6895419 21.9733647,12.559887 C22.0147092,10.6641531 22.2203245,8.82550695 21.6322721,6.97572174 C21.3192348,5.99095653 21.0416357,4.53521664 20.1036312,5.34175641 C18.8141981,6.45044401 18.6506656,9.16977447 18.5602244,10.6690264 C18.4155185,13.0736776 18.3464879,15.5110498 18.6886879,17.9031695" id="cumbia_Fill-5" />
            <path d="M37.7827156,20.7457507 C37.9712859,21.1583285 38.4071734,22.1476129 38.8028084,22.4248624 C39.7471104,23.085889 38.7480505,23.1327334 39.6027816,22.3662202 C40.4161723,21.6371824 40.7331154,19.6485506 40.8571366,18.6953537 C41.2422552,15.7354812 40.7367418,12.5875371 40.7704668,9.60302793 C41.7938233,11.8206768 42.3544573,14.1868398 43.1555184,16.4766638 C43.7096249,18.0589637 44.5516638,21.2808179 46.809793,21.2301566 C49.2532288,21.1753312 49.3790632,18.0849884 49.7043469,16.4110816 C50.1652562,14.0411017 50.674396,11.6898595 51.3797214,9.37401083 C51.4718308,13.2836103 49.952752,20.3692605 53.4880823,23.2941176 C53.5018625,23.3072722 54.9204913,19.144366 54.954579,18.8882832 C55.1783249,17.1970267 55.0383477,15.4440049 55.0622816,13.7402565 C55.1130505,10.1433001 55.779574,5.73680294 54.762745,2.23422934 C54.4338349,1.10024771 53.7872564,-0.0302639607 52.3530342,0.000618647874 C50.5278914,0.0401761465 50.1202895,1.98612748 49.6550286,3.29915884 C48.3742011,6.91277103 47.2097796,10.5229133 46.2981148,14.2395832 C45.7498104,12.5594305 40.9593998,-2.18198369 37.5092887,3.33767535 C36.9540943,4.22633108 37.1937961,5.55601823 37.1709501,6.53385184 C37.1274339,8.41283302 37.0161049,10.2897322 36.9754898,12.1690604 C36.9138418,15.0116484 36.5653494,18.0756195 37.7827156,20.7457507" id="cumbia_Fill-7" />
            <path d="M62.0203329,7.70997634 C62.739914,7.57453437 67.7552707,5.98272311 67.5433251,7.57379827 C67.3203514,9.24915661 62.9098151,10.8829254 61.7267107,11.4497207 C61.7246429,10.2414163 61.4930536,9.00918877 61.0839813,7.88259125 C61.3958688,7.82517563 61.7081008,7.76739196 62.0203329,7.70997634 M67.7366608,7.0706755 C67.7370055,7.06957135 67.7101246,7.03497476 67.7366608,7.0706755 M67.8590034,15.4110304 C70.1314738,16.6318484 69.1461853,18.8279958 67.4326998,20.0186339 C66.7844565,20.4691256 60.9030521,21.8209691 60.9195942,21.6818466 C60.9202835,21.6855271 60.9192496,21.6869993 60.9164926,21.6866312 C61.0960433,19.9925024 60.6587116,16.6686533 61.9159109,15.6664563 C63.2203241,14.6267183 66.4163948,14.8593252 67.8590034,15.4110304 M67.9210363,7.41553727 C67.9299966,7.4383563 67.9220702,7.41811361 67.9210363,7.41553727 M57.9444294,24.2596607 C58.1677477,24.8109979 58.8039291,26.1720425 59.5100698,26.2047988 C60.3706034,26.2449162 60.3040904,25.1617484 60.4388396,24.49558 C63.8802848,26.2162084 68.9369967,24.4481017 71.346284,21.4654339 C74.1325933,18.014976 72.6941202,13.1953763 68.7674402,11.7202366 C70.879659,10.0319965 72.7933728,6.32096 70.0222271,4.23081061 C67.8262639,2.57459081 64.19424,2.48294665 61.8993688,3.92827446 C59.1637197,5.65111111 58.0495406,9.7614806 57.8096802,12.9340616 C57.553967,16.3156944 56.6513889,21.0591079 57.9444294,24.2596607" id="cumbia_Fill-9" />
            <path d="M76.0506048,15.8714133 C76.1237655,17.940757 75.9002189,20.1580872 76.3823293,22.1766928 C76.5533503,22.8940747 76.8153532,23.6882686 77.1423879,24.3390566 C77.7529985,25.5536025 77.4525393,25.3897603 78.1744543,24.6980999 C80.3464523,22.6164239 79.3828568,16.1236949 79.3306438,13.4500732 C79.2896863,11.3715683 79.3947376,9.17044617 78.8182061,7.16734396 C78.656252,6.60499548 77.6954704,3.81897451 77.1633356,3.88345432 C76.3469995,3.98140725 75.7873513,7.81319908 75.7401407,8.57603396 C75.592256,10.9723573 75.9658759,13.4712141 76.0506048,15.8714133" id="cumbia_Fill-11" />
            <path d="M94.7477626,16.430477 C93.1655372,16.2926323 91.1264105,16.5045376 89.6311966,16.9871715 C90.3280165,15.0708102 91.1056588,12.9329761 91.8694667,11.1973368 C92.343479,10.1066267 92.8411555,9.02761048 93.3628603,7.95745314 C94.6410916,10.6431228 95.3546586,13.7848497 96.19492,16.6232471 C95.7158108,16.535721 95.233425,16.4715824 94.7477626,16.430477 M100.188346,17.1547822 C99.4605809,14.375208 98.6093975,11.6225649 97.7622188,8.8759458 C97.2244951,7.13215631 96.6321618,4.96384744 95.1624324,3.70729846 C90.9986238,0.146013273 88.6354794,9.55701945 87.6142778,11.9390054 C86.6294827,14.2352371 85.3978516,16.5725741 84.764743,18.9878696 C84.4541957,20.1714211 84.3555342,21.4261983 84.5197274,22.6402245 C84.725424,24.1589974 84.5157227,24.3811791 85.8136135,23.5544648 C86.8140635,22.9176858 87.2280051,21.7617741 88.0409617,20.9917569 C88.1847673,20.8556839 88.2586724,20.3241488 88.4301469,20.2373314 C88.6194606,20.1413008 89.9348266,20.4896334 90.2461019,20.5112492 C92.4155638,20.6622052 94.958192,20.2933198 96.9605482,19.4573923 C97.1658807,20.2989895 98.5882817,25.4187356 99.9378698,25.2302178 C100.5353,25.1465897 100.903369,22.1660952 100.929946,21.6933833 C101.017322,20.1398833 100.57826,18.6444979 100.188346,17.1547822" id="cumbia_Fill-13" />
            <path d="M109.301672,3.43213272 C109.038492,2.22890734 108.487555,0.14016215 107.459721,1.31990649 C106.069159,2.9162614 106.369359,6.49285063 106.348516,8.49692176 C106.333584,9.94847693 104.797121,20.5594163 106.905363,20.3801066 C106.815459,20.3801066 107.750277,18.7118855 107.885912,18.4578633 C108.700028,16.9340861 109.016405,15.4885791 109.213945,13.735684 C109.578851,10.499214 109.997264,6.62484253 109.301672,3.43213272" id="cumbia_Fill-15" />
            <path d="M108.164017,24.3012978 C105.924782,21.573307 101.852706,24.9591601 103.122505,27.675428 C104.85153,31.3753862 110.454236,27.1147969 108.164017,24.3012978" id="cumbia_Fill-17" />
            <path d="M94.8984918,28.5446042 C92.0066895,27.8070876 88.6012921,28.3048186 85.6491092,28.3933947 C82.5678984,28.4853064 79.489563,28.6568994 76.4083523,28.7499229 C69.8412367,28.9481999 63.2849033,28.8418345 56.7170689,28.7877252 C44.2631983,28.6854365 31.7816533,29.4770624 19.334252,28.9556122 C16.661689,28.8440582 13.7889353,28.2429265 11.1361398,28.7473286 C10.409056,28.8859372 8.12717022,29.2902742 7.80729649,30.013337 C7.47088995,30.7730903 9.20934979,31.5680517 10.1384213,31.968312 C12.560117,33.0119536 15.4670145,32.8262773 18.0389431,32.9319015 C20.9688428,33.0527208 23.9249793,32.9900875 26.856676,32.9181889 C38.9324486,32.6213292 50.9456841,31.5750933 63.0376301,31.7529868 C70.0126746,31.8560167 76.974421,31.7911597 83.9494655,31.7544692 C87.2686047,31.7366799 90.9489497,32.2799961 94.2217253,31.6922065 C94.773777,31.5928827 97.9847343,30.8375767 98.0294118,29.8561978 C98.0497872,29.4033107 95.2233973,28.6276211 94.8984918,28.5446042" id="cumbia_Fill-19" />
        </g>
    </g>
</g>
    </g>
</g>
        <g id="transparent_Face" transform="translate(76.000000, 82.000000)" fill="#000000">
            <g id="transparent_Mouth" transform="translate(2.000000, 52.000000)">    
                
            <defs>
        <rect id="grimace_path-1" x="24" y="9" width="60" height="22" rx="11" />
    </defs>
    <g id="grimace_Mouth/Grimace" stroke="none" stroke-width="1" fill="none" fill-rule="evenodd">
        <rect id="grimace_Mouth" fill-opacity="0.599999964" fill="#000000" x="22" y="7" width="64" height="26" rx="13" />
        <mask id="grimace_mask-2" fill="white">
            <use xlink:href="#grimace_path-1" />
        </mask>
        <use id="grimace_Mouth" fill="#FFFFFF" xlink:href="#grimace_path-1" />
        <path d="M36,6 L35.9993333,17.999 L44.9993333,17.999 L45,6 L49,6 L48.9993333,17.999 L57.9993333,17.999 L58,6 L62,6 L61.9993333,17.999 L70.9993333,17.999 L71,6 L75,6 L74.9993333,17.999 L83.8666667,18 L83.8666667,22 L74.9993333,21.999 L75,34 L71,34 L70.9993333,21.999 L61.9993333,21.999 L62,34 L58,34 L57.9993333,21.999 L48.9993333,21.999 L49,34 L45,34 L44.9993333,21.999 L35.9993333,21.999 L36,34 L32,34 L31.9993333,21.999 L24,22 L24,18 L31.9993333,17.999 L32,6 L36,6 Z" id="grimace_Grimace-Teeth" fill="#E6E6E6" mask="url(#grimace_mask-2)" />
    </g>
</g>
            <g id="transparent_Nose" transform="translate(28.000000, 40.000000)" fill-opacity="0.16">
                
            <g id="default_Nose/Default" stroke="none" stroke-width="1" fill="none" fill-rule="evenodd" fill-opacity="0.16">
        <path d="M16,8 C16,12.418278 21.372583,16 28,16 L28,16 C34.627417,16 40,12.418278 40,8" id="default_Nose" fill="#000000" />
    </g>
</g>
            <g id="transparent_Eyes" transform="translate(0.000000, 8.000000)">
                
            <g id="happy_Eyes/Happy-ðŸ˜" stroke="none" stroke-width="1" fill="none" fill-rule="evenodd" fill-opacity="0.599999964">
        <path d="M16.1601674,22.4473116 C18.006676,18.648508 22.1644225,16 26.9975803,16 C31.8136766,16 35.9591217,18.629842 37.8153518,22.4071242 C38.3667605,23.5291977 37.5821037,24.4474817 36.790607,23.7670228 C34.3395063,21.6597833 30.8587163,20.3437884 26.9975803,20.3437884 C23.2572061,20.3437884 19.8737584,21.5787519 17.4375392,23.5716412 C16.5467928,24.3002944 15.6201012,23.5583844 16.1601674,22.4473116 Z" id="happy_Squint" fill="#000000" />
        <path d="M74.1601674,22.4473116 C76.006676,18.648508 80.1644225,16 84.9975803,16 C89.8136766,16 93.9591217,18.629842 95.8153518,22.4071242 C96.3667605,23.5291977 95.5821037,24.4474817 94.790607,23.7670228 C92.3395063,21.6597833 88.8587163,20.3437884 84.9975803,20.3437884 C81.2572061,20.3437884 77.8737584,21.5787519 75.4375392,23.5716412 C74.5467928,24.3002944 73.6201012,23.5583844 74.1601674,22.4473116 Z" id="happy_Squint" fill="#000000" />
    </g>
</g>
            <g id="transparent_Eyebrow" fill-opacity="0.599999964">
                
            <g id="sad_concerned_natural_Eyebrow/Natural/Sad-Concerned-Natural" stroke="none" stroke-width="1" fill="none" fill-rule="evenodd" fill-opacity="0.599999964">
        <path d="M22.7663531,5.57844898 L23.6772984,5.17582144 C28.9190996,3.09473425 36.8645466,3.96712704 41.7227321,6.29911638 C42.2897848,6.57148957 41.9021563,7.4519421 41.3211012,7.40711006 C26.4021788,6.25602197 16.3582869,15.5525942 12.9460869,21.8470939 C12.8449215,22.0337142 12.5391523,22.05489 12.4635344,21.8808353 C10.156283,16.5620676 16.9134476,7.89614725 22.7663531,5.57844898 Z" id="sad_concerned_natural_Eyebrow" fill="#000000" transform="translate(27.000000, 13.000000) scale(-1, -1) translate(-27.000000, -13.000000) " />
        <path d="M80.7663531,5.57844898 L81.6772984,5.17582144 C86.9190996,3.09473425 94.8645466,3.96712704 99.7227321,6.29911638 C100.289785,6.57148957 99.9021563,7.4519421 99.3211012,7.40711006 C84.4021788,6.25602197 74.3582869,15.5525942 70.9460869,21.8470939 C70.8449215,22.0337142 70.5391523,22.05489 70.4635344,21.8808353 C68.156283,16.5620676 74.9134476,7.89614725 80.7663531,5.57844898 Z" id="sad_concerned_natural_Eyebrow" fill="#000000" transform="translate(85.000000, 13.000000) scale(1, -1) translate(-85.000000, -13.000000) " />
    </g>
</g>
        </g>
        <g id="transparent_Top">
            
        <defs>
        <path d="M198.74696,37.856181 C193.606255,34.0244119 187.528383,30.7396605 181.187893,29.4782789 C174.741035,28.1960616 170.829392,27.8846292 164.483286,29.4052984 C162.85043,29.796545 162.299428,30.1854765 160.862131,29.2568033 C159.651446,28.4743102 151.200134,19.7668788 125.441738,24.5998777 C99.4069464,29.4847361 91.6728211,68.675365 82.0154166,70.1662691 C78.5349852,70.703365 74.2336661,69.781637 74.0992189,67.6388757 C70.1355043,73.6726057 69.0913088,81.6460323 70.7717335,88.7129442 C72.2186099,94.7989286 75.2686121,100.517478 80.7607964,103.849523 C85.4865987,106.716901 92.0203357,107.966046 97.4817987,107.437218 C99.9669245,107.196782 102.227091,106.673576 104.513684,105.671152 C107.272659,104.461694 109.470722,102.280238 112.177835,101.127995 C109.351471,103.576015 106.275372,105.735312 103.001731,107.546357 C101.362599,108.452872 99.6980301,109.07761 97.8887739,109.570058 C96.6533133,109.906073 94.127556,111.05104 92.9327267,110.752066 C100.740244,112.148383 108.093217,110.931649 115.252282,107.589351 C118.483309,106.08125 121.59079,104.256976 124.44325,102.112561 C127.276221,99.9826977 130.537639,97.8062025 132.753871,95.0036468 C131.823641,96.2071517 133.450882,94.4169423 133.665931,94.1980029 C134.274082,93.578226 134.869349,92.9458816 135.453055,92.302954 C136.455298,91.1993278 137.450603,90.0751967 138.383805,88.9120401 C140.37772,86.426318 142.234875,83.8298033 143.891185,81.1086057 C145.568637,78.352682 152.249704,67.2357231 154.266412,64.6190342 C152.361358,70.327001 150.286511,76.0372828 147.858864,81.5445 C152.572444,80.0744315 157.142657,76.0002417 160.15401,72.2035294 C163.545911,67.9275978 165.554691,62.9359795 166.262273,57.5379012 C170.087576,67.953725 179.047309,76.1675881 188.294435,81.8328914 C186.29094,78.1026546 183.238626,74.9478777 181.242068,71.1548033 C190.433037,80.4838679 205.809898,85.0481908 209.837367,98.7289227 C210.869671,93.9714569 214.189889,90.1482867 215.184533,85.2955724 C216.28885,79.9070851 217.081329,74.1868816 216.90592,68.6796644 C216.508524,56.4379129 208.273882,44.9574883 198.74696,37.856181 Z" id="shaggy_path-1" />
    </defs>
    <g id="shaggy_Top/Short-Hair/Shaggy" stroke="none" stroke-width="1" fill="none" fill-rule="evenodd" transform="translate(-1 0)">
        <g id="shaggy_Facial-Hair" transform="translate(49.000000, 72.000000)"><defs>
        <path d="M101.428403,98.1685688 C98.9148372,100.462621 96.23722,101.494309 92.8529444,100.772863 C92.2705777,100.648833 89.8963391,96.2345713 83.9998344,96.2345713 C78.1033297,96.2345713 75.7294253,100.648833 75.1467245,100.772863 C71.7624488,101.494309 69.0848316,100.462621 66.5712661,98.1685688 C61.8461772,93.855604 57.9166219,87.9081858 60.2778299,81.4191814 C61.5083844,78.0369425 63.5097479,74.3237342 67.1506257,73.2459109 C71.0384163,72.0955419 76.4968931,73.2439051 80.4147542,72.4582708 C81.6840664,72.2035248 83.0706538,71.7508657 83.9998344,71 C84.929015,71.7508657 86.3159365,72.2035248 87.5845805,72.4582708 C91.5027758,73.2439051 96.9612525,72.0955419 100.849043,73.2459109 C104.489921,74.3237342 106.491284,78.0369425 107.722173,81.4191814 C110.083381,87.9081858 106.153826,93.855604 101.428403,98.1685688 M140.081033,26 C136.670693,34.4002532 137.987774,44.8580348 137.356666,53.6758724 C136.844038,60.8431942 135.33712,71.5857526 128.972858,76.214531 C125.718361,78.5816138 119.79436,82.5598986 115.54187,81.4501943 C112.614539,80.6863848 112.302182,72.290096 108.455284,69.1469801 C104.09172,65.5823153 98.6429854,64.0160432 93.1491481,64.2578722 C90.7785381,64.3622683 85.9841367,64.3374908 83.9999331,66.1604584 C82.0157295,64.3374908 77.2216647,64.3622683 74.8510547,64.2578722 C69.3568808,64.0160432 63.9081467,65.5823153 59.5445817,69.1469801 C55.6976839,72.290096 55.3856641,80.6863848 52.4583326,81.4501943 C48.2058427,82.5598986 42.2818421,78.5816138 39.0270077,76.214531 C32.6624096,71.5857526 31.1561652,60.8431942 30.642864,53.6758724 C30.0120926,44.8580348 31.3291729,34.4002532 27.9188335,26 C26.2597768,26 27.3540339,42.1288693 27.3540339,42.1288693 L27.3540339,62.4851205 C27.3856735,77.7732046 36.935095,100.655445 58.1080116,109.393004 C63.2861266,111.52982 75.0153111,115 83.9999331,115 C92.9845551,115 104.71374,111.860188 109.891855,109.723371 C131.064771,100.985813 140.614193,77.7732046 140.646169,62.4851205 L140.646169,42.1288693 C140.646169,42.1288693 141.740089,26 140.081033,26" id="beard_light_path-1" />
    </defs>
    <g id="beard_light_Facial-Hair/Beard-Light" stroke="none" stroke-width="1" fill="none" fill-rule="evenodd">
        <mask id="beard_light_mask-2" fill="white">
            <use xlink:href="#beard_light_path-1" />
        </mask>
        <use id="beard_light_Lite-Beard" fill="#331B0C" xlink:href="#beard_light_path-1" />
        <g id="beard_light_Facial-Hair-Color" mask="url(#beard_light_mask-2)" fill="#2C1B18">
            <rect id="beard_light_Color" x="0" y="0" width="168" height="152" />
        </g>
    </g>
</g>
        <g id="shaggy_Accessory" transform="translate(62.000000, 86.000000)"><defs>
        <path d="M83.4984286,93.8410391 C72.1241067,94.2191416 67.0502492,99.7213834 63.2291365,94.1296214 C60.3611827,89.9323547 61.5611932,82.8739117 64.2409566,78.9027173 C68.0539313,73.2512381 73.2266239,75.9847769 79.010342,75.3400279 C80.5830033,75.1648137 82.1627854,74.7228407 83.4984286,74 C84.8340717,74.7228407 86.4135147,75.1648137 87.986176,75.3400279 C93.7702332,75.9847769 98.9425868,73.2512381 102.755901,78.9027173 C105.435325,82.8739117 106.635335,89.9323547 103.767382,94.1296214 C99.9462689,99.7213834 94.8727504,93.4629366 83.4984286,93.8410391 Z M138.719768,26 C135.335967,40.0748212 133.781202,54.4337754 131.327683,68.6711471 C130.816435,71.6390145 130.256705,74.5963095 129.662396,77.5496398 C129.537635,78.1697764 129.414569,80.4725746 128.810767,80.7643064 C126.981731,81.6484223 123.254159,76.9466834 122.257428,75.8851496 C119.754073,73.219256 117.272077,70.5292442 114.223231,68.437233 C108.062822,64.2102603 100.85042,61.7108818 93.3454397,61.117837 C90.2053971,60.8693859 85.9594573,61.3025234 83.0001146,63.1104016 C80.0407719,61.3025234 75.7948321,60.8693859 72.6544504,61.117837 C65.1494705,61.7108818 57.9370685,64.2102603 51.7766588,68.437233 C48.7278137,70.5292442 46.2461561,73.219256 43.742462,75.8851496 C42.7457307,76.9466834 39.018159,81.6484223 37.1891231,80.7643064 C36.5853209,80.4725746 36.4622551,78.1697764 36.3374942,77.5496398 C35.7431847,74.5963095 35.1834557,71.6390145 34.6722071,68.6711471 C32.2190276,54.4337754 30.6642623,40.0748212 27.2804612,26 C26.2959348,26 25.432101,44.7478165 25.3222572,46.4945731 C24.8750842,53.5889755 24.3529868,60.5254529 25.0201865,67.6261326 C26.1704958,79.8749043 27.3696246,95.2339402 36.5917624,104.58753 C44.9246396,113.039493 57.0232778,114.806417 67.4585647,120.141327 C68.8021178,120.828202 70.5843683,121.676306 72.5062968,122.37111 C74.5309497,123.934171 78.546353,125 83.1719999,125 C88.024115,125 92.2046231,123.827456 94.1201102,122.137856 C95.8006534,121.49261 97.3452479,120.752874 98.5413255,120.141327 C108.975814,114.805245 121.075251,113.039493 129.408128,104.58753 C138.630266,95.2339402 139.829394,79.8749043 140.980043,67.6261326 C141.646903,60.5254529 141.124806,53.5889755 140.677972,46.4945731 C140.567789,44.7478165 139.703955,26 138.719768,26 Z" id="eyepatch_path-1" />
    </defs>
    <g id="eyepatch_Top/Accesories/Eyepatch" stroke="none" stroke-width="1" fill="none" fill-rule="evenodd" transform="translate(-62 -85)">
        <path d="M160.395307,39.7810237 C157.318088,36.6927979 154.11865,43.6386608 152.623361,45.4281124 C149.013122,49.7486528 145.540256,54.182935 141.868413,58.4518947 C134.616309,66.8823544 127.439316,75.3743141 120.233991,83.8401528 C119.140279,85.1257012 119.27271,85.2649028 117.837048,85.3885641 C116.88598,85.4708947 115.563312,84.9802173 114.5737,84.9256608 C111.823607,84.774556 109.112057,85.2348141 106.435756,85.8227012 C101.091389,86.9961608 95.4264863,88.9291124 90.7890799,91.898306 C89.5718308,92.677306 88.7874545,93.5971608 87.4670933,93.841177 C86.3183659,94.0534512 84.794416,93.6295641 83.622299,93.5194592 C81.5412806,93.3237173 78.5378542,92.4726366 76.4953793,92.9137173 C73.9027538,93.4738302 72.9174244,96.6109915 75.5604528,98.0003624 C77.570314,99.0564431 81.5706,98.4761608 83.8235816,98.6447899 C86.3971,98.8372253 85.6120649,98.704306 85.2473843,101.164306 C84.7239177,104.69758 85.5985582,108.646475 87.0885766,111.878201 C90.5482655,119.383185 100.122861,127.335201 108.8551,126.603153 C116.142123,125.992451 122.526834,119.413274 125.519389,113.099935 C127.050916,109.868871 127.954546,106.192096 128.250376,102.628403 C128.438811,100.36183 128.333722,97.9580399 127.684083,95.7632173 C127.362888,94.6783705 126.853916,93.5554995 126.308378,92.5695157 C125.866281,91.7710076 123.908799,89.9203866 123.788886,89.1165882 C123.556307,87.5602415 127.973324,83.3874995 128.816339,82.3443141 C132.788953,77.4276205 136.780344,72.5320882 140.721662,67.5889431 C144.603353,62.7201931 148.506456,57.8640076 152.489612,53.0785802 C154.294237,50.9098786 163.318023,42.7148382 160.395307,39.7810237" id="eyepatch_Badass-Eyepatch" fill="#28354B" />
    </g>
</g>
        <mask id="shaggy_mask-2" fill="white">
            <use xlink:href="#shaggy_path-1" />
        </mask>
        <use id="shaggy_Shaggy-Hair" fill="" transform="translate(143.465161, 67.234158) scale(-1, 1) translate(-143.465161, -67.234158)" xlink:href="#shaggy_path-1" />
        <g id="shaggy_Hair-Color" mask="url(#shaggy_mask-2)" fill="#F59797" transform="translate(143.465161, 67.234158) scale(-1, 1) translate(-143.465161, -67.234158)">
            <g transform="translate(1.000000, 0.000000)" id="shaggy_Color">
                <rect x="0" y="0" width="264" height="280" />
            </g>
        </g>
    </g>
</g>
    </g>
</svg>