<svg xmlns="http://www.w3.org/2000/svg" xmlns:xlink="http://www.w3.org/1999/xlink" width="264px" height="280px" viewBox="0 0 264 280" version="1.1">
    <title id="transparent_Title">Avataaar/Default</title>
    <desc>Created with python_avatars</desc>
    <defs>
        <path d="M100,0 C130.927946,-5.68137151e-15 156,25.072054 156,56 L156.000809,62.1660527 C161.675838,63.1185422 166,68.05429 166,74 L166,88 C166,94.0524166 161.519235,99.0582945 155.693975,99.8813638 C153.627928,119.686472 141.237929,136.421678 124.001014,144.610469 L124,163 L128,163 C167.764502,163 200,195.235498 200,235 L200,244 L0,244 L0,235 C-4.86974701e-15,195.235498 32.235498,163 72,163 L76,163 L75.9999836,144.610943 C58.7625487,136.422324 46.3721119,119.686854 44.3051107,99.8809698 C38.480765,99.0582945 34,94.0524166 34,88 L34,74 C34,68.053942 38.3246685,63.1179645 44.0001873,62.1658855 L44,56 C44,25.072054 69.072054,5.68137151e-15 100,0 Z" id="transparent_path-1" />
        <path d="M83,36.3476251 C83,52.6289957 105.161905,65.8276544 132.5,65.8276544 C159.838095,65.8276544 182,52.6289957 182,36.3476251 C182,34.9853134 181.844841,33.6445843 181.544472,32.3313638 C210.784239,41.4879251 232,68.792221 232,101.051724 L232,110 L32,110 L32,101.051724 C32,68.3970853 53.7386736,40.8197864 83.5337207,32.0021267 C83.1821692,33.4207025 83,34.871494 83,36.3476251 Z" id="transparent_path-3" />
        <rect id="transparent_path-5" x="0" y="0" width="264" height="280" />
        <path d="M74,0 C114.869071,0 148,33.1309285 148,74 L148,84.1482318 L148,197.608051 C135.525121,187.236892 119.490913,181 102,181 L102,181 L98,181 L98,162.610951 C115.530782,154.282984 128.048193,137.114792 129.791419,116.867187 C135.569129,116.002364 140,111.018625 140,105 L140,105 L140,92 C140,87.3536213 137.359271,83.3240177 133.496777,81.3301515 C132.723933,81.0500337 131.951808,80.748163 131.180891,80.4262497 C130.794819,80.3202581 130.400778,80.2331546 130,80.1659169 L130,80.1659169 L130.000458,79.9172528 C117.224481,74.2339715 104.877985,63.0706967 96.1104311,47.8848473 C93.1752556,42.8009742 90.8310687,37.5951441 89.0661426,32.3970356 C80.4313947,42.9409152 67.7445474,53.6023901 52.3415164,62.4953343 C42.777598,68.0170651 33.1467898,72.2910056 24,75.2659587 L24.0003852,137.246608 C29.6019576,148.318362 38.7728825,157.277529 50,162.610951 L50,162.610951 L50,181 L46,181 C38.3273639,181 30.9350359,182.200142 24.0004995,184.422941 L24,230 C24,244.105888 13.5691766,255.775526 0,257.716445 L0,74 C0,33.1309285 33.1309285,0 74,0 Z" id="transparent_path-7" />
    </defs>
    <g id="transparent_Avataaar/Default" stroke="none" stroke-width="1" fill="none" fill-rule="evenodd">
        <g id="transparent_Body" transform="translate(32.000000, 36.000000)">
            <mask id="transparent_mask-2" fill="white">
                <use xlink:href="#transparent_path-1" />
            </mask>
            <use fill="#D0C6AC" xlink:href="#transparent_path-1" />
            <g id="transparent_Skin-Color" mask="url(#transparent_mask-2)" fill="#D08B5B">
                <g transform="translate(-32.000000, 0.000000)" id="transparent_Color">
                    <rect x="0" y="0" width="264" height="244" />
                </g>
            </g>
            <path d="M44,94 C44,124.927946 69.072054,150 100,150 C130.927946,150 156,124.927946 156,94 L156,94 L156,102 C156,132.927946 130.927946,158 100,158 C69.072054,158 44,132.927946 44,102 Z" id="transparent_Neck-Shadow" fill-opacity="0.100000001" fill="#000000" mask="url(#transparent_mask-2)" />
        </g>
        <g id="transparent_Clothing" transform="translate(0.000000, 170.000000)">
            
        <defs>
        <path d="M67,1.34762511 C67,13.2107177 81.9984609,22.8276544 100.5,22.8276544 C119.001539,22.8276544 134,13.2107177 134,1.34762511 C134,0.994756918 133.98673,0.64387605 133.960492,0.295176488 C170.936371,3.3248899 200,34.2942196 200,72.0517235 L200,81 L0,81 L0,72.0517235 C-4.66584974e-15,33.952169 29.5925972,2.76433598 67.0465686,0.219447423 C67.0151943,0.594730017 67,0.970039821 67,1.34762511 Z" id="blazer_shirt_path-1" />
    </defs>
    <g id="blazer_shirt_Clothing/Blazer-+-Shirt" stroke="none" stroke-width="1" fill="none" fill-rule="evenodd">
        <g id="blazer_shirt_Shirt" transform="translate(32.000000, 29.000000)">
            <mask id="blazer_shirt_mask-2" fill="white">
                <use xlink:href="#blazer_shirt_path-1" />
            </mask>
            <use id="blazer_shirt_Clothes" fill="#E6E6E6" xlink:href="#blazer_shirt_path-1" />
            <g id="blazer_shirt_Fabric-Color" mask="url(#blazer_shirt_mask-2)" fill="#65C9FF">
                <g transform="translate(-32.000000, -29.000000)" id="blazer_shirt_ðŸ–Color">
                    <rect x="0" y="0" width="264" height="110" />
                </g>
            </g>
            <g id="blazer_shirt_Shadowy" opacity="0.599999964" mask="url(#blazer_shirt_mask-2)" fill="#000000" fill-opacity="0.16">
                <g transform="translate(60.000000, -25.000000)" id="blazer_shirt_Hola-ðŸ‘‹ðŸ¼">
                    <ellipse cx="40.5" cy="27.8476251" rx="39.6351047" ry="26.9138272" />
                </g>
            </g>
        </g>
        <g id="blazer_shirt_Blazer" transform="translate(32.000000, 28.000000)">
            <path d="M64,40.5 C64,55.7092257 65.9608691,69.9209213 69.3620096,82.0011822 L0,82 L0,73.0517235 C-4.73779789e-15,34.3646678 30.512279,2.80413671 68.7847355,1.12223161 C65.7400343,12.7307619 64,26.1727873 64,40.5 Z M200,73.0517235 L200,82 L131.63799,82.0011822 C135.039131,69.9209213 137,55.7092257 137,40.5 C137,26.194165 135.265154,12.7708778 132.228695,1.1737534 C170.025091,3.36299447 200,34.7068514 200,73.0517235 Z" id="blazer_shirt_Saco" fill="#3A4C5A" />
            <path d="M149,58 L158.555853,50.83311 C159.998897,49.7508275 161.987779,49.7682725 163.411616,50.8757011 L170,56 L170,56 L149,58 Z" id="blazer_shirt_Pocket-hanky" fill="#E6E6E6" />
            <path d="M69,0 C65,19.3333333 66.6666667,46.6666667 74,82 L58,82 L44,46 L50,37 L44,31 L63,1 C65.027659,0.369238637 67.027659,0.0359053037 69,0 Z" id="blazer_shirt_Wing" fill="#2F4351" />
            <path d="M151,0 C147,19.3333333 148.666667,46.6666667 156,82 L140,82 L126,46 L132,37 L126,31 L145,1 C147.027659,0.369238637 149.027659,0.0359053037 151,0 Z" id="blazer_shirt_Wing" fill="#2F4351" transform="translate(141.000000, 41.000000) scale(-1, 1) translate(-141.000000, -41.000000) " />
        </g>
    </g>
</g>
        <g id="transparent_Face" transform="translate(76.000000, 82.000000)" fill="#000000">
            <g id="transparent_Mouth" transform="translate(2.000000, 52.000000)">    
                
            <defs>
        <path d="M35.117844,15.1280772 C36.1757121,24.6198025 44.2259873,32 54,32 C63.8042055,32 71.8740075,24.574136 72.8917593,15.0400546 C72.9736685,14.272746 72.1167429,13 71.042767,13 C56.1487536,13 44.7379213,13 37.0868244,13 C36.0066168,13 35.0120058,14.1784435 35.117844,15.1280772 Z" id="concerned_path-1" />
    </defs>
    <g id="concerned_Mouth/Concerned" stroke="none" stroke-width="1" fill="none" fill-rule="evenodd">
        <mask id="concerned_mask-2" fill="white">
            <use xlink:href="#concerned_path-1" transform="translate(54.003637, 22.500000) scale(1, -1) translate(-54.003637, -22.500000)" />
        </mask>
        <use id="concerned_Mouth" fill-opacity="0.699999988" fill="#000000" transform="translate(54.003637, 22.500000) scale(1, -1) translate(-54.003637, -22.500000)" xlink:href="#concerned_path-1" />
        <path d="M44,2 L65,2 C67.7614237,2 70,4.23857625 70,7 L70,13 C70,15.7614237 67.7614237,18 65,18 L44,18 C41.2385763,18 39,15.7614237 39,13 L39,7 C39,4.23857625 41.2385763,2 44,2 Z" id="concerned_Teeth" fill="#FFFFFF" mask="url(#concerned_mask-2)" />
        <g id="concerned_Tongue" mask="url(#concerned_mask-2)" fill="#FF4F6D">
            <g transform="translate(38.000000, 24.000000)">
                <circle id="concerned_friend?" cx="11" cy="11" r="11" />
                <circle id="concerned_How-you-doing" cx="21" cy="11" r="11" />
            </g>
        </g>
    </g>
</g>
            <g id="transparent_Nose" transform="translate(28.000000, 40.000000)" fill-opacity="0.16">
                
            <g id="default_Nose/Default" stroke="none" stroke-width="1" fill="none" fill-rule="evenodd" fill-opacity="0.16">
        <path d="M16,8 C16,12.418278 21.372583,16 28,16 L28,16 C34.627417,16 40,12.418278 40,8" id="default_Nose" fill="#000000" />
    </g>
</g>
            <g id="transparent_Eyes" transform="translate(0.000000, 8.000000)">
                
            <g id="side_Eyes/Side-ðŸ˜’" stroke="none" stroke-width="1" fill="none" fill-rule="evenodd" fill-opacity="0.599999964">
        <path d="M26.9975803,16 C30.5023373,16 33.8908881,17.3142215 36.0178027,19.5426914 C36.76432,20.2169977 37.3413788,21.076429 37.6755948,22.0487876 C37.7255661,22.1661456 37.7719796,22.285947 37.8153518,22.4071242 C37.9093375,22.6697105 37.9470658,22.9204105 37.9396792,23.1420431 C37.9792021,23.4217112 38,23.7084268 38,24 C38,27.3137085 35.3137085,30 32,30 C28.6862915,30 26,27.3137085 26,24 C26,22.6248836 26.4625977,21.3578126 27.2406617,20.3459186 C27.1600773,20.3443723 27.0789132,20.3437884 26.9975803,20.3437884 C23.2572061,20.3437884 19.8737584,21.5787519 17.4375392,23.5716412 C16.5467928,24.3002944 15.6201012,23.5583844 16.1601674,22.4473116 C18.006676,18.648508 22.1644225,16 26.9975803,16 Z" id="side_Eye" fill="#000000" />
        <path d="M84.9975803,16 C88.5023373,16 91.8908881,17.3142215 94.0178027,19.5426914 C94.76432,20.2169977 95.3413788,21.076429 95.6755948,22.0487876 C95.7255661,22.1661456 95.7719796,22.285947 95.8153518,22.4071242 C95.9093375,22.6697105 95.9470658,22.9204105 95.9396792,23.1420431 C95.9792021,23.4217112 96,23.7084268 96,24 C96,27.3137085 93.3137085,30 90,30 C86.6862915,30 84,27.3137085 84,24 C84,22.6248836 84.4625977,21.3578126 85.2406617,20.3459186 C85.1600773,20.3443723 85.0789132,20.3437884 84.9975803,20.3437884 C81.2572061,20.3437884 77.8737584,21.5787519 75.4375392,23.5716412 C74.5467928,24.3002944 73.6201012,23.5583844 74.1601674,22.4473116 C76.006676,18.648508 80.1644225,16 84.9975803,16 Z" id="side_Eye" fill="#000000" />
    </g>
</g>
            <g id="transparent_Eyebrow" fill-opacity="0.599999964">
                
            <g id="flat_natural_Eyebrow/Natural/Flat-Natural" stroke="none" stroke-width="1" fill="none" fill-rule="evenodd" fill-opacity="0.599999964">
        <path d="M38.5686071,10.7022978 C33.5865557,11.2384494 28.6553385,11.1338998 23.6562444,11.1010606 C19.8231061,11.0762636 15.91974,10.6892291 12.3246118,12.5091287 C11.6361455,12.8572921 7.8767609,14.9449324 8.00311195,16.0108688 C8.10389896,16.8633498 12.0128479,18.0636592 12.7165939,18.2838164 C16.4280826,19.4452548 19.9241869,18.9282036 23.6870976,18.5703225 C28.3024371,18.1316834 32.9139567,18.1745756 37.5322346,17.8739956 C40.6422336,17.6719334 45.4224171,16.9769469 46.8293214,13.1484895 C47.2530382,11.9954284 46.8152171,9.73353891 46.3074622,8.50642195 C46.1050066,8.01751871 45.5634602,7.84963624 45.1688335,8.14921095 C43.7560524,9.22218432 40.9851444,10.4425994 38.5686071,10.7022978" id="flat_natural_Fill-10" fill="#000000" transform="translate(27.500000, 13.500000) rotate(2.000000) translate(-27.500000, -13.500000) " />
        <path d="M95.5686071,10.7022978 C90.5865557,11.2384494 85.6553385,11.1338998 80.6562444,11.1010606 C76.8231061,11.0762636 72.91974,10.6892291 69.3246118,12.5091287 C68.6361455,12.8572921 64.8767609,14.9449324 65.003112,16.0108688 C65.103899,16.8633498 69.0128479,18.0636592 69.7165939,18.2838164 C73.4280826,19.4452548 76.9241869,18.9282036 80.6870976,18.5703225 C85.3024371,18.1316834 89.9139567,18.1745756 94.5322346,17.8739956 C97.6422336,17.6719334 102.422417,16.9769469 103.829321,13.1484895 C104.253038,11.9954284 103.815217,9.73353891 103.307462,8.50642195 C103.105007,8.01751871 102.56346,7.84963624 102.168833,8.14921095 C100.756052,9.22218432 97.9851444,10.4425994 95.5686071,10.7022978" id="flat_natural_Fill-10" fill="#000000" transform="translate(84.500000, 13.500000) scale(-1, 1) rotate(2.000000) translate(-84.500000, -13.500000) " />
    </g>
</g>
        </g>
        <g id="transparent_Top">
            
        <defs>
        <path d="M73,-7.10542736e-15 C85.7219537,-9.44241233e-15 97.5342942,3.89451668 107.309847,10.5563754 C117.203155,4.65354893 125.906598,2.84119251 133.419297,5.12029235 C137.342181,13.7864707 136.088687,24.8654742 129.658817,38.3573029 C132.459583,45.3577133 134,52.9989648 134,61 L134,69 L2,69 L2,61 C2,52.9746294 3.54980175,45.3112343 6.36644521,38.2927749 C-0.0371877014,24.830427 -1.28052214,13.7727611 2.63615554,5.12029235 C10.1413088,2.84348155 18.8348158,4.64991255 28.7166765,10.5395853 C38.486587,3.88763544 50.2892906,-4.77050791e-15 63,-7.10542736e-15 L73,-7.10542736e-15 Z" id="winter_hat_4_path-1" />
        <path d="M133.419297,5.12029235 C137.342181,13.7864707 136.088687,24.8654742 129.658817,38.3573029 C125.120783,27.0107832 117.273218,17.3462285 107.309847,10.5563754 C117.203155,4.65354893 125.906598,2.84119251 133.419297,5.12029235 Z M28.7166765,10.5395853 L28.5059632,10.6823903 C18.6487145,17.4527497 10.8806015,27.044485 6.36644521,38.2927749 C-0.0371877014,24.830427 -1.28052214,13.7727611 2.63615554,5.12029235 C10.1413088,2.84348155 18.8348158,4.64991255 28.7166765,10.5395853 Z" id="winter_hat_4_path-3" />
        <path d="M21.8611602,15.9589276 L21.211192,16.562208 C17.0135267,20.5111528 13.3754262,25.0481848 10.4284992,30.0416954 C7.50362993,21.9329304 7.00274925,16.3216092 8.92709323,13.2081228 C11.5781533,12.0616266 15.8895089,12.9785616 21.8611602,15.9589276 Z M126.68574,13.3144617 C128.572237,16.3667136 128.127967,21.819514 125.352931,29.6728628 C122.278019,24.5465243 118.471615,19.9084275 114.077772,15.9038065 C119.880435,13.0520581 124.083155,12.1889293 126.68574,13.3144617 Z" id="winter_hat_4_path-5" />
        <path d="M67.2845981,61.4514245 C83.2297066,49.8171415 105.159178,44 133.073012,44 C160.985408,44 182.871591,49.8165424 198.731559,61.4496271 C200.786178,62.9566691 202,65.3523287 202,67.9003936 L202,98.3697692 C201.999998,100.578907 200.209138,102.369767 198,102.369767 C197.244438,102.369767 196.504327,102.155772 195.86535,101.752557 C179.223259,91.2508523 158.53625,86 133.804323,86 C108.883259,86 87.6403936,91.3314713 70.075727,101.994414 C68.1873197,103.140807 65.7271281,102.539284 64.5807363,100.650876 C64.2008721,100.02514 64,99.3071624 64,98.5751498 L64,67.914014 C63.999995,65.3588919 65.2205111,62.957477 67.2845981,61.4514245 Z" id="winter_hat_4_path-7" />
        <filter x="-0.7%" y="-1.7%" width="101.4%" height="106.8%" filterUnits="objectBoundingBox" id="winter_hat_4_filter-8">
            <feOffset dx="0" dy="2" in="SourceAlpha" result="shadowOffsetOuter1" />
            <feColorMatrix values="0 0 0 0 0   0 0 0 0 0   0 0 0 0 0  0 0 0 0.1 0" type="matrix" in="shadowOffsetOuter1" />
        </filter>
    </defs>
    <g id="winter_hat_4_Facial-Hair" transform="translate(49.000000, 72.000000)" />
    <g id="winter_hat_4_Top/Accessories/Winter-Hat-4" stroke="none" stroke-width="1" fill="none" fill-rule="evenodd">
        <g id="winter_hat_4_hat" transform="translate(65.000000, 4.000000)">
            <mask id="winter_hat_4_mask-2" fill="white">
                <use xlink:href="#winter_hat_4_path-1" />
            </mask>
            <use id="winter_hat_4_hat-mask" fill="#D8D8D8" xlink:href="#winter_hat_4_path-1" />
            <g id="winter_hat_4_Fabric-Color" mask="url(#winter_hat_4_mask-2)" fill="#929598">
                <g transform="translate(-22.000000, -4.000000)" id="winter_hat_4_ðŸ–Color">
                    <rect x="0" y="0" width="180" height="191" />
                </g>
            </g>
            <mask id="winter_hat_4_mask-4" fill="white">
                <use xlink:href="#winter_hat_4_path-3" />
            </mask>
            <use id="winter_hat_4_shadow" fill-opacity="0.24" fill="#000000" xlink:href="#winter_hat_4_path-3" />
            <mask id="winter_hat_4_mask-6" fill="white">
                <use xlink:href="#winter_hat_4_path-5" />
            </mask>
            <use id="winter_hat_4_light" fill-opacity="0.300000012" fill="#FFFFFF" xlink:href="#winter_hat_4_path-5" />
        </g>
        <g id="winter_hat_4_hat-front">
            <use fill="black" fill-opacity="1" filter="url(#winter_hat_4_filter-8)" xlink:href="#winter_hat_4_path-7" />
            <use fill="#F4F4F4" fill-rule="evenodd" xlink:href="#winter_hat_4_path-7" />
        </g>
        <g id="winter_hat_4_Accessory" transform="translate(62.000000, 85.000000)" />
    </g>
</g>
    </g>
</svg>