<svg xmlns="http://www.w3.org/2000/svg" xmlns:xlink="http://www.w3.org/1999/xlink" width="264px" height="280px" viewBox="0 0 264 280" version="1.1">
    <title id="transparent_Title">Avataaar/Default</title>
    <desc>Created with python_avatars</desc>
    <defs>
        <path d="M100,0 C130.927946,-5.68137151e-15 156,25.072054 156,56 L156.000809,62.1660527 C161.675838,63.1185422 166,68.05429 166,74 L166,88 C166,94.0524166 161.519235,99.0582945 155.693975,99.8813638 C153.627928,119.686472 141.237929,136.421678 124.001014,144.610469 L124,163 L128,163 C167.764502,163 200,195.235498 200,235 L200,244 L0,244 L0,235 C-4.86974701e-15,195.235498 32.235498,163 72,163 L76,163 L75.9999836,144.610943 C58.7625487,136.422324 46.3721119,119.686854 44.3051107,99.8809698 C38.480765,99.0582945 34,94.0524166 34,88 L34,74 C34,68.053942 38.3246685,63.1179645 44.0001873,62.1658855 L44,56 C44,25.072054 69.072054,5.68137151e-15 100,0 Z" id="transparent_path-1" />
        <path d="M83,36.3476251 C83,52.6289957 105.161905,65.8276544 132.5,65.8276544 C159.838095,65.8276544 182,52.6289957 182,36.3476251 C182,34.9853134 181.844841,33.6445843 181.544472,32.3313638 C210.784239,41.4879251 232,68.792221 232,101.051724 L232,110 L32,110 L32,101.051724 C32,68.3970853 53.7386736,40.8197864 83.5337207,32.0021267 C83.1821692,33.4207025 83,34.871494 83,36.3476251 Z" id="transparent_path-3" />
        <rect id="transparent_path-5" x="0" y="0" width="264" height="280" />
        <path d="M74,0 C114.869071,0 148,33.1309285 148,74 L148,84.1482318 L148,197.608051 C135.525121,187.236892 119.490913,181 102,181 L102,181 L98,181 L98,162.610951 C115.530782,154.282984 128.048193,137.114792 129.791419,116.867187 C135.569129,116.002364 140,111.018625 140,105 L140,105 L140,92 C140,87.3536213 137.359271,83.3240177 133.496777,81.3301515 C132.723933,81.0500337 131.951808,80.748163 131.180891,80.4262497 C130.794819,80.3202581 130.400778,80.2331546 130,80.1659169 L130,80.1659169 L130.000458,79.9172528 C117.224481,74.2339715 104.877985,63.0706967 96.1104311,47.8848473 C93.1752556,42.8009742 90.8310687,37.5951441 89.0661426,32.3970356 C80.4313947,42.9409152 67.7445474,53.6023901 52.3415164,62.4953343 C42.777598,68.0170651 33.1467898,72.2910056 24,75.2659587 L24.0003852,137.246608 C29.6019576,148.318362 38.7728825,157.277529 50,162.610951 L50,162.610951 L50,181 L46,181 C38.3273639,181 30.9350359,182.200142 24.0004995,184.422941 L24,230 C24,244.105888 13.5691766,255.775526 0,257.716445 L0,74 C0,33.1309285 33.1309285,0 74,0 Z" id="transparent_path-7" />
    </defs>
    <g id="transparent_Avataaar/Default" stroke="none" stroke-width="1" fill="none" fill-rule="evenodd">
        <g id="transparent_Body" transform="translate(32.000000, 36.000000)">
            <mask id="transparent_mask-2" fill="white">
                <use xlink:href="#transparent_path-1" />
            </mask>
            <use fill="#D0C6AC" xlink:href="#transparent_path-1" />
            <g id="transparent_Skin-Color" mask="url(#transparent_mask-2)" fill="#F8D25C">
                <g transform="translate(-32.000000, 0.000000)" id="transparent_Color">
                    <rect x="0" y="0" width="264" height="244" />
                </g>
            </g>
            <path d="M44,94 C44,124.927946 69.072054,150 100,150 C130.927946,150 156,124.927946 156,94 L156,94 L156,102 C156,132.927946 130.927946,158 100,158 C69.072054,158 44,132.927946 44,102 Z" id="transparent_Neck-Shadow" fill-opacity="0.100000001" fill="#000000" mask="url(#transparent_mask-2)" />
        </g>
        <g id="transparent_Clothing" transform="translate(0.000000, 170.000000)">
            
        <defs>
        <path d="M99,30.3476251 C99,42.2107177 113.998461,51.8276544 132.5,51.8276544 C151.001539,51.8276544 166,42.2107177 166,30.3476251 C166,29.9947569 165.98673,29.643876 165.960492,29.2951765 C202.936371,32.3248899 232,63.2942196 232,101.051724 L232,110 L32,110 L32,101.051724 C32,62.952169 61.5925972,31.764336 99.0465686,29.2194474 C99.0151943,29.59473 99,29.9700398 99,30.3476251 Z" id="shirt_crew_neck_path-1" />
    </defs>
    <g id="shirt_crew_neck_Clothing/Shirt-Crew-Neck" stroke="none" stroke-width="1" fill="none" fill-rule="evenodd">
        <mask id="shirt_crew_neck_mask-2" fill="white">
            <use xlink:href="#shirt_crew_neck_path-1" />
        </mask>
        <use id="shirt_crew_neck_Clothes" fill="#E6E6E6" xlink:href="#shirt_crew_neck_path-1" />
        <g id="shirt_crew_neck_Fabric-Color" mask="url(#shirt_crew_neck_mask-2)" fill="#FFFFB1">
            <rect id="shirt_crew_neck_ðŸ–Color" x="0" y="0" width="264" height="110" />
        </g>
        <g id="shirt_crew_neck_Shadowy" opacity="0.599999964" mask="url(#shirt_crew_neck_mask-2)" fill="#000000" fill-opacity="0.16">
            <g transform="translate(92.000000, 4.000000)" id="shirt_crew_neck_Hola-ðŸ‘‹ðŸ¼">
                <ellipse cx="40.5" cy="27.8476251" rx="39.6351047" ry="26.9138272" />
            </g>
        </g>
    </g>
</g>
        <g id="transparent_Face" transform="translate(76.000000, 82.000000)" fill="#000000">
            <g id="transparent_Mouth" transform="translate(2.000000, 52.000000)">    
                
            <defs>
        <path d="M35.117844,15.1280772 C36.1757121,24.6198025 44.2259873,32 54,32 C63.8042055,32 71.8740075,24.574136 72.8917593,15.0400546 C72.9736685,14.272746 72.1167429,13 71.042767,13 C56.1487536,13 44.7379213,13 37.0868244,13 C36.0066168,13 35.0120058,14.1784435 35.117844,15.1280772 Z" id="concerned_path-1" />
    </defs>
    <g id="concerned_Mouth/Concerned" stroke="none" stroke-width="1" fill="none" fill-rule="evenodd">
        <mask id="concerned_mask-2" fill="white">
            <use xlink:href="#concerned_path-1" transform="translate(54.003637, 22.500000) scale(1, -1) translate(-54.003637, -22.500000)" />
        </mask>
        <use id="concerned_Mouth" fill-opacity="0.699999988" fill="#000000" transform="translate(54.003637, 22.500000) scale(1, -1) translate(-54.003637, -22.500000)" xlink:href="#concerned_path-1" />
        <path d="M44,2 L65,2 C67.7614237,2 70,4.23857625 70,7 L70,13 C70,15.7614237 67.7614237,18 65,18 L44,18 C41.2385763,18 39,15.7614237 39,13 L39,7 C39,4.23857625 41.2385763,2 44,2 Z" id="concerned_Teeth" fill="#FFFFFF" mask="url(#concerned_mask-2)" />
        <g id="concerned_Tongue" mask="url(#concerned_mask-2)" fill="#FF4F6D">
            <g transform="translate(38.000000, 24.000000)">
                <circle id="concerned_friend?" cx="11" cy="11" r="11" />
                <circle id="concerned_How-you-doing" cx="21" cy="11" r="11" />
            </g>
        </g>
    </g>
</g>
            <g id="transparent_Nose" transform="translate(28.000000, 40.000000)" fill-opacity="0.16">
                
            <g id="default_Nose/Default" stroke="none" stroke-width="1" fill="none" fill-rule="evenodd" fill-opacity="0.16">
        <path d="M16,8 C16,12.418278 21.372583,16 28,16 L28,16 C34.627417,16 40,12.418278 40,8" id="default_Nose" fill="#000000" />
    </g>
</g>
            <g id="transparent_Eyes" transform="translate(0.000000, 8.000000)">
                
            <g id="closed_Eyes/Closed-ðŸ˜Œ" stroke="none" stroke-width="1" fill="none" fill-rule="evenodd" fill-opacity="0.599999964">
        <path d="M16.1601674,32.4473116 C18.006676,28.648508 22.1644225,26 26.9975803,26 C31.8136766,26 35.9591217,28.629842 37.8153518,32.4071242 C38.3667605,33.5291977 37.5821037,34.4474817 36.790607,33.7670228 C34.3395063,31.6597833 30.8587163,30.3437884 26.9975803,30.3437884 C23.2572061,30.3437884 19.8737584,31.5787519 17.4375392,33.5716412 C16.5467928,34.3002944 15.6201012,33.5583844 16.1601674,32.4473116 Z" id="closed_Closed-Eye" fill="#000000" transform="translate(27.000000, 30.000000) scale(1, -1) translate(-27.000000, -30.000000) " />
        <path d="M74.1601674,32.4473116 C76.006676,28.648508 80.1644225,26 84.9975803,26 C89.8136766,26 93.9591217,28.629842 95.8153518,32.4071242 C96.3667605,33.5291977 95.5821037,34.4474817 94.790607,33.7670228 C92.3395063,31.6597833 88.8587163,30.3437884 84.9975803,30.3437884 C81.2572061,30.3437884 77.8737584,31.5787519 75.4375392,33.5716412 C74.5467928,34.3002944 73.6201012,33.5583844 74.1601674,32.4473116 Z" id="closed_Closed-Eye" fill="#000000" transform="translate(85.000000, 30.000000) scale(1, -1) translate(-85.000000, -30.000000) " />
    </g>
</g>
            <g id="transparent_Eyebrow" fill-opacity="0.599999964">
                
            <g id="angry_natural_Eyebrow/Natural/Angry-Natural" stroke="none" stroke-width="1" fill="none" fill-rule="evenodd" fill-opacity="0.599999964">
        <path d="M44.8565785,12.2282877 C44.8578785,12.2192877 44.8578785,12.2192877 44.8565785,12.2282877 M17.5862288,7.89238094 C15.2441598,8.3302947 13.0866155,9.78806858 12.1523766,12.0987479 C11.8009169,12.967391 11.3917103,14.9243181 11.7083227,15.8073302 C11.8284629,16.14295 12.0332321,16.1008692 12.9555234,16.0430509 C14.643791,15.9369937 16.9330912,13.6622369 18.7484684,13.2557982 C21.2753939,12.6899315 23.9825295,13.1148447 26.4961798,13.6882381 C30.8109365,14.6725177 36.4854008,17.7875215 40.9461842,16.1699775 C41.2783949,16.0495512 45.6210294,12.9225732 44.3685187,12.2769925 C43.9238011,11.9068186 41.1370145,12.0854053 40.6216067,11.9988489 C38.2277647,11.5971998 35.7297127,10.9345131 33.373373,10.3265657 C28.2329017,9.00016592 22.9666484,6.88073171 17.5862288,7.89238094" id="angry_natural_Eyebrows-The-Web" fill="#000000" transform="translate(28.094701, 12.127505) rotate(17.000000) translate(-28.094701, -12.127505) " />
        <path d="M100.918293,12.2094196 C100.919593,12.2004196 100.919593,12.2004196 100.918293,12.2094196 M73.5862288,7.89238094 C71.2441598,8.3302947 69.0866155,9.78806858 68.1523766,12.0987479 C67.8009169,12.967391 67.3917103,14.9243181 67.7083227,15.8073302 C67.8284629,16.14295 68.0332321,16.1008692 68.9555234,16.0430509 C70.643791,15.9369937 72.9330912,13.6622369 74.7484684,13.2557982 C77.2753939,12.6899315 79.9825295,13.1148447 82.4961798,13.6882381 C86.8109365,14.6725177 92.4854008,17.7875215 96.9461842,16.1699775 C97.2783949,16.0495512 101.621029,12.9225732 100.368519,12.2769925 C99.9238011,11.9068186 97.1370145,12.0854053 96.6216067,11.9988489 C94.2277647,11.5971998 91.7297127,10.9345131 89.373373,10.3265657 C84.2329017,9.00016592 78.9666484,6.88073171 73.5862288,7.89238094" id="angry_natural_Eyebrows-The-Web" fill="#000000" transform="translate(84.094701, 12.127505) scale(-1, 1) rotate(17.000000) translate(-84.094701, -12.127505) " />
    </g>
</g>
        </g>
        <g id="transparent_Top">
            
        <defs>
        <path d="M133,18 C170.555563,18 201.576875,45.9764505 206.360189,82.2256031 C206.623924,84.2242503 206.827836,91.3570149 206.971924,103.623897 C206.991377,103.728785 207,103.810849 207,103.874706 L207,158 L207,158 C207,175.673112 192.673112,190 175,190 L157,190 L157,180.610951 C174.530782,172.282984 187.048193,155.114792 188.791419,134.867187 C194.569129,134.002364 199,129.018625 199,123 L199,110 C199,108.48388 198.718835,106.513303 198.205802,104.402814 C180.318197,99.0191367 162.700008,82.6930439 152.444252,59.6582378 C152.171378,59.0453546 151.905522,58.431776 151.646653,57.8176545 L151.263,56.897 L151.042157,57.4762306 C146.40281,69.4134872 137.846143,78.0997511 125.372156,83.5350224 C130.244513,77.5880409 134.394107,70.6604321 137.820938,62.752196 C129.843979,71.2579416 119.473269,79.4910638 107.341516,86.4953343 C94.9709782,93.6374678 82.4094417,98.555016 70.8702973,101.173946 C68.4906508,103.366307 67,106.509074 67,110 L67,123 C67,129.018625 71.4308707,134.002364 77.2085808,134.867187 C78.9518066,155.114792 91.4692178,172.282984 109,180.610951 L109,190 L67,190 C62.581722,190 59,186.418278 59,182 L59.0005942,102.340338 C57.3242044,102.197712 55.7583108,101.883328 54.8534901,101.273154 C51.6949619,99.1431718 50,95.0507583 50,90.5 C50,83.5964406 54.4771525,78 60,78 C66.8627142,43.8282542 96.9151011,18 133,18 Z" id="long_not_too_long_path-1" />
    </defs>
    <g id="long_not_too_long_Top/Long-Hair/Long-but-not-too-long" stroke="none" stroke-width="1" fill="none" fill-rule="evenodd" transform="translate(-1 0)">
        <g id="long_not_too_long_Behind">
            <mask id="long_not_too_long_mask-2" fill="white">
                <use xlink:href="#long_not_too_long_path-1" />
            </mask>
            <use id="long_not_too_long_Combined-Shape" fill="#944F23" xlink:href="#long_not_too_long_path-1" />
            <g id="long_not_too_long_Hair-Color" mask="url(#long_not_too_long_mask-2)" fill="#ECDCBF">
                <rect id="long_not_too_long_Color" x="0" y="0" width="266" height="280" />
            </g>
        </g>
        <g id="long_not_too_long_Top" opacity="0.439990942" transform="translate(50.000000, 18.000000)" fill="#FFFFFF" fill-opacity="0.159999996">
            <path d="M82.9999943,0 C123.869071,0 156.999994,33.1309285 156.999994,74 L156.999994,88.1510343 C136.296003,86.1944823 114.38223,68.4713761 102.444252,41.6582378 C102.034942,40.738913 101.64142,39.8180234 101.263585,38.8960843 C96.6778122,51.1324394 88.0473359,60.0120855 75.3721558,65.5350224 C80.2445133,59.5880409 84.3941075,52.6604321 87.8209384,44.752196 C79.8439791,53.2579416 69.4732686,61.4910638 57.3415164,68.4953343 C41.6782753,77.5385107 25.7088267,83.0152453 11.8962575,84.7752566 C11.2824677,84.9228515 10.6484415,85 10,85 C9.98234128,85 9.96469325,84.9999428 9.94705603,84.9998285 C9.63018145,85.0332323 9.31445508,85.0640043 8.99999434,85.0927525 L8.99948924,84.9382175 C3.94641137,84.3107663 0,78.9814667 0,72.5 C0,65.5964406 4.4771525,60 10,60 C10.1082052,60 10.216009,60.0021482 10.3233856,60.0064125 C16.8624267,25.8284974 46.9149305,0 82.9999943,0 Z" id="long_not_too_long_Combined-Shape" />
        </g>
        <g id="long_not_too_long_Facial-Hair" transform="translate(49.000000, 72.000000)" />
        <g id="long_not_too_long_Accessory" transform="translate(62.000000, 85.000000)"><defs>
        <path d="M83.4984286,93.8410391 C72.1241067,94.2191416 67.0502492,99.7213834 63.2291365,94.1296214 C60.3611827,89.9323547 61.5611932,82.8739117 64.2409566,78.9027173 C68.0539313,73.2512381 73.2266239,75.9847769 79.010342,75.3400279 C80.5830033,75.1648137 82.1627854,74.7228407 83.4984286,74 C84.8340717,74.7228407 86.4135147,75.1648137 87.986176,75.3400279 C93.7702332,75.9847769 98.9425868,73.2512381 102.755901,78.9027173 C105.435325,82.8739117 106.635335,89.9323547 103.767382,94.1296214 C99.9462689,99.7213834 94.8727504,93.4629366 83.4984286,93.8410391 Z M138.719768,26 C135.335967,40.0748212 133.781202,54.4337754 131.327683,68.6711471 C130.816435,71.6390145 130.256705,74.5963095 129.662396,77.5496398 C129.537635,78.1697764 129.414569,80.4725746 128.810767,80.7643064 C126.981731,81.6484223 123.254159,76.9466834 122.257428,75.8851496 C119.754073,73.219256 117.272077,70.5292442 114.223231,68.437233 C108.062822,64.2102603 100.85042,61.7108818 93.3454397,61.117837 C90.2053971,60.8693859 85.9594573,61.3025234 83.0001146,63.1104016 C80.0407719,61.3025234 75.7948321,60.8693859 72.6544504,61.117837 C65.1494705,61.7108818 57.9370685,64.2102603 51.7766588,68.437233 C48.7278137,70.5292442 46.2461561,73.219256 43.742462,75.8851496 C42.7457307,76.9466834 39.018159,81.6484223 37.1891231,80.7643064 C36.5853209,80.4725746 36.4622551,78.1697764 36.3374942,77.5496398 C35.7431847,74.5963095 35.1834557,71.6390145 34.6722071,68.6711471 C32.2190276,54.4337754 30.6642623,40.0748212 27.2804612,26 C26.2959348,26 25.432101,44.7478165 25.3222572,46.4945731 C24.8750842,53.5889755 24.3529868,60.5254529 25.0201865,67.6261326 C26.1704958,79.8749043 27.3696246,95.2339402 36.5917624,104.58753 C44.9246396,113.039493 57.0232778,114.806417 67.4585647,120.141327 C68.8021178,120.828202 70.5843683,121.676306 72.5062968,122.37111 C74.5309497,123.934171 78.546353,125 83.1719999,125 C88.024115,125 92.2046231,123.827456 94.1201102,122.137856 C95.8006534,121.49261 97.3452479,120.752874 98.5413255,120.141327 C108.975814,114.805245 121.075251,113.039493 129.408128,104.58753 C138.630266,95.2339402 139.829394,79.8749043 140.980043,67.6261326 C141.646903,60.5254529 141.124806,53.5889755 140.677972,46.4945731 C140.567789,44.7478165 139.703955,26 138.719768,26 Z" id="eyepatch_path-1" />
    </defs>
    <g id="eyepatch_Top/Accesories/Eyepatch" stroke="none" stroke-width="1" fill="none" fill-rule="evenodd" transform="translate(-62 -85)">
        <path d="M160.395307,39.7810237 C157.318088,36.6927979 154.11865,43.6386608 152.623361,45.4281124 C149.013122,49.7486528 145.540256,54.182935 141.868413,58.4518947 C134.616309,66.8823544 127.439316,75.3743141 120.233991,83.8401528 C119.140279,85.1257012 119.27271,85.2649028 117.837048,85.3885641 C116.88598,85.4708947 115.563312,84.9802173 114.5737,84.9256608 C111.823607,84.774556 109.112057,85.2348141 106.435756,85.8227012 C101.091389,86.9961608 95.4264863,88.9291124 90.7890799,91.898306 C89.5718308,92.677306 88.7874545,93.5971608 87.4670933,93.841177 C86.3183659,94.0534512 84.794416,93.6295641 83.622299,93.5194592 C81.5412806,93.3237173 78.5378542,92.4726366 76.4953793,92.9137173 C73.9027538,93.4738302 72.9174244,96.6109915 75.5604528,98.0003624 C77.570314,99.0564431 81.5706,98.4761608 83.8235816,98.6447899 C86.3971,98.8372253 85.6120649,98.704306 85.2473843,101.164306 C84.7239177,104.69758 85.5985582,108.646475 87.0885766,111.878201 C90.5482655,119.383185 100.122861,127.335201 108.8551,126.603153 C116.142123,125.992451 122.526834,119.413274 125.519389,113.099935 C127.050916,109.868871 127.954546,106.192096 128.250376,102.628403 C128.438811,100.36183 128.333722,97.9580399 127.684083,95.7632173 C127.362888,94.6783705 126.853916,93.5554995 126.308378,92.5695157 C125.866281,91.7710076 123.908799,89.9203866 123.788886,89.1165882 C123.556307,87.5602415 127.973324,83.3874995 128.816339,82.3443141 C132.788953,77.4276205 136.780344,72.5320882 140.721662,67.5889431 C144.603353,62.7201931 148.506456,57.8640076 152.489612,53.0785802 C154.294237,50.9098786 163.318023,42.7148382 160.395307,39.7810237" id="eyepatch_Badass-Eyepatch" fill="#28354B" />
    </g>
</g>
    </g>
</g>
    </g>
</svg>