<svg xmlns="http://www.w3.org/2000/svg" xmlns:xlink="http://www.w3.org/1999/xlink" width="264px" height="280px" viewBox="0 0 264 280" version="1.1">
    <title id="circle_Title">Avataaar/Circle</title>
    <desc>Created with python_avatars</desc>
    <defs>
        <circle id="circle_path-1" cx="120" cy="120" r="120" />
        <path d="M-3.19744231e-14,160 L-3.19744231e-14,-1.42108547e-14 L264,-1.42108547e-14 L264,160 L252,160 C252,226.27417 198.27417,280 132,280 C65.72583,280 12,226.27417 12,160 L12,160 L-3.19744231e-14,160 Z" id="circle_path-3" />
        <path d="M100,0 C130.927946,-5.68137151e-15 156,25.072054 156,56 L156.000809,62.1660527 C161.675838,63.1185422 166,68.05429 166,74 L166,88 C166,94.0524166 161.519235,99.0582945 155.693975,99.8813638 C153.627928,119.686472 141.237929,136.421678 124.001014,144.610469 L124,163 L128,163 C167.764502,163 200,195.235498 200,235 L200,244 L0,244 L0,235 C-4.86974701e-15,195.235498 32.235498,163 72,163 L76,163 L75.9999836,144.610943 C58.7625487,136.422324 46.3721119,119.686854 44.3051107,99.8809698 C38.480765,99.0582945 34,94.0524166 34,88 L34,74 C34,68.053942 38.3246685,63.1179645 44.0001873,62.1658855 L44,56 C44,25.072054 69.072054,5.68137151e-15 100,0 Z" id="circle_path-5" />
        <path d="M83,36.3476251 C83,52.6289957 105.161905,65.8276544 132.5,65.8276544 C159.838095,65.8276544 182,52.6289957 182,36.3476251 C182,34.9853134 181.844841,33.6445843 181.544472,32.3313638 C210.784239,41.4879251 232,68.792221 232,101.051724 L232,110 L32,110 L32,101.051724 C32,68.3970853 53.7386736,40.8197864 83.5337207,32.0021267 C83.1821692,33.4207025 83,34.871494 83,36.3476251 Z" id="circle_path-7" />
        <rect id="circle_path-9" x="0" y="0" width="264" height="280" />
        <path d="M74,0 C114.869071,0 148,33.1309285 148,74 L148,84.1482318 L148,197.608051 C135.525121,187.236892 119.490913,181 102,181 L102,181 L98,181 L98,162.610951 C115.530782,154.282984 128.048193,137.114792 129.791419,116.867187 C135.569129,116.002364 140,111.018625 140,105 L140,105 L140,92 C140,87.3536213 137.359271,83.3240177 133.496777,81.3301515 C132.723933,81.0500337 131.951808,80.748163 131.180891,80.4262497 C130.794819,80.3202581 130.400778,80.2331546 130,80.1659169 L130,80.1659169 L130.000458,79.9172528 C117.224481,74.2339715 104.877985,63.0706967 96.1104311,47.8848473 C93.1752556,42.8009742 90.8310687,37.5951441 89.0661426,32.3970356 C80.4313947,42.9409152 67.7445474,53.6023901 52.3415164,62.4953343 C42.777598,68.0170651 33.1467898,72.2910056 24,75.2659587 L24.0003852,137.246608 C29.6019576,148.318362 38.7728825,157.277529 50,162.610951 L50,162.610951 L50,181 L46,181 C38.3273639,181 30.9350359,182.200142 24.0004995,184.422941 L24,230 C24,244.105888 13.5691766,255.775526 0,257.716445 L0,74 C0,33.1309285 33.1309285,0 74,0 Z" id="circle_path-11" />
    </defs>
    <g id="circle_Avataaar/Circle" stroke="none" stroke-width="1" fill="none" fill-rule="evenodd">
        <g id="circle_Circle" transform="translate(12.000000, 40.000000)">
            <mask id="circle_mask-2" fill="white">
                <use xlink:href="#circle_path-1" />
            </mask>
            <use id="circle_Background-Color" fill="rgba(0,0,0,0.0" xlink:href="#circle_path-1" />
            <g id="circle_Fabric-Color" mask="url(#circle_mask-2)" fill="">
                <rect id="circle_ðŸ–Color" x="0" y="0" width="240" height="240" />
            </g>
        </g>
        <mask id="circle_mask-4" fill="white">
            <use xlink:href="#circle_path-3" />
        </mask>
        <g id="circle_Mask" />
        <g id="circle_Avataaar" mask="url(#circle_mask-4)">
            <g id="circle_Body" transform="translate(32.000000, 36.000000)">
                <mask id="circle_mask-6" fill="white">
                    <use xlink:href="#circle_path-5" />
                </mask>
                <use fill="#D0C6AC" xlink:href="#circle_path-5" />
                <g id="circle_Skin-Color" mask="url(#circle_mask-6)" fill="#FFDBB4">
                    <g transform="translate(-32.000000, 0.000000)" id="circle_Color">
                        <rect x="0" y="0" width="264" height="244" />
                    </g>
                </g>
                <path d="M44,94 C44,124.927946 69.072054,150 100,150 C130.927946,150 156,124.927946 156,94 L156,94 L156,102 C156,132.927946 130.927946,158 100,158 C69.072054,158 44,132.927946 44,102 Z" id="circle_Neck-Shadow" fill-opacity="0.100000001" fill="#000000" mask="url(#circle_mask-6)" />
            </g>
            <g id="circle_Clothing" transform="translate(0.000000, 170.000000)">
                
            <defs>
        <path d="M187.997478,34.7419477 L187.994775,34.6445513 C213.853089,45.5674185 232,71.1642324 232,100.999485 L232,110 L32,110 L32,100.999485 C32,71.1638494 50.1473773,45.5667611 76.0062213,34.6441305 C76.281568,20.5515788 90.0823522,15.075879 108.000323,13.0708785 L108,32 C108,45.254834 118.745166,56 132,56 C145.254834,56 156,45.254834 156,32 L156,32 L156.001405,13.0710429 C173.960465,15.0808175 187.783368,20.5773078 187.997478,34.7419477 Z" id="hoodie_path-1" />
    </defs>
    <g id="hoodie_Clothing/Hoodie" stroke="none" stroke-width="1" fill="none" fill-rule="evenodd">
        <mask id="hoodie_mask-2" fill="white">
            <use xlink:href="#hoodie_path-1" />
        </mask>
        <use id="hoodie_Hoodie" fill="#B7C1DB" xlink:href="#hoodie_path-1" />
        <g id="hoodie_Fabric-Color" mask="url(#hoodie_mask-2)" fill="#929598">
            <rect id="hoodie_ðŸ–Color" x="0" y="0" width="264" height="110" />
        </g>
        <path d="M101.999618,61.7388852 L102,110 L95,110 L94.9990839,58.149718 C97.2029904,59.4596568 99.5461861,60.6605136 101.999618,61.7388852 Z M169.001367,58.1494501 L169,98.5 C169,100.432997 167.432997,102 165.5,102 C163.567003,102 162,100.432997 162,98.5 L162.001384,61.7384448 C164.454619,60.6601132 166.797629,59.4593148 169.001367,58.1494501 Z" id="hoodie_Straps" fill="#F4F4F4" mask="url(#hoodie_mask-2)" />
        <path d="M132,68 L130.99629,67.9952183 C97.8802308,67.680027 65.5,51.8228864 65.5,32.3076923 C65.5,21.2431784 75.908757,15.5714792 90.9589345,12.7245804 C81.8748056,16.0747223 76,21.706273 76,31.0769231 C76,51.4689754 103.821205,68 132,68 Z M132,68 C160.178795,68 188,51.4689754 188,31.0769231 C188,21.706273 182.125194,16.0747223 173.040502,12.724588 C188.091243,15.5714792 198.5,21.2431784 198.5,32.3076923 C198.5,52.0200095 165.462319,68 132,68 L132,68 Z" id="hoodie_Shadow" fill-opacity="0.16" fill="#000000" mask="url(#hoodie_mask-2)" />
    </g>
</g>
            <g id="circle_Face" transform="translate(76.000000, 82.000000)" fill="#000000">
                <g id="circle_Mouth" transform="translate(2.000000, 52.000000)">    
                    
                <defs>
        <path d="M34.0082051,12.6020819 C35.1280248,23.0929366 38.2345159,31.9944054 53.9961505,31.9999965 C69.757785,32.0055894 72.9169073,23.0424631 73.9942614,12.5047938 C74.0809675,11.6567158 73.1738581,10.9999965 72.0369872,10.9999965 C65.3505138,10.9999965 62.6703194,12.4951994 53.9894323,12.4999965 C45.3085452,12.5047938 40.7567994,10.9999965 36.0924943,10.9999965 C34.9490269,10.9999965 33.8961688,11.5524868 34.0082051,12.6020819 Z" id="vomit_path-1" />
        <path d="M66,25 C69.3137085,25 72,27.6862915 72,31 L72,36 C72,39.3137085 69.3137085,42 66,42 C62.6862915,42 60,39.3137085 60,36 L59.9170737,36.0001915 C59.4410745,33.1623839 56.9730632,31 54,31 C51.0269368,31 48.5589255,33.1623839 48.0829263,36.0001915 L48,36 L48,38 C48,41.3137085 45.3137085,44 42,44 C38.6862915,44 36,41.3137085 36,38 L36,31 C36,27.6862915 38.6862915,25 42,25 L66,25 Z" id="vomit_path-3" />
        <filter x="-1.4%" y="-2.6%" width="102.8%" height="105.3%" filterUnits="objectBoundingBox" id="vomit_filter-4">
            <feOffset dx="0" dy="-1" in="SourceAlpha" result="shadowOffsetInner1" />
            <feComposite in="shadowOffsetInner1" in2="SourceAlpha" operator="arithmetic" k2="-1" k3="1" result="shadowInnerInner1" />
            <feColorMatrix values="0 0 0 0 0   0 0 0 0 0   0 0 0 0 0  0 0 0 0.1 0" type="matrix" in="shadowInnerInner1" />
        </filter>
    </defs>
    <g id="vomit_Mouth/Vomit" stroke="none" stroke-width="1" fill="none" fill-rule="evenodd">
        <mask id="vomit_mask-2" fill="white">
            <use xlink:href="#vomit_path-1" transform="translate(54.000000, 21.499998) scale(1, -1) translate(-54.000000, -21.499998)" />
        </mask>
        <use id="vomit_Mouth" fill-opacity="0.699999988" fill="#000000" transform="translate(54.000000, 21.499998) scale(1, -1) translate(-54.000000, -21.499998)" xlink:href="#vomit_path-1" />
        <path d="M44,0 L65,0 C67.7614237,-5.07265313e-16 70,2.23857625 70,5 L70,11 C70,13.7614237 67.7614237,16 65,16 L44,16 C41.2385763,16 39,13.7614237 39,11 L39,5 C39,2.23857625 41.2385763,5.07265313e-16 44,0 Z" id="vomit_Teeth" fill="#FFFFFF" mask="url(#vomit_mask-2)" />
        <g id="vomit_Vomit-Stuff">
            <use fill="#88C553" fill-rule="evenodd" xlink:href="#vomit_path-3" />
        </g>
    </g>
</g>
                <g id="circle_Nose" transform="translate(28.000000, 40.000000)" fill-opacity="0.16">
                    
                <g id="default_Nose/Default" stroke="none" stroke-width="1" fill="none" fill-rule="evenodd" fill-opacity="0.16">
        <path d="M16,8 C16,12.418278 21.372583,16 28,16 L28,16 C34.627417,16 40,12.418278 40,8" id="default_Nose" fill="#000000" />
    </g>
</g>
                <g id="circle_Eyes" transform="translate(0.000000, 8.000000)">
                    
                <g id="cry_Eyes/Cry-ðŸ˜¢" stroke="none" stroke-width="1" fill="none" fill-rule="evenodd">
        <circle id="cry_Eye" fill-opacity="0.599999964" fill="#000000" cx="30" cy="22" r="6" />
        <path d="M25,27 C25,27 19,34.2706667 19,38.2706667 C19,41.5846667 21.686,44.2706667 25,44.2706667 C28.314,44.2706667 31,41.5846667 31,38.2706667 C31,34.2706667 25,27 25,27 Z" id="cry_Drop" fill="#92D9FF" fill-rule="nonzero" />
        <circle id="cry_Eye" fill-opacity="0.599999964" fill="#000000" cx="82" cy="22" r="6" />
    </g>
</g>
                <g id="circle_Eyebrow" fill-opacity="0.599999964">
                    
                <g id="sad_concerned_Eyebrow/Outline/Sad-Concerned" stroke="none" stroke-width="1" fill="none" fill-rule="evenodd" fill-opacity="0.599999964">
        <path d="M15.9726042,19.4088529 C17.452356,11.0203704 30.0622688,5.22829657 39.2106453,8.9774793 C40.2254706,9.39337449 41.4016967,8.94600219 41.8378196,7.97824531 C42.2739426,7.01048842 41.8048116,5.88881678 40.7899862,5.47292159 C29.3457328,0.782843812 13.9550264,7.85221132 12.0280273,18.7760684 C11.84479,19.8148122 12.5792704,20.798534 13.6685352,20.9732726 C14.7578,21.1480113 15.7893668,20.4475967 15.9726042,19.4088529 Z" id="sad_concerned_Eyebrow" fill="#000000" fill-rule="nonzero" transform="translate(27.000414, 12.500000) scale(-1, -1) translate(-27.000414, -12.500000) " />
        <path d="M73.9726042,19.4088529 C75.452356,11.0203704 88.0622688,5.22829657 97.2106453,8.9774793 C98.2254706,9.39337449 99.4016967,8.94600219 99.8378196,7.97824531 C100.273943,7.01048842 99.8048116,5.88881678 98.7899862,5.47292159 C87.3457328,0.782843812 71.9550264,7.85221132 70.0280273,18.7760684 C69.84479,19.8148122 70.5792704,20.798534 71.6685352,20.9732726 C72.7578,21.1480113 73.7893668,20.4475967 73.9726042,19.4088529 Z" id="sad_concerned_Eyebrow" fill="#000000" fill-rule="nonzero" transform="translate(85.000414, 12.500000) scale(1, -1) translate(-85.000414, -12.500000) " />
    </g>
</g>
            </g>
            <g id="circle_Top">
                
            <defs>
        <path d="M74,0 L75.2237253,0.00991388577 C115.528377,0.663392385 148,33.5396192 148,74 L148,74 L148,88.2807758 L148,88.2807758 L148,170 C148,178.558333 146.547144,186.777334 143.874615,194.42382 C132.269342,186.111725 118.092027,181.16399 102.767191,181.004003 L102,181 L98,181 L98.0010136,162.610469 C115.531251,154.282329 128.048207,137.114429 129.791415,116.867236 C135.471002,116.017289 139.849484,111.186467 139.9962,105.304975 L140,105 L140,92 C140,90.3102888 139.650764,88.7021461 139.020535,87.243816 C126.063853,85.0565575 111.478255,79.7683737 97.1489304,71.4953343 C85.0171781,64.4910638 74.6464677,56.2579416 66.6695083,47.752196 C70.0963393,55.6604321 74.2459335,62.5880409 79.118291,68.5350224 C66.4431108,63.0120855 57.8126345,54.1324394 53.2268621,41.8960843 C52.8490267,42.8180234 52.455505,43.738913 52.0461952,44.6582378 C42.2070931,66.757223 25.5916248,82.6815236 8.46206596,88.6932683 C8.18761967,89.6503142 8.02971161,90.6562836 8.00379986,91.6950252 L8,92 L8,105 C8,111.018777 12.4310943,116.002616 18.2090181,116.867253 C19.9518263,137.114813 32.4692242,154.28298 49.9999836,162.610943 L50,181 L46,181 C30.3812644,181 15.9240795,185.97319 4.12558428,194.42243 C1.45285556,186.777334 1.04809353e-15,178.558333 0,170 L0,74 C-5.00501776e-15,33.1309285 33.1309285,7.50752664e-15 74,0 Z" id="straight_strand_path-1" />
    </defs>
    <g id="straight_strand_Top/Long-Hair/Straight-+-Strand" stroke="none" stroke-width="1" fill="none" fill-rule="evenodd" transform="translate(-1 0)">
        <g id="straight_strand_Hair" transform="translate(59.000000, 18.000000)">
            <mask id="straight_strand_mask-2" fill="white">
                <use xlink:href="#straight_strand_path-1" />
            </mask>
            <use fill="#ECC797" xlink:href="#straight_strand_path-1" />
            <g id="straight_strand_Hair-Color" mask="url(#straight_strand_mask-2)" fill="#F59797">
                <g transform="translate(-58.000000, -18.000000)" id="straight_strand_Color">
                    <rect x="0" y="0" width="264" height="280" />
                </g>
            </g>
        </g>
        <path d="M111.046195,62.6582378 C111.455505,61.738913 111.849027,60.8180234 112.226862,59.8960843 C116.23201,70.5831416 123.322468,78.7096926 133.498237,84.2757375 C134.957704,86.4713573 136.498035,88.5574103 138.118291,90.5350224 C125.443111,85.0120855 116.812635,76.1324394 112.226862,63.8960843 C111.849027,64.8180234 111.455505,65.738913 111.046195,66.6582378 C99.5895621,92.3902571 78.9453743,109.750496 59,112.837908 L59,112.837908 L59,108.837908 C78.9453743,105.750496 99.5895621,88.3902571 111.046195,62.6582378 Z M207,110.280776 C192.046922,109.412723 173.901259,103.744646 156.14893,93.4953343 C145.874756,87.5635371 136.86362,80.7503942 129.499826,73.6367126 C128.136723,71.1264817 126.859535,68.498468 125.669508,65.752196 C133.646468,74.2579416 144.017178,82.4910638 156.14893,89.4953343 C173.901259,99.7446457 192.046922,105.412723 207,106.280776 Z" id="straight_strand_Shadow" fill-opacity="0.16" fill="#000000" />
        <g id="straight_strand_Facial-Hair" transform="translate(49.000000, 72.000000)" />
        <g id="straight_strand_Accessory" transform="translate(62.000000, 85.000000)"><defs>
        <filter x="-3.1%" y="-9.8%" width="106.2%" height="119.5%" filterUnits="objectBoundingBox" id="wayfarers_filter-1">
            <feOffset dx="0" dy="2" in="SourceAlpha" result="shadowOffsetOuter1" />
            <feColorMatrix values="0 0 0 0 0   0 0 0 0 0   0 0 0 0 0  0 0 0 0.2 0" type="matrix" in="shadowOffsetOuter1" result="shadowMatrixOuter1" />
            <feMerge>
                <feMergeNode in="shadowMatrixOuter1" />
                <feMergeNode in="SourceGraphic" />
            </feMerge>
        </filter>
        <linearGradient x1="50%" y1="0%" x2="50%" y2="100%" id="wayfarers_linearGradient-2">
            <stop stop-color="#FFFFFF" stop-opacity="0.5" offset="0%" />
            <stop stop-color="#000000" stop-opacity="0.5" offset="70.5058195%" />
        </linearGradient>
        <path d="M44.9178864,17.5714286 C44.9178864,27.2737857 36.66775,35.1428571 22.9204545,35.1428571 L20.1704091,35.1428571 C6.42311364,35.1428571 0.923022727,27.2708571 0.923022727,17.5714286 L0.923022727,17.5714286 C0.923022727,7.86614286 2.20715909,0 21.4545455,0 L24.3863636,0 C43.63375,0 44.9178864,7.86614286 44.9178864,17.5714286 L44.9178864,17.5714286 Z" id="wayfarers_path-3" />
        <path d="M106.486068,17.5714286 C106.486068,27.2737857 98.2388636,35.1428571 84.4886364,35.1428571 L81.7385909,35.1428571 C67.9912955,35.1428571 62.4912045,27.2708571 62.4912045,17.5714286 L62.4912045,17.5714286 C62.4912045,7.86614286 63.7753409,0 83.0227273,0 L85.9545455,0 C105.199,0 106.486068,7.86614286 106.486068,17.5714286 L106.486068,17.5714286 Z" id="wayfarers_path-4" />
    </defs>
    <g id="wayfarers_Top/_Resources/Wayfarers" stroke="none" stroke-width="1" fill="none" fill-rule="evenodd">
        <g id="wayfarers_Wayfarers" filter="url(#wayfarers_filter-1)" transform="translate(7.000000, 7.000000)" fill-rule="nonzero">
            <g id="wayfarers_Shades" transform="translate(10.795455, 2.928571)">
                <g id="wayfarers_Shade">
                    <use fill-opacity="0.700000048" fill="#000000" xlink:href="#wayfarers_path-3" />
                    <use fill="url(#linearGradient-2)" style="mix-blend-mode: screen;" xlink:href="#wayfarers_path-3" />
                </g>
                <g id="wayfarers_Shade">
                    <use fill-opacity="0.700000048" fill="#000000" xlink:href="#wayfarers_path-4" />
                    <use fill="url(#linearGradient-2)" style="mix-blend-mode: screen;" xlink:href="#wayfarers_path-4" />
                </g>
            </g>
            <path d="M35.1818182,0 C56.8332955,0 58.6451591,10.127 58.6451591,20.5 C58.6451591,32.5686429 48.3955227,41 33.7159091,41 L30.9658636,41 C17.0778409,41 8.78665909,33.3359286 8.78665909,20.5 C8.78665909,10.127 10.5985227,0 32.25,0 L35.1818182,0 Z M35.1818182,5.85421429 L32.25,5.85421429 C14.6502955,5.85421429 14.6502955,12.3175714 14.6502955,20.5 C14.6502955,27.1800714 17.4795,35.1428571 30.9658636,35.1428571 L33.7159091,35.1428571 C44.9418409,35.1428571 52.7815227,29.1217143 52.7815227,20.5 L52.7810475,19.768351 C52.765683,11.935587 52.2535316,5.85421429 35.1818182,5.85421429 Z" id="wayfarers_Left" fill="#252C2F" />
            <path d="M96.75,0 C118.401477,0 120.213341,10.127 120.213341,20.5 C120.213341,32.5686429 109.963705,41 95.2840909,41 L92.5340455,41 C78.6460227,41 70.3548409,33.3359286 70.3548409,20.5 C70.3548409,10.127 72.1667045,0 93.8181818,0 L96.75,0 Z M96.75,5.85421429 L93.8181818,5.85421429 C76.2184773,5.85421429 76.2184773,12.3175714 76.2184773,20.5 C76.2184773,27.1800714 79.0506136,35.1428571 92.5340455,35.1428571 L95.2840909,35.1428571 C106.510023,35.1428571 114.349705,29.1217143 114.349705,20.5 L114.349229,19.768351 C114.333865,11.935587 113.821713,5.85421429 96.75,5.85421429 Z" id="wayfarers_Right" fill="#252C2F" />
            <path d="M2.93181818,5.85714286 C3.61786364,5.17185714 11.1233182,0 32.25,0 C49.9640455,0 53.7138409,1.88014286 59.3898409,4.72085714 L59.8053162,4.93054903 C60.1999353,5.07314243 62.2179351,5.77419634 64.5784525,5.85128811 C66.7290156,5.75689949 68.5684809,5.16080623 69.1059926,4.96981137 C75.5844654,1.74762081 81.9260118,0 96.75,0 C117.876682,0 125.382136,5.17185714 126.068182,5.85714286 C127.689477,5.85714286 129,7.16621429 129,8.78571429 L129,11.7142857 C129,13.3337857 127.689477,14.6428571 126.068182,14.6428571 C126.068182,14.6428571 120.204545,14.6428571 120.204545,17.5714286 C120.204545,20.5 117.272727,13.3337857 117.272727,11.7142857 L117.272727,8.8618831 C113.697201,7.46243482 107.296654,5.85714286 96.75,5.85714286 C84.9995538,5.85714286 79.1475515,6.98813142 74.1276604,9.10414393 L74.1837955,9.24257143 L71.6878772,10.2500422 L74.1813177,11.2582547 L71.981173,16.6874536 L69.263564,15.5885995 C69.0208516,15.4904597 68.4971539,15.3141463 67.770994,15.1309826 C65.7466083,14.6203594 63.6653786,14.4649153 61.8248214,14.8513001 C61.1495627,14.993056 60.5230576,15.2057795 59.9480988,15.4931011 L57.3260941,16.8033836 L54.7026238,11.5651815 L57.3246285,10.2548989 L57.3310023,10.251716 L54.8191364,9.23671429 L54.8992448,9.03890561 C50.5700368,6.97578666 46.5781927,5.85714286 32.25,5.85714286 C21.7038986,5.85714286 15.3034993,7.46145875 11.7272727,8.86093383 L11.7272727,11.7142857 C11.7272727,13.3337857 8.79545455,20.5 8.79545455,17.5714286 C8.79545455,14.6428571 2.93181818,14.6428571 2.93181818,14.6428571 C1.31345455,14.6428571 0,13.3337857 0,11.7142857 L0,8.78571429 C0,7.16621429 1.31345455,5.85714286 2.93181818,5.85714286 Z" id="wayfarers_Stuff" fill="#252C2F" />
        </g>
    </g>
</g>
    </g>
</g>
        </g>
    </g>
</svg>