<svg xmlns="http://www.w3.org/2000/svg" xmlns:xlink="http://www.w3.org/1999/xlink" width="264px" height="280px" viewBox="0 0 264 280" version="1.1">
    <title id="transparent_Title">Avataaar/Default</title>
    <desc>Created with python_avatars</desc>
    <defs>
        <path d="M100,0 C130.927946,-5.68137151e-15 156,25.072054 156,56 L156.000809,62.1660527 C161.675838,63.1185422 166,68.05429 166,74 L166,88 C166,94.0524166 161.519235,99.0582945 155.693975,99.8813638 C153.627928,119.686472 141.237929,136.421678 124.001014,144.610469 L124,163 L128,163 C167.764502,163 200,195.235498 200,235 L200,244 L0,244 L0,235 C-4.86974701e-15,195.235498 32.235498,163 72,163 L76,163 L75.9999836,144.610943 C58.7625487,136.422324 46.3721119,119.686854 44.3051107,99.8809698 C38.480765,99.0582945 34,94.0524166 34,88 L34,74 C34,68.053942 38.3246685,63.1179645 44.0001873,62.1658855 L44,56 C44,25.072054 69.072054,5.68137151e-15 100,0 Z" id="transparent_path-1" />
        <path d="M83,36.3476251 C83,52.6289957 105.161905,65.8276544 132.5,65.8276544 C159.838095,65.8276544 182,52.6289957 182,36.3476251 C182,34.9853134 181.844841,33.6445843 181.544472,32.3313638 C210.784239,41.4879251 232,68.792221 232,101.051724 L232,110 L32,110 L32,101.051724 C32,68.3970853 53.7386736,40.8197864 83.5337207,32.0021267 C83.1821692,33.4207025 83,34.871494 83,36.3476251 Z" id="transparent_path-3" />
        <rect id="transparent_path-5" x="0" y="0" width="264" height="280" />
        <path d="M74,0 C114.869071,0 148,33.1309285 148,74 L148,84.1482318 L148,197.608051 C135.525121,187.236892 119.490913,181 102,181 L102,181 L98,181 L98,162.610951 C115.530782,154.282984 128.048193,137.114792 129.791419,116.867187 C135.569129,116.002364 140,111.018625 140,105 L140,105 L140,92 C140,87.3536213 137.359271,83.3240177 133.496777,81.3301515 C132.723933,81.0500337 131.951808,80.748163 131.180891,80.4262497 C130.794819,80.3202581 130.400778,80.2331546 130,80.1659169 L130,80.1659169 L130.000458,79.9172528 C117.224481,74.2339715 104.877985,63.0706967 96.1104311,47.8848473 C93.1752556,42.8009742 90.8310687,37.5951441 89.0661426,32.3970356 C80.4313947,42.9409152 67.7445474,53.6023901 52.3415164,62.4953343 C42.777598,68.0170651 33.1467898,72.2910056 24,75.2659587 L24.0003852,137.246608 C29.6019576,148.318362 38.7728825,157.277529 50,162.610951 L50,162.610951 L50,181 L46,181 C38.3273639,181 30.9350359,182.200142 24.0004995,184.422941 L24,230 C24,244.105888 13.5691766,255.775526 0,257.716445 L0,74 C0,33.1309285 33.1309285,0 74,0 Z" id="transparent_path-7" />
    </defs>
    <g id="transparent_Avataaar/Default" stroke="none" stroke-width="1" fill="none" fill-rule="evenodd">
        <g id="transparent_Body" transform="translate(32.000000, 36.000000)">
            <mask id="transparent_mask-2" fill="white">
                <use xlink:href="#transparent_path-1" />
            </mask>
            <use fill="#D0C6AC" xlink:href="#transparent_path-1" />
            <g id="transparent_Skin-Color" mask="url(#transparent_mask-2)" fill="#D08B5B">
                <g transform="translate(-32.000000, 0.000000)" id="transparent_Color">
                    <rect x="0" y="0" width="264" height="244" />
                </g>
            </g>
            <path d="M44,94 C44,124.927946 69.072054,150 100,150 C130.927946,150 156,124.927946 156,94 L156,94 L156,102 C156,132.927946 130.927946,158 100,158 C69.072054,158 44,132.927946 44,102 Z" id="transparent_Neck-Shadow" fill-opacity="0.100000001" fill="#000000" mask="url(#transparent_mask-2)" />
        </g>
        <g id="transparent_Clothing" transform="translate(0.000000, 170.000000)">
            
        <defs>
        <path d="M160,29.0517235 C199.764502,29.0517235 232,61.2872215 232,101.051724 L232,110 L32,110 L32,101.051724 C32,61.2872215 64.235498,29.0517235 104,29.0517235 L105.192363,29.0520252 C105.065349,30.0355191 105,31.0365551 105,32.0517235 C105,45.8588423 117.088312,57.0517235 132,57.0517235 C146.911688,57.0517235 159,45.8588423 159,32.0517235 C159,31.0365551 158.934651,30.0355191 158.807637,29.0520252 L160,29.0517235 Z" id="collar_sweater_path-1" />
    </defs>
    <g id="collar_sweater_Clothing/Collar-+-Sweater" stroke="none" stroke-width="1" fill="none" fill-rule="evenodd">
        <mask id="collar_sweater_mask-2" fill="white">
            <use xlink:href="#collar_sweater_path-1" />
        </mask>
        <use id="collar_sweater_Clothes" fill="#E6E6E6" xlink:href="#collar_sweater_path-1" />
        <g id="collar_sweater_Fabric-Color" mask="url(#collar_sweater_mask-2)" fill="#65C9FF">
            <rect id="collar_sweater_ðŸ–Color" x="0" y="0" width="264" height="110" />
        </g>
        <path d="M118.07795,50.9956082 L118,51.0567821 L119,54.207887 L114.421,53.8754994 L108.308702,58.6917545 C101.361717,54.0802103 97,47.4262523 97,40.027915 C97,32.7399202 101.232581,26.1742662 107.999601,21.5717708 L108,36.8768102 C108,42.7004148 111.977587,47.8531513 118.07795,50.9956082 Z M166,40.027915 C166,47.2334229 161.862687,53.7328485 155.229194,58.3270307 L149.58,53.8754994 L145,54.207887 L146,51.0567821 L146.015,51.0664994 L145.923049,50.9950934 C152.022847,47.8525885 156,42.7000968 156,36.8768102 L156.000973,22.2802074 C162.182048,26.8358435 166,33.1060895 166,40.027915 Z" id="collar_sweater_Collar" fill="#F2F2F2" />
    </g>
</g>
        <g id="transparent_Face" transform="translate(76.000000, 82.000000)" fill="#000000">
            <g id="transparent_Mouth" transform="translate(2.000000, 52.000000)">    
                
            <g id="sad_Mouth/Sad" stroke="none" stroke-width="1" fill="none" fill-rule="evenodd" fill-opacity="0.699999988">
        <path d="M40.0582943,16.6539438 C40.7076459,23.6831146 46.7016363,28.3768187 54,28.3768187 C61.3416045,28.3768187 67.3633339,23.627332 67.9526838,16.5287605 C67.9840218,16.1513016 67.0772329,15.8529531 66.6289111,16.077395 C61.0902255,18.8502083 56.8805885,20.2366149 54,20.2366149 C51.1558456,20.2366149 47.0072148,18.8804569 41.5541074,16.168141 C41.0473376,15.9160792 40.0197139,16.2363147 40.0582943,16.6539438 Z" id="sad_Mouth" fill="#000000" transform="translate(54.005357, 22.188409) scale(1, -1) translate(-54.005357, -22.188409) " />
    </g>
</g>
            <g id="transparent_Nose" transform="translate(28.000000, 40.000000)" fill-opacity="0.16">
                
            <g id="default_Nose/Default" stroke="none" stroke-width="1" fill="none" fill-rule="evenodd" fill-opacity="0.16">
        <path d="M16,8 C16,12.418278 21.372583,16 28,16 L28,16 C34.627417,16 40,12.418278 40,8" id="default_Nose" fill="#000000" />
    </g>
</g>
            <g id="transparent_Eyes" transform="translate(0.000000, 8.000000)">
                
            <g id="wink_wacky_Eyes/Wink-Wacky-ðŸ˜œ" stroke="none" stroke-width="1" fill="none" fill-rule="evenodd">
        <circle id="wink_wacky_Cornea?-I-don't-know" fill="#FFFFFF" cx="82" cy="22" r="12" />
        <circle id="wink_wacky_Eye" fill-opacity="0.699999988" fill="#000000" cx="82" cy="22" r="6" />
        <path d="M16.1601674,25.4473116 C18.006676,21.648508 22.1644225,19 26.9975803,19 C31.8136766,19 35.9591217,21.629842 37.8153518,25.4071242 C38.3667605,26.5291977 37.5821037,27.4474817 36.790607,26.7670228 C34.3395063,24.6597833 30.8587163,23.3437884 26.9975803,23.3437884 C23.2572061,23.3437884 19.8737584,24.5787519 17.4375392,26.5716412 C16.5467928,27.3002944 15.6201012,26.5583844 16.1601674,25.4473116 Z" id="wink_wacky_Winky-Doodle" fill-opacity="0.599999964" fill="#000000" />
    </g>
</g>
            <g id="transparent_Eyebrow" fill-opacity="0.599999964">
                
            <g id="flat_natural_Eyebrow/Natural/Flat-Natural" stroke="none" stroke-width="1" fill="none" fill-rule="evenodd" fill-opacity="0.599999964">
        <path d="M38.5686071,10.7022978 C33.5865557,11.2384494 28.6553385,11.1338998 23.6562444,11.1010606 C19.8231061,11.0762636 15.91974,10.6892291 12.3246118,12.5091287 C11.6361455,12.8572921 7.8767609,14.9449324 8.00311195,16.0108688 C8.10389896,16.8633498 12.0128479,18.0636592 12.7165939,18.2838164 C16.4280826,19.4452548 19.9241869,18.9282036 23.6870976,18.5703225 C28.3024371,18.1316834 32.9139567,18.1745756 37.5322346,17.8739956 C40.6422336,17.6719334 45.4224171,16.9769469 46.8293214,13.1484895 C47.2530382,11.9954284 46.8152171,9.73353891 46.3074622,8.50642195 C46.1050066,8.01751871 45.5634602,7.84963624 45.1688335,8.14921095 C43.7560524,9.22218432 40.9851444,10.4425994 38.5686071,10.7022978" id="flat_natural_Fill-10" fill="#000000" transform="translate(27.500000, 13.500000) rotate(2.000000) translate(-27.500000, -13.500000) " />
        <path d="M95.5686071,10.7022978 C90.5865557,11.2384494 85.6553385,11.1338998 80.6562444,11.1010606 C76.8231061,11.0762636 72.91974,10.6892291 69.3246118,12.5091287 C68.6361455,12.8572921 64.8767609,14.9449324 65.003112,16.0108688 C65.103899,16.8633498 69.0128479,18.0636592 69.7165939,18.2838164 C73.4280826,19.4452548 76.9241869,18.9282036 80.6870976,18.5703225 C85.3024371,18.1316834 89.9139567,18.1745756 94.5322346,17.8739956 C97.6422336,17.6719334 102.422417,16.9769469 103.829321,13.1484895 C104.253038,11.9954284 103.815217,9.73353891 103.307462,8.50642195 C103.105007,8.01751871 102.56346,7.84963624 102.168833,8.14921095 C100.756052,9.22218432 97.9851444,10.4425994 95.5686071,10.7022978" id="flat_natural_Fill-10" fill="#000000" transform="translate(84.500000, 13.500000) scale(-1, 1) rotate(2.000000) translate(-84.500000, -13.500000) " />
    </g>
</g>
        </g>
        <g id="transparent_Top">
            
        <defs>
        <path d="M88.4018873,0.357013447 C93.5645254,-0.846479064 97.6906135,2.53871192 102.06293,4.16059373 C108.488235,6.54355423 112.508874,5.8486563 118.817859,3.85507435 C123.056462,2.51559399 125.824219,1.61762086 129.78996,3.93032097 C132.352254,5.42437419 134.324254,9.87616325 137.446405,10.3027118 C141.249081,10.823092 146.585112,7.26247669 150.804147,7.39438491 C156.999935,7.58906085 160.136024,11.3258109 162.738984,15.4450948 L163.055221,15.951194 C164.553244,18.373591 165.399552,17.9706136 167.213378,19.672275 C168.829352,21.1885396 169.557166,23.1372455 171.278589,24.7101717 C177.590835,30.4783232 185.862036,34.9554966 192.648801,40.3918378 C205.315147,50.5387982 208.309564,64.2703984 209.129238,78.2191259 C209.78639,89.3991407 208.763972,102.531035 215.871976,112.532035 C219.523001,117.668749 223.561578,121.532617 225.582497,127.51291 C226.321725,129.699141 227.944765,133.306899 226.413041,135.494944 C224.604107,138.079166 220.053506,138.105004 218.096726,135.636824 C216.20028,141.510593 222.669068,149.991702 226.135287,154.862787 C230.969077,161.653567 237.232404,168.863643 238.377664,176.915484 C238.833159,180.113465 239.08591,193.151981 230.835907,188.347077 C230.56685,192.711833 229.869476,193.331485 231.17617,197.553001 C232.061613,200.411919 233.255792,206.168285 227.311529,205.648358 C229.568892,211.82266 233.19274,220.412559 229.795009,226.807615 C224.207315,237.325369 217.902135,224.075166 216.224196,219.322843 C216.32584,222.602417 212.799287,228.512903 208.385661,223.95323 C208.733533,229.366 210.898493,237.730613 207.724704,242.806586 C201.565196,252.659813 194.748535,240.185647 194.5197,234.910224 C193.409228,238.475373 194.245208,247.046687 186.927937,245.060811 C180.603189,243.344644 182.888817,234.970512 184.111805,231.19141 C182.101213,234.747946 179.630235,240.043766 179.240509,244.059941 C178.905139,247.513126 182.182202,255.630241 173.685972,254.109896 C167.166089,252.943574 166.932906,243.218176 167.044334,238.930932 C167.135107,235.453723 170.498594,227.504326 168.22112,224.674872 C155.493353,230.015568 168.828809,247.982737 157.268587,251.977153 C153.73062,253.199684 150.944383,251.382887 149.488756,248.789145 C149.308297,248.305028 149.128382,247.821818 148.948467,247.337701 C149.350151,245.644199 148.591355,244.77569 146.671536,244.732627 C145.455615,243.254893 144.65714,243.298862 143.870623,241.081807 C141.557817,234.561189 146.062216,225.891963 149.2996,220.076669 C145.947527,223.133676 143.247171,227.332528 139.609734,229.99245 C137.149083,231.79157 133.524148,232.304244 131.224932,229.817026 C128.707208,227.093643 131.086326,224.482676 132.444114,221.999991 C135.443967,216.514694 140.170678,213.319433 145.111547,208.917959 C149.430596,205.07041 153.280561,200.738743 157.112045,196.551224 C159.6692,193.757249 162.112943,190.752253 164.163084,187.578534 C158.297445,185.962645 152.132367,185.070649 145.769448,185.004027 L145,185 L140.999825,184.999552 L141.001014,166.610469 C152.098298,161.338451 161.186582,152.524026 166.80455,141.628513 C167.218972,128.654375 168.700101,107.042699 167.747424,95.0917937 C166.476604,79.1499376 166.355804,70.2471725 155.554378,56.4493915 C146.671683,45.1030183 122.400941,48.8499369 113.317676,38.4387068 C109.194306,43.2191332 103.17612,45.7598396 96.5828586,47.4293172 C90.0678681,49.0779432 83.5224388,49.3467459 79.1631677,53.9925443 C71.3610508,62.3068417 67.9263583,67.8722634 65.5369124,78.2476834 C62.8887367,89.7481762 62.1957105,101.145772 63.000708,112.826222 C63.6115721,121.689531 63.4466856,131.018992 66.2134811,139.62917 C71.721767,151.445375 81.2311772,161.020188 92.9999836,166.610943 L92.9998254,184.999552 L89,185 C87.9000018,185 86.8057651,185.024668 85.7178128,185.07348 C86.3887794,188.511296 86.8096772,192.004115 86.5299011,195.413459 C86.1200644,200.404213 85.1851583,205.067237 85.6835937,210.116466 C86.7201436,220.618354 91.0924599,230.599863 94.7010885,240.623528 C96.435013,245.438857 104.057505,251.106306 100.930715,255.083614 C97.8039252,259.060923 87.115848,249.613685 84.725315,245.034067 C82.2918416,240.371497 80.078506,235.625521 77.5455629,230.999667 C79.1724081,238.077382 79.9846038,241.070655 81.6679782,248.139757 C82.5468986,251.830921 86.9474795,260.885627 80.0666799,262.354749 C71.124195,264.264472 70.7774101,249.766172 69.8925107,245.444931 C68.4211208,238.262053 66.7870774,235.472308 64.3834993,228.474826 C63.9046317,233.818695 64.7346326,239.386945 63.5785017,244.677325 C62.8816706,247.867147 59.2224919,250.505765 57.0243756,253.211017 C49.4918595,262.485842 47.6992316,246.926565 45.7886533,242.659719 C42.4838692,245.061265 35.2888976,249.820386 30.8812505,246.798736 C27.6264731,244.567629 29.6941373,240.525616 30.4502154,237.765516 C31.668311,233.320073 32.3923196,228.923586 29.1359115,224.896532 C26.0490909,227.900051 19.2177543,229.649308 15.258536,226.778604 C10.2513533,223.149088 14.6426939,217.842389 16.8870119,214.076432 C20.5407551,207.947459 20.7005588,201.806248 21.5686081,195.131511 C21.691994,194.184582 21.8735397,193.288422 21.996382,192.265793 C22.3024007,189.72146 23.6232272,184.435613 22.6269,182.014575 C21.5278419,179.343321 20.328227,179.316576 17.8920358,179.924895 C14.443211,180.786605 11.6020751,182.715366 11.0188459,185.502664 C10.1763434,189.527451 14.5872518,191.114429 14.9476254,194.622463 C15.7238148,202.173415 6.24484612,198.627758 3.42490864,195.240301 C-0.684329469,190.304395 -0.815325022,184.841763 1.54639979,179.227278 C2.81124068,176.221946 4.80389503,173.548878 6.77100254,170.849066 C9.32731826,167.341033 10.0942673,166.919017 9.65073052,163.202016 C8.88486854,156.786109 7.14822625,151.019317 7.77222166,144.475128 C8.40763163,137.818976 10.4144183,131.887186 13.4023127,125.704271 C15.6553275,121.042608 19.8145722,116.686464 21.5539323,111.946834 C23.0198867,107.95151 22.6997357,103.444873 23.4503783,99.3303337 C24.4238764,93.9946236 26.0170215,88.7645307 26.9622549,83.4183949 C28.8027153,73.0171372 33.1206766,63.0274694 37.9642508,53.3460408 C40.5678554,48.1435988 42.992632,42.8881215 46.5441878,38.0655389 C48.3677981,35.5901066 50.3582782,33.0471337 52.7922952,30.954734 C55.0219374,29.0377585 59.0317058,28.154744 60.95696,26.3007763 C64.5237352,22.8666297 61.397779,16.8074642 65.9103313,12.9118655 C68.7020041,10.5017074 71.6083661,9.9681817 75.2887432,9.38026087 C78.8865008,8.80593884 77.6972133,9.66084915 80.1584078,7.07481345 C82.5435053,4.56991717 84.3524397,1.30167574 88.4018873,0.357013447 Z" id="dreads_path-1" />
    </defs>
    <g id="dreads_Top/Long-Hair/Dreads" stroke="none" stroke-width="1" fill="none" fill-rule="evenodd">
        <g id="dreads_template-for-hairstyles" transform="translate(63.000000, 87.000000)" />
        <g id="dreads_Facial-Hair" transform="translate(49.000000, 72.000000)"><defs>
        <path d="M105.612044,67.1316942 C111.386129,69.3374281 116.495271,75.5829845 125.36175,72.8283797 C125.730639,72.7136458 126.091098,73.0449523 125.980498,73.408662 C124.607113,77.9183313 116.972736,81.0068878 114.378714,81.1080652 C103.039714,81.5495987 93.9060174,72.8306951 84.0009784,72.1615262 C74.0951698,72.8301081 64.9612417,81.5496135 53.6221945,81.1080652 C51.0278347,81.0068878 43.3937943,77.9183313 42.0204089,73.408662 C41.9094725,73.0449523 42.2699314,72.7136458 42.6388201,72.8283797 C51.5052994,75.5829845 56.6144416,69.3374281 62.3885276,67.1316942 C67.5783507,65.1488567 77.2089224,65.7112779 84.0008729,69.2973744 C90.7925576,65.7112249 100.422466,65.1489502 105.612044,67.1316942 Z" id="moustache_fancy_path-1" />
    </defs>
    <g id="moustache_fancy_Facial-Hair/Moustache-Fancy" stroke="none" stroke-width="1" fill="none" fill-rule="evenodd">
        <mask id="moustache_fancy_mask-2" fill="white">
            <use xlink:href="#moustache_fancy_path-1" />
        </mask>
        <use id="moustache_fancy_Moustache-U-a-Question" fill="#28354B" xlink:href="#moustache_fancy_path-1" />
        <g id="moustache_fancy_Facial-Hair-Color" mask="url(#moustache_fancy_mask-2)" fill="#B58143">
            <rect id="moustache_fancy_Color" x="0" y="0" width="168" height="152" />
        </g>
    </g>
</g>
        <g id="dreads_Hair" transform="translate(15.000000, 14.000000)">
            <mask id="dreads_mask-2" fill="white">
                <use xlink:href="#dreads_path-1" />
            </mask>
            <use id="dreads_No-Woman" fill="#8D5A5A" xlink:href="#dreads_path-1" />
            <g id="dreads_Hair-Color" mask="url(#dreads_mask-2)" fill="#D6B370">
                <g transform="translate(-15.000000, -14.000000)" id="dreads_Color">
                    <rect x="0" y="0" width="264" height="280" />
                </g>
            </g>
            <path d="M166.874747,151.055581 C167.944997,159.099715 170.876362,166.366 169.515856,174.635875 C168.770911,179.167913 166.790066,183.511892 164.162906,187.57881 C158.297445,185.962645 152.132367,185.070649 145.769448,185.004027 L145,185 L140.999097,184.999749 L141.000016,166.610943 C151.902116,161.431916 160.86535,152.83403 166.504204,142.202798 C166.424645,145.19737 166.491855,148.177039 166.874747,151.055581 Z M92.9989864,166.610469 L92.9990974,184.999749 L89,185 C87.8999708,185 86.8057034,185.024669 85.7177207,185.073484 C85.3570328,183.222692 84.9233743,181.387328 84.4877837,179.589912 C81.4183567,166.92083 73.916823,156.341882 68.1617154,144.509125 C67.3860145,142.914197 66.7452351,141.284203 66.2129719,139.627585 C71.7209221,151.444347 81.2302134,161.019445 92.9989864,166.610469 Z" id="dreads_Shadows" fill-opacity="0.24" fill="#000000" mask="url(#dreads_mask-2)" />
            <path d="M157.46508,233.451204 C159.694179,233.451204 159.104971,238.478297 157.110686,237.557799 C155.95836,237.025805 155.467534,233.451204 157.46508,233.451204 Z M177.94561,226.161536 C180.42148,226.656078 177.248236,235.910694 175.395817,234.451885 C174.272299,233.567034 175.534966,225.679629 177.94561,226.161536 Z M201.455507,217.282881 C204.139014,217.282881 202.64099,228.383907 200.65051,227.481458 C199.226409,226.836207 199.135636,217.282881 201.455507,217.282881 Z M157.165041,224.736253 C158.337478,224.763778 158.009718,225.987499 157.216135,225.987499 C155.980645,225.987499 156.389939,224.742571 157.165041,224.736253 Z M59.986234,211.816206 C62.8012795,211.816206 61.4391432,223.102685 59.3225594,222.200687 C57.9560747,221.618156 57.6913658,211.816206 59.986234,211.816206 Z M50.212933,208.325849 C52.5931385,208.325849 51.8011861,217.379669 49.3503191,216.625673 C47.7729369,216.139704 47.9273051,208.325849 50.212933,208.325849 Z M31.4567613,213.932223 C32.3568801,214.276959 32.371556,214.644256 31.4991582,215.035467 C30.5990394,214.691634 30.5849071,214.323435 31.4567613,213.932223 Z M202.089015,202.950811 C204.808395,202.950811 203.051098,215.231344 201.187265,214.35281 C199.853937,213.724254 199.957212,202.941341 202.089015,202.950811 Z M166.332555,200.758587 C168.488275,201.725562 160.674743,213.163653 158.926686,212.377619 C156.998715,211.509915 164.551342,199.95631 166.332555,200.758587 Z M186.706295,193.384566 L186.754925,193.385172 C190.833725,194.199633 179.303942,211.738731 178.004314,210.020016 C177.339581,209.141316 185.185848,193.988173 186.650452,193.400346 L186.706295,193.384566 Z M216.80998,189.875503 C219.046145,194.283064 220.722996,198.746577 221.791072,203.446532 C221.927503,204.049819 223.845148,209.009228 221.128485,208.290879 C219.566322,207.878008 219.325529,203.506094 218.926564,202.180847 C217.697597,198.095009 213.646519,193.018282 213.294842,188.98659 C212.955123,185.090266 215.135302,186.575246 216.80998,189.875503 Z M34.3531219,198.516092 C37.0349977,198.516092 35.9484412,208.679924 33.8084848,207.654742 C32.3963419,206.978357 31.9555228,198.516092 34.3531219,198.516092 Z M49.3093354,187.8662 C50.8731288,191.768841 49.505557,197.898275 49.5898072,202.054956 C49.6110057,203.112626 48.4113908,203.129321 47.6107416,202.798574 C46.701926,202.423155 47.082411,199.293461 47.0465367,198.598576 C46.9334783,196.41149 45.0299661,187.926664 46.7611729,186.367683 C48.7353466,184.59031 48.7782871,186.540953 49.3093354,187.8662 Z M68.1928608,188.992366 C68.6054153,190.333405 72.8244505,200.071733 71.7639844,201.353211 C70.1425747,203.310623 69.6772959,200.536495 69.1467911,199.385872 C67.9689182,196.830588 64.9087316,190.540066 65.4006444,187.850317 C65.8784249,185.241788 67.775958,187.648619 68.1928608,188.992366 Z M33.3865269,185.392722 C33.4474045,186.856043 32.0651568,185.445967 31.7770753,185.438747 C31.6863025,185.43604 33.3087993,183.451554 33.3865269,185.392722 Z M29.29952,141.371402 C32.2645853,141.329473 34.0501471,179.106894 32.1210881,179.161518 C30.6611128,179.198041 27.2171799,141.400766 29.29952,141.371402 Z M58.6844317,170.628746 C58.6317074,173.476424 56.26346,174.943806 56.230847,171.730185 C56.215084,170.119764 58.7137834,168.720066 58.6844317,170.628746 Z M181.434114,170.746831 C182.308686,171.080286 182.322818,171.437656 181.476511,171.818489 C180.601939,171.485034 180.587263,171.127665 181.434114,170.746831 Z M208.425286,157.447168 C210.967469,157.447168 209.736329,170.785817 208.025233,170.015125 C206.370123,169.269251 206.274459,157.447168 208.425286,157.447168 Z M57.7950752,165.998415 C57.7863784,167.012316 56.722651,166.95095 55.9633116,166.68563 C55.0256879,166.358041 55.5996767,164.201639 55.5502136,163.49457 C55.4197616,161.635525 54.5272525,156.156756 55.8904759,154.62169 C58.6158357,151.553363 57.8059462,164.569838 57.7950752,165.998415 Z M187.023004,155.587221 C189.670093,156.113348 186.238118,166.132789 184.321017,164.602687 C183.16543,163.680835 184.490605,155.085459 187.023004,155.587221 Z M188.023082,96.7451491 C189.152035,105.213731 189.651014,113.824449 190.242397,122.33319 C190.352194,123.795609 191.311016,133.35074 189.717871,134.079016 C186.975661,135.332969 188.156795,129.428696 188.167666,128.666127 C188.274745,121.229044 187.19906,113.85423 186.381017,106.456855 C186.225562,105.052193 183.755671,94.2318284 185.564605,93.3352452 C188.272028,91.9937546 187.86817,95.5809897 188.023082,96.7451491 Z M52.5187808,122.883143 C53.7673152,122.883143 53.3536737,124.142962 52.5698745,124.148828 C51.3854791,124.119498 51.7148704,122.883143 52.5187808,122.883143 Z M51.7170446,104.962941 C51.7605286,106.500263 52.928074,118.098087 50.7897482,118.046818 C48.6579451,117.995659 49.4428313,109.828495 49.3607552,108.248307 C49.2357387,105.826133 47.3806025,97.711311 49.6885159,96.3093564 C52.2181977,94.7715832 51.6909542,104.01582 51.7170446,104.962941 Z M203.071753,101.471004 C204.839921,101.328868 209.831341,114.242012 208.249611,114.654432 C205.847663,115.273512 200.377376,101.688494 203.071753,101.471004 Z M37.5995831,84.0632577 C39.9509805,84.0632577 39.6063697,90.801845 37.0864719,90.1859235 C35.5754028,89.8168218 35.2318792,84.0632577 37.5995831,84.0632577 Z M43.1472813,69.9684372 L43.2540252,69.9805849 C45.7005438,70.4661025 40.6167205,83.4857354 38.693097,81.5359942 C37.4601152,80.2871211 40.8406343,70.2320447 43.0384053,69.9731332 L43.1472813,69.9684372 Z M175.668081,41.3306242 C177.959145,41.8698375 181.116083,48.6833281 182.149372,50.7413632 C182.743472,51.9235715 186.133593,57.2006425 182.541271,56.8270286 C181.563968,56.7259543 178.951667,50.0063184 178.139603,48.8435128 C177.531371,47.9735519 170.964743,40.2233192 175.668081,41.3306242 Z M70.6188876,41.486432 C68.6137316,43.3296843 61.07578,54.0047545 58.4928303,54.1116947 C53.7862308,54.3066237 62.7711125,45.0867526 63.7902688,43.9135688 C64.2452201,43.387441 66.275923,40.8222295 67.5119557,40.1914176 C68.7729918,39.5475202 72.9556091,39.3322861 70.6188876,41.486432 Z M155.04775,33.3564939 C155.922322,33.6904 155.936998,34.0473186 155.090147,34.4281522 C154.215575,34.0946972 154.201443,33.7373274 155.04775,33.3564939 Z M86.479514,19.5090896 C90.7371413,19.5090896 80.6358078,26.5179603 78.2392958,25.6588288 C74.3192131,24.2532644 84.8080977,19.5090896 86.479514,19.5090896 Z" id="dreads_Highlights" fill-opacity="0.300000012" fill="#FFFFFF" mask="url(#dreads_mask-2)" />
        </g>
        <g id="dreads_Accessory" transform="translate(62.000000, 85.000000)"><defs>
        <filter x="-3.1%" y="-9.8%" width="106.2%" height="119.5%" filterUnits="objectBoundingBox" id="prescription_02_filter-1">
            <feOffset dx="0" dy="2" in="SourceAlpha" result="shadowOffsetOuter1" />
            <feColorMatrix values="0 0 0 0 0   0 0 0 0 0   0 0 0 0 0  0 0 0 0.2 0" type="matrix" in="shadowOffsetOuter1" result="shadowMatrixOuter1" />
            <feMerge>
                <feMergeNode in="shadowMatrixOuter1" />
                <feMergeNode in="SourceGraphic" />
            </feMerge>
        </filter>
    </defs>
    <g id="prescription_02_Top/_Resources/Prescription-02" stroke="none" stroke-width="1" fill="none" fill-rule="evenodd">
        <g id="prescription_02_Wayfarers" filter="url(#prescription_02_filter-1)" transform="translate(6.000000, 7.000000)" fill="#252C2F" fill-rule="nonzero">
            <path d="M35.4700694,0 C57.1829942,0 59,10.127 59,20.5 C59,32.5686429 48.7212748,41 34,41 L31.2421498,41 C17.3147125,41 9,33.3359286 9,20.5 C9,10.127 10.8170058,0 32.5299306,0 L35.4700694,0 Z M35.6146394,6 L32.3853606,6 C13,6 13,12.8410159 13,21.5015498 C13,28.5719428 16.116254,37 30.9709365,37 L34,37 C46.3649085,37 55,30.6270373 55,21.5015498 L54.9994766,20.7271501 C54.9825532,12.4367119 54.4184392,6 35.6146394,6 Z" id="prescription_02_Left" />
            <path d="M97.4700694,0 C119.182994,0 121,10.127 121,20.5 C121,32.5686429 110.721275,41 96,41 L93.2421498,41 C79.3147125,41 71,33.3359286 71,20.5 C71,10.127 72.8170058,0 94.5299306,0 L97.4700694,0 Z M97.6146394,6 L94.3853606,6 C75.5815608,6 75.0174468,12.4367119 75.0005234,20.7271501 L75,21.5015498 C75,28.5719428 78.1194833,37 92.9709365,37 L96,37 C108.364909,37 117,30.6270373 117,21.5015498 C117,12.8410159 117,6 97.6146394,6 Z" id="prescription_02_Right" />
            <path d="M2.95454545,5.77156439 C3.64590909,5.09629136 11.2095455,0 32.5,0 C50.3513636,0 54.1302273,1.85267217 59.8502273,4.6518809 L60.2689233,4.85850899 C60.6666014,4.99901896 62.7002447,5.68982981 65.0790606,5.76579519 C67.2462948,5.67278567 69.1000195,5.08540191 69.641698,4.89719767 C76.1703915,1.7220864 82.5610971,0 97.5,0 C118.790455,0 126.354091,5.09629136 127.045455,5.77156439 C128.679318,5.77156439 130,7.06150904 130,8.65734659 L130,11.5431288 C130,13.1389663 128.679318,14.428911 127.045455,14.428911 C127.045455,14.428911 120.143997,14.428911 120.143997,17.3146932 C120.143997,20.2004754 118.181818,13.1389663 118.181818,11.5431288 L118.181818,8.73240251 C114.578575,7.35340151 108.128411,4.78617535 97.5,4.78617535 C85.6584651,4.78617535 79.7610984,6.88602813 74.7022935,8.97112368 L74.7588636,9.10752861 L74.7563667,11.0937608 L72.5391666,16.4436339 L69.8004908,15.3608351 C69.5558969,15.2641292 69.0281396,15.090392 68.2963505,14.9099044 C66.256272,14.4067419 64.1589087,14.253569 62.3040836,14.6343084 C61.6235903,14.7739931 60.9922286,14.9836085 60.4128127,15.266732 L57.7704824,16.5578701 L55.1266751,11.3962031 L55.2440909,9.10175705 L55.3248203,8.90683855 C50.9620526,6.87386374 46.9392639,4.78617535 32.5,4.78617535 C21.8721459,4.78617535 15.422131,7.3524397 11.8181818,8.7314671 L11.8181818,11.5431288 C11.8181818,13.1389663 8.86363636,20.2004754 8.86363636,17.3146932 C8.86363636,14.428911 2.95454545,14.428911 2.95454545,14.428911 C1.32363636,14.428911 0,13.1389663 0,11.5431288 L0,8.65734659 C0,7.06150904 1.32363636,5.77156439 2.95454545,5.77156439 Z" id="prescription_02_Stuff" />
        </g>
    </g>
</g>
        <g id="dreads_Accessory" transform="translate(44.000000, 33.000000)" />
    </g>
</g>
    </g>
</svg>