<svg xmlns="http://www.w3.org/2000/svg" xmlns:xlink="http://www.w3.org/1999/xlink" width="264px" height="280px" viewBox="0 0 264 280" version="1.1">
    <title id="transparent_Title">Avataaar/Default</title>
    <desc>Created with python_avatars</desc>
    <defs>
        <path d="M100,0 C130.927946,-5.68137151e-15 156,25.072054 156,56 L156.000809,62.1660527 C161.675838,63.1185422 166,68.05429 166,74 L166,88 C166,94.0524166 161.519235,99.0582945 155.693975,99.8813638 C153.627928,119.686472 141.237929,136.421678 124.001014,144.610469 L124,163 L128,163 C167.764502,163 200,195.235498 200,235 L200,244 L0,244 L0,235 C-4.86974701e-15,195.235498 32.235498,163 72,163 L76,163 L75.9999836,144.610943 C58.7625487,136.422324 46.3721119,119.686854 44.3051107,99.8809698 C38.480765,99.0582945 34,94.0524166 34,88 L34,74 C34,68.053942 38.3246685,63.1179645 44.0001873,62.1658855 L44,56 C44,25.072054 69.072054,5.68137151e-15 100,0 Z" id="transparent_path-1" />
        <path d="M83,36.3476251 C83,52.6289957 105.161905,65.8276544 132.5,65.8276544 C159.838095,65.8276544 182,52.6289957 182,36.3476251 C182,34.9853134 181.844841,33.6445843 181.544472,32.3313638 C210.784239,41.4879251 232,68.792221 232,101.051724 L232,110 L32,110 L32,101.051724 C32,68.3970853 53.7386736,40.8197864 83.5337207,32.0021267 C83.1821692,33.4207025 83,34.871494 83,36.3476251 Z" id="transparent_path-3" />
        <rect id="transparent_path-5" x="0" y="0" width="264" height="280" />
        <path d="M74,0 C114.869071,0 148,33.1309285 148,74 L148,84.1482318 L148,197.608051 C135.525121,187.236892 119.490913,181 102,181 L102,181 L98,181 L98,162.610951 C115.530782,154.282984 128.048193,137.114792 129.791419,116.867187 C135.569129,116.002364 140,111.018625 140,105 L140,105 L140,92 C140,87.3536213 137.359271,83.3240177 133.496777,81.3301515 C132.723933,81.0500337 131.951808,80.748163 131.180891,80.4262497 C130.794819,80.3202581 130.400778,80.2331546 130,80.1659169 L130,80.1659169 L130.000458,79.9172528 C117.224481,74.2339715 104.877985,63.0706967 96.1104311,47.8848473 C93.1752556,42.8009742 90.8310687,37.5951441 89.0661426,32.3970356 C80.4313947,42.9409152 67.7445474,53.6023901 52.3415164,62.4953343 C42.777598,68.0170651 33.1467898,72.2910056 24,75.2659587 L24.0003852,137.246608 C29.6019576,148.318362 38.7728825,157.277529 50,162.610951 L50,162.610951 L50,181 L46,181 C38.3273639,181 30.9350359,182.200142 24.0004995,184.422941 L24,230 C24,244.105888 13.5691766,255.775526 0,257.716445 L0,74 C0,33.1309285 33.1309285,0 74,0 Z" id="transparent_path-7" />
    </defs>
    <g id="transparent_Avataaar/Default" stroke="none" stroke-width="1" fill="none" fill-rule="evenodd">
        <g id="transparent_Body" transform="translate(32.000000, 36.000000)">
            <mask id="transparent_mask-2" fill="white">
                <use xlink:href="#transparent_path-1" />
            </mask>
            <use fill="#D0C6AC" xlink:href="#transparent_path-1" />
            <g id="transparent_Skin-Color" mask="url(#transparent_mask-2)" fill="#EDB98A">
                <g transform="translate(-32.000000, 0.000000)" id="transparent_Color">
                    <rect x="0" y="0" width="264" height="244" />
                </g>
            </g>
            <path d="M44,94 C44,124.927946 69.072054,150 100,150 C130.927946,150 156,124.927946 156,94 L156,94 L156,102 C156,132.927946 130.927946,158 100,158 C69.072054,158 44,132.927946 44,102 Z" id="transparent_Neck-Shadow" fill-opacity="0.100000001" fill="#000000" mask="url(#transparent_mask-2)" />
        </g>
        <g id="transparent_Clothing" transform="translate(0.000000, 170.000000)">
            
        <defs>
        <path d="M99,30.3476251 C99,42.2107177 113.998461,51.8276544 132.5,51.8276544 C151.001539,51.8276544 166,42.2107177 166,30.3476251 C166,29.9947569 165.98673,29.643876 165.960492,29.2951765 C202.936371,32.3248899 232,63.2942196 232,101.051724 L232,110 L32,110 L32,101.051724 C32,62.952169 61.5925972,31.764336 99.0465686,29.2194474 C99.0151943,29.59473 99,29.9700398 99,30.3476251 Z" id="shirt_crew_neck_path-1" />
    </defs>
    <g id="shirt_crew_neck_Clothing/Shirt-Crew-Neck" stroke="none" stroke-width="1" fill="none" fill-rule="evenodd">
        <mask id="shirt_crew_neck_mask-2" fill="white">
            <use xlink:href="#shirt_crew_neck_path-1" />
        </mask>
        <use id="shirt_crew_neck_Clothes" fill="#E6E6E6" xlink:href="#shirt_crew_neck_path-1" />
        <g id="shirt_crew_neck_Fabric-Color" mask="url(#shirt_crew_neck_mask-2)" fill="#E6E6E6">
            <rect id="shirt_crew_neck_ðŸ–Color" x="0" y="0" width="264" height="110" />
        </g>
        <g id="shirt_crew_neck_Shadowy" opacity="0.599999964" mask="url(#shirt_crew_neck_mask-2)" fill="#000000" fill-opacity="0.16">
            <g transform="translate(92.000000, 4.000000)" id="shirt_crew_neck_Hola-ðŸ‘‹ðŸ¼">
                <ellipse cx="40.5" cy="27.8476251" rx="39.6351047" ry="26.9138272" />
            </g>
        </g>
    </g>
</g>
        <g id="transparent_Face" transform="translate(76.000000, 82.000000)" fill="#000000">
            <g id="transparent_Mouth" transform="translate(2.000000, 52.000000)">    
                
            <defs>
        <path d="M29,15.6086957 C30.410031,25.2313711 41.062182,33 54,33 C66.9681454,33 77.6461342,25.183301 79,14.7391304 C79.1012093,14.3397326 78.775269,13 76.826087,13 C56.838426,13 41.7395748,13 31.173913,13 C29.3833142,13 28.870211,14.2404669 29,15.6086957 Z" id="tongue_path-1" />
    </defs>
    <g id="tongue_Mouth/Tongue" stroke="none" stroke-width="1" fill="none" fill-rule="evenodd">
        <mask id="tongue_mask-2" fill="white">
            <use xlink:href="#tongue_path-1" />
        </mask>
        <use id="tongue_Mouth" fill-opacity="0.699999988" fill="#000000" xlink:href="#tongue_path-1" />
        <path d="M44,2 L65,2 C67.7614237,2 70,4.23857625 70,7 L70,13 C70,15.7614237 67.7614237,18 65,18 L44,18 C41.2385763,18 39,15.7614237 39,13 L39,7 C39,4.23857625 41.2385763,2 44,2 Z" id="tongue_Teeth" fill="#FFFFFF" mask="url(#tongue_mask-2)" />
        <path d="M59.5,20 C63.0898509,20 66,21.5670034 66,23.5 C66,23.5829439 65.9946418,23.6652139 65.9841015,23.7467151 C65.9945755,23.8293228 66,23.9140279 66,24 L66,33 C66,39.0751322 61.0751322,44 55,44 L54,44 C47.9248678,44 43,39.0751322 43,33 L43,24 C43,23.9140279 43.0054245,23.8293228 43.0159499,23.7462082 C43.0053582,23.6652139 43,23.5829439 43,23.5 C43,21.5670034 45.9101491,20 49.5,20 C51.5110191,20 53.3087347,20.4917558 54.5010337,21.2641296 C55.6909749,20.4918353 57.4888185,20 59.5,20 Z" id="tongue_Tongue" fill="#FF4F6D" />
    </g>
</g>
            <g id="transparent_Nose" transform="translate(28.000000, 40.000000)" fill-opacity="0.16">
                
            <g id="default_Nose/Default" stroke="none" stroke-width="1" fill="none" fill-rule="evenodd" fill-opacity="0.16">
        <path d="M16,8 C16,12.418278 21.372583,16 28,16 L28,16 C34.627417,16 40,12.418278 40,8" id="default_Nose" fill="#000000" />
    </g>
</g>
            <g id="transparent_Eyes" transform="translate(0.000000, 8.000000)">
                
            <g id="x_dizzy_Eyes/X-Dizzy-ðŸ˜µ" stroke="none" stroke-width="1" fill="none" fill-rule="evenodd" fill-opacity="0.599999964">
        <path d="M23.5,13.3 L29,18.799 L34.5,13.3 C34.9,12.9 35.6,12.9 36.1,13.3 L37.7,14.9 C38.1,15.3 38.1,16 37.7,16.5 L32.2,22 L37.7,27.5 C38.1,27.9 38.1,28.6 37.7,29.1 L36.1,30.7 C35.7,31.1 35,31.1 34.5,30.7 L29,25.2 L23.5,30.7 C23.1,31.1 22.4,31.1 21.9,30.7 L20.3,29.1 C19.9,28.7 19.9,28 20.3,27.5 L25.799,22 L20.3,16.5 C19.9,16 19.9,15.3 20.3,14.9 L21.9,13.3 C22.3,12.9 23,12.9 23.5,13.3 Z" id="x_dizzy_Eye" fill="#000000" fill-rule="nonzero" />
        <path d="M77.5,13.3 L83,18.799 L88.5,13.3 C88.9,12.9 89.6,12.9 90.1,13.3 L91.7,14.9 C92.1,15.3 92.1,16 91.7,16.5 L86.2,22 L91.7,27.5 C92.1,27.9 92.1,28.6 91.7,29.1 L90.1,30.7 C89.7,31.1 89,31.1 88.5,30.7 L83,25.2 L77.5,30.7 C77.1,31.1 76.4,31.1 75.9,30.7 L74.3,29.1 C73.9,28.7 73.9,28 74.3,27.5 L79.799,22 L74.3,16.5 C73.9,16 73.9,15.3 74.3,14.9 L75.9,13.3 C76.3,12.9 77,12.9 77.5,13.3 Z" id="x_dizzy_Eye" fill="#000000" fill-rule="nonzero" />
    </g>
</g>
            <g id="transparent_Eyebrow" fill-opacity="0.599999964">
                
            <g id="frown_natural_Eyebrow/Natural/Frown-Natural" stroke="none" stroke-width="1" fill="none" fill-rule="evenodd" fill-opacity="0.599999964">
        <path d="M36.3692975,6.87618545 C34.3991755,9.78053246 30.8236346,11.5165625 27.6315757,12.5601676 C23.6890255,13.8490851 9.08080143,15.9390364 12.5196198,23.9079177 C12.572332,24.029546 12.7390347,24.0312591 12.7920764,23.9096308 C13.9448284,21.2646433 30.256648,18.7865093 31.7648785,18.2064622 C36.2101722,16.4974987 40.1579937,12.7153722 40.9269343,7.66282939 C41.2794477,5.34640965 40.2901039,1.6143049 39.3791695,0.113308759 C39.2697915,-0.0669067099 39.0052417,-0.02339461 38.9498938,0.181831751 C38.5898029,1.51323348 37.5385221,5.15317482 36.3692975,6.87618545" id="frown_natural_Fill-5" fill="#000000" />
        <path d="M95.3692975,6.87618545 C93.3991755,9.78053246 89.8236346,11.5165625 86.6315757,12.5601676 C82.6890255,13.8490851 68.0808014,15.9390364 71.5196198,23.9079177 C71.572332,24.029546 71.7390347,24.0312591 71.7920764,23.9096308 C72.9448284,21.2646433 89.256648,18.7865093 90.7648785,18.2064622 C95.2101722,16.4974987 99.1579937,12.7153722 99.9269343,7.66282939 C100.279448,5.34640965 99.2901039,1.6143049 98.3791695,0.113308759 C98.2697915,-0.0669067099 98.0052417,-0.02339461 97.9498938,0.181831751 C97.5898029,1.51323348 96.5385221,5.15317482 95.3692975,6.87618545" id="frown_natural_Fill-5" fill="#000000" transform="translate(85.500000, 12.000000) scale(-1, 1) translate(-85.500000, -12.000000) " />
    </g>
</g>
        </g>
        <g id="transparent_Top">
            
        <defs>
        <path d="M58,1 C115,0.274362825 115.719178,53.7019177 115,64 C114.653144,65.488448 113.327244,65.2226722 113,64 C113.46274,62.445722 109.704055,35.2480719 100,28 C98.2407597,26.7763806 92.7529656,25.6102528 85.359342,24.7391156 L89,16 L82.01872,24.3785401 C74.9866735,23.6847668 66.6576417,23.2514723 58.3126144,23.245568 C39.0082164,23.2319099 19.618222,25.4833872 16,28 C6.29594493,35.2480719 2.53726005,62.445722 3,64 C2.67275588,65.2226722 1.34685629,65.488448 1,64 C0.280821545,53.7019177 1,1.72563718 58,1 Z" id="caesar_side_part_path-1" />
    </defs>
    <g id="caesar_side_part_Top/Short-Hair/The-Caesar-+-Side-Part" stroke="none" stroke-width="1" fill="none" fill-rule="evenodd">
        <g id="caesar_side_part_Facial-Hair" transform="translate(49.000000, 72.000000)" />
        <g id="caesar_side_part_Hair" transform="translate(75.000000, 34.000000)">
            <mask id="caesar_side_part_mask-2" fill="white">
                <use xlink:href="#caesar_side_part_path-1" />
            </mask>
            <use id="caesar_side_part_Caesar" fill="#28354B" xlink:href="#caesar_side_part_path-1" />
            <g id="caesar_side_part_Hair-Color" mask="url(#caesar_side_part_mask-2)" fill="#F59797">
                <g transform="translate(-74.000000, -34.000000)" id="caesar_side_part_Color">
                    <rect x="0" y="0" width="264" height="280" />
                </g>
            </g>
        </g>
        <g id="caesar_side_part_Accessory" transform="translate(62.000000, 85.000000)"><defs>
        <path d="M102,3 C110.919724,3 118.702944,7.86594657 122.839966,15.0881434 C123.049977,15.0306809 123.271405,15 123.5,15 L131.5,15 C132.880712,15 134,16.1192881 134,17.5 C134,18.8807119 132.880712,20 131.5,20 L124.963112,19.9999542 C125.63735,22.2145597 126,24.5649291 126,27 C126,40.254834 115.254834,51 102,51 C88.745166,51 78,40.254834 78,27 C78,25.5817328 78.1230214,24.1921987 78.3589754,22.8414867 C78.2814883,18.460693 74.9167538,15 70.8624171,15 C67.1244063,15 63.9725878,17.9417418 63.4412238,21.8340095 C63.8076631,23.4981856 64,25.2266315 64,27 C64,40.254834 53.254834,51 40,51 C26.745166,51 16,40.254834 16,27 C16,24.5649291 16.3626501,22.2145597 17.0368877,19.9999542 L10.5,20 C9.11928813,20 8,18.8807119 8,17.5 C8,16.1192881 9.11928813,15 10.5,15 L18.5,15 C18.7285947,15 18.9500235,15.0306809 19.1603931,15.0881495 C23.2970555,7.86594657 31.0802764,3 40,3 C49.3522436,3 57.4550935,8.34929022 61.4157763,16.1550973 C63.492635,13.0394413 66.9492812,11 70.8624171,11 C74.874933,11 78.4074783,13.1443461 80.4650049,16.3947271 C84.3793874,8.45920672 92.5521607,3 102,3 Z M40,7 C28.954305,7 20,15.954305 20,27 C20,38.045695 28.954305,47 40,47 C51.045695,47 60,38.045695 60,27 C60,15.954305 51.045695,7 40,7 Z M102,7 C90.954305,7 82,15.954305 82,27 C82,38.045695 90.954305,47 102,47 C113.045695,47 122,38.045695 122,27 C122,15.954305 113.045695,7 102,7 Z" id="round_path-1" />
        <filter x="-0.8%" y="-2.1%" width="101.6%" height="108.3%" filterUnits="objectBoundingBox" id="round_filter-2">
            <feOffset dx="0" dy="2" in="SourceAlpha" result="shadowOffsetOuter1" />
            <feColorMatrix values="0 0 0 0 0   0 0 0 0 0   0 0 0 0 0  0 0 0 0.1 0" type="matrix" in="shadowOffsetOuter1" />
        </filter>
    </defs>
    <g id="round_Top/_Resources/Round" stroke="none" stroke-width="1" fill="none" fill-rule="evenodd">
        <g id="round_Lennon-Glasses">
            <use fill="black" fill-opacity="1" filter="url(#round_filter-2)" xlink:href="#round_path-1" />
            <use fill="#252C2F" fill-rule="evenodd" xlink:href="#round_path-1" />
        </g>
    </g>
</g>
    </g>
</g>
    </g>
</svg>