<svg xmlns="http://www.w3.org/2000/svg" xmlns:xlink="http://www.w3.org/1999/xlink" width="264px" height="280px" viewBox="0 0 264 280" version="1.1">
    <title id="transparent_Title">Avataaar/Default</title>
    <desc>Created with python_avatars</desc>
    <defs>
        <path d="M100,0 C130.927946,-5.68137151e-15 156,25.072054 156,56 L156.000809,62.1660527 C161.675838,63.1185422 166,68.05429 166,74 L166,88 C166,94.0524166 161.519235,99.0582945 155.693975,99.8813638 C153.627928,119.686472 141.237929,136.421678 124.001014,144.610469 L124,163 L128,163 C167.764502,163 200,195.235498 200,235 L200,244 L0,244 L0,235 C-4.86974701e-15,195.235498 32.235498,163 72,163 L76,163 L75.9999836,144.610943 C58.7625487,136.422324 46.3721119,119.686854 44.3051107,99.8809698 C38.480765,99.0582945 34,94.0524166 34,88 L34,74 C34,68.053942 38.3246685,63.1179645 44.0001873,62.1658855 L44,56 C44,25.072054 69.072054,5.68137151e-15 100,0 Z" id="transparent_path-1" />
        <path d="M83,36.3476251 C83,52.6289957 105.161905,65.8276544 132.5,65.8276544 C159.838095,65.8276544 182,52.6289957 182,36.3476251 C182,34.9853134 181.844841,33.6445843 181.544472,32.3313638 C210.784239,41.4879251 232,68.792221 232,101.051724 L232,110 L32,110 L32,101.051724 C32,68.3970853 53.7386736,40.8197864 83.5337207,32.0021267 C83.1821692,33.4207025 83,34.871494 83,36.3476251 Z" id="transparent_path-3" />
        <rect id="transparent_path-5" x="0" y="0" width="264" height="280" />
        <path d="M74,0 C114.869071,0 148,33.1309285 148,74 L148,84.1482318 L148,197.608051 C135.525121,187.236892 119.490913,181 102,181 L102,181 L98,181 L98,162.610951 C115.530782,154.282984 128.048193,137.114792 129.791419,116.867187 C135.569129,116.002364 140,111.018625 140,105 L140,105 L140,92 C140,87.3536213 137.359271,83.3240177 133.496777,81.3301515 C132.723933,81.0500337 131.951808,80.748163 131.180891,80.4262497 C130.794819,80.3202581 130.400778,80.2331546 130,80.1659169 L130,80.1659169 L130.000458,79.9172528 C117.224481,74.2339715 104.877985,63.0706967 96.1104311,47.8848473 C93.1752556,42.8009742 90.8310687,37.5951441 89.0661426,32.3970356 C80.4313947,42.9409152 67.7445474,53.6023901 52.3415164,62.4953343 C42.777598,68.0170651 33.1467898,72.2910056 24,75.2659587 L24.0003852,137.246608 C29.6019576,148.318362 38.7728825,157.277529 50,162.610951 L50,162.610951 L50,181 L46,181 C38.3273639,181 30.9350359,182.200142 24.0004995,184.422941 L24,230 C24,244.105888 13.5691766,255.775526 0,257.716445 L0,74 C0,33.1309285 33.1309285,0 74,0 Z" id="transparent_path-7" />
    </defs>
    <g id="transparent_Avataaar/Default" stroke="none" stroke-width="1" fill="none" fill-rule="evenodd">
        <g id="transparent_Body" transform="translate(32.000000, 36.000000)">
            <mask id="transparent_mask-2" fill="white">
                <use xlink:href="#transparent_path-1" />
            </mask>
            <use fill="#D0C6AC" xlink:href="#transparent_path-1" />
            <g id="transparent_Skin-Color" mask="url(#transparent_mask-2)" fill="#614335">
                <g transform="translate(-32.000000, 0.000000)" id="transparent_Color">
                    <rect x="0" y="0" width="264" height="244" />
                </g>
            </g>
            <path d="M44,94 C44,124.927946 69.072054,150 100,150 C130.927946,150 156,124.927946 156,94 L156,94 L156,102 C156,132.927946 130.927946,158 100,158 C69.072054,158 44,132.927946 44,102 Z" id="transparent_Neck-Shadow" fill-opacity="0.100000001" fill="#000000" mask="url(#transparent_mask-2)" />
        </g>
        <g id="transparent_Clothing" transform="translate(0.000000, 170.000000)">
            
        <defs>
        <path d="M67,1.34762511 C67,13.2107177 81.9984609,22.8276544 100.5,22.8276544 C119.001539,22.8276544 134,13.2107177 134,1.34762511 C134,0.994756918 133.98673,0.64387605 133.960492,0.295176488 C170.936371,3.3248899 200,34.2942196 200,72.0517235 L200,81 L0,81 L0,72.0517235 C-4.66584974e-15,33.952169 29.5925972,2.76433598 67.0465686,0.219447423 C67.0151943,0.594730017 67,0.970039821 67,1.34762511 Z" id="blazer_shirt_path-1" />
    </defs>
    <g id="blazer_shirt_Clothing/Blazer-+-Shirt" stroke="none" stroke-width="1" fill="none" fill-rule="evenodd">
        <g id="blazer_shirt_Shirt" transform="translate(32.000000, 29.000000)">
            <mask id="blazer_shirt_mask-2" fill="white">
                <use xlink:href="#blazer_shirt_path-1" />
            </mask>
            <use id="blazer_shirt_Clothes" fill="#E6E6E6" xlink:href="#blazer_shirt_path-1" />
            <g id="blazer_shirt_Fabric-Color" mask="url(#blazer_shirt_mask-2)" fill="#65C9FF">
                <g transform="translate(-32.000000, -29.000000)" id="blazer_shirt_ðŸ–Color">
                    <rect x="0" y="0" width="264" height="110" />
                </g>
            </g>
            <g id="blazer_shirt_Shadowy" opacity="0.599999964" mask="url(#blazer_shirt_mask-2)" fill="#000000" fill-opacity="0.16">
                <g transform="translate(60.000000, -25.000000)" id="blazer_shirt_Hola-ðŸ‘‹ðŸ¼">
                    <ellipse cx="40.5" cy="27.8476251" rx="39.6351047" ry="26.9138272" />
                </g>
            </g>
        </g>
        <g id="blazer_shirt_Blazer" transform="translate(32.000000, 28.000000)">
            <path d="M64,40.5 C64,55.7092257 65.9608691,69.9209213 69.3620096,82.0011822 L0,82 L0,73.0517235 C-4.73779789e-15,34.3646678 30.512279,2.80413671 68.7847355,1.12223161 C65.7400343,12.7307619 64,26.1727873 64,40.5 Z M200,73.0517235 L200,82 L131.63799,82.0011822 C135.039131,69.9209213 137,55.7092257 137,40.5 C137,26.194165 135.265154,12.7708778 132.228695,1.1737534 C170.025091,3.36299447 200,34.7068514 200,73.0517235 Z" id="blazer_shirt_Saco" fill="#3A4C5A" />
            <path d="M149,58 L158.555853,50.83311 C159.998897,49.7508275 161.987779,49.7682725 163.411616,50.8757011 L170,56 L170,56 L149,58 Z" id="blazer_shirt_Pocket-hanky" fill="#E6E6E6" />
            <path d="M69,0 C65,19.3333333 66.6666667,46.6666667 74,82 L58,82 L44,46 L50,37 L44,31 L63,1 C65.027659,0.369238637 67.027659,0.0359053037 69,0 Z" id="blazer_shirt_Wing" fill="#2F4351" />
            <path d="M151,0 C147,19.3333333 148.666667,46.6666667 156,82 L140,82 L126,46 L132,37 L126,31 L145,1 C147.027659,0.369238637 149.027659,0.0359053037 151,0 Z" id="blazer_shirt_Wing" fill="#2F4351" transform="translate(141.000000, 41.000000) scale(-1, 1) translate(-141.000000, -41.000000) " />
        </g>
    </g>
</g>
        <g id="transparent_Face" transform="translate(76.000000, 82.000000)" fill="#000000">
            <g id="transparent_Mouth" transform="translate(2.000000, 52.000000)">    
                
            <g id="eating_Mouth/Eating" stroke="none" stroke-width="1" fill="none" fill-rule="evenodd">
        <g id="eating_Om-Nom-Nom" opacity="0.599999964" transform="translate(28.000000, 6.000000)" fill="#000000" fill-opacity="0.599999964">
            <path d="M45.7064761,0 C42.3399588,1.95870633 40.0195381,5.49520667 40.0195381,9.67694348 C40.0195381,15.344608 45.4930527,20.2451296 51.8234083,20.2451296 C51.8823878,20.2451296 51.9412524,20.2447983 52,20.244138 C50.6423552,20.7317259 49.1600404,21 47.6077404,21 C42.2861196,21 37.787011,17.8470634 36.3137083,13.513833 C33.8402487,15.6694366 30.1376666,17.0394229 26,17.0394229 C21.8623334,17.0394229 18.1597513,15.6694366 15.6851623,13.5125989 C14.212989,17.8470634 9.71388039,21 4.39225962,21 C2.83995964,21 1.35764479,20.7317259 0,20.244138 C0.0587475828,20.2447983 0.11761218,20.2451296 0.176591694,20.2451296 C6.50694731,20.2451296 11.9804619,15.344608 11.9804619,9.67694348 C11.9804619,5.49520667 9.66004124,1.95870633 6.29352385,0 C11.7918498,0.797121661 16.0171848,4.99477485 16.1905909,10.1049337 C18.754121,11.8420922 22.2048056,12.9056086 26,12.9056086 C29.7951944,12.9056086 33.245879,11.8420922 35.8100516,10.1058522 C35.9828152,4.99477485 40.2081502,0.797121661 45.7064761,0 Z" id="eating_Delicious" />
        </g>
        <circle id="eating_Redish" fill-opacity="0.2" fill="#FF4646" cx="17" cy="15" r="9" />
        <circle id="eating_Redish" fill-opacity="0.2" fill="#FF4646" cx="91" cy="15" r="9" />
    </g>
</g>
            <g id="transparent_Nose" transform="translate(28.000000, 40.000000)" fill-opacity="0.16">
                
            <g id="default_Nose/Default" stroke="none" stroke-width="1" fill="none" fill-rule="evenodd" fill-opacity="0.16">
        <path d="M16,8 C16,12.418278 21.372583,16 28,16 L28,16 C34.627417,16 40,12.418278 40,8" id="default_Nose" fill="#000000" />
    </g>
</g>
            <g id="transparent_Eyes" transform="translate(0.000000, 8.000000)">
                
            <g id="cry_Eyes/Cry-ðŸ˜¢" stroke="none" stroke-width="1" fill="none" fill-rule="evenodd">
        <circle id="cry_Eye" fill-opacity="0.599999964" fill="#000000" cx="30" cy="22" r="6" />
        <path d="M25,27 C25,27 19,34.2706667 19,38.2706667 C19,41.5846667 21.686,44.2706667 25,44.2706667 C28.314,44.2706667 31,41.5846667 31,38.2706667 C31,34.2706667 25,27 25,27 Z" id="cry_Drop" fill="#92D9FF" fill-rule="nonzero" />
        <circle id="cry_Eye" fill-opacity="0.599999964" fill="#000000" cx="82" cy="22" r="6" />
    </g>
</g>
            <g id="transparent_Eyebrow" fill-opacity="0.599999964">
                
            <g id="sad_concerned_natural_Eyebrow/Natural/Sad-Concerned-Natural" stroke="none" stroke-width="1" fill="none" fill-rule="evenodd" fill-opacity="0.599999964">
        <path d="M22.7663531,5.57844898 L23.6772984,5.17582144 C28.9190996,3.09473425 36.8645466,3.96712704 41.7227321,6.29911638 C42.2897848,6.57148957 41.9021563,7.4519421 41.3211012,7.40711006 C26.4021788,6.25602197 16.3582869,15.5525942 12.9460869,21.8470939 C12.8449215,22.0337142 12.5391523,22.05489 12.4635344,21.8808353 C10.156283,16.5620676 16.9134476,7.89614725 22.7663531,5.57844898 Z" id="sad_concerned_natural_Eyebrow" fill="#000000" transform="translate(27.000000, 13.000000) scale(-1, -1) translate(-27.000000, -13.000000) " />
        <path d="M80.7663531,5.57844898 L81.6772984,5.17582144 C86.9190996,3.09473425 94.8645466,3.96712704 99.7227321,6.29911638 C100.289785,6.57148957 99.9021563,7.4519421 99.3211012,7.40711006 C84.4021788,6.25602197 74.3582869,15.5525942 70.9460869,21.8470939 C70.8449215,22.0337142 70.5391523,22.05489 70.4635344,21.8808353 C68.156283,16.5620676 74.9134476,7.89614725 80.7663531,5.57844898 Z" id="sad_concerned_natural_Eyebrow" fill="#000000" transform="translate(85.000000, 13.000000) scale(1, -1) translate(-85.000000, -13.000000) " />
    </g>
</g>
        </g>
        <g id="transparent_Top">
            
        <defs>
        <path d="M58,1 C115,0.274362825 115.719178,53.7019177 115,64 C114.653144,65.488448 113.327244,65.2226722 113,64 C113.46274,62.445722 109.704055,35.2480719 100,28 C98.2407597,26.7763806 92.7529656,25.6102528 85.359342,24.7391156 L89,16 L82.01872,24.3785401 C74.9866735,23.6847668 66.6576417,23.2514723 58.3126144,23.245568 C39.0082164,23.2319099 19.618222,25.4833872 16,28 C6.29594493,35.2480719 2.53726005,62.445722 3,64 C2.67275588,65.2226722 1.34685629,65.488448 1,64 C0.280821545,53.7019177 1,1.72563718 58,1 Z" id="caesar_side_part_path-1" />
    </defs>
    <g id="caesar_side_part_Top/Short-Hair/The-Caesar-+-Side-Part" stroke="none" stroke-width="1" fill="none" fill-rule="evenodd">
        <g id="caesar_side_part_Facial-Hair" transform="translate(49.000000, 72.000000)"><defs>
        <path d="M65.1802189,77.7372986 C67.3631845,76.1045334 80.4065113,75.4786511 82.757829,74.0894494 C83.4916461,73.6553857 84.0610723,73.215719 84.4997781,72.7800074 C84.938814,73.215719 85.5085703,73.6553857 86.2423874,74.0894494 C88.593375,75.4786511 101.636702,76.1045334 103.819667,77.7372986 C106.030032,79.3908276 107.643571,83.1846831 107.466966,86.15095 C107.255041,89.7101408 103.361486,98.2028927 93.6723269,99.1811016 C91.5576925,96.8281927 88.2368647,95.3104528 84.4997781,95.3104528 C80.7633517,95.3104528 77.4421938,96.8281927 75.3275594,99.1811016 C65.6387308,98.2028927 61.7451757,89.7101408 61.5332501,86.15095 C61.3566455,83.1846831 62.9701849,79.3908276 65.1802189,77.7372986 M103.141638,94.9063813 C103.142958,94.9057221 103.144609,94.905063 103.145929,94.9047334 C103.144278,94.905063 103.142958,94.9057221 103.141638,94.9063813 M65.8453747,94.9014375 C65.8493359,94.9030855 65.8565982,94.9057221 65.8618798,94.9076997 C65.8565982,94.9057221 65.8509864,94.9034151 65.8453747,94.9014375 M144.86259,55.9853335 C144.47439,50.0303878 143.277769,44.1519058 142.233986,38.2862777 C141.952739,36.7072349 140.423706,26 139.734783,26 C139.502391,35.1094058 138.701893,44.0803858 137.669664,53.1393651 C137.361018,55.8475668 137.037848,58.5564277 136.825262,61.2741874 C136.653609,63.4695546 136.959614,66.1220564 136.427819,68.2455739 C135.749129,70.9524573 132.348087,73.4783984 129.702978,74.410795 C123.102915,76.7373371 117.597802,67.1077689 111.960977,64.2911336 C104.643272,60.6347152 92.0637391,59.7639895 84.5816434,64.5297918 C76.9361472,59.7639895 64.356614,60.6347152 57.0389092,64.2911336 C51.4024147,67.1077689 45.8969708,76.7373371 39.2972383,74.410795 C36.6521296,73.4783984 33.2504268,70.9524573 32.572397,68.2455739 C32.0402723,66.1220564 32.346277,63.4695546 32.174954,61.2741874 C31.9623682,58.5564277 31.6388681,55.8475668 31.3302226,53.1393651 C30.2983232,44.0803858 29.4974953,35.1094058 29.2654335,26 C28.5761802,26 27.0468169,36.7072349 26.7658999,38.2862777 C25.7221169,44.1519058 24.5258266,50.0303878 24.1376265,55.9853335 C23.738533,62.1047422 24.2148704,68.1674622 25.4695887,74.1632765 C26.0687242,77.0277016 26.7685407,79.8756475 27.518863,82.7041478 C28.352701,85.8467429 27.198994,91.9661516 27.5723395,95.1921317 C28.2787581,101.29572 31.1542781,113.199679 34.3833375,118.45096 C35.9440605,120.989096 37.7734867,122.573742 39.816489,124.619148 C41.7825775,126.58809 42.6038717,129.640049 44.7260985,131.73687 C48.6820428,135.645092 54.4456266,137.971304 60.3656788,138.543134 C65.6773527,143.050212 74.505605,146 84.4997781,146 C94.4946114,146 103.322534,143.050212 108.634538,138.543134 C114.55393,137.971304 120.317843,135.645092 124.274118,131.73687 C126.396015,129.640049 127.217309,126.58809 129.183727,124.619148 C131.2264,122.573742 133.055826,120.989096 134.616879,118.45096 C137.845608,113.199679 140.721458,101.29572 141.427547,95.1921317 C141.800892,91.9661516 140.647185,85.8467429 141.481353,82.7041478 C142.231676,79.8756475 142.931162,77.0277016 143.530628,74.1632765 C144.784686,68.1674622 145.261353,62.1047422 144.86259,55.9853335 Z" id="beard_magestic_path-1" />
    </defs>
    <g id="beard_magestic_Facial-Hair/Beard-Magestic" stroke="none" stroke-width="1" fill="none" fill-rule="evenodd">
        <mask id="beard_magestic_mask-2" fill="white">
            <use xlink:href="#beard_magestic_path-1" />
        </mask>
        <use id="beard_magestic_Glorious-Beard" fill="#5E7AA9" xlink:href="#beard_magestic_path-1" />
        <g id="beard_magestic_Facial-Hair-Color" mask="url(#beard_magestic_mask-2)" fill="#D6B370">
            <rect id="beard_magestic_Color" x="0" y="0" width="168" height="152" />
        </g>
    </g>
</g>
        <g id="caesar_side_part_Hair" transform="translate(75.000000, 34.000000)">
            <mask id="caesar_side_part_mask-2" fill="white">
                <use xlink:href="#caesar_side_part_path-1" />
            </mask>
            <use id="caesar_side_part_Caesar" fill="#28354B" xlink:href="#caesar_side_part_path-1" />
            <g id="caesar_side_part_Hair-Color" mask="url(#caesar_side_part_mask-2)" fill="#ECDCBF">
                <g transform="translate(-74.000000, -34.000000)" id="caesar_side_part_Color">
                    <rect x="0" y="0" width="264" height="280" />
                </g>
            </g>
        </g>
        <g id="caesar_side_part_Accessory" transform="translate(62.000000, 85.000000)" />
    </g>
</g>
    </g>
</svg>