<svg xmlns="http://www.w3.org/2000/svg" xmlns:xlink="http://www.w3.org/1999/xlink" width="264px" height="280px" viewBox="0 0 264 280" version="1.1">
    <title id="transparent_Title">Avataaar/Default</title>
    <desc>Created with python_avatars</desc>
    <defs>
        <path d="M100,0 C130.927946,-5.68137151e-15 156,25.072054 156,56 L156.000809,62.1660527 C161.675838,63.1185422 166,68.05429 166,74 L166,88 C166,94.0524166 161.519235,99.0582945 155.693975,99.8813638 C153.627928,119.686472 141.237929,136.421678 124.001014,144.610469 L124,163 L128,163 C167.764502,163 200,195.235498 200,235 L200,244 L0,244 L0,235 C-4.86974701e-15,195.235498 32.235498,163 72,163 L76,163 L75.9999836,144.610943 C58.7625487,136.422324 46.3721119,119.686854 44.3051107,99.8809698 C38.480765,99.0582945 34,94.0524166 34,88 L34,74 C34,68.053942 38.3246685,63.1179645 44.0001873,62.1658855 L44,56 C44,25.072054 69.072054,5.68137151e-15 100,0 Z" id="transparent_path-1" />
        <path d="M83,36.3476251 C83,52.6289957 105.161905,65.8276544 132.5,65.8276544 C159.838095,65.8276544 182,52.6289957 182,36.3476251 C182,34.9853134 181.844841,33.6445843 181.544472,32.3313638 C210.784239,41.4879251 232,68.792221 232,101.051724 L232,110 L32,110 L32,101.051724 C32,68.3970853 53.7386736,40.8197864 83.5337207,32.0021267 C83.1821692,33.4207025 83,34.871494 83,36.3476251 Z" id="transparent_path-3" />
        <rect id="transparent_path-5" x="0" y="0" width="264" height="280" />
        <path d="M74,0 C114.869071,0 148,33.1309285 148,74 L148,84.1482318 L148,197.608051 C135.525121,187.236892 119.490913,181 102,181 L102,181 L98,181 L98,162.610951 C115.530782,154.282984 128.048193,137.114792 129.791419,116.867187 C135.569129,116.002364 140,111.018625 140,105 L140,105 L140,92 C140,87.3536213 137.359271,83.3240177 133.496777,81.3301515 C132.723933,81.0500337 131.951808,80.748163 131.180891,80.4262497 C130.794819,80.3202581 130.400778,80.2331546 130,80.1659169 L130,80.1659169 L130.000458,79.9172528 C117.224481,74.2339715 104.877985,63.0706967 96.1104311,47.8848473 C93.1752556,42.8009742 90.8310687,37.5951441 89.0661426,32.3970356 C80.4313947,42.9409152 67.7445474,53.6023901 52.3415164,62.4953343 C42.777598,68.0170651 33.1467898,72.2910056 24,75.2659587 L24.0003852,137.246608 C29.6019576,148.318362 38.7728825,157.277529 50,162.610951 L50,162.610951 L50,181 L46,181 C38.3273639,181 30.9350359,182.200142 24.0004995,184.422941 L24,230 C24,244.105888 13.5691766,255.775526 0,257.716445 L0,74 C0,33.1309285 33.1309285,0 74,0 Z" id="transparent_path-7" />
    </defs>
    <g id="transparent_Avataaar/Default" stroke="none" stroke-width="1" fill="none" fill-rule="evenodd">
        <g id="transparent_Body" transform="translate(32.000000, 36.000000)">
            <mask id="transparent_mask-2" fill="white">
                <use xlink:href="#transparent_path-1" />
            </mask>
            <use fill="#D0C6AC" xlink:href="#transparent_path-1" />
            <g id="transparent_Skin-Color" mask="url(#transparent_mask-2)" fill="#F8D25C">
                <g transform="translate(-32.000000, 0.000000)" id="transparent_Color">
                    <rect x="0" y="0" width="264" height="244" />
                </g>
            </g>
            <path d="M44,94 C44,124.927946 69.072054,150 100,150 C130.927946,150 156,124.927946 156,94 L156,94 L156,102 C156,132.927946 130.927946,158 100,158 C69.072054,158 44,132.927946 44,102 Z" id="transparent_Neck-Shadow" fill-opacity="0.100000001" fill="#000000" mask="url(#transparent_mask-2)" />
        </g>
        <g id="transparent_Clothing" transform="translate(0.000000, 170.000000)">
            
        <defs>
        <path d="M99,32.5 C99,44.3741221 113.998461,54 132.5,54 C151.001539,54 166,44.3741221 166,32.5 C166,31.4019929 165.871751,30.3232102 165.624342,29.2694852 C202.75978,32.1370674 232,63.1796858 232,101.051724 L232,110 L32,110 L32,101.051724 C32,62.8342194 61.7761079,31.571298 99.3946469,29.196636 C99.1341902,30.2738104 99,31.3768477 99,32.5 Z" id="graphic_shirt_path-1" />
    </defs>
    <g id="graphic_shirt_Clothing/Graphic-Shirt" stroke="none" stroke-width="1" fill="none" fill-rule="evenodd">
        <mask id="graphic_shirt_mask-2" fill="white">
            <use xlink:href="#graphic_shirt_path-1" />
        </mask>
        <use id="graphic_shirt_Clothes" fill="#E6E6E6" xlink:href="#graphic_shirt_path-1" />
        <g id="graphic_shirt_Fabric-Color" mask="url(#graphic_shirt_mask-2)" fill="#FFFFB1">
            <rect id="graphic_shirt_ðŸ–Color" x="0" y="0" width="264" height="110" />
        </g>
        <g id="graphic_shirt_Graphic" fill="#FFFFFF" transform="translate(77.000000, 58.000000)">
        <g id="selena_Clothing/Graphic/Selena" stroke="none" stroke-width="1" fill="none" fill-rule="evenodd">
        <g id="selena_Selena" transform="translate(17.000000, 0.000000)" fill="#FFFFFF">
            <path d="M65.3033729,7.56759412 C65.1470447,8.49857487 63.3805357,12.656817 62.0741755,10.5184706 C61.5650892,9.68550605 62.4755312,7.05707864 62.7589611,6.30931546 C63.3169849,4.836648 63.7329539,4.67144048 65.0219821,3.97805378 C65.1307322,5.16706304 65.4331933,6.37685313 65.3033729,7.56759412 M62.3188632,10.8866375 C62.3487694,10.8987596 62.4772304,11.018942 62.3188632,10.8866375 M62.3110467,10.8804032 C62.3052694,10.8755544 62.3107069,10.8800569 62.3110467,10.8804032 M55.0298897,6.20471867 C55.040085,6.21337734 55.0829054,6.246973 55.0298897,6.20471867 M42.5545574,11.1605979 C42.3475925,12.3804321 42.0797954,13.5995735 41.6509123,14.760875 C41.48167,13.0294864 41.7542249,11.3046783 42.651413,9.81019097 C42.6412176,10.2618275 42.6089325,10.7120786 42.5545574,11.1605979 M42.544702,8.65858718 C42.5406238,8.64334792 42.3859948,8.41891506 42.544702,8.65858718 M25.9083201,18.8030909 C26.0609101,17.2701591 26.6763675,15.7860622 27.8141651,14.7591433 C27.5371923,16.3838571 26.7416175,17.4294787 25.9083201,18.8030909 M75.8371766,5.29694317 C75.8371766,5.93422166 73.7787416,7.63166832 73.2635382,8.10027581 C72.3850415,8.898952 71.4487714,9.53969396 70.1865909,9.35370562 C66.7252801,8.84422918 68.0968903,5.14766761 67.5456634,2.87251415 C67.1120225,1.08501726 66.6671667,1.75900853 65.4641191,1.64644576 C64.3456926,1.54219531 63.9460361,0.990464532 62.7824103,1.83312679 C60.685573,3.35151205 59.0159196,5.32915344 58.1231495,7.8135005 C57.7992782,6.11813191 56.8776214,3.30960407 54.6706746,3.71967892 C53.0387439,4.02273255 51.6868446,6.64596475 51.0078363,7.96277605 C50.95618,6.76545446 50.3403828,4.88721467 48.8328349,5.74476985 C47.7973303,6.3339061 47.8418499,9.12615564 47.615174,10.1548062 C47.1499276,12.2664839 46.236427,17.7723622 42.9708663,17.056463 C43.999574,15.1377006 46.2510403,9.08632573 44.3207265,7.1194211 C41.6091115,4.35730375 39.5459188,11.2748924 39.4354695,12.9584852 C39.355946,14.1644655 40.2405598,16.9030312 39.7637588,17.6511408 C39.1788873,18.568614 37.3362533,18.9641423 36.4608152,18.2922291 C35.0562401,17.2143972 35.6101858,15.4622277 35.9313383,14.093118 C36.3527448,12.2990405 36.5512137,10.495958 36.6650614,8.65616275 C36.7503623,7.27631629 37.951031,1.10787617 35.6370334,1.02406019 C33.5415555,0.948902892 33.3281335,6.16211798 33.1786022,7.58664321 C32.9944067,9.33812 32.8825981,11.1121094 32.94377,12.8746693 C33.0056216,14.6573173 33.3376491,15.8449412 32.6467463,17.5181435 C31.9065662,19.3108356 28.3834038,24.6889119 26.2743321,21.1180743 C28.5142437,20.1354878 31.1850774,15.5997275 29.9833892,13.0506135 C28.317474,9.51683506 24.5679755,14.9018383 24.024565,16.7073452 C23.1474277,19.6222016 23.5328108,23.4292478 26.8877504,24.3782386 C30.3810066,25.366713 33.0780083,22.0916557 34.309263,19.1975801 C35.3107832,20.7859275 37.1544368,21.1842266 38.8580746,20.7031506 C39.5350438,20.5116207 40.1861848,20.1822447 40.7496461,19.7555452 C41.8198148,18.9457859 41.1934823,19.2471078 42.3292409,19.2142048 C45.6264071,19.1196521 47.4252012,18.0612156 48.660534,14.6690931 C48.6459207,15.6031909 49.0041163,17.0287552 50.2588202,16.5178934 C51.2334927,16.1209797 51.2266958,14.5083881 51.4074928,13.6480621 C51.9774112,10.935126 52.8729,8.10651006 55.0057608,6.22584583 C56.8466956,8.22807786 55.4856205,11.6534497 56.6968244,13.7862546 C58.5635873,17.0737803 59.5035957,11.2537653 59.7962014,10.1319473 C59.8526155,15.0140547 65.6574903,13.2158211 66.9135536,9.97505214 C70.2130987,13.4901279 77.1479547,10.3238236 75.8371766,5.29694317" id="selena_Bom-Bom" />
            <path d="M69.433817,15.3488372 C65.8038135,15.3488372 61.8287631,16.3747039 58.3068219,17.1662556 C54.7602589,17.9637144 51.2314783,18.9518414 47.8046046,20.1368717 C43.9335128,21.4748303 39.9926593,22.6897243 36.2145831,24.2580599 C32.9385178,25.6183343 28.7066484,26.6107275 26.7027027,29.6738881 C26.6986051,29.6824206 28.8051356,29.5856097 28.9754363,29.5573869 C30.0242559,29.3834556 30.9267127,29.0139335 31.8924339,28.6010927 C33.6392127,27.8548288 35.3740227,27.0823111 37.115672,26.3248894 C41.0202768,24.6265975 45.0951823,23.2295678 49.1044296,21.7708418 C53.1003402,20.3176946 57.1991835,19.0860638 61.3588973,18.1455219 C64.7498643,17.3792395 68.5409353,17.2322183 71.6624305,15.8729284 C71.5444511,15.9172317 71.6210523,15.887368 71.8918919,15.7816965 C71.813239,15.8197645 69.6708017,15.3488372 69.433817,15.3488372" id="selena_Bidi" />
            <path d="M22.1170349,20.8250383 C19.8478706,19.8267659 16.6395075,20.267131 14.2823358,20.5862701 C12.1385566,20.8762747 8.78577979,21.5209156 7.44867865,21.6937129 C6.34297926,21.8346967 3.04321074,22.7348497 2.4393915,21.4968044 C1.79003946,20.1656628 5.15878677,16.0935417 5.89512684,15.1341152 C9.20984643,10.8135143 13.1946457,6.01370248 17.9749097,3.21110531 C17.5345328,5.16177188 17.1498826,7.12884748 16.7479027,9.08721625 C16.5824216,9.89460802 15.79851,14.2513757 17.2338124,14.5946261 C17.8233602,14.735275 19.0058537,11.8121216 19.104055,11.5505816 C19.9270433,9.36181652 20.1163103,6.84118695 20.4951839,4.54927932 C20.7119744,3.23789558 21.6953468,0.499260193 19.8009787,0.0471743805 C18.1723317,-0.341619419 15.9646707,1.77447706 14.8776601,2.66558843 C11.5962407,5.35767573 8.75146029,8.61302846 6.0905101,11.8864646 C4.78025293,13.4985691 3.4761121,15.1200503 2.37686886,16.8831849 C1.47300888,18.3332083 -0.712565331,21.3735691 0.232070287,23.1651685 C1.92969602,26.3860287 10.0715716,23.5626691 12.663543,23.133355 C14.708781,22.7941232 16.8162019,22.4729748 18.8913421,22.7566168 C21.0534703,23.0519796 20.9484731,24.0274803 20.2298024,25.953031 C18.7520254,29.9126329 15.4539558,33.3136578 12.5058772,36.2726431 C11.2071731,37.5759898 6.1251694,43.6918736 4.84549395,40.3641872 C3.97595347,38.1030884 4.74525384,35.3289559 5.74561617,33.2503658 C6.21419621,32.2765394 6.8346655,31.3887768 7.32329357,30.4256666 C7.45649398,30.163122 8.12453486,28.0011471 8.27030776,27.9529247 C4.4003599,29.303824 2.15328244,34.538308 1.93751135,38.2397187 C1.83591206,39.9810863 2.07376995,42.5640033 3.73741598,43.6084889 C5.40174162,44.6533095 6.96378836,43.3814414 8.28661802,42.4230195 C11.9289019,39.7838429 15.1780407,36.4246779 18.1519439,33.0879497 C19.7778725,31.2635323 26.6054133,22.8014905 22.1170349,20.8250383" id="selena_Bidi" />
        </g>
    </g>
</g>
    </g>
</g>
        <g id="transparent_Face" transform="translate(76.000000, 82.000000)" fill="#000000">
            <g id="transparent_Mouth" transform="translate(2.000000, 52.000000)">    
                
            <defs>
        <path d="M34.0082051,15.1361102 C35.1280248,29.123916 38.2345159,40.9925405 53.9961505,40.9999965 C69.757785,41.0074525 72.9169073,29.0566179 73.9942614,15.0063928 C74.0809675,13.8756222 73.1738581,12.9999965 72.0369872,12.9999965 C65.3505138,12.9999965 62.6703194,14.9936002 53.9894323,14.9999965 C45.3085452,15.0063928 40.7567994,12.9999965 36.0924943,12.9999965 C34.9490269,12.9999965 33.8961688,13.7366502 34.0082051,15.1361102 Z" id="scream_open_path-1" />
    </defs>
    <g id="scream_open_Mouth/Scream-Open" stroke="none" stroke-width="1" fill="none" fill-rule="evenodd">
        <mask id="scream_open_mask-2" fill="white">
            <use xlink:href="#scream_open_path-1" transform="translate(54.000000, 26.999998) scale(1, -1) translate(-54.000000, -26.999998)" />
        </mask>
        <use id="scream_open_Mouth" fill-opacity="0.699999988" fill="#000000" transform="translate(54.000000, 26.999998) scale(1, -1) translate(-54.000000, -26.999998)" xlink:href="#scream_open_path-1" />
        <path d="M44,2 L65,2 C67.7614237,2 70,4.23857625 70,7 L70,13 C70,15.7614237 67.7614237,18 65,18 L44,18 C41.2385763,18 39,15.7614237 39,13 L39,7 C39,4.23857625 41.2385763,2 44,2 Z" id="scream_open_Teeth" fill="#FFFFFF" mask="url(#scream_open_mask-2)" />
        <g id="scream_open_Tongue" mask="url(#scream_open_mask-2)" fill="#FF4F6D">
            <g transform="translate(38.000000, 32.000000)" id="scream_open_Say-ahhhh">
                <circle cx="11" cy="11" r="11" />
                <circle cx="21" cy="11" r="11" />
            </g>
        </g>
    </g>
</g>
            <g id="transparent_Nose" transform="translate(28.000000, 40.000000)" fill-opacity="0.16">
                
            <g id="default_Nose/Default" stroke="none" stroke-width="1" fill="none" fill-rule="evenodd" fill-opacity="0.16">
        <path d="M16,8 C16,12.418278 21.372583,16 28,16 L28,16 C34.627417,16 40,12.418278 40,8" id="default_Nose" fill="#000000" />
    </g>
</g>
            <g id="transparent_Eyes" transform="translate(0.000000, 8.000000)">
                
            <defs>
        <path d="M14,14.0481187 C23.6099827,14.0481187 28,18.4994466 28,11.5617716 C28,4.62409673 21.7319865,0 14,0 C6.2680135,0 0,4.62409673 0,11.5617716 C0,18.4994466 4.39001726,14.0481187 14,14.0481187 Z" id="squint_path-1" />
        <path d="M14,14.0481187 C23.6099827,14.0481187 28,18.4994466 28,11.5617716 C28,4.62409673 21.7319865,0 14,0 C6.2680135,0 0,4.62409673 0,11.5617716 C0,18.4994466 4.39001726,14.0481187 14,14.0481187 Z" id="squint_path-3" />
    </defs>
    <g id="squint_Eyes/Squint-ðŸ˜Š" stroke="none" stroke-width="1" fill="none" fill-rule="evenodd">
        <g id="squint_Eye" transform="translate(16.000000, 13.000000)">
            <mask id="squint_mask-2" fill="white">
                <use xlink:href="#squint_path-1" />
            </mask>
            <use id="squint_The-white-stuff" fill="#FFFFFF" xlink:href="#squint_path-1" />
            <circle fill-opacity="0.699999988" fill="#000000" mask="url(#squint_mask-2)" cx="14" cy="10" r="6" />
        </g>
        <g id="squint_Eye" transform="translate(68.000000, 13.000000)">
            <mask id="squint_mask-4" fill="white">
                <use xlink:href="#squint_path-3" />
            </mask>
            <use id="squint_Eyeball-Mask" fill="#FFFFFF" xlink:href="#squint_path-3" />
            <circle fill-opacity="0.699999988" fill="#000000" mask="url(#squint_mask-4)" cx="14" cy="10" r="6" />
        </g>
    </g>
</g>
            <g id="transparent_Eyebrow" fill-opacity="0.599999964">
                
            <g id="angry_Eyebrow/Outline/Angry" stroke="none" stroke-width="1" fill="none" fill-rule="evenodd" fill-opacity="0.599999964">
        <path d="M15.6114904,15.1845247 C19.8515017,9.41618792 22.4892046,9.70087612 28.9238518,14.5564693 C29.1057771,14.6937504 29.2212592,14.7812575 29.5936891,15.063789 C34.4216439,18.7263562 36.7081807,20 40,20 C41.1045695,20 42,19.1045695 42,18 C42,16.8954305 41.1045695,16 40,16 C37.9337712,16 36.0986396,14.9777974 32.011227,11.8770179 C31.6358269,11.5922331 31.5189458,11.5036659 31.3332441,11.3635351 C27.5737397,8.52660822 25.3739873,7.28738405 22.6379899,6.99208688 C18.9538127,6.59445233 15.5799484,8.47367246 12.3885096,12.8154753 C11.7343147,13.7054768 11.9254737,14.9572954 12.8154753,15.6114904 C13.7054768,16.2656853 14.9572954,16.0745263 15.6114904,15.1845247 Z" id="angry_Eyebrow" fill="#000000" fill-rule="nonzero" />
        <path d="M73.6114904,15.1845247 C77.8515017,9.41618792 80.4892046,9.70087612 86.9238518,14.5564693 C87.1057771,14.6937504 87.2212592,14.7812575 87.5936891,15.063789 C92.4216439,18.7263562 94.7081807,20 98,20 C99.1045695,20 100,19.1045695 100,18 C100,16.8954305 99.1045695,16 98,16 C95.9337712,16 94.0986396,14.9777974 90.011227,11.8770179 C89.6358269,11.5922331 89.5189458,11.5036659 89.3332441,11.3635351 C85.5737397,8.52660822 83.3739873,7.28738405 80.6379899,6.99208688 C76.9538127,6.59445233 73.5799484,8.47367246 70.3885096,12.8154753 C69.7343147,13.7054768 69.9254737,14.9572954 70.8154753,15.6114904 C71.7054768,16.2656853 72.9572954,16.0745263 73.6114904,15.1845247 Z" id="angry_Eyebrow" fill="#000000" fill-rule="nonzero" transform="translate(84.999934, 13.470064) scale(-1, 1) translate(-84.999934, -13.470064) " />
    </g>
</g>
        </g>
        <g id="transparent_Top">
            
        <defs>
        <path d="M94.0001685,1 C118.30504,1.44935656 140.861928,6.81215989 149.000169,17 C161.324059,32.4276364 186.868727,91.0786423 187.000841,126 C187.093514,150.800049 177.46255,175.65995 164.000169,177 C152.920557,178.102868 137.475641,175.511355 118.000132,173.997352 L118.000016,161.610943 C136.730391,152.713105 149.737808,133.723813 149.996083,111.669251 L150,111 L149.999122,82.98779 C140.477154,78.12967 131.861155,72.2466611 124.151126,65.3387631 C127.360925,70.6350671 130.848039,75.146796 134.61311,78.8730846 C107.596133,71.2927661 86.1052394,58.4499395 70.1404292,40.3446049 C62.1596386,56.809628 51.4461296,69.8143795 38.0000981,79.3594824 L38,111 C38,133.338465 51.0795991,152.622027 69.998216,161.610103 L69.9991535,174.745766 C50.3621295,177.434364 34.6408296,182.16349 23.3845374,181.000327 C9.16164761,179.530612 1.49623627,150.795665 1,126 C0.382878875,95.1640258 29.3189583,30.7950013 40,18 C47.9231015,8.50878211 69.6952966,0.550643437 94.0001685,1 Z" id="bob_path-1" />
    </defs>
    <g id="bob_Top/Long-Hair/Bob" stroke="none" stroke-width="1" fill="none" fill-rule="evenodd">
        <g id="bob_Hair" transform="translate(38.000000, 19.000000)">
            <mask id="bob_mask-2" fill="white">
                <use xlink:href="#bob_path-1" />
            </mask>
            <use id="bob_Combined-Shape" fill="#E6E6E6" xlink:href="#bob_path-1" />
            <g id="bob_Hair-Color" mask="url(#bob_mask-2)" fill="#724133">
                <g transform="translate(-38.000000, -19.000000)" id="bob_Color">
                    <rect x="0" y="0" width="266" height="280" />
                </g>
            </g>
        </g>
        <g id="bob_Facial-Hair" transform="translate(49.000000, 72.000000)"><defs>
        <path d="M64.7214121,63.4643353 C71.8381194,62.1698595 81.796173,63.6461901 84.1074639,67.092174 L83.998,66.939 L84.010445,66.9215199 C86.5309935,63.5977488 96.2765075,62.1914341 103.274279,63.4643353 C112.927938,65.2207224 117.019147,75.7669804 115.780485,77.6791014 C114.655476,79.4153191 111.53642,77.7739966 109.119711,77.6298353 C104.118941,77.3322546 94.948229,81.5102869 86.0463327,76.6891498 C85.2347477,76.2495714 84.5386341,75.6083797 83.9975585,74.8390687 C83.4573866,75.6083797 82.7612729,76.2495714 81.949688,76.6891498 C73.0477917,81.5102869 63.8767499,77.3322546 58.8763101,77.6298353 C56.459601,77.7739966 53.3405442,79.4153191 52.2155358,77.6791014 C50.9768736,75.7669804 55.0680827,65.2207224 64.7214121,63.4643353 Z" id="moustache_magnum_path-1" />
    </defs>
    <g id="moustache_magnum_Facial-Hair/Moustache-Magnum" stroke="none" stroke-width="1" fill="none" fill-rule="evenodd">
        <mask id="moustache_magnum_mask-2" fill="white">
            <use xlink:href="#moustache_magnum_path-1" />
        </mask>
        <use id="moustache_magnum_Hey..." fill="#28354B" xlink:href="#moustache_magnum_path-1" />
        <g id="moustache_magnum_Facial-Hair-Color" mask="url(#moustache_magnum_mask-2)" fill="#F59797">
            <rect id="moustache_magnum_Color" x="0" y="0" width="168" height="152" />
        </g>
    </g>
</g>
        <g id="bob_Accessory" transform="translate(62.000000, 85.000000)" />
    </g>
</g>
    </g>
</svg>