<svg xmlns="http://www.w3.org/2000/svg" xmlns:xlink="http://www.w3.org/1999/xlink" width="264px" height="280px" viewBox="0 0 264 280" version="1.1">
    <title id="transparent_Title">Avataaar/Default</title>
    <desc>Created with python_avatars</desc>
    <defs>
        <path d="M100,0 C130.927946,-5.68137151e-15 156,25.072054 156,56 L156.000809,62.1660527 C161.675838,63.1185422 166,68.05429 166,74 L166,88 C166,94.0524166 161.519235,99.0582945 155.693975,99.8813638 C153.627928,119.686472 141.237929,136.421678 124.001014,144.610469 L124,163 L128,163 C167.764502,163 200,195.235498 200,235 L200,244 L0,244 L0,235 C-4.86974701e-15,195.235498 32.235498,163 72,163 L76,163 L75.9999836,144.610943 C58.7625487,136.422324 46.3721119,119.686854 44.3051107,99.8809698 C38.480765,99.0582945 34,94.0524166 34,88 L34,74 C34,68.053942 38.3246685,63.1179645 44.0001873,62.1658855 L44,56 C44,25.072054 69.072054,5.68137151e-15 100,0 Z" id="transparent_path-1" />
        <path d="M83,36.3476251 C83,52.6289957 105.161905,65.8276544 132.5,65.8276544 C159.838095,65.8276544 182,52.6289957 182,36.3476251 C182,34.9853134 181.844841,33.6445843 181.544472,32.3313638 C210.784239,41.4879251 232,68.792221 232,101.051724 L232,110 L32,110 L32,101.051724 C32,68.3970853 53.7386736,40.8197864 83.5337207,32.0021267 C83.1821692,33.4207025 83,34.871494 83,36.3476251 Z" id="transparent_path-3" />
        <rect id="transparent_path-5" x="0" y="0" width="264" height="280" />
        <path d="M74,0 C114.869071,0 148,33.1309285 148,74 L148,84.1482318 L148,197.608051 C135.525121,187.236892 119.490913,181 102,181 L102,181 L98,181 L98,162.610951 C115.530782,154.282984 128.048193,137.114792 129.791419,116.867187 C135.569129,116.002364 140,111.018625 140,105 L140,105 L140,92 C140,87.3536213 137.359271,83.3240177 133.496777,81.3301515 C132.723933,81.0500337 131.951808,80.748163 131.180891,80.4262497 C130.794819,80.3202581 130.400778,80.2331546 130,80.1659169 L130,80.1659169 L130.000458,79.9172528 C117.224481,74.2339715 104.877985,63.0706967 96.1104311,47.8848473 C93.1752556,42.8009742 90.8310687,37.5951441 89.0661426,32.3970356 C80.4313947,42.9409152 67.7445474,53.6023901 52.3415164,62.4953343 C42.777598,68.0170651 33.1467898,72.2910056 24,75.2659587 L24.0003852,137.246608 C29.6019576,148.318362 38.7728825,157.277529 50,162.610951 L50,162.610951 L50,181 L46,181 C38.3273639,181 30.9350359,182.200142 24.0004995,184.422941 L24,230 C24,244.105888 13.5691766,255.775526 0,257.716445 L0,74 C0,33.1309285 33.1309285,0 74,0 Z" id="transparent_path-7" />
    </defs>
    <g id="transparent_Avataaar/Default" stroke="none" stroke-width="1" fill="none" fill-rule="evenodd">
        <g id="transparent_Body" transform="translate(32.000000, 36.000000)">
            <mask id="transparent_mask-2" fill="white">
                <use xlink:href="#transparent_path-1" />
            </mask>
            <use fill="#D0C6AC" xlink:href="#transparent_path-1" />
            <g id="transparent_Skin-Color" mask="url(#transparent_mask-2)" fill="#FD9841">
                <g transform="translate(-32.000000, 0.000000)" id="transparent_Color">
                    <rect x="0" y="0" width="264" height="244" />
                </g>
            </g>
            <path d="M44,94 C44,124.927946 69.072054,150 100,150 C130.927946,150 156,124.927946 156,94 L156,94 L156,102 C156,132.927946 130.927946,158 100,158 C69.072054,158 44,132.927946 44,102 Z" id="transparent_Neck-Shadow" fill-opacity="0.100000001" fill="#000000" mask="url(#transparent_mask-2)" />
        </g>
        <g id="transparent_Clothing" transform="translate(0.000000, 170.000000)">
            
        <defs>
        <path d="M99,30.3476251 C99,42.2107177 113.998461,51.8276544 132.5,51.8276544 C151.001539,51.8276544 166,42.2107177 166,30.3476251 C166,29.9947569 165.98673,29.643876 165.960492,29.2951765 C202.936371,32.3248899 232,63.2942196 232,101.051724 L232,110 L32,110 L32,101.051724 C32,62.952169 61.5925972,31.764336 99.0465686,29.2194474 C99.0151943,29.59473 99,29.9700398 99,30.3476251 Z" id="shirt_crew_neck_path-1" />
    </defs>
    <g id="shirt_crew_neck_Clothing/Shirt-Crew-Neck" stroke="none" stroke-width="1" fill="none" fill-rule="evenodd">
        <mask id="shirt_crew_neck_mask-2" fill="white">
            <use xlink:href="#shirt_crew_neck_path-1" />
        </mask>
        <use id="shirt_crew_neck_Clothes" fill="#E6E6E6" xlink:href="#shirt_crew_neck_path-1" />
        <g id="shirt_crew_neck_Fabric-Color" mask="url(#shirt_crew_neck_mask-2)" fill="#FFDEB5">
            <rect id="shirt_crew_neck_ðŸ–Color" x="0" y="0" width="264" height="110" />
        </g>
        <g id="shirt_crew_neck_Shadowy" opacity="0.599999964" mask="url(#shirt_crew_neck_mask-2)" fill="#000000" fill-opacity="0.16">
            <g transform="translate(92.000000, 4.000000)" id="shirt_crew_neck_Hola-ðŸ‘‹ðŸ¼">
                <ellipse cx="40.5" cy="27.8476251" rx="39.6351047" ry="26.9138272" />
            </g>
        </g>
    </g>
</g>
        <g id="transparent_Face" transform="translate(76.000000, 82.000000)" fill="#000000">
            <g id="transparent_Mouth" transform="translate(2.000000, 52.000000)">    
                
            <g id="eating_Mouth/Eating" stroke="none" stroke-width="1" fill="none" fill-rule="evenodd">
        <g id="eating_Om-Nom-Nom" opacity="0.599999964" transform="translate(28.000000, 6.000000)" fill="#000000" fill-opacity="0.599999964">
            <path d="M45.7064761,0 C42.3399588,1.95870633 40.0195381,5.49520667 40.0195381,9.67694348 C40.0195381,15.344608 45.4930527,20.2451296 51.8234083,20.2451296 C51.8823878,20.2451296 51.9412524,20.2447983 52,20.244138 C50.6423552,20.7317259 49.1600404,21 47.6077404,21 C42.2861196,21 37.787011,17.8470634 36.3137083,13.513833 C33.8402487,15.6694366 30.1376666,17.0394229 26,17.0394229 C21.8623334,17.0394229 18.1597513,15.6694366 15.6851623,13.5125989 C14.212989,17.8470634 9.71388039,21 4.39225962,21 C2.83995964,21 1.35764479,20.7317259 0,20.244138 C0.0587475828,20.2447983 0.11761218,20.2451296 0.176591694,20.2451296 C6.50694731,20.2451296 11.9804619,15.344608 11.9804619,9.67694348 C11.9804619,5.49520667 9.66004124,1.95870633 6.29352385,0 C11.7918498,0.797121661 16.0171848,4.99477485 16.1905909,10.1049337 C18.754121,11.8420922 22.2048056,12.9056086 26,12.9056086 C29.7951944,12.9056086 33.245879,11.8420922 35.8100516,10.1058522 C35.9828152,4.99477485 40.2081502,0.797121661 45.7064761,0 Z" id="eating_Delicious" />
        </g>
        <circle id="eating_Redish" fill-opacity="0.2" fill="#FF4646" cx="17" cy="15" r="9" />
        <circle id="eating_Redish" fill-opacity="0.2" fill="#FF4646" cx="91" cy="15" r="9" />
    </g>
</g>
            <g id="transparent_Nose" transform="translate(28.000000, 40.000000)" fill-opacity="0.16">
                
            <g id="default_Nose/Default" stroke="none" stroke-width="1" fill="none" fill-rule="evenodd" fill-opacity="0.16">
        <path d="M16,8 C16,12.418278 21.372583,16 28,16 L28,16 C34.627417,16 40,12.418278 40,8" id="default_Nose" fill="#000000" />
    </g>
</g>
            <g id="transparent_Eyes" transform="translate(0.000000, 8.000000)">
                
            <g id="happy_Eyes/Happy-ðŸ˜" stroke="none" stroke-width="1" fill="none" fill-rule="evenodd" fill-opacity="0.599999964">
        <path d="M16.1601674,22.4473116 C18.006676,18.648508 22.1644225,16 26.9975803,16 C31.8136766,16 35.9591217,18.629842 37.8153518,22.4071242 C38.3667605,23.5291977 37.5821037,24.4474817 36.790607,23.7670228 C34.3395063,21.6597833 30.8587163,20.3437884 26.9975803,20.3437884 C23.2572061,20.3437884 19.8737584,21.5787519 17.4375392,23.5716412 C16.5467928,24.3002944 15.6201012,23.5583844 16.1601674,22.4473116 Z" id="happy_Squint" fill="#000000" />
        <path d="M74.1601674,22.4473116 C76.006676,18.648508 80.1644225,16 84.9975803,16 C89.8136766,16 93.9591217,18.629842 95.8153518,22.4071242 C96.3667605,23.5291977 95.5821037,24.4474817 94.790607,23.7670228 C92.3395063,21.6597833 88.8587163,20.3437884 84.9975803,20.3437884 C81.2572061,20.3437884 77.8737584,21.5787519 75.4375392,23.5716412 C74.5467928,24.3002944 73.6201012,23.5583844 74.1601674,22.4473116 Z" id="happy_Squint" fill="#000000" />
    </g>
</g>
            <g id="transparent_Eyebrow" fill-opacity="0.599999964">
                
            <g id="angry_natural_Eyebrow/Natural/Angry-Natural" stroke="none" stroke-width="1" fill="none" fill-rule="evenodd" fill-opacity="0.599999964">
        <path d="M44.8565785,12.2282877 C44.8578785,12.2192877 44.8578785,12.2192877 44.8565785,12.2282877 M17.5862288,7.89238094 C15.2441598,8.3302947 13.0866155,9.78806858 12.1523766,12.0987479 C11.8009169,12.967391 11.3917103,14.9243181 11.7083227,15.8073302 C11.8284629,16.14295 12.0332321,16.1008692 12.9555234,16.0430509 C14.643791,15.9369937 16.9330912,13.6622369 18.7484684,13.2557982 C21.2753939,12.6899315 23.9825295,13.1148447 26.4961798,13.6882381 C30.8109365,14.6725177 36.4854008,17.7875215 40.9461842,16.1699775 C41.2783949,16.0495512 45.6210294,12.9225732 44.3685187,12.2769925 C43.9238011,11.9068186 41.1370145,12.0854053 40.6216067,11.9988489 C38.2277647,11.5971998 35.7297127,10.9345131 33.373373,10.3265657 C28.2329017,9.00016592 22.9666484,6.88073171 17.5862288,7.89238094" id="angry_natural_Eyebrows-The-Web" fill="#000000" transform="translate(28.094701, 12.127505) rotate(17.000000) translate(-28.094701, -12.127505) " />
        <path d="M100.918293,12.2094196 C100.919593,12.2004196 100.919593,12.2004196 100.918293,12.2094196 M73.5862288,7.89238094 C71.2441598,8.3302947 69.0866155,9.78806858 68.1523766,12.0987479 C67.8009169,12.967391 67.3917103,14.9243181 67.7083227,15.8073302 C67.8284629,16.14295 68.0332321,16.1008692 68.9555234,16.0430509 C70.643791,15.9369937 72.9330912,13.6622369 74.7484684,13.2557982 C77.2753939,12.6899315 79.9825295,13.1148447 82.4961798,13.6882381 C86.8109365,14.6725177 92.4854008,17.7875215 96.9461842,16.1699775 C97.2783949,16.0495512 101.621029,12.9225732 100.368519,12.2769925 C99.9238011,11.9068186 97.1370145,12.0854053 96.6216067,11.9988489 C94.2277647,11.5971998 91.7297127,10.9345131 89.373373,10.3265657 C84.2329017,9.00016592 78.9666484,6.88073171 73.5862288,7.89238094" id="angry_natural_Eyebrows-The-Web" fill="#000000" transform="translate(84.094701, 12.127505) scale(-1, 1) rotate(17.000000) translate(-84.094701, -12.127505) " />
    </g>
</g>
        </g>
        <g id="transparent_Top">
            
        <g id="no_hair_Top/-No-Hair" stroke="none" stroke-width="1" fill="none" fill-rule="evenodd">
        <g id="no_hair_Facial-Hair" transform="translate(49.000000, 72.000000)" />
        <g id="no_hair_Accessory" transform="translate(62.000000, 85.000000)"><defs>
        <filter x="-3.1%" y="-9.8%" width="106.2%" height="119.5%" filterUnits="objectBoundingBox" id="wayfarers_filter-1">
            <feOffset dx="0" dy="2" in="SourceAlpha" result="shadowOffsetOuter1" />
            <feColorMatrix values="0 0 0 0 0   0 0 0 0 0   0 0 0 0 0  0 0 0 0.2 0" type="matrix" in="shadowOffsetOuter1" result="shadowMatrixOuter1" />
            <feMerge>
                <feMergeNode in="shadowMatrixOuter1" />
                <feMergeNode in="SourceGraphic" />
            </feMerge>
        </filter>
        <linearGradient x1="50%" y1="0%" x2="50%" y2="100%" id="wayfarers_linearGradient-2">
            <stop stop-color="#FFFFFF" stop-opacity="0.5" offset="0%" />
            <stop stop-color="#000000" stop-opacity="0.5" offset="70.5058195%" />
        </linearGradient>
        <path d="M44.9178864,17.5714286 C44.9178864,27.2737857 36.66775,35.1428571 22.9204545,35.1428571 L20.1704091,35.1428571 C6.42311364,35.1428571 0.923022727,27.2708571 0.923022727,17.5714286 L0.923022727,17.5714286 C0.923022727,7.86614286 2.20715909,0 21.4545455,0 L24.3863636,0 C43.63375,0 44.9178864,7.86614286 44.9178864,17.5714286 L44.9178864,17.5714286 Z" id="wayfarers_path-3" />
        <path d="M106.486068,17.5714286 C106.486068,27.2737857 98.2388636,35.1428571 84.4886364,35.1428571 L81.7385909,35.1428571 C67.9912955,35.1428571 62.4912045,27.2708571 62.4912045,17.5714286 L62.4912045,17.5714286 C62.4912045,7.86614286 63.7753409,0 83.0227273,0 L85.9545455,0 C105.199,0 106.486068,7.86614286 106.486068,17.5714286 L106.486068,17.5714286 Z" id="wayfarers_path-4" />
    </defs>
    <g id="wayfarers_Top/_Resources/Wayfarers" stroke="none" stroke-width="1" fill="none" fill-rule="evenodd">
        <g id="wayfarers_Wayfarers" filter="url(#wayfarers_filter-1)" transform="translate(7.000000, 7.000000)" fill-rule="nonzero">
            <g id="wayfarers_Shades" transform="translate(10.795455, 2.928571)">
                <g id="wayfarers_Shade">
                    <use fill-opacity="0.700000048" fill="#000000" xlink:href="#wayfarers_path-3" />
                    <use fill="url(#linearGradient-2)" style="mix-blend-mode: screen;" xlink:href="#wayfarers_path-3" />
                </g>
                <g id="wayfarers_Shade">
                    <use fill-opacity="0.700000048" fill="#000000" xlink:href="#wayfarers_path-4" />
                    <use fill="url(#linearGradient-2)" style="mix-blend-mode: screen;" xlink:href="#wayfarers_path-4" />
                </g>
            </g>
            <path d="M35.1818182,0 C56.8332955,0 58.6451591,10.127 58.6451591,20.5 C58.6451591,32.5686429 48.3955227,41 33.7159091,41 L30.9658636,41 C17.0778409,41 8.78665909,33.3359286 8.78665909,20.5 C8.78665909,10.127 10.5985227,0 32.25,0 L35.1818182,0 Z M35.1818182,5.85421429 L32.25,5.85421429 C14.6502955,5.85421429 14.6502955,12.3175714 14.6502955,20.5 C14.6502955,27.1800714 17.4795,35.1428571 30.9658636,35.1428571 L33.7159091,35.1428571 C44.9418409,35.1428571 52.7815227,29.1217143 52.7815227,20.5 L52.7810475,19.768351 C52.765683,11.935587 52.2535316,5.85421429 35.1818182,5.85421429 Z" id="wayfarers_Left" fill="#252C2F" />
            <path d="M96.75,0 C118.401477,0 120.213341,10.127 120.213341,20.5 C120.213341,32.5686429 109.963705,41 95.2840909,41 L92.5340455,41 C78.6460227,41 70.3548409,33.3359286 70.3548409,20.5 C70.3548409,10.127 72.1667045,0 93.8181818,0 L96.75,0 Z M96.75,5.85421429 L93.8181818,5.85421429 C76.2184773,5.85421429 76.2184773,12.3175714 76.2184773,20.5 C76.2184773,27.1800714 79.0506136,35.1428571 92.5340455,35.1428571 L95.2840909,35.1428571 C106.510023,35.1428571 114.349705,29.1217143 114.349705,20.5 L114.349229,19.768351 C114.333865,11.935587 113.821713,5.85421429 96.75,5.85421429 Z" id="wayfarers_Right" fill="#252C2F" />
            <path d="M2.93181818,5.85714286 C3.61786364,5.17185714 11.1233182,0 32.25,0 C49.9640455,0 53.7138409,1.88014286 59.3898409,4.72085714 L59.8053162,4.93054903 C60.1999353,5.07314243 62.2179351,5.77419634 64.5784525,5.85128811 C66.7290156,5.75689949 68.5684809,5.16080623 69.1059926,4.96981137 C75.5844654,1.74762081 81.9260118,0 96.75,0 C117.876682,0 125.382136,5.17185714 126.068182,5.85714286 C127.689477,5.85714286 129,7.16621429 129,8.78571429 L129,11.7142857 C129,13.3337857 127.689477,14.6428571 126.068182,14.6428571 C126.068182,14.6428571 120.204545,14.6428571 120.204545,17.5714286 C120.204545,20.5 117.272727,13.3337857 117.272727,11.7142857 L117.272727,8.8618831 C113.697201,7.46243482 107.296654,5.85714286 96.75,5.85714286 C84.9995538,5.85714286 79.1475515,6.98813142 74.1276604,9.10414393 L74.1837955,9.24257143 L71.6878772,10.2500422 L74.1813177,11.2582547 L71.981173,16.6874536 L69.263564,15.5885995 C69.0208516,15.4904597 68.4971539,15.3141463 67.770994,15.1309826 C65.7466083,14.6203594 63.6653786,14.4649153 61.8248214,14.8513001 C61.1495627,14.993056 60.5230576,15.2057795 59.9480988,15.4931011 L57.3260941,16.8033836 L54.7026238,11.5651815 L57.3246285,10.2548989 L57.3310023,10.251716 L54.8191364,9.23671429 L54.8992448,9.03890561 C50.5700368,6.97578666 46.5781927,5.85714286 32.25,5.85714286 C21.7038986,5.85714286 15.3034993,7.46145875 11.7272727,8.86093383 L11.7272727,11.7142857 C11.7272727,13.3337857 8.79545455,20.5 8.79545455,17.5714286 C8.79545455,14.6428571 2.93181818,14.6428571 2.93181818,14.6428571 C1.31345455,14.6428571 0,13.3337857 0,11.7142857 L0,8.78571429 C0,7.16621429 1.31345455,5.85714286 2.93181818,5.85714286 Z" id="wayfarers_Stuff" fill="#252C2F" />
        </g>
    </g>
</g>
        <g id="no_hair_Hair-Color" fill="#A55728" />
    </g>
</g>
    </g>
</svg>