<svg xmlns="http://www.w3.org/2000/svg" xmlns:xlink="http://www.w3.org/1999/xlink" width="264px" height="280px" viewBox="0 0 264 280" version="1.1">
    <title id="circle_Title">Avataaar/Circle</title>
    <desc>Created with python_avatars</desc>
    <defs>
        <circle id="circle_path-1" cx="120" cy="120" r="120" />
        <path d="M-3.19744231e-14,160 L-3.19744231e-14,-1.42108547e-14 L264,-1.42108547e-14 L264,160 L252,160 C252,226.27417 198.27417,280 132,280 C65.72583,280 12,226.27417 12,160 L12,160 L-3.19744231e-14,160 Z" id="circle_path-3" />
        <path d="M100,0 C130.927946,-5.68137151e-15 156,25.072054 156,56 L156.000809,62.1660527 C161.675838,63.1185422 166,68.05429 166,74 L166,88 C166,94.0524166 161.519235,99.0582945 155.693975,99.8813638 C153.627928,119.686472 141.237929,136.421678 124.001014,144.610469 L124,163 L128,163 C167.764502,163 200,195.235498 200,235 L200,244 L0,244 L0,235 C-4.86974701e-15,195.235498 32.235498,163 72,163 L76,163 L75.9999836,144.610943 C58.7625487,136.422324 46.3721119,119.686854 44.3051107,99.8809698 C38.480765,99.0582945 34,94.0524166 34,88 L34,74 C34,68.053942 38.3246685,63.1179645 44.0001873,62.1658855 L44,56 C44,25.072054 69.072054,5.68137151e-15 100,0 Z" id="circle_path-5" />
        <path d="M83,36.3476251 C83,52.6289957 105.161905,65.8276544 132.5,65.8276544 C159.838095,65.8276544 182,52.6289957 182,36.3476251 C182,34.9853134 181.844841,33.6445843 181.544472,32.3313638 C210.784239,41.4879251 232,68.792221 232,101.051724 L232,110 L32,110 L32,101.051724 C32,68.3970853 53.7386736,40.8197864 83.5337207,32.0021267 C83.1821692,33.4207025 83,34.871494 83,36.3476251 Z" id="circle_path-7" />
        <rect id="circle_path-9" x="0" y="0" width="264" height="280" />
        <path d="M74,0 C114.869071,0 148,33.1309285 148,74 L148,84.1482318 L148,197.608051 C135.525121,187.236892 119.490913,181 102,181 L102,181 L98,181 L98,162.610951 C115.530782,154.282984 128.048193,137.114792 129.791419,116.867187 C135.569129,116.002364 140,111.018625 140,105 L140,105 L140,92 C140,87.3536213 137.359271,83.3240177 133.496777,81.3301515 C132.723933,81.0500337 131.951808,80.748163 131.180891,80.4262497 C130.794819,80.3202581 130.400778,80.2331546 130,80.1659169 L130,80.1659169 L130.000458,79.9172528 C117.224481,74.2339715 104.877985,63.0706967 96.1104311,47.8848473 C93.1752556,42.8009742 90.8310687,37.5951441 89.0661426,32.3970356 C80.4313947,42.9409152 67.7445474,53.6023901 52.3415164,62.4953343 C42.777598,68.0170651 33.1467898,72.2910056 24,75.2659587 L24.0003852,137.246608 C29.6019576,148.318362 38.7728825,157.277529 50,162.610951 L50,162.610951 L50,181 L46,181 C38.3273639,181 30.9350359,182.200142 24.0004995,184.422941 L24,230 C24,244.105888 13.5691766,255.775526 0,257.716445 L0,74 C0,33.1309285 33.1309285,0 74,0 Z" id="circle_path-11" />
    </defs>
    <g id="circle_Avataaar/Circle" stroke="none" stroke-width="1" fill="none" fill-rule="evenodd">
        <g id="circle_Circle" transform="translate(12.000000, 40.000000)">
            <mask id="circle_mask-2" fill="white">
                <use xlink:href="#circle_path-1" />
            </mask>
            <use id="circle_Background-Color" fill="rgba(0,0,0,0.0" xlink:href="#circle_path-1" />
            <g id="circle_Fabric-Color" mask="url(#circle_mask-2)" fill="">
                <rect id="circle_ðŸ–Color" x="0" y="0" width="240" height="240" />
            </g>
        </g>
        <mask id="circle_mask-4" fill="white">
            <use xlink:href="#circle_path-3" />
        </mask>
        <g id="circle_Mask" />
        <g id="circle_Avataaar" mask="url(#circle_mask-4)">
            <g id="circle_Body" transform="translate(32.000000, 36.000000)">
                <mask id="circle_mask-6" fill="white">
                    <use xlink:href="#circle_path-5" />
                </mask>
                <use fill="#D0C6AC" xlink:href="#circle_path-5" />
                <g id="circle_Skin-Color" mask="url(#circle_mask-6)" fill="#EDB98A">
                    <g transform="translate(-32.000000, 0.000000)" id="circle_Color">
                        <rect x="0" y="0" width="264" height="244" />
                    </g>
                </g>
                <path d="M44,94 C44,124.927946 69.072054,150 100,150 C130.927946,150 156,124.927946 156,94 L156,94 L156,102 C156,132.927946 130.927946,158 100,158 C69.072054,158 44,132.927946 44,102 Z" id="circle_Neck-Shadow" fill-opacity="0.100000001" fill="#000000" mask="url(#circle_mask-6)" />
            </g>
            <g id="circle_Clothing" transform="translate(0.000000, 170.000000)">
                
            <defs>
        <path d="M99,32.5 C99,44.3741221 113.998461,54 132.5,54 C151.001539,54 166,44.3741221 166,32.5 C166,31.4019929 165.871751,30.3232102 165.624342,29.2694852 C202.75978,32.1370674 232,63.1796858 232,101.051724 L232,110 L32,110 L32,101.051724 C32,62.8342194 61.7761079,31.571298 99.3946469,29.196636 C99.1341902,30.2738104 99,31.3768477 99,32.5 Z" id="graphic_shirt_path-1" />
    </defs>
    <g id="graphic_shirt_Clothing/Graphic-Shirt" stroke="none" stroke-width="1" fill="none" fill-rule="evenodd">
        <mask id="graphic_shirt_mask-2" fill="white">
            <use xlink:href="#graphic_shirt_path-1" />
        </mask>
        <use id="graphic_shirt_Clothes" fill="#E6E6E6" xlink:href="#graphic_shirt_path-1" />
        <g id="graphic_shirt_Fabric-Color" mask="url(#graphic_shirt_mask-2)" fill="#25557C">
            <rect id="graphic_shirt_ðŸ–Color" x="0" y="0" width="264" height="110" />
        </g>
        <g id="graphic_shirt_Graphic" fill="#FFFFFF" transform="translate(77.000000, 58.000000)">
        <g id="skull_outline_Clothing/Graphic/Skull-Outline" stroke="none" stroke-width="1" fill="none" fill-rule="evenodd">
        <g id="skull_outline_Skull" transform="translate(36.000000, 1.000000)" fill="#FFFFFF">
            <path d="M36.3353853,17.0393673 C36.1551375,18.0777567 35.8927571,19.1087846 35.3466862,20.0285256 C34.6274709,21.2401241 33.3213404,21.7355025 32.5643885,22.8466397 C31.3705799,24.5990841 32.9555173,27.1231756 31.7781352,28.6842237 C30.5119611,30.3630542 27.6359878,29.346749 26.5163205,31.5755188 C25.3358307,33.925968 27.0535122,37.0679834 25.5729054,39.4058749 C24.1038415,39.0369393 23.6514462,33.5197923 21.3841422,37.0389708 C19.9319488,39.2928559 20.9126566,40.513981 18.7354764,37.2741024 C17.9789685,36.1486754 17.1247893,35.1384326 15.6392989,35.8810671 C14.5955488,36.4024269 14.3806721,38.7178013 13.4297097,38.9672226 C11.0962556,39.5786511 11.0105713,33.3500473 10.2172146,32.1709255 C9.78124586,31.523123 9.3750224,31.1394645 8.59986813,30.8939404 C7.92815655,30.6808931 6.73124021,31.1087199 6.17495825,30.7934791 C5.13032022,30.2019696 4.98914092,28.23821 4.94962847,27.1963565 C4.8759311,25.2572791 5.52544468,23.2770647 4.98958488,21.3579064 C4.53896541,19.7461945 3.1027546,18.7545717 2.63348882,17.1753366 C0.0993647654,8.64045187 11.6836147,3.89495204 18.2986197,3.63037495 C26.0390634,3.32033043 37.3356273,7.85191686 36.3353853,17.0393673 M38.172936,11.7240091 C36.716747,8.28277481 33.5180147,5.54736808 30.2580159,3.71135026 C28.6748543,2.82018878 26.955841,2.16285976 25.1728973,1.77140691 C23.531577,1.41069869 21.6150014,1.64842836 20.0482663,1.19462018 C18.728373,0.811827785 17.9097107,-0.0477230086 16.3562944,0.00207464445 C14.238161,0.0696262433 12.0370069,1.17426809 10.1879133,2.08751375 C6.5279065,3.89538507 3.41663437,6.23630778 1.4618782,9.83126531 C-0.636277062,13.6895009 -0.437382953,17.1865952 1.81083082,20.7832848 C3.95648981,24.2167247 0.837226393,29.045365 3.97824385,32.3086268 C5.29902504,33.6808769 6.59938407,32.6801606 7.84957562,33.3409538 C8.81163708,33.8493229 8.77123671,36.8034063 9.03805671,37.6694524 C10.2385247,41.5623298 14.5524847,43.0692501 16.5436456,38.8602659 C17.4830651,41.2128802 21.1990108,43.6239527 22.9291232,40.5460247 C24.0106099,41.9455552 25.8832335,42.541395 27.3123409,41.3414881 C28.6557641,40.2130299 28.8040467,37.585879 28.8724166,35.9984164 C28.9261357,34.7604034 28.3747373,33.2339971 29.3261438,32.3402375 C30.3734455,31.3559761 32.5204364,31.7708122 33.6951548,30.5011885 C35.0359141,29.0518603 34.4849597,27.3552759 34.5879584,25.6288129 C34.6922891,23.8828639 35.0035051,24.3280116 36.2980926,23.0670485 C39.1833891,20.2567287 39.6717451,15.2600755 38.172936,11.7240091" id="skull_outline_Boo!" />
            <path d="M14.4199416,28.1214878 C16.4409104,26.2992475 16.0109503,20.7236412 15.8441352,18.1620823 C15.5281264,13.3012213 12.4886458,14.7535905 10.6384079,17.7811955 C9.23849255,20.072024 5.8716471,23.7758196 7.38120621,26.6576793 C8.58337131,28.9535919 12.5610889,29.793746 14.4199416,28.1214878" id="skull_outline_Boo!" />
            <path d="M27.7905585,19.2735023 C26.7563456,17.3532744 26.3690889,17.0619469 25.1393718,15.4887787 C24.3486011,14.4775769 23.2406052,12.6869687 21.7361817,13.0471169 C19.1541926,13.6660822 20.2075808,19.6585611 20.238428,21.4487472 C20.2617717,22.8065864 19.9608037,24.2138247 21.0892255,25.1768941 C22.2443259,26.1627631 24.1422588,26.073676 25.5295464,25.8676357 C29.7877025,25.2338929 29.5913646,22.6136348 27.7905585,19.2735023" id="skull_outline_Boo!" />
            <path d="M19.2396436,31.8300192 C18.9563137,31.7944779 19.3174042,31.4678578 19.3591799,31.2433628 C19.5473771,31.8574625 19.6855263,31.8862554 19.2396436,31.8300192 M20.2848621,27.5191742 C17.6678865,24.7492021 12.711061,33.9166085 16.2049116,34.9450569 C17.0098167,35.1821488 17.604189,34.5815458 18.3598733,34.4767215 C19.4596896,34.3242088 20.3837174,34.9635023 21.3333895,33.9548492 C22.8244907,32.3712368 21.5203459,28.8566969 20.2848621,27.5191742" id="skull_outline_Boo!" />
        </g>
    </g>
</g>
    </g>
</g>
            <g id="circle_Face" transform="translate(76.000000, 82.000000)" fill="#000000">
                <g id="circle_Mouth" transform="translate(2.000000, 52.000000)">    
                    
                <defs>
        <path d="M34.0082051,15.1361102 C35.1280248,29.123916 38.2345159,40.9925405 53.9961505,40.9999965 C69.757785,41.0074525 72.9169073,29.0566179 73.9942614,15.0063928 C74.0809675,13.8756222 73.1738581,12.9999965 72.0369872,12.9999965 C65.3505138,12.9999965 62.6703194,14.9936002 53.9894323,14.9999965 C45.3085452,15.0063928 40.7567994,12.9999965 36.0924943,12.9999965 C34.9490269,12.9999965 33.8961688,13.7366502 34.0082051,15.1361102 Z" id="scream_open_path-1" />
    </defs>
    <g id="scream_open_Mouth/Scream-Open" stroke="none" stroke-width="1" fill="none" fill-rule="evenodd">
        <mask id="scream_open_mask-2" fill="white">
            <use xlink:href="#scream_open_path-1" transform="translate(54.000000, 26.999998) scale(1, -1) translate(-54.000000, -26.999998)" />
        </mask>
        <use id="scream_open_Mouth" fill-opacity="0.699999988" fill="#000000" transform="translate(54.000000, 26.999998) scale(1, -1) translate(-54.000000, -26.999998)" xlink:href="#scream_open_path-1" />
        <path d="M44,2 L65,2 C67.7614237,2 70,4.23857625 70,7 L70,13 C70,15.7614237 67.7614237,18 65,18 L44,18 C41.2385763,18 39,15.7614237 39,13 L39,7 C39,4.23857625 41.2385763,2 44,2 Z" id="scream_open_Teeth" fill="#FFFFFF" mask="url(#scream_open_mask-2)" />
        <g id="scream_open_Tongue" mask="url(#scream_open_mask-2)" fill="#FF4F6D">
            <g transform="translate(38.000000, 32.000000)" id="scream_open_Say-ahhhh">
                <circle cx="11" cy="11" r="11" />
                <circle cx="21" cy="11" r="11" />
            </g>
        </g>
    </g>
</g>
                <g id="circle_Nose" transform="translate(28.000000, 40.000000)" fill-opacity="0.16">
                    
                <g id="default_Nose/Default" stroke="none" stroke-width="1" fill="none" fill-rule="evenodd" fill-opacity="0.16">
        <path d="M16,8 C16,12.418278 21.372583,16 28,16 L28,16 C34.627417,16 40,12.418278 40,8" id="default_Nose" fill="#000000" />
    </g>
</g>
                <g id="circle_Eyes" transform="translate(0.000000, 8.000000)">
                    
                <g id="surprised_Eyes/Surprised-ðŸ˜³" stroke="none" stroke-width="1" fill="none" fill-rule="evenodd">
        <circle id="surprised_The-White-Stuff" fill="#FFFFFF" cx="30" cy="22" r="14" />
        <circle id="surprised_Eye-Ball" fill="#FFFFFF" cx="82" cy="22" r="14" />
        <circle id="surprised_Eye" fill-opacity="0.699999988" fill="#000000" cx="30" cy="22" r="6" />
        <circle id="surprised_Eye" fill-opacity="0.699999988" fill="#000000" cx="82" cy="22" r="6" />
    </g>
</g>
                <g id="circle_Eyebrow" fill-opacity="0.599999964">
                    
                <g id="angry_natural_Eyebrow/Natural/Angry-Natural" stroke="none" stroke-width="1" fill="none" fill-rule="evenodd" fill-opacity="0.599999964">
        <path d="M44.8565785,12.2282877 C44.8578785,12.2192877 44.8578785,12.2192877 44.8565785,12.2282877 M17.5862288,7.89238094 C15.2441598,8.3302947 13.0866155,9.78806858 12.1523766,12.0987479 C11.8009169,12.967391 11.3917103,14.9243181 11.7083227,15.8073302 C11.8284629,16.14295 12.0332321,16.1008692 12.9555234,16.0430509 C14.643791,15.9369937 16.9330912,13.6622369 18.7484684,13.2557982 C21.2753939,12.6899315 23.9825295,13.1148447 26.4961798,13.6882381 C30.8109365,14.6725177 36.4854008,17.7875215 40.9461842,16.1699775 C41.2783949,16.0495512 45.6210294,12.9225732 44.3685187,12.2769925 C43.9238011,11.9068186 41.1370145,12.0854053 40.6216067,11.9988489 C38.2277647,11.5971998 35.7297127,10.9345131 33.373373,10.3265657 C28.2329017,9.00016592 22.9666484,6.88073171 17.5862288,7.89238094" id="angry_natural_Eyebrows-The-Web" fill="#000000" transform="translate(28.094701, 12.127505) rotate(17.000000) translate(-28.094701, -12.127505) " />
        <path d="M100.918293,12.2094196 C100.919593,12.2004196 100.919593,12.2004196 100.918293,12.2094196 M73.5862288,7.89238094 C71.2441598,8.3302947 69.0866155,9.78806858 68.1523766,12.0987479 C67.8009169,12.967391 67.3917103,14.9243181 67.7083227,15.8073302 C67.8284629,16.14295 68.0332321,16.1008692 68.9555234,16.0430509 C70.643791,15.9369937 72.9330912,13.6622369 74.7484684,13.2557982 C77.2753939,12.6899315 79.9825295,13.1148447 82.4961798,13.6882381 C86.8109365,14.6725177 92.4854008,17.7875215 96.9461842,16.1699775 C97.2783949,16.0495512 101.621029,12.9225732 100.368519,12.2769925 C99.9238011,11.9068186 97.1370145,12.0854053 96.6216067,11.9988489 C94.2277647,11.5971998 91.7297127,10.9345131 89.373373,10.3265657 C84.2329017,9.00016592 78.9666484,6.88073171 73.5862288,7.89238094" id="angry_natural_Eyebrows-The-Web" fill="#000000" transform="translate(84.094701, 12.127505) scale(-1, 1) rotate(17.000000) translate(-84.094701, -12.127505) " />
    </g>
</g>
            </g>
            <g id="circle_Top">
                
            <defs>
        <path d="M56.6830963,168.772 L56.7107473,168.709458 C56.416717,169.539043 55.6388355,169.398111 55.3468697,170.07271 C55.3356677,170.098476 54.6931475,172.74417 54.7822568,172.609485 C54.0114437,173.77676 53.0103456,173.688921 51.9872076,174.195261 C50.5714284,174.896017 49.4285338,176.192512 47.7210266,176.087887 C47.3835007,176.067196 45.8972683,175.647914 45.7732734,175.678365 C45.2188422,174.627817 44.712395,174.701211 44.2542196,175.898937 C43.9803807,176.413865 43.7062927,176.928403 43.4326768,177.443722 C42.7562908,178.242857 43.008912,179.689263 41.3837473,179.20908 C37.0221866,177.920783 44.1404008,170.681333 46.6413081,170.561482 C45.222862,167.210738 44.0760798,165.639406 40.9122645,164.344472 C38.6803216,163.431343 35.8579788,163.072962 34.3203529,160.740363 C33.4406255,159.407952 33.1549566,158.211397 33.7876434,156.661927 C34.3317238,155.329905 36.8900419,154.785698 37.0806939,153.833919 C37.301235,152.734182 32.6420388,149.851129 31.6318019,148.569078 C29.604919,146.000291 29.2527527,142.493 25.7496614,142.923213 C22.7169752,143.295258 22.5082405,147.54781 20.3316507,148.295803 C13.6337844,150.600652 21.2344349,140.573248 23.098365,138.949431 L23.1440963,138.91 L23.0903283,138.926748 C20.5600386,139.66429 14.3680056,141.038369 13.0786076,137.500234 L13.0097195,137.290621 C11.9114372,133.569004 14.8906605,135.386674 16.2480678,135.542832 C18.8477815,135.842653 20.9696368,135.690791 23.5253695,134.93577 C21.328009,133.54519 16.5600021,129.760719 17.6048295,126.674272 C19.1297602,122.18397 22.0492883,127.906352 23.2377959,129.136091 C23.9404919,126.650458 25.9286815,125.412912 27.9404633,124.415457 C24.4247131,124.380712 21.0634173,123.177911 18.2658233,120.739516 C14.7956022,122.001266 11.5636759,120.776994 8.31806645,119.133048 C7.1521321,118.543555 4.82030298,117.777604 4.28187338,116.365942 C3.50714906,114.33785 4.86832034,113.256461 6.48191847,113.343909 C9.44069672,113.504361 12.7691062,118.433464 16.0678004,117.11862 C16.5976214,116.907417 16.4875948,115.464915 17.3157029,115.190078 C17.8260425,115.020647 18.5290809,115.331791 18.9332619,115.176024 C19.4893606,114.962089 19.4216552,115.995069 20.0353361,115.585546 C18.3720966,114.086046 16.6502186,113.127241 15.2570206,111.263504 C14.5506213,110.319534 14.1501828,108.989074 13.4385893,108.120059 C12.8005957,107.342006 11.5823428,106.981673 11.003339,106.125931 C9.16499332,103.411918 10.2619363,102.05257 13.2017458,102.613565 C13.8353612,102.734196 16.8931801,103.937778 17.3124291,104.492136 C19.1191629,101.97332 21.8129983,98.7732678 20.3954288,95.1781378 C20.0019971,94.1826354 18.1406712,92.8638875 17.4378821,91.9242113 C16.6409799,90.859219 16.1532654,89.4217916 15.3182307,88.4286316 C14.198865,87.0989527 12.4468385,86.1721595 10.6783285,86.1030599 C6.99233616,85.9593953 6.54565844,89.3249741 4.0949367,91.063785 C2.03522104,92.5273687 0.433581882,91.7946008 1.19123199,88.9213077 C1.809527,86.5809011 5.12707484,84.0898028 7.09694168,83.2707581 C9.76564295,82.1620417 12.8451619,82.9775728 15.2071591,83.5889284 C16.5566308,83.9387206 16.830792,83.3870952 18.2972545,84.4567723 C19.8941915,85.6220957 19.4819334,86.7425238 21.8496116,87.4998864 C20.5363542,82.427509 17.8734551,80.3759933 13.6493116,78.5079623 C12.4125819,77.9610216 7.67255627,75.2239756 11.1123314,73.8095815 C11.9860935,73.4504198 16.4523462,75.5265303 17.3583008,75.9707976 C16.6185854,74.4088349 15.0865685,71.7213688 15.9842104,70.148475 C17.308498,67.8307112 19.2330959,69.6940575 19.730271,71.5921487 C19.9981829,68.0411331 17.8464603,62.9714884 13.763287,62.7450604 C11.4834592,62.6185731 9.14262534,67.628878 7.16521769,64.996067 C3.36588279,59.9510171 18.1321771,57.1944514 21.5613192,60.4944442 C21.943774,57.4376663 23.7571524,54.1197154 22.3890054,51.3693961 C20.9020846,48.3856217 19.1118632,47.2226407 18.6111593,43.6353185 C18.3438318,41.7216116 18.7294809,35.5639414 22.017351,38.8436337 C23.1404237,39.9656235 22.7491426,42.3411654 23.8253733,43.8305151 C24.378271,44.5964663 25.4350389,45.6056325 26.2928172,45.9077967 C26.8597232,40.8604044 25.7628153,35.687696 23.3441752,31.4035222 C22.4173261,29.7638712 19.6293173,21.8322547 24.3487748,24.0297774 C25.8867201,24.7465391 25.4417603,27.8938883 26.6642795,29.0186108 C27.3301947,29.6315279 33.9115906,32.848367 34.9351609,32.1593232 C35.6651905,31.6682087 37.6814572,26.1886512 38.2998862,25.2263323 C39.0417626,24.0719399 42.4186453,18.1910583 43.6123112,22.3561622 C44.2482173,24.5790605 41.0431153,26.9417195 41.8428337,29.7357629 C43.310101,28.5232019 45.1988562,27.6534061 46.1779169,25.8763368 C46.7758614,24.7926055 47.2109167,18.4409099 50.1948883,21.4906608 C50.6468605,18.7543956 50.3931233,16.0052474 50.0116201,13.3177814 C49.6590375,10.8387852 47.8009276,3.86128948 51.3078111,2.86461591 C54.8879763,1.84842269 53.781581,6.23526987 53.6920659,8.39570525 C53.5723002,11.2974971 54.7243438,16.0478003 57.1484939,17.9212967 C58.9543722,19.318904 58.3962141,19.1568908 59.9693808,17.0979577 C61.2224184,15.460649 62.1474037,13.4950198 62.9428241,11.5742858 C63.4388415,10.377731 63.8604755,9.23622158 63.9388761,7.95573223 C64.0256621,6.54407081 62.5963925,4.71468878 63.8882057,3.47753307 C68.4061862,-0.841776108 67.3001674,13.2963097 66.8533479,14.7153886 L67.1277802,14.3696025 C69.5621201,11.3036027 72.2796963,8.00664659 76.3331882,10.4628367 C76.9137424,7.69455926 76.4475113,-0.492764683 81.1879964,0.0233349851 C85.0314735,0.441445987 81.4218191,3.79726501 80.7256589,5.08595261 C79.876509,6.65923677 80.3338947,8.84621888 80.0771587,10.6065013 C83.364323,9.74958849 82.7941498,9.19327834 83.5854252,6.15758165 C83.8958015,4.9680539 84.7804466,2.10647253 86.0261697,1.61691959 C90.9097688,-0.301081675 87.8388134,6.00571874 87.4245062,7.76092608 C90.1353523,7.6410754 93.1402627,11.9174413 95.6691727,9.75271164 C97.031157,8.58855944 96.1010516,5.40060944 98.2500992,4.75060494 C99.9590183,4.23411488 100.663044,6.16656069 100.304676,7.66059506 C100.877713,7.60828238 102.885296,7.799575 103.355021,8.20948774 C104.312204,9.04610014 103.680648,10.8501066 104.381766,11.3369268 C106.402711,12.7415612 112.701004,8.10642397 114.282756,6.69671451 C115.532497,5.5840942 120.275192,-1.30204956 121.855094,2.8653967 C122.399415,4.30399525 119.848493,8.69357518 119.467423,10.1091405 C118.919891,12.1450405 118.138071,14.7079712 118.647561,16.7751026 C119.599928,15.6019713 121.293397,13.448563 121.988704,12.004499 C122.708203,10.5112454 122.329503,8.38945896 123.682122,7.11833905 C129.125524,2.01512054 126.706116,13.3220757 126.762486,14.9351799 C128.507084,14.2133431 130.456777,14.0782671 131.680174,15.6730229 C132.817064,17.1557359 131.646423,18.2285361 132.745372,19.2693241 C135.152043,16.9117402 129.921887,7.49233563 136.714154,7.77771298 C138.176249,7.83939509 139.521287,8.64672801 138.699701,10.5498943 C138.200031,11.7078002 137.073558,10.9742516 136.520803,12.0087933 C135.29832,14.3004008 137.763741,20.0192692 137.555716,22.7360147 C140.091904,22.4795265 140.175628,20.6196938 140.789049,18.7364375 C141.471891,16.6443209 142.95772,13.6238495 145.2945,16.2125461 C146.663012,17.7307849 145.315305,22.3600662 145.407913,24.5603216 C145.468923,26.0067281 145.57044,27.4527441 145.655991,28.8975889 C146.966535,28.2315783 148.695236,24.958913 150.755804,27.2056252 C151.717562,28.2546115 149.878539,32.2772219 150.985494,32.7702884 C151.481865,31.2813291 151.173373,26.8456828 152.06891,25.5866651 C154.318536,22.4287754 155.459059,27.1091981 155.331481,28.8503513 C155.102123,31.9875502 151.880955,36.8237399 156.546177,36.7183337 C160.604934,36.6265913 158.858129,32.1374612 159.703512,29.2516754 C160.195301,27.5757179 161.389659,24.7192116 163.546466,26.0840259 C165.31836,27.2060156 164.114962,28.45176 163.920134,29.8505384 C163.549887,32.5063826 163.413049,35.0454993 163.186097,37.7423348 C166.575417,35.355081 166.819045,40.5238856 166.669221,42.5269926 C166.529338,44.4051737 164.602506,51.1718572 166.081721,51.4935411 C166.456472,51.5751333 167.767833,50.323533 168.576831,50.3754553 C170.198398,50.4792998 170.861461,51.5731813 170.637754,53.3037939 C170.392027,55.207741 165.620359,59.6336275 167.354151,61.6554733 C167.481496,61.8046035 170.125896,61.5734908 170.302082,61.4622287 C171.519076,60.6935447 172.07606,58.1758997 172.440664,56.6162793 C172.918922,54.5725714 171.724815,48.2755308 175.118415,49.6165311 C177.605245,50.5995409 176.170088,56.1298495 175.629329,58.1778516 C174.740084,61.5524095 171.737261,64.1977131 172.525841,67.608968 C172.993447,66.1289878 174.690293,61.8139729 176.465593,64.9570277 C177.190719,66.2433729 175.978715,68.6739603 175.522623,70.0032488 C174.992708,71.5499862 172.923099,74.6707886 172.991008,76.2507095 C173.095791,78.6883239 173.199533,76.9046179 175.238294,78.4419859 C175.729666,76.7176196 175.988608,73.3450137 176.919931,72.0153348 C178.355898,69.967723 180.162561,70.057123 180.708517,72.5829664 C181.079608,74.3018671 178.635221,81.0771393 177.758771,82.7050785 C178.870779,81.7013778 182.244616,77.9719526 183.551013,80.6153042 C184.275583,82.0835727 183.373237,82.3806618 182.804663,83.2477249 C181.122531,85.8176826 175.17003,88.2904324 175.591269,91.6482034 C177.383839,90.9736042 181.203002,90.8666365 180.67198,94.0499017 C180.211017,96.8166176 176.930155,95.9749301 175.237767,96.9915137 C177.112955,96.5335826 181.952817,95.619282 182.515816,98.6011044 C183.230278,102.394554 177.79234,101.136708 175.950562,101.597371 C177.22313,104.1482 179.717195,106.166532 182.208315,107.158911 C183.193837,107.552037 185.137049,107.742159 185.67495,108.813788 C187.90383,113.244749 177.994834,111.484467 176.467109,113.140514 C177.396605,114.146948 179.037272,115.426656 177.742225,117.034295 C181.381252,118.556438 182.806036,121.517569 183.364612,125.543693 C183.618438,127.375418 183.243976,134.318949 180.207508,130.116368 C179.400215,129.001405 179.612624,126.110544 179.140297,124.762907 C178.501504,122.944066 176.178665,119.993084 173.890225,120.718825 C170.89879,121.667871 178.111059,127.812658 177.404406,130.612948 C176.063377,135.941423 173.298856,129.431618 172.206,129.014288 C172.731819,131.833707 169.622984,135.99803 170.567003,137.868403 C170.962455,138.651922 172.851533,139.287873 173.478827,140.295477 C174.059985,141.228907 175.050449,143.548232 174.928748,144.633135 C174.419542,149.169502 172.103838,145.707106 171.222117,143.992109 C170.13091,141.873446 170.263178,141.804346 167.966582,141.555666 C166.462257,141.392482 163.413669,141.041128 162.554381,142.176001 C162.683813,142.004354 161.891083,147.181871 161.855079,147.132842 L161.859064,147.240034 C161.960642,148.14665 163.419895,148.63721 162.95061,150.127527 C162.495834,151.571982 160.792178,152.307873 159.706723,151.14333 C159.340419,153.270972 159.678802,152.06661 161.181077,153.276828 C161.993578,153.931908 164.07308,154.203231 163.10825,156.053694 C162.056295,158.072417 158.584855,155.129634 157.398137,155.187802 C155.254913,155.292428 154.108583,157.895569 152.848916,159.689035 C151.308063,161.884996 149.356221,162.768846 147.651918,164.434653 C148.428013,164.951924 159.522305,167.44029 155.089787,169.887664 C153.172487,170.947581 147.387236,168.73171 145.642135,167.571852 C145.563369,171.165421 146.500469,171.843533 148.024863,174.616105 C148.803043,176.034013 150.534993,182 147.428222,182 C145.247,182 146.012313,178.819858 145.478876,177.405464 C145.140008,176.50834 144.414366,176.040649 143.956619,175.261034 C142.191903,172.260864 142.862922,169.494538 142.311896,166.167999 C142.166089,165.289848 141.96453,164.47122 141.755564,163.663497 C147.992529,155.385796 151.985725,145.321469 152.83162,134.375034 C157.488357,132.807518 160.867612,128.459787 160.9962,123.304975 L161,123 L161,110 C161,104.964745 157.898745,100.653827 153.502126,98.8731363 C152.970496,99.2477013 152.23272,98.8741774 152,98.0318338 C152.46274,96.526107 148.704055,70.1780326 139,63.1563695 C135.42084,60.7446886 116.408606,60.5635409 97.3126144,60.5504522 L96.7334726,60.5501156 C77.6219937,60.5410694 58.5820398,60.7427484 55,63.1563695 C45.2959449,70.1780326 41.5372601,96.526107 42,98.0318338 C41.7672256,98.8743746 41.0291589,99.2478761 40.4975878,98.8743384 C36.190098,100.618022 33.1261238,104.791345 33.0037999,109.695025 L33,110 L33,123 C33,128.288115 36.4205527,132.777317 41.1698127,134.37576 C42.1997823,147.718972 47.9073425,159.751229 56.6545296,168.836196 L56.6830963,168.772 Z M23.1596563,138.89736 L23.1440963,138.91 L23.232183,138.884943 C23.3239632,138.857597 23.4100831,138.83135 23.4900552,138.806518 C23.4992034,138.674811 23.3760267,138.718592 23.1596563,138.89736 Z" id="short_dreads_2_path-1" />
    </defs>
    <g id="short_dreads_2_Top/Short-Hair/Dreads-02" stroke="none" stroke-width="1" fill="none" fill-rule="evenodd" transform="translate(-1 0)">
        <g id="short_dreads_2_Hair" transform="translate(36.000000, 0.000000)">
            <mask id="short_dreads_2_mask-2" fill="white">
                <use xlink:href="#short_dreads_2_path-1" />
            </mask>
            <use id="short_dreads_2_Dreads" fill="#2E3257" xlink:href="#short_dreads_2_path-1" />
            <g id="short_dreads_2_Hair-Color" mask="url(#short_dreads_2_mask-2)" fill="#C93305">
                <g transform="translate(-35.000000, 0.000000)" id="short_dreads_2_Color">
                    <rect x="0" y="0" width="264" height="280" />
                </g>
            </g>
        </g>
        <g id="short_dreads_2_Facial-Hair" transform="translate(49.000000, 72.000000)" />
        <g id="short_dreads_2_Accessory" transform="translate(62.000000, 85.000000)"><defs>
        <filter x="-3.2%" y="-10.5%" width="106.3%" height="121.1%" filterUnits="objectBoundingBox" id="sunglasses_filter-1">
            <feOffset dx="0" dy="2" in="SourceAlpha" result="shadowOffsetOuter1" />
            <feColorMatrix values="0 0 0 0 0   0 0 0 0 0   0 0 0 0 0  0 0 0 0.1 0" type="matrix" in="shadowOffsetOuter1" result="shadowMatrixOuter1" />
            <feMerge>
                <feMergeNode in="shadowMatrixOuter1" />
                <feMergeNode in="SourceGraphic" />
            </feMerge>
        </filter>
        <linearGradient x1="50%" y1="0%" x2="50%" y2="70.5058195%" id="sunglasses_linearGradient-2">
            <stop stop-color="#FFFFFF" stop-opacity="0.5" offset="0%" />
            <stop stop-color="#000000" stop-opacity="0.5" offset="100%" />
        </linearGradient>
        <path d="M47.0104611,6.27728008 C49.5212682,6.30134922 50.7082016,6.72633117 51.1359635,9.39189846 C51.5693724,12.0919529 51.1479634,15.1275382 50.648202,17.7869984 C49.8855011,21.8478573 48.6170388,25.8264499 45.6643523,28.794498 C44.1089507,30.3575551 42.2119044,31.6034024 40.1941529,32.4540848 C39.1226305,32.9060098 37.9911085,33.2322006 36.8599395,33.4797175 C36.5292357,33.5519249 33.7060778,33.9478084 35.4375958,33.7466335 C31.3967988,34.2161613 27.0129452,34.1974808 23.6381438,31.5793333 C19.8980507,28.6777448 17.3367734,24.0862872 16.2105455,19.5127916 C15.5516086,16.8368063 14.1670294,10.4365709 16.6968952,8.29693227 C19.5948762,5.84547255 47.0104611,6.27728008 47.0104611,6.27728008 L47.0104611,6.27728008 Z" id="sunglasses_path-3" />
        <linearGradient x1="50%" y1="0%" x2="50%" y2="100%" id="sunglasses_linearGradient-4">
            <stop stop-color="#FFFFFF" stop-opacity="0.5" offset="0%" />
            <stop stop-color="#000000" stop-opacity="0.5" offset="70.5058195%" />
        </linearGradient>
        <path d="M78.9192315,6.27468008 C76.4084239,6.29910846 75.2214902,6.72373117 74.7937283,9.38929846 C74.3603192,12.0893529 74.7817283,15.1249382 75.2811369,17.7843984 C76.0441909,21.8452573 77.3126534,25.8238499 80.2653406,28.791898 C81.8207425,30.3549551 83.7177893,31.6008024 85.7355412,32.4518441 C86.8070638,32.9034098 87.938586,33.2296006 89.0697553,33.4771175 C89.4004591,33.5493249 92.2232647,33.9455676 90.4920992,33.7440335 C94.5328971,34.2135613 98.9167517,34.1948808 102.291554,31.5767333 C106.031648,28.6751448 108.592926,24.0840464 109.719154,19.5105508 C110.378091,16.8342063 111.762317,10.4343302 109.232804,8.29433227 C106.334822,5.84287255 78.9192315,6.27468008 78.9192315,6.27468008 L78.9192315,6.27468008 Z" id="sunglasses_path-5" />
    </defs>
    <g id="sunglasses_Top/_Resources/Sunglasses" stroke="none" stroke-width="1" fill="none" fill-rule="evenodd">
        <g id="sunglasses_Sunglasses" filter="url(#sunglasses_filter-1)" transform="translate(8.000000, 8.000000)">
            <g id="sunglasses_shades">
                <use fill-opacity="0.700000048" fill="#000000" xlink:href="#sunglasses_path-3" />
                <use fill="url(#linearGradient-2)" style="mix-blend-mode: screen;" xlink:href="#sunglasses_path-3" />
            </g>
            <g id="sunglasses_shades">
                <use fill-opacity="0.700000048" fill="#000000" xlink:href="#sunglasses_path-5" />
                <use fill="url(#linearGradient-4)" style="mix-blend-mode: screen;" xlink:href="#sunglasses_path-5" />
            </g>
            <g id="sunglasses_Glasses" fill="#252C2F">
                <path d="M46.2491397,7.27516667 C48.6207695,7.2975 49.7419096,7.69183333 50.1459601,10.1651667 C50.5553446,12.6705 50.1572949,15.4871667 49.6852359,17.9548333 C48.9648125,21.7228333 47.7666627,25.4145 44.9776475,28.1685 C43.5084639,29.6188333 41.7165732,30.7748333 39.8106684,31.5641667 C38.7985419,31.9835 37.7297416,32.2861667 36.6612747,32.5158333 C36.3489024,32.5828333 33.6822357,32.9501667 35.3177735,32.7635 C31.5009631,33.1991667 27.3601122,33.1818333 24.1723805,30.7525 C20.6396056,28.0601667 18.2203032,23.7998333 17.1565036,19.5561667 C16.5340925,17.0731667 15.2262624,11.1345 17.6158944,9.14916667 C20.3532365,6.8745 46.2491397,7.27516667 46.2491397,7.27516667 L46.2491397,7.27516667 Z M22.2178029,0.4905 C16.7774562,0.677833333 13.1466691,1.63383333 10.4633337,7.06916667 C5.54571911,17.0301667 13.9627711,31.9688333 23.352278,36.0395 C34.3293166,40.7991667 46.5921826,35.5318333 52.3955746,26.0058333 C55.4689587,20.9621667 57.0224862,13.3231667 56.9224737,7.50383333 C56.7951245,0.0765 51.6071427,-0.1295 45.5090472,0.0338333333 L22.2178029,0.4905 Z" id="sunglasses_Frame" />
                <path d="M79.6805515,7.27256667 C77.3089217,7.29523333 76.1877816,7.68923333 75.7837311,10.1625667 C75.3743466,12.6679 75.7723963,15.4845667 76.244122,17.9522333 C76.9648787,21.7202333 78.1630285,25.4119 80.9520437,28.1659 C82.4212273,29.6162333 84.213118,30.7722333 86.1190228,31.5619 C87.1311493,31.9809 88.1999496,32.2835667 89.2684165,32.5132333 C89.5807888,32.5802333 92.2471221,32.9479 90.6119177,32.7609 C94.4287281,33.1965667 98.569579,33.1792333 101.757311,30.7499 C105.290086,28.0575667 107.709388,23.7975667 108.773188,19.5539 C109.395599,17.0705667 110.703095,11.1322333 108.313797,9.14656667 C105.576455,6.8719 79.6805515,7.27256667 79.6805515,7.27256667 L79.6805515,7.27256667 Z M103.711555,0.4879 C109.152235,0.675233333 112.783022,1.63156667 115.466357,7.06656667 C120.383639,17.0275667 111.96692,31.9662333 102.577413,36.0372333 C91.6003746,40.7965667 79.3375086,35.5292333 73.5337832,26.0035667 C70.4607325,20.9595667 68.907205,13.3205667 69.0068841,7.50123333 C69.1345667,0.0739 74.3225485,-0.1321 80.420644,0.0315666667 L103.711555,0.4879 Z" id="sunglasses_Frame" />
                <path d="M13.1969483,4.9267 C9.78501392,5.11836667 5.88606327,5.16436667 2.69005822,6.63936667 C-0.69461078,8.20136667 -1.2176675,11.7387 3.04920921,12.2260333 C4.97094906,12.4457 6.89488267,12.0827 8.78716336,11.7450333 C10.336903,11.4683667 12.4419791,11.5580333 13.9064752,10.9657 C16.6355213,9.86236667 16.4603333,4.74003333 13.1969483,4.9267" id="sunglasses_Frame" />
                <path d="M112.73467,4.9267 C116.146606,5.11836667 120.045559,5.16436667 123.241565,6.63936667 C126.626236,8.20136667 127.149293,11.7387 122.882414,12.2260333 C120.960673,12.4457 119.036739,12.0827 117.144457,11.7450333 C115.594717,11.4683667 113.489639,11.5580333 112.025143,10.9657 C109.295782,9.86236667 109.471283,4.74003333 112.73467,4.9267" id="sunglasses_Frame" />
                <path d="M73.1094302,7.01263333 C71.1631869,4.71263333 66.0912197,3.38463333 62.8914864,3.38463333 C59.6914198,3.38463333 54.7681378,4.71263333 52.8222279,7.01263333 C51.8407719,8.1723 51.8074344,9.72396667 53.5083137,10.4509667 C55.6262451,11.3566333 57.5174814,9.7143 59.2126933,8.8553 C61.3809643,7.75663333 64.7120473,7.8773 66.7189648,8.8553 C68.4271783,9.68796667 70.3050797,11.3566333 72.4233444,10.4509667 C74.1242237,9.72396667 74.0908862,8.1723 73.1094302,7.01263333" id="sunglasses_Frame" />
            </g>
        </g>
    </g>
</g>
    </g>
</g>
        </g>
    </g>
</svg>