<svg xmlns="http://www.w3.org/2000/svg" xmlns:xlink="http://www.w3.org/1999/xlink" width="264px" height="280px" viewBox="0 0 264 280" version="1.1">
    <title id="circle_Title">Avataaar/Circle</title>
    <desc>Created with python_avatars</desc>
    <defs>
        <circle id="circle_path-1" cx="120" cy="120" r="120" />
        <path d="M-3.19744231e-14,160 L-3.19744231e-14,-1.42108547e-14 L264,-1.42108547e-14 L264,160 L252,160 C252,226.27417 198.27417,280 132,280 C65.72583,280 12,226.27417 12,160 L12,160 L-3.19744231e-14,160 Z" id="circle_path-3" />
        <path d="M100,0 C130.927946,-5.68137151e-15 156,25.072054 156,56 L156.000809,62.1660527 C161.675838,63.1185422 166,68.05429 166,74 L166,88 C166,94.0524166 161.519235,99.0582945 155.693975,99.8813638 C153.627928,119.686472 141.237929,136.421678 124.001014,144.610469 L124,163 L128,163 C167.764502,163 200,195.235498 200,235 L200,244 L0,244 L0,235 C-4.86974701e-15,195.235498 32.235498,163 72,163 L76,163 L75.9999836,144.610943 C58.7625487,136.422324 46.3721119,119.686854 44.3051107,99.8809698 C38.480765,99.0582945 34,94.0524166 34,88 L34,74 C34,68.053942 38.3246685,63.1179645 44.0001873,62.1658855 L44,56 C44,25.072054 69.072054,5.68137151e-15 100,0 Z" id="circle_path-5" />
        <path d="M83,36.3476251 C83,52.6289957 105.161905,65.8276544 132.5,65.8276544 C159.838095,65.8276544 182,52.6289957 182,36.3476251 C182,34.9853134 181.844841,33.6445843 181.544472,32.3313638 C210.784239,41.4879251 232,68.792221 232,101.051724 L232,110 L32,110 L32,101.051724 C32,68.3970853 53.7386736,40.8197864 83.5337207,32.0021267 C83.1821692,33.4207025 83,34.871494 83,36.3476251 Z" id="circle_path-7" />
        <rect id="circle_path-9" x="0" y="0" width="264" height="280" />
        <path d="M74,0 C114.869071,0 148,33.1309285 148,74 L148,84.1482318 L148,197.608051 C135.525121,187.236892 119.490913,181 102,181 L102,181 L98,181 L98,162.610951 C115.530782,154.282984 128.048193,137.114792 129.791419,116.867187 C135.569129,116.002364 140,111.018625 140,105 L140,105 L140,92 C140,87.3536213 137.359271,83.3240177 133.496777,81.3301515 C132.723933,81.0500337 131.951808,80.748163 131.180891,80.4262497 C130.794819,80.3202581 130.400778,80.2331546 130,80.1659169 L130,80.1659169 L130.000458,79.9172528 C117.224481,74.2339715 104.877985,63.0706967 96.1104311,47.8848473 C93.1752556,42.8009742 90.8310687,37.5951441 89.0661426,32.3970356 C80.4313947,42.9409152 67.7445474,53.6023901 52.3415164,62.4953343 C42.777598,68.0170651 33.1467898,72.2910056 24,75.2659587 L24.0003852,137.246608 C29.6019576,148.318362 38.7728825,157.277529 50,162.610951 L50,162.610951 L50,181 L46,181 C38.3273639,181 30.9350359,182.200142 24.0004995,184.422941 L24,230 C24,244.105888 13.5691766,255.775526 0,257.716445 L0,74 C0,33.1309285 33.1309285,0 74,0 Z" id="circle_path-11" />
    </defs>
    <g id="circle_Avataaar/Circle" stroke="none" stroke-width="1" fill="none" fill-rule="evenodd">
        <g id="circle_Circle" transform="translate(12.000000, 40.000000)">
            <mask id="circle_mask-2" fill="white">
                <use xlink:href="#circle_path-1" />
            </mask>
            <use id="circle_Background-Color" fill="rgba(0,0,0,0.0" xlink:href="#circle_path-1" />
            <g id="circle_Fabric-Color" mask="url(#circle_mask-2)" fill="">
                <rect id="circle_ðŸ–Color" x="0" y="0" width="240" height="240" />
            </g>
        </g>
        <mask id="circle_mask-4" fill="white">
            <use xlink:href="#circle_path-3" />
        </mask>
        <g id="circle_Mask" />
        <g id="circle_Avataaar" mask="url(#circle_mask-4)">
            <g id="circle_Body" transform="translate(32.000000, 36.000000)">
                <mask id="circle_mask-6" fill="white">
                    <use xlink:href="#circle_path-5" />
                </mask>
                <use fill="#D0C6AC" xlink:href="#circle_path-5" />
                <g id="circle_Skin-Color" mask="url(#circle_mask-6)" fill="#D08B5B">
                    <g transform="translate(-32.000000, 0.000000)" id="circle_Color">
                        <rect x="0" y="0" width="264" height="244" />
                    </g>
                </g>
                <path d="M44,94 C44,124.927946 69.072054,150 100,150 C130.927946,150 156,124.927946 156,94 L156,94 L156,102 C156,132.927946 130.927946,158 100,158 C69.072054,158 44,132.927946 44,102 Z" id="circle_Neck-Shadow" fill-opacity="0.100000001" fill="#000000" mask="url(#circle_mask-6)" />
            </g>
            <g id="circle_Clothing" transform="translate(0.000000, 170.000000)">
                
            <defs>
        <path d="M99,32.5 C99,44.3741221 113.998461,54 132.5,54 C151.001539,54 166,44.3741221 166,32.5 C166,31.4019929 165.871751,30.3232102 165.624342,29.2694852 C202.75978,32.1370674 232,63.1796858 232,101.051724 L232,110 L32,110 L32,101.051724 C32,62.8342194 61.7761079,31.571298 99.3946469,29.196636 C99.1341902,30.2738104 99,31.3768477 99,32.5 Z" id="graphic_shirt_path-1" />
    </defs>
    <g id="graphic_shirt_Clothing/Graphic-Shirt" stroke="none" stroke-width="1" fill="none" fill-rule="evenodd">
        <mask id="graphic_shirt_mask-2" fill="white">
            <use xlink:href="#graphic_shirt_path-1" />
        </mask>
        <use id="graphic_shirt_Clothes" fill="#E6E6E6" xlink:href="#graphic_shirt_path-1" />
        <g id="graphic_shirt_Fabric-Color" mask="url(#graphic_shirt_mask-2)" fill="#262E33">
            <rect id="graphic_shirt_ðŸ–Color" x="0" y="0" width="264" height="110" />
        </g>
        <g id="graphic_shirt_Graphic" fill="#FFFFFF" transform="translate(77.000000, 58.000000)">
        <g id="skull_outline_Clothing/Graphic/Skull-Outline" stroke="none" stroke-width="1" fill="none" fill-rule="evenodd">
        <g id="skull_outline_Skull" transform="translate(36.000000, 1.000000)" fill="#FFFFFF">
            <path d="M36.3353853,17.0393673 C36.1551375,18.0777567 35.8927571,19.1087846 35.3466862,20.0285256 C34.6274709,21.2401241 33.3213404,21.7355025 32.5643885,22.8466397 C31.3705799,24.5990841 32.9555173,27.1231756 31.7781352,28.6842237 C30.5119611,30.3630542 27.6359878,29.346749 26.5163205,31.5755188 C25.3358307,33.925968 27.0535122,37.0679834 25.5729054,39.4058749 C24.1038415,39.0369393 23.6514462,33.5197923 21.3841422,37.0389708 C19.9319488,39.2928559 20.9126566,40.513981 18.7354764,37.2741024 C17.9789685,36.1486754 17.1247893,35.1384326 15.6392989,35.8810671 C14.5955488,36.4024269 14.3806721,38.7178013 13.4297097,38.9672226 C11.0962556,39.5786511 11.0105713,33.3500473 10.2172146,32.1709255 C9.78124586,31.523123 9.3750224,31.1394645 8.59986813,30.8939404 C7.92815655,30.6808931 6.73124021,31.1087199 6.17495825,30.7934791 C5.13032022,30.2019696 4.98914092,28.23821 4.94962847,27.1963565 C4.8759311,25.2572791 5.52544468,23.2770647 4.98958488,21.3579064 C4.53896541,19.7461945 3.1027546,18.7545717 2.63348882,17.1753366 C0.0993647654,8.64045187 11.6836147,3.89495204 18.2986197,3.63037495 C26.0390634,3.32033043 37.3356273,7.85191686 36.3353853,17.0393673 M38.172936,11.7240091 C36.716747,8.28277481 33.5180147,5.54736808 30.2580159,3.71135026 C28.6748543,2.82018878 26.955841,2.16285976 25.1728973,1.77140691 C23.531577,1.41069869 21.6150014,1.64842836 20.0482663,1.19462018 C18.728373,0.811827785 17.9097107,-0.0477230086 16.3562944,0.00207464445 C14.238161,0.0696262433 12.0370069,1.17426809 10.1879133,2.08751375 C6.5279065,3.89538507 3.41663437,6.23630778 1.4618782,9.83126531 C-0.636277062,13.6895009 -0.437382953,17.1865952 1.81083082,20.7832848 C3.95648981,24.2167247 0.837226393,29.045365 3.97824385,32.3086268 C5.29902504,33.6808769 6.59938407,32.6801606 7.84957562,33.3409538 C8.81163708,33.8493229 8.77123671,36.8034063 9.03805671,37.6694524 C10.2385247,41.5623298 14.5524847,43.0692501 16.5436456,38.8602659 C17.4830651,41.2128802 21.1990108,43.6239527 22.9291232,40.5460247 C24.0106099,41.9455552 25.8832335,42.541395 27.3123409,41.3414881 C28.6557641,40.2130299 28.8040467,37.585879 28.8724166,35.9984164 C28.9261357,34.7604034 28.3747373,33.2339971 29.3261438,32.3402375 C30.3734455,31.3559761 32.5204364,31.7708122 33.6951548,30.5011885 C35.0359141,29.0518603 34.4849597,27.3552759 34.5879584,25.6288129 C34.6922891,23.8828639 35.0035051,24.3280116 36.2980926,23.0670485 C39.1833891,20.2567287 39.6717451,15.2600755 38.172936,11.7240091" id="skull_outline_Boo!" />
            <path d="M14.4199416,28.1214878 C16.4409104,26.2992475 16.0109503,20.7236412 15.8441352,18.1620823 C15.5281264,13.3012213 12.4886458,14.7535905 10.6384079,17.7811955 C9.23849255,20.072024 5.8716471,23.7758196 7.38120621,26.6576793 C8.58337131,28.9535919 12.5610889,29.793746 14.4199416,28.1214878" id="skull_outline_Boo!" />
            <path d="M27.7905585,19.2735023 C26.7563456,17.3532744 26.3690889,17.0619469 25.1393718,15.4887787 C24.3486011,14.4775769 23.2406052,12.6869687 21.7361817,13.0471169 C19.1541926,13.6660822 20.2075808,19.6585611 20.238428,21.4487472 C20.2617717,22.8065864 19.9608037,24.2138247 21.0892255,25.1768941 C22.2443259,26.1627631 24.1422588,26.073676 25.5295464,25.8676357 C29.7877025,25.2338929 29.5913646,22.6136348 27.7905585,19.2735023" id="skull_outline_Boo!" />
            <path d="M19.2396436,31.8300192 C18.9563137,31.7944779 19.3174042,31.4678578 19.3591799,31.2433628 C19.5473771,31.8574625 19.6855263,31.8862554 19.2396436,31.8300192 M20.2848621,27.5191742 C17.6678865,24.7492021 12.711061,33.9166085 16.2049116,34.9450569 C17.0098167,35.1821488 17.604189,34.5815458 18.3598733,34.4767215 C19.4596896,34.3242088 20.3837174,34.9635023 21.3333895,33.9548492 C22.8244907,32.3712368 21.5203459,28.8566969 20.2848621,27.5191742" id="skull_outline_Boo!" />
        </g>
    </g>
</g>
    </g>
</g>
            <g id="circle_Face" transform="translate(76.000000, 82.000000)" fill="#000000">
                <g id="circle_Mouth" transform="translate(2.000000, 52.000000)">    
                    
                <defs>
        <rect id="grimace_path-1" x="24" y="9" width="60" height="22" rx="11" />
    </defs>
    <g id="grimace_Mouth/Grimace" stroke="none" stroke-width="1" fill="none" fill-rule="evenodd">
        <rect id="grimace_Mouth" fill-opacity="0.599999964" fill="#000000" x="22" y="7" width="64" height="26" rx="13" />
        <mask id="grimace_mask-2" fill="white">
            <use xlink:href="#grimace_path-1" />
        </mask>
        <use id="grimace_Mouth" fill="#FFFFFF" xlink:href="#grimace_path-1" />
        <path d="M36,6 L35.9993333,17.999 L44.9993333,17.999 L45,6 L49,6 L48.9993333,17.999 L57.9993333,17.999 L58,6 L62,6 L61.9993333,17.999 L70.9993333,17.999 L71,6 L75,6 L74.9993333,17.999 L83.8666667,18 L83.8666667,22 L74.9993333,21.999 L75,34 L71,34 L70.9993333,21.999 L61.9993333,21.999 L62,34 L58,34 L57.9993333,21.999 L48.9993333,21.999 L49,34 L45,34 L44.9993333,21.999 L35.9993333,21.999 L36,34 L32,34 L31.9993333,21.999 L24,22 L24,18 L31.9993333,17.999 L32,6 L36,6 Z" id="grimace_Grimace-Teeth" fill="#E6E6E6" mask="url(#grimace_mask-2)" />
    </g>
</g>
                <g id="circle_Nose" transform="translate(28.000000, 40.000000)" fill-opacity="0.16">
                    
                <g id="default_Nose/Default" stroke="none" stroke-width="1" fill="none" fill-rule="evenodd" fill-opacity="0.16">
        <path d="M16,8 C16,12.418278 21.372583,16 28,16 L28,16 C34.627417,16 40,12.418278 40,8" id="default_Nose" fill="#000000" />
    </g>
</g>
                <g id="circle_Eyes" transform="translate(0.000000, 8.000000)">
                    
                <g id="wink_Eyes/Wink-ðŸ˜‰" stroke="none" stroke-width="1" fill="none" fill-rule="evenodd" fill-opacity="0.599999964">
        <circle id="wink_Eye" fill="#000000" cx="30" cy="22" r="6" />
        <path d="M70.4123979,24.204889 C72.2589064,20.4060854 76.4166529,17.7575774 81.2498107,17.7575774 C86.065907,17.7575774 90.2113521,20.3874194 92.0675822,24.1647016 C92.618991,25.2867751 91.8343342,26.2050591 91.0428374,25.5246002 C88.5917368,23.4173607 85.1109468,22.1013658 81.2498107,22.1013658 C77.5094365,22.1013658 74.1259889,23.3363293 71.6897696,25.3292186 C70.7990233,26.0578718 69.8723316,25.3159619 70.4123979,24.204889 Z" id="wink_Winky-Wink" fill="#000000" transform="translate(81.252230, 21.757577) rotate(-4.000000) translate(-81.252230, -21.757577) " />
    </g>
</g>
                <g id="circle_Eyebrow" fill-opacity="0.599999964">
                    
                <g id="flat_natural_Eyebrow/Natural/Flat-Natural" stroke="none" stroke-width="1" fill="none" fill-rule="evenodd" fill-opacity="0.599999964">
        <path d="M38.5686071,10.7022978 C33.5865557,11.2384494 28.6553385,11.1338998 23.6562444,11.1010606 C19.8231061,11.0762636 15.91974,10.6892291 12.3246118,12.5091287 C11.6361455,12.8572921 7.8767609,14.9449324 8.00311195,16.0108688 C8.10389896,16.8633498 12.0128479,18.0636592 12.7165939,18.2838164 C16.4280826,19.4452548 19.9241869,18.9282036 23.6870976,18.5703225 C28.3024371,18.1316834 32.9139567,18.1745756 37.5322346,17.8739956 C40.6422336,17.6719334 45.4224171,16.9769469 46.8293214,13.1484895 C47.2530382,11.9954284 46.8152171,9.73353891 46.3074622,8.50642195 C46.1050066,8.01751871 45.5634602,7.84963624 45.1688335,8.14921095 C43.7560524,9.22218432 40.9851444,10.4425994 38.5686071,10.7022978" id="flat_natural_Fill-10" fill="#000000" transform="translate(27.500000, 13.500000) rotate(2.000000) translate(-27.500000, -13.500000) " />
        <path d="M95.5686071,10.7022978 C90.5865557,11.2384494 85.6553385,11.1338998 80.6562444,11.1010606 C76.8231061,11.0762636 72.91974,10.6892291 69.3246118,12.5091287 C68.6361455,12.8572921 64.8767609,14.9449324 65.003112,16.0108688 C65.103899,16.8633498 69.0128479,18.0636592 69.7165939,18.2838164 C73.4280826,19.4452548 76.9241869,18.9282036 80.6870976,18.5703225 C85.3024371,18.1316834 89.9139567,18.1745756 94.5322346,17.8739956 C97.6422336,17.6719334 102.422417,16.9769469 103.829321,13.1484895 C104.253038,11.9954284 103.815217,9.73353891 103.307462,8.50642195 C103.105007,8.01751871 102.56346,7.84963624 102.168833,8.14921095 C100.756052,9.22218432 97.9851444,10.4425994 95.5686071,10.7022978" id="flat_natural_Fill-10" fill="#000000" transform="translate(84.500000, 13.500000) scale(-1, 1) rotate(2.000000) translate(-84.500000, -13.500000) " />
    </g>
</g>
            </g>
            <g id="circle_Top">
                
            <defs>
        <path d="M96,0 C120.300529,-4.46393476e-15 140,19.699471 140,44 L140,54 L140,155 C140,160.522847 135.522847,165 130,165 C124.477153,165 120,160.522847 120,155 L120,54 L20,54 L20,155 C20,160.522847 15.5228475,165 10,165 C4.4771525,165 6.76353751e-16,160.522847 0,155 L0,44 C-2.9759565e-15,19.699471 19.699471,4.46393476e-15 44,0 L96,0 Z" id="winter_hat_1_path-1" />
        <rect id="winter_hat_1_path-3" x="74" y="50" width="118" height="36" rx="8" />
        <filter x="-0.8%" y="-2.8%" width="101.7%" height="111.1%" filterUnits="objectBoundingBox" id="winter_hat_1_filter-4">
            <feOffset dx="0" dy="2" in="SourceAlpha" result="shadowOffsetOuter1" />
            <feColorMatrix values="0 0 0 0 0   0 0 0 0 0   0 0 0 0 0  0 0 0 0.1 0" type="matrix" in="shadowOffsetOuter1" />
        </filter>
    </defs>
    <g id="winter_hat_1_Facial-Hair" transform="translate(49.000000, 72.000000)"><defs>
        <path d="M105.612044,67.1316942 C111.386129,69.3374281 116.495271,75.5829845 125.36175,72.8283797 C125.730639,72.7136458 126.091098,73.0449523 125.980498,73.408662 C124.607113,77.9183313 116.972736,81.0068878 114.378714,81.1080652 C103.039714,81.5495987 93.9060174,72.8306951 84.0009784,72.1615262 C74.0951698,72.8301081 64.9612417,81.5496135 53.6221945,81.1080652 C51.0278347,81.0068878 43.3937943,77.9183313 42.0204089,73.408662 C41.9094725,73.0449523 42.2699314,72.7136458 42.6388201,72.8283797 C51.5052994,75.5829845 56.6144416,69.3374281 62.3885276,67.1316942 C67.5783507,65.1488567 77.2089224,65.7112779 84.0008729,69.2973744 C90.7925576,65.7112249 100.422466,65.1489502 105.612044,67.1316942 Z" id="moustache_fancy_path-1" />
    </defs>
    <g id="moustache_fancy_Facial-Hair/Moustache-Fancy" stroke="none" stroke-width="1" fill="none" fill-rule="evenodd">
        <mask id="moustache_fancy_mask-2" fill="white">
            <use xlink:href="#moustache_fancy_path-1" />
        </mask>
        <use id="moustache_fancy_Moustache-U-a-Question" fill="#28354B" xlink:href="#moustache_fancy_path-1" />
        <g id="moustache_fancy_Facial-Hair-Color" mask="url(#moustache_fancy_mask-2)" fill="#C93305">
            <rect id="moustache_fancy_Color" x="0" y="0" width="168" height="152" />
        </g>
    </g>
</g>
    <g id="winter_hat_1_Top/Accessories/Winter-Hat-1" stroke="none" stroke-width="1" fill="none" fill-rule="evenodd">
        <g id="winter_hat_1_hat" transform="translate(63.000000, 20.000000)">
            <path d="M23.6714286,48 L23.6714286,153.664286 C23.6714286,159.924828 18.5962564,165 12.3357143,165 C6.07517216,165 1,159.924828 1,153.664286 L1,48 L23.6714286,48 Z M139,48 L139,153.664286 C139,159.924828 133.924828,165 127.664286,165 C121.403744,165 116.328571,159.924828 116.328571,153.664286 L116.328571,48 L139,48 Z" id="winter_hat_1_inside" fill="#F4F4F4" />
            <mask id="winter_hat_1_mask-2" fill="white">
                <use xlink:href="#winter_hat_1_path-1" />
            </mask>
            <use id="winter_hat_1_hat-mask" fill="#D8D8D8" xlink:href="#winter_hat_1_path-1" />
            <g id="winter_hat_1_Fabric-Color" mask="url(#winter_hat_1_mask-2)" fill="#3C4F5C">
                <g transform="translate(-4.000000, -1.000000)" id="winter_hat_1_ðŸ–Color">
                    <rect x="0" y="0" width="149" height="172" />
                </g>
            </g>
        </g>
        <g id="winter_hat_1_hat-front">
            <use fill="black" fill-opacity="1" filter="url(#winter_hat_1_filter-4)" xlink:href="#winter_hat_1_path-3" />
            <use fill="#F4F4F4" fill-rule="evenodd" xlink:href="#winter_hat_1_path-3" />
        </g>
        <g id="winter_hat_1_Accessory" transform="translate(62.000000, 85.000000)"><defs>
        <filter x="-3.0%" y="-8.0%" width="106.1%" height="116.0%" filterUnits="objectBoundingBox" id="kurt_filter-1">
            <feOffset dx="0" dy="2" in="SourceAlpha" result="shadowOffsetOuter1" />
            <feColorMatrix values="0 0 0 0 0   0 0 0 0 0   0 0 0 0 0  0 0 0 0.16 0" type="matrix" in="shadowOffsetOuter1" result="shadowMatrixOuter1" />
            <feMerge>
                <feMergeNode in="shadowMatrixOuter1" />
                <feMergeNode in="SourceGraphic" />
            </feMerge>
        </filter>
    </defs>
    <g id="kurt_Top/_Resources/Kurt" stroke="none" stroke-width="1" fill="none" fill-rule="evenodd">
        <g id="kurt_Kurts" filter="url(#kurt_filter-1)" transform="translate(5.000000, 2.000000)" fill-rule="nonzero">
            <path d="M66,11.1111111 C54.9625586,11.1111111 53.3705645,2.0266011 30.6705882,0.740740741 C7.98552275,-0.283199952 0.815225204,6.4494855 0.776470588,11.1111111 C0.813236892,15.4042795 -0.352293566,26.5612661 14.3647059,39.6296296 C29.1367705,55.1420807 44.2704162,49.8818301 49.6941176,44.8148148 C55.1352081,42.4731118 61.3403442,21.4596351 66,21.4814815 C70.6596558,21.5033279 76.8647919,42.4731118 82.3058824,44.8148148 C87.7295838,49.8818301 102.86323,55.1420807 117.635294,39.6296296 C132.352294,26.5612661 131.186763,15.4042795 131.223529,11.1111111 C131.184775,6.4494855 124.014477,-0.283199952 101.329412,0.740740741 C78.6294355,2.0266011 77.0374414,11.1111111 66,11.1111111 Z" id="kurt_It!" fill="#F4F4F4" />
            <path d="M55.1294118,21.4814815 C55.5103632,13.8233491 42.2156493,5.64243259 27.9529412,5.92592593 C13.6973442,6.22450879 11.8417942,15.3786982 11.6470588,18.8888889 C11.2982286,27.0220633 20.014463,45.3037598 36.1058824,44.8148148 C52.1972736,44.305848 54.9092435,26.5344305 55.1294118,21.4814815 Z" id="kurt_Did" fill="#2F383B" />
            <path d="M120.352941,21.4814815 C120.733893,13.8233491 107.439179,5.64243259 93.1764706,5.92592593 C78.9208736,6.22450879 77.0653236,15.3786982 76.8705882,18.8888889 C76.521758,27.0220633 85.2379924,45.3037598 101.329412,44.8148148 C117.420803,44.305848 120.132773,26.5344305 120.352941,21.4814815 Z" id="kurt_Courtney" fill="#2F383B" transform="translate(98.611765, 25.370370) scale(-1, 1) translate(-98.611765, -25.370370) " />
        </g>
    </g>
</g>
    </g>
</g>
        </g>
    </g>
</svg>