<svg xmlns="http://www.w3.org/2000/svg" xmlns:xlink="http://www.w3.org/1999/xlink" width="264px" height="280px" viewBox="0 0 264 280" version="1.1">
    <title id="circle_Title">Avataaar/Circle</title>
    <desc>Created with python_avatars</desc>
    <defs>
        <circle id="circle_path-1" cx="120" cy="120" r="120" />
        <path d="M-3.19744231e-14,160 L-3.19744231e-14,-1.42108547e-14 L264,-1.42108547e-14 L264,160 L252,160 C252,226.27417 198.27417,280 132,280 C65.72583,280 12,226.27417 12,160 L12,160 L-3.19744231e-14,160 Z" id="circle_path-3" />
        <path d="M100,0 C130.927946,-5.68137151e-15 156,25.072054 156,56 L156.000809,62.1660527 C161.675838,63.1185422 166,68.05429 166,74 L166,88 C166,94.0524166 161.519235,99.0582945 155.693975,99.8813638 C153.627928,119.686472 141.237929,136.421678 124.001014,144.610469 L124,163 L128,163 C167.764502,163 200,195.235498 200,235 L200,244 L0,244 L0,235 C-4.86974701e-15,195.235498 32.235498,163 72,163 L76,163 L75.9999836,144.610943 C58.7625487,136.422324 46.3721119,119.686854 44.3051107,99.8809698 C38.480765,99.0582945 34,94.0524166 34,88 L34,74 C34,68.053942 38.3246685,63.1179645 44.0001873,62.1658855 L44,56 C44,25.072054 69.072054,5.68137151e-15 100,0 Z" id="circle_path-5" />
        <path d="M83,36.3476251 C83,52.6289957 105.161905,65.8276544 132.5,65.8276544 C159.838095,65.8276544 182,52.6289957 182,36.3476251 C182,34.9853134 181.844841,33.6445843 181.544472,32.3313638 C210.784239,41.4879251 232,68.792221 232,101.051724 L232,110 L32,110 L32,101.051724 C32,68.3970853 53.7386736,40.8197864 83.5337207,32.0021267 C83.1821692,33.4207025 83,34.871494 83,36.3476251 Z" id="circle_path-7" />
        <rect id="circle_path-9" x="0" y="0" width="264" height="280" />
        <path d="M74,0 C114.869071,0 148,33.1309285 148,74 L148,84.1482318 L148,197.608051 C135.525121,187.236892 119.490913,181 102,181 L102,181 L98,181 L98,162.610951 C115.530782,154.282984 128.048193,137.114792 129.791419,116.867187 C135.569129,116.002364 140,111.018625 140,105 L140,105 L140,92 C140,87.3536213 137.359271,83.3240177 133.496777,81.3301515 C132.723933,81.0500337 131.951808,80.748163 131.180891,80.4262497 C130.794819,80.3202581 130.400778,80.2331546 130,80.1659169 L130,80.1659169 L130.000458,79.9172528 C117.224481,74.2339715 104.877985,63.0706967 96.1104311,47.8848473 C93.1752556,42.8009742 90.8310687,37.5951441 89.0661426,32.3970356 C80.4313947,42.9409152 67.7445474,53.6023901 52.3415164,62.4953343 C42.777598,68.0170651 33.1467898,72.2910056 24,75.2659587 L24.0003852,137.246608 C29.6019576,148.318362 38.7728825,157.277529 50,162.610951 L50,162.610951 L50,181 L46,181 C38.3273639,181 30.9350359,182.200142 24.0004995,184.422941 L24,230 C24,244.105888 13.5691766,255.775526 0,257.716445 L0,74 C0,33.1309285 33.1309285,0 74,0 Z" id="circle_path-11" />
    </defs>
    <g id="circle_Avataaar/Circle" stroke="none" stroke-width="1" fill="none" fill-rule="evenodd">
        <g id="circle_Circle" transform="translate(12.000000, 40.000000)">
            <mask id="circle_mask-2" fill="white">
                <use xlink:href="#circle_path-1" />
            </mask>
            <use id="circle_Background-Color" fill="rgba(0,0,0,0.0" xlink:href="#circle_path-1" />
            <g id="circle_Fabric-Color" mask="url(#circle_mask-2)" fill="">
                <rect id="circle_ðŸ–Color" x="0" y="0" width="240" height="240" />
            </g>
        </g>
        <mask id="circle_mask-4" fill="white">
            <use xlink:href="#circle_path-3" />
        </mask>
        <g id="circle_Mask" />
        <g id="circle_Avataaar" mask="url(#circle_mask-4)">
            <g id="circle_Body" transform="translate(32.000000, 36.000000)">
                <mask id="circle_mask-6" fill="white">
                    <use xlink:href="#circle_path-5" />
                </mask>
                <use fill="#D0C6AC" xlink:href="#circle_path-5" />
                <g id="circle_Skin-Color" mask="url(#circle_mask-6)" fill="#614335">
                    <g transform="translate(-32.000000, 0.000000)" id="circle_Color">
                        <rect x="0" y="0" width="264" height="244" />
                    </g>
                </g>
                <path d="M44,94 C44,124.927946 69.072054,150 100,150 C130.927946,150 156,124.927946 156,94 L156,94 L156,102 C156,132.927946 130.927946,158 100,158 C69.072054,158 44,132.927946 44,102 Z" id="circle_Neck-Shadow" fill-opacity="0.100000001" fill="#000000" mask="url(#circle_mask-6)" />
            </g>
            <g id="circle_Clothing" transform="translate(0.000000, 170.000000)">
                
            <defs>
        <path d="M99,32.5 C99,44.3741221 113.998461,54 132.5,54 C151.001539,54 166,44.3741221 166,32.5 C166,31.4019929 165.871751,30.3232102 165.624342,29.2694852 C202.75978,32.1370674 232,63.1796858 232,101.051724 L232,110 L32,110 L32,101.051724 C32,62.8342194 61.7761079,31.571298 99.3946469,29.196636 C99.1341902,30.2738104 99,31.3768477 99,32.5 Z" id="graphic_shirt_path-1" />
    </defs>
    <g id="graphic_shirt_Clothing/Graphic-Shirt" stroke="none" stroke-width="1" fill="none" fill-rule="evenodd">
        <mask id="graphic_shirt_mask-2" fill="white">
            <use xlink:href="#graphic_shirt_path-1" />
        </mask>
        <use id="graphic_shirt_Clothes" fill="#E6E6E6" xlink:href="#graphic_shirt_path-1" />
        <g id="graphic_shirt_Fabric-Color" mask="url(#graphic_shirt_mask-2)" fill="#FFFFFF">
            <rect id="graphic_shirt_ðŸ–Color" x="0" y="0" width="264" height="110" />
        </g>
        <g id="graphic_shirt_Graphic" fill="#FFFFFF" transform="translate(77.000000, 58.000000)">
        <g id="cumbia_Clothing/Graphic/Cumbia" stroke="none" stroke-width="1" fill="none" fill-rule="evenodd">
        <g id="cumbia_Cumbia" transform="translate(0.000000, 6.000000)" fill="#FFFFFF">
            <path d="M10.271566,24.1315073 C13.5453197,23.5731503 16.0029461,20.5783262 15.4519585,17.3443595 C14.9878717,14.6197774 13.7065483,17.0011951 12.4758861,18.1969085 C11.1405733,19.4948562 10.0263951,20.7706412 7.9400381,20.2508902 C4.33273358,19.3518711 3.08247252,14.8503409 4.09976568,11.7711556 C4.65593031,10.0878629 5.87660814,8.76060323 7.57838317,8.07498941 C9.42992328,7.32896437 10.7818767,8.16542752 12.3264908,9.1691833 C12.6145575,9.35649386 14.0556303,10.5386236 14.3204002,10.4181586 C14.7822683,10.2079704 14.435405,7.98955578 14.3651448,7.69393398 C14.0267867,6.27266155 13.0993526,5.11877135 11.7481388,4.45603516 C8.41484886,2.82099993 4.23436935,4.94468693 2.10881463,7.51091298 C-2.77648522,13.4083357 1.18803674,25.6753895 10.271566,24.1315073" id="cumbia_Fill-1" />
            <path d="M20.283037,5.0382162 C20.2819296,5.04100097 20.2826679,5.03926048 20.283037,5.0382162 M18.6886879,17.9031695 C19.1918363,21.3771733 21.6658646,24.4038731 25.6412168,24.2597611 C29.9192703,24.1048581 31.6970859,20.1616201 32.6494871,16.7739442 C33.6055798,13.3751292 34.7008413,9.09110464 33.3132148,5.68149867 C32.8931247,4.64939232 32.6284457,3.30051808 31.5966777,4.15126612 C30.3445285,5.18372056 30.188379,8.18953451 30.0824336,9.59271181 C29.8819863,12.2396382 29.3005786,19.5639383 25.9741881,20.5368682 C21.7954354,21.7593834 21.9264829,14.6895419 21.9733647,12.559887 C22.0147092,10.6641531 22.2203245,8.82550695 21.6322721,6.97572174 C21.3192348,5.99095653 21.0416357,4.53521664 20.1036312,5.34175641 C18.8141981,6.45044401 18.6506656,9.16977447 18.5602244,10.6690264 C18.4155185,13.0736776 18.3464879,15.5110498 18.6886879,17.9031695" id="cumbia_Fill-5" />
            <path d="M37.7827156,20.7457507 C37.9712859,21.1583285 38.4071734,22.1476129 38.8028084,22.4248624 C39.7471104,23.085889 38.7480505,23.1327334 39.6027816,22.3662202 C40.4161723,21.6371824 40.7331154,19.6485506 40.8571366,18.6953537 C41.2422552,15.7354812 40.7367418,12.5875371 40.7704668,9.60302793 C41.7938233,11.8206768 42.3544573,14.1868398 43.1555184,16.4766638 C43.7096249,18.0589637 44.5516638,21.2808179 46.809793,21.2301566 C49.2532288,21.1753312 49.3790632,18.0849884 49.7043469,16.4110816 C50.1652562,14.0411017 50.674396,11.6898595 51.3797214,9.37401083 C51.4718308,13.2836103 49.952752,20.3692605 53.4880823,23.2941176 C53.5018625,23.3072722 54.9204913,19.144366 54.954579,18.8882832 C55.1783249,17.1970267 55.0383477,15.4440049 55.0622816,13.7402565 C55.1130505,10.1433001 55.779574,5.73680294 54.762745,2.23422934 C54.4338349,1.10024771 53.7872564,-0.0302639607 52.3530342,0.000618647874 C50.5278914,0.0401761465 50.1202895,1.98612748 49.6550286,3.29915884 C48.3742011,6.91277103 47.2097796,10.5229133 46.2981148,14.2395832 C45.7498104,12.5594305 40.9593998,-2.18198369 37.5092887,3.33767535 C36.9540943,4.22633108 37.1937961,5.55601823 37.1709501,6.53385184 C37.1274339,8.41283302 37.0161049,10.2897322 36.9754898,12.1690604 C36.9138418,15.0116484 36.5653494,18.0756195 37.7827156,20.7457507" id="cumbia_Fill-7" />
            <path d="M62.0203329,7.70997634 C62.739914,7.57453437 67.7552707,5.98272311 67.5433251,7.57379827 C67.3203514,9.24915661 62.9098151,10.8829254 61.7267107,11.4497207 C61.7246429,10.2414163 61.4930536,9.00918877 61.0839813,7.88259125 C61.3958688,7.82517563 61.7081008,7.76739196 62.0203329,7.70997634 M67.7366608,7.0706755 C67.7370055,7.06957135 67.7101246,7.03497476 67.7366608,7.0706755 M67.8590034,15.4110304 C70.1314738,16.6318484 69.1461853,18.8279958 67.4326998,20.0186339 C66.7844565,20.4691256 60.9030521,21.8209691 60.9195942,21.6818466 C60.9202835,21.6855271 60.9192496,21.6869993 60.9164926,21.6866312 C61.0960433,19.9925024 60.6587116,16.6686533 61.9159109,15.6664563 C63.2203241,14.6267183 66.4163948,14.8593252 67.8590034,15.4110304 M67.9210363,7.41553727 C67.9299966,7.4383563 67.9220702,7.41811361 67.9210363,7.41553727 M57.9444294,24.2596607 C58.1677477,24.8109979 58.8039291,26.1720425 59.5100698,26.2047988 C60.3706034,26.2449162 60.3040904,25.1617484 60.4388396,24.49558 C63.8802848,26.2162084 68.9369967,24.4481017 71.346284,21.4654339 C74.1325933,18.014976 72.6941202,13.1953763 68.7674402,11.7202366 C70.879659,10.0319965 72.7933728,6.32096 70.0222271,4.23081061 C67.8262639,2.57459081 64.19424,2.48294665 61.8993688,3.92827446 C59.1637197,5.65111111 58.0495406,9.7614806 57.8096802,12.9340616 C57.553967,16.3156944 56.6513889,21.0591079 57.9444294,24.2596607" id="cumbia_Fill-9" />
            <path d="M76.0506048,15.8714133 C76.1237655,17.940757 75.9002189,20.1580872 76.3823293,22.1766928 C76.5533503,22.8940747 76.8153532,23.6882686 77.1423879,24.3390566 C77.7529985,25.5536025 77.4525393,25.3897603 78.1744543,24.6980999 C80.3464523,22.6164239 79.3828568,16.1236949 79.3306438,13.4500732 C79.2896863,11.3715683 79.3947376,9.17044617 78.8182061,7.16734396 C78.656252,6.60499548 77.6954704,3.81897451 77.1633356,3.88345432 C76.3469995,3.98140725 75.7873513,7.81319908 75.7401407,8.57603396 C75.592256,10.9723573 75.9658759,13.4712141 76.0506048,15.8714133" id="cumbia_Fill-11" />
            <path d="M94.7477626,16.430477 C93.1655372,16.2926323 91.1264105,16.5045376 89.6311966,16.9871715 C90.3280165,15.0708102 91.1056588,12.9329761 91.8694667,11.1973368 C92.343479,10.1066267 92.8411555,9.02761048 93.3628603,7.95745314 C94.6410916,10.6431228 95.3546586,13.7848497 96.19492,16.6232471 C95.7158108,16.535721 95.233425,16.4715824 94.7477626,16.430477 M100.188346,17.1547822 C99.4605809,14.375208 98.6093975,11.6225649 97.7622188,8.8759458 C97.2244951,7.13215631 96.6321618,4.96384744 95.1624324,3.70729846 C90.9986238,0.146013273 88.6354794,9.55701945 87.6142778,11.9390054 C86.6294827,14.2352371 85.3978516,16.5725741 84.764743,18.9878696 C84.4541957,20.1714211 84.3555342,21.4261983 84.5197274,22.6402245 C84.725424,24.1589974 84.5157227,24.3811791 85.8136135,23.5544648 C86.8140635,22.9176858 87.2280051,21.7617741 88.0409617,20.9917569 C88.1847673,20.8556839 88.2586724,20.3241488 88.4301469,20.2373314 C88.6194606,20.1413008 89.9348266,20.4896334 90.2461019,20.5112492 C92.4155638,20.6622052 94.958192,20.2933198 96.9605482,19.4573923 C97.1658807,20.2989895 98.5882817,25.4187356 99.9378698,25.2302178 C100.5353,25.1465897 100.903369,22.1660952 100.929946,21.6933833 C101.017322,20.1398833 100.57826,18.6444979 100.188346,17.1547822" id="cumbia_Fill-13" />
            <path d="M109.301672,3.43213272 C109.038492,2.22890734 108.487555,0.14016215 107.459721,1.31990649 C106.069159,2.9162614 106.369359,6.49285063 106.348516,8.49692176 C106.333584,9.94847693 104.797121,20.5594163 106.905363,20.3801066 C106.815459,20.3801066 107.750277,18.7118855 107.885912,18.4578633 C108.700028,16.9340861 109.016405,15.4885791 109.213945,13.735684 C109.578851,10.499214 109.997264,6.62484253 109.301672,3.43213272" id="cumbia_Fill-15" />
            <path d="M108.164017,24.3012978 C105.924782,21.573307 101.852706,24.9591601 103.122505,27.675428 C104.85153,31.3753862 110.454236,27.1147969 108.164017,24.3012978" id="cumbia_Fill-17" />
            <path d="M94.8984918,28.5446042 C92.0066895,27.8070876 88.6012921,28.3048186 85.6491092,28.3933947 C82.5678984,28.4853064 79.489563,28.6568994 76.4083523,28.7499229 C69.8412367,28.9481999 63.2849033,28.8418345 56.7170689,28.7877252 C44.2631983,28.6854365 31.7816533,29.4770624 19.334252,28.9556122 C16.661689,28.8440582 13.7889353,28.2429265 11.1361398,28.7473286 C10.409056,28.8859372 8.12717022,29.2902742 7.80729649,30.013337 C7.47088995,30.7730903 9.20934979,31.5680517 10.1384213,31.968312 C12.560117,33.0119536 15.4670145,32.8262773 18.0389431,32.9319015 C20.9688428,33.0527208 23.9249793,32.9900875 26.856676,32.9181889 C38.9324486,32.6213292 50.9456841,31.5750933 63.0376301,31.7529868 C70.0126746,31.8560167 76.974421,31.7911597 83.9494655,31.7544692 C87.2686047,31.7366799 90.9489497,32.2799961 94.2217253,31.6922065 C94.773777,31.5928827 97.9847343,30.8375767 98.0294118,29.8561978 C98.0497872,29.4033107 95.2233973,28.6276211 94.8984918,28.5446042" id="cumbia_Fill-19" />
        </g>
    </g>
</g>
    </g>
</g>
            <g id="circle_Face" transform="translate(76.000000, 82.000000)" fill="#000000">
                <g id="circle_Mouth" transform="translate(2.000000, 52.000000)">    
                    
                <g id="disbelief_Mouth/Disbelief" stroke="none" stroke-width="1" fill="none" fill-rule="evenodd" fill-opacity="0.699999988">
        <path d="M40,15 C40,22.7319865 46.2680135,29 54,29 L54,29 C61.7319865,29 68,22.7319865 68,15" id="disbelief_Mouth" fill="#000000" transform="translate(54.000000, 22.000000) scale(1, -1) translate(-54.000000, -22.000000) " />
    </g>
</g>
                <g id="circle_Nose" transform="translate(28.000000, 40.000000)" fill-opacity="0.16">
                    
                <g id="default_Nose/Default" stroke="none" stroke-width="1" fill="none" fill-rule="evenodd" fill-opacity="0.16">
        <path d="M16,8 C16,12.418278 21.372583,16 28,16 L28,16 C34.627417,16 40,12.418278 40,8" id="default_Nose" fill="#000000" />
    </g>
</g>
                <g id="circle_Eyes" transform="translate(0.000000, 8.000000)">
                    
                <g id="happy_Eyes/Happy-ðŸ˜" stroke="none" stroke-width="1" fill="none" fill-rule="evenodd" fill-opacity="0.599999964">
        <path d="M16.1601674,22.4473116 C18.006676,18.648508 22.1644225,16 26.9975803,16 C31.8136766,16 35.9591217,18.629842 37.8153518,22.4071242 C38.3667605,23.5291977 37.5821037,24.4474817 36.790607,23.7670228 C34.3395063,21.6597833 30.8587163,20.3437884 26.9975803,20.3437884 C23.2572061,20.3437884 19.8737584,21.5787519 17.4375392,23.5716412 C16.5467928,24.3002944 15.6201012,23.5583844 16.1601674,22.4473116 Z" id="happy_Squint" fill="#000000" />
        <path d="M74.1601674,22.4473116 C76.006676,18.648508 80.1644225,16 84.9975803,16 C89.8136766,16 93.9591217,18.629842 95.8153518,22.4071242 C96.3667605,23.5291977 95.5821037,24.4474817 94.790607,23.7670228 C92.3395063,21.6597833 88.8587163,20.3437884 84.9975803,20.3437884 C81.2572061,20.3437884 77.8737584,21.5787519 75.4375392,23.5716412 C74.5467928,24.3002944 73.6201012,23.5583844 74.1601674,22.4473116 Z" id="happy_Squint" fill="#000000" />
    </g>
</g>
                <g id="circle_Eyebrow" fill-opacity="0.599999964">
                    
                <g id="sad_concerned_natural_Eyebrow/Natural/Sad-Concerned-Natural" stroke="none" stroke-width="1" fill="none" fill-rule="evenodd" fill-opacity="0.599999964">
        <path d="M22.7663531,5.57844898 L23.6772984,5.17582144 C28.9190996,3.09473425 36.8645466,3.96712704 41.7227321,6.29911638 C42.2897848,6.57148957 41.9021563,7.4519421 41.3211012,7.40711006 C26.4021788,6.25602197 16.3582869,15.5525942 12.9460869,21.8470939 C12.8449215,22.0337142 12.5391523,22.05489 12.4635344,21.8808353 C10.156283,16.5620676 16.9134476,7.89614725 22.7663531,5.57844898 Z" id="sad_concerned_natural_Eyebrow" fill="#000000" transform="translate(27.000000, 13.000000) scale(-1, -1) translate(-27.000000, -13.000000) " />
        <path d="M80.7663531,5.57844898 L81.6772984,5.17582144 C86.9190996,3.09473425 94.8645466,3.96712704 99.7227321,6.29911638 C100.289785,6.57148957 99.9021563,7.4519421 99.3211012,7.40711006 C84.4021788,6.25602197 74.3582869,15.5525942 70.9460869,21.8470939 C70.8449215,22.0337142 70.5391523,22.05489 70.4635344,21.8808353 C68.156283,16.5620676 74.9134476,7.89614725 80.7663531,5.57844898 Z" id="sad_concerned_natural_Eyebrow" fill="#000000" transform="translate(85.000000, 13.000000) scale(1, -1) translate(-85.000000, -13.000000) " />
    </g>
</g>
            </g>
            <g id="circle_Top">
                
            <defs>
        <path d="M88.4018873,0.357013447 C93.5645254,-0.846479064 97.6906135,2.53871192 102.06293,4.16059373 C108.488235,6.54355423 112.508874,5.8486563 118.817859,3.85507435 C123.056462,2.51559399 125.824219,1.61762086 129.78996,3.93032097 C132.352254,5.42437419 134.324254,9.87616325 137.446405,10.3027118 C141.249081,10.823092 146.585112,7.26247669 150.804147,7.39438491 C156.999935,7.58906085 160.136024,11.3258109 162.738984,15.4450948 L163.055221,15.951194 C164.553244,18.373591 165.399552,17.9706136 167.213378,19.672275 C168.829352,21.1885396 169.557166,23.1372455 171.278589,24.7101717 C177.590835,30.4783232 185.862036,34.9554966 192.648801,40.3918378 C205.315147,50.5387982 208.309564,64.2703984 209.129238,78.2191259 C209.78639,89.3991407 208.763972,102.531035 215.871976,112.532035 C219.523001,117.668749 223.561578,121.532617 225.582497,127.51291 C226.321725,129.699141 227.944765,133.306899 226.413041,135.494944 C224.604107,138.079166 220.053506,138.105004 218.096726,135.636824 C216.20028,141.510593 222.669068,149.991702 226.135287,154.862787 C230.969077,161.653567 237.232404,168.863643 238.377664,176.915484 C238.833159,180.113465 239.08591,193.151981 230.835907,188.347077 C230.56685,192.711833 229.869476,193.331485 231.17617,197.553001 C232.061613,200.411919 233.255792,206.168285 227.311529,205.648358 C229.568892,211.82266 233.19274,220.412559 229.795009,226.807615 C224.207315,237.325369 217.902135,224.075166 216.224196,219.322843 C216.32584,222.602417 212.799287,228.512903 208.385661,223.95323 C208.733533,229.366 210.898493,237.730613 207.724704,242.806586 C201.565196,252.659813 194.748535,240.185647 194.5197,234.910224 C193.409228,238.475373 194.245208,247.046687 186.927937,245.060811 C180.603189,243.344644 182.888817,234.970512 184.111805,231.19141 C182.101213,234.747946 179.630235,240.043766 179.240509,244.059941 C178.905139,247.513126 182.182202,255.630241 173.685972,254.109896 C167.166089,252.943574 166.932906,243.218176 167.044334,238.930932 C167.135107,235.453723 170.498594,227.504326 168.22112,224.674872 C155.493353,230.015568 168.828809,247.982737 157.268587,251.977153 C153.73062,253.199684 150.944383,251.382887 149.488756,248.789145 C149.308297,248.305028 149.128382,247.821818 148.948467,247.337701 C149.350151,245.644199 148.591355,244.77569 146.671536,244.732627 C145.455615,243.254893 144.65714,243.298862 143.870623,241.081807 C141.557817,234.561189 146.062216,225.891963 149.2996,220.076669 C145.947527,223.133676 143.247171,227.332528 139.609734,229.99245 C137.149083,231.79157 133.524148,232.304244 131.224932,229.817026 C128.707208,227.093643 131.086326,224.482676 132.444114,221.999991 C135.443967,216.514694 140.170678,213.319433 145.111547,208.917959 C149.430596,205.07041 153.280561,200.738743 157.112045,196.551224 C159.6692,193.757249 162.112943,190.752253 164.163084,187.578534 C158.297445,185.962645 152.132367,185.070649 145.769448,185.004027 L145,185 L140.999825,184.999552 L141.001014,166.610469 C152.098298,161.338451 161.186582,152.524026 166.80455,141.628513 C167.218972,128.654375 168.700101,107.042699 167.747424,95.0917937 C166.476604,79.1499376 166.355804,70.2471725 155.554378,56.4493915 C146.671683,45.1030183 122.400941,48.8499369 113.317676,38.4387068 C109.194306,43.2191332 103.17612,45.7598396 96.5828586,47.4293172 C90.0678681,49.0779432 83.5224388,49.3467459 79.1631677,53.9925443 C71.3610508,62.3068417 67.9263583,67.8722634 65.5369124,78.2476834 C62.8887367,89.7481762 62.1957105,101.145772 63.000708,112.826222 C63.6115721,121.689531 63.4466856,131.018992 66.2134811,139.62917 C71.721767,151.445375 81.2311772,161.020188 92.9999836,166.610943 L92.9998254,184.999552 L89,185 C87.9000018,185 86.8057651,185.024668 85.7178128,185.07348 C86.3887794,188.511296 86.8096772,192.004115 86.5299011,195.413459 C86.1200644,200.404213 85.1851583,205.067237 85.6835937,210.116466 C86.7201436,220.618354 91.0924599,230.599863 94.7010885,240.623528 C96.435013,245.438857 104.057505,251.106306 100.930715,255.083614 C97.8039252,259.060923 87.115848,249.613685 84.725315,245.034067 C82.2918416,240.371497 80.078506,235.625521 77.5455629,230.999667 C79.1724081,238.077382 79.9846038,241.070655 81.6679782,248.139757 C82.5468986,251.830921 86.9474795,260.885627 80.0666799,262.354749 C71.124195,264.264472 70.7774101,249.766172 69.8925107,245.444931 C68.4211208,238.262053 66.7870774,235.472308 64.3834993,228.474826 C63.9046317,233.818695 64.7346326,239.386945 63.5785017,244.677325 C62.8816706,247.867147 59.2224919,250.505765 57.0243756,253.211017 C49.4918595,262.485842 47.6992316,246.926565 45.7886533,242.659719 C42.4838692,245.061265 35.2888976,249.820386 30.8812505,246.798736 C27.6264731,244.567629 29.6941373,240.525616 30.4502154,237.765516 C31.668311,233.320073 32.3923196,228.923586 29.1359115,224.896532 C26.0490909,227.900051 19.2177543,229.649308 15.258536,226.778604 C10.2513533,223.149088 14.6426939,217.842389 16.8870119,214.076432 C20.5407551,207.947459 20.7005588,201.806248 21.5686081,195.131511 C21.691994,194.184582 21.8735397,193.288422 21.996382,192.265793 C22.3024007,189.72146 23.6232272,184.435613 22.6269,182.014575 C21.5278419,179.343321 20.328227,179.316576 17.8920358,179.924895 C14.443211,180.786605 11.6020751,182.715366 11.0188459,185.502664 C10.1763434,189.527451 14.5872518,191.114429 14.9476254,194.622463 C15.7238148,202.173415 6.24484612,198.627758 3.42490864,195.240301 C-0.684329469,190.304395 -0.815325022,184.841763 1.54639979,179.227278 C2.81124068,176.221946 4.80389503,173.548878 6.77100254,170.849066 C9.32731826,167.341033 10.0942673,166.919017 9.65073052,163.202016 C8.88486854,156.786109 7.14822625,151.019317 7.77222166,144.475128 C8.40763163,137.818976 10.4144183,131.887186 13.4023127,125.704271 C15.6553275,121.042608 19.8145722,116.686464 21.5539323,111.946834 C23.0198867,107.95151 22.6997357,103.444873 23.4503783,99.3303337 C24.4238764,93.9946236 26.0170215,88.7645307 26.9622549,83.4183949 C28.8027153,73.0171372 33.1206766,63.0274694 37.9642508,53.3460408 C40.5678554,48.1435988 42.992632,42.8881215 46.5441878,38.0655389 C48.3677981,35.5901066 50.3582782,33.0471337 52.7922952,30.954734 C55.0219374,29.0377585 59.0317058,28.154744 60.95696,26.3007763 C64.5237352,22.8666297 61.397779,16.8074642 65.9103313,12.9118655 C68.7020041,10.5017074 71.6083661,9.9681817 75.2887432,9.38026087 C78.8865008,8.80593884 77.6972133,9.66084915 80.1584078,7.07481345 C82.5435053,4.56991717 84.3524397,1.30167574 88.4018873,0.357013447 Z" id="dreads_path-1" />
    </defs>
    <g id="dreads_Top/Long-Hair/Dreads" stroke="none" stroke-width="1" fill="none" fill-rule="evenodd">
        <g id="dreads_template-for-hairstyles" transform="translate(63.000000, 87.000000)" />
        <g id="dreads_Facial-Hair" transform="translate(49.000000, 72.000000)"><defs>
        <path d="M84.5044337,93.8410391 C72.9930718,94.2191416 67.8580835,99.7213834 63.9909333,94.1296214 C61.0884259,89.9323547 62.3028943,82.8739117 65.014944,78.9027173 C68.8738581,73.2512381 74.1088724,75.9847769 79.9622738,75.3400279 C81.5538829,75.1648137 83.1526985,74.7228407 84.5044337,74 C85.856169,74.7228407 87.4546414,75.1648137 89.0462504,75.3400279 C94.899995,75.9847769 100.134666,73.2512381 103.993923,78.9027173 C106.70563,82.8739117 107.920098,89.9323547 105.017591,94.1296214 C101.150441,99.7213834 96.0157956,93.4629366 84.5044337,93.8410391 Z M140.39109,26 C136.966521,40.0748212 135.393023,54.4337754 132.909944,68.6711471 C132.392536,71.6390145 131.826063,74.5963095 131.224594,77.5496398 C131.098329,78.1697764 130.973781,80.4725746 130.362704,80.7643064 C128.511632,81.6484223 124.739149,76.9466834 123.730409,75.8851496 C121.196893,73.219256 118.684993,70.5292442 115.599415,68.437233 C109.364783,64.2102603 102.065485,61.7108818 94.4700836,61.117837 C91.2922091,60.8693859 86.9951134,61.3025234 84.000116,63.1104016 C81.0051185,61.3025234 76.7080229,60.8693859 73.5298053,61.117837 C65.9344039,61.7108818 58.6351055,64.2102603 52.4004739,68.437233 C49.3148957,70.5292442 46.8033387,73.219256 44.2694796,75.8851496 C43.2607395,76.9466834 39.4882573,81.6484223 37.6371849,80.7643064 C37.0261079,80.4725746 36.9015594,78.1697764 36.7752954,77.5496398 C36.1738255,74.5963095 35.6073527,71.6390145 35.0899445,68.6711471 C32.6072086,54.4337754 31.0337113,40.0748212 27.6091415,26 C26.6127533,26 25.7385119,44.7478165 25.6273446,46.4945731 C25.174784,53.5889755 24.6463963,60.5254529 25.3216346,67.6261326 C26.485803,79.8749043 27.6993791,95.2339402 37.032627,104.58753 C45.4659003,113.039493 57.7103052,114.806417 68.2713185,120.141327 C69.631059,120.828202 71.4347824,121.676306 73.3798667,122.37111 C75.4289129,123.934171 79.4926946,125 84.1740722,125 C89.0846465,125 93.3155222,123.827456 95.2540874,122.137856 C96.9548781,121.49261 98.5180822,120.752874 99.7285704,120.141327 C110.288776,114.805245 122.533989,113.039493 130.967262,104.58753 C140.30051,95.2339402 141.514086,79.8749043 142.678597,67.6261326 C143.353493,60.5254529 142.825105,53.5889755 142.372887,46.4945731 C142.261377,44.7478165 141.387136,26 140.39109,26 Z" id="beard_medium_path-1" />
    </defs>
    <g id="beard_medium_Facial-Hair/Beard-Medium" stroke="none" stroke-width="1" fill="none" fill-rule="evenodd">
        <mask id="beard_medium_mask-2" fill="white">
            <use xlink:href="#beard_medium_path-1" />
        </mask>
        <use id="beard_medium_Beardness" fill="#252E32" xlink:href="#beard_medium_path-1" />
        <g id="beard_medium_Facial-Hair-Color" mask="url(#beard_medium_mask-2)" fill="#E8E1E1">
            <rect id="beard_medium_Color" x="0" y="0" width="168" height="152" />
        </g>
    </g>
</g>
        <g id="dreads_Hair" transform="translate(15.000000, 14.000000)">
            <mask id="dreads_mask-2" fill="white">
                <use xlink:href="#dreads_path-1" />
            </mask>
            <use id="dreads_No-Woman" fill="#8D5A5A" xlink:href="#dreads_path-1" />
            <g id="dreads_Hair-Color" mask="url(#dreads_mask-2)" fill="#4A312C">
                <g transform="translate(-15.000000, -14.000000)" id="dreads_Color">
                    <rect x="0" y="0" width="264" height="280" />
                </g>
            </g>
            <path d="M166.874747,151.055581 C167.944997,159.099715 170.876362,166.366 169.515856,174.635875 C168.770911,179.167913 166.790066,183.511892 164.162906,187.57881 C158.297445,185.962645 152.132367,185.070649 145.769448,185.004027 L145,185 L140.999097,184.999749 L141.000016,166.610943 C151.902116,161.431916 160.86535,152.83403 166.504204,142.202798 C166.424645,145.19737 166.491855,148.177039 166.874747,151.055581 Z M92.9989864,166.610469 L92.9990974,184.999749 L89,185 C87.8999708,185 86.8057034,185.024669 85.7177207,185.073484 C85.3570328,183.222692 84.9233743,181.387328 84.4877837,179.589912 C81.4183567,166.92083 73.916823,156.341882 68.1617154,144.509125 C67.3860145,142.914197 66.7452351,141.284203 66.2129719,139.627585 C71.7209221,151.444347 81.2302134,161.019445 92.9989864,166.610469 Z" id="dreads_Shadows" fill-opacity="0.24" fill="#000000" mask="url(#dreads_mask-2)" />
            <path d="M157.46508,233.451204 C159.694179,233.451204 159.104971,238.478297 157.110686,237.557799 C155.95836,237.025805 155.467534,233.451204 157.46508,233.451204 Z M177.94561,226.161536 C180.42148,226.656078 177.248236,235.910694 175.395817,234.451885 C174.272299,233.567034 175.534966,225.679629 177.94561,226.161536 Z M201.455507,217.282881 C204.139014,217.282881 202.64099,228.383907 200.65051,227.481458 C199.226409,226.836207 199.135636,217.282881 201.455507,217.282881 Z M157.165041,224.736253 C158.337478,224.763778 158.009718,225.987499 157.216135,225.987499 C155.980645,225.987499 156.389939,224.742571 157.165041,224.736253 Z M59.986234,211.816206 C62.8012795,211.816206 61.4391432,223.102685 59.3225594,222.200687 C57.9560747,221.618156 57.6913658,211.816206 59.986234,211.816206 Z M50.212933,208.325849 C52.5931385,208.325849 51.8011861,217.379669 49.3503191,216.625673 C47.7729369,216.139704 47.9273051,208.325849 50.212933,208.325849 Z M31.4567613,213.932223 C32.3568801,214.276959 32.371556,214.644256 31.4991582,215.035467 C30.5990394,214.691634 30.5849071,214.323435 31.4567613,213.932223 Z M202.089015,202.950811 C204.808395,202.950811 203.051098,215.231344 201.187265,214.35281 C199.853937,213.724254 199.957212,202.941341 202.089015,202.950811 Z M166.332555,200.758587 C168.488275,201.725562 160.674743,213.163653 158.926686,212.377619 C156.998715,211.509915 164.551342,199.95631 166.332555,200.758587 Z M186.706295,193.384566 L186.754925,193.385172 C190.833725,194.199633 179.303942,211.738731 178.004314,210.020016 C177.339581,209.141316 185.185848,193.988173 186.650452,193.400346 L186.706295,193.384566 Z M216.80998,189.875503 C219.046145,194.283064 220.722996,198.746577 221.791072,203.446532 C221.927503,204.049819 223.845148,209.009228 221.128485,208.290879 C219.566322,207.878008 219.325529,203.506094 218.926564,202.180847 C217.697597,198.095009 213.646519,193.018282 213.294842,188.98659 C212.955123,185.090266 215.135302,186.575246 216.80998,189.875503 Z M34.3531219,198.516092 C37.0349977,198.516092 35.9484412,208.679924 33.8084848,207.654742 C32.3963419,206.978357 31.9555228,198.516092 34.3531219,198.516092 Z M49.3093354,187.8662 C50.8731288,191.768841 49.505557,197.898275 49.5898072,202.054956 C49.6110057,203.112626 48.4113908,203.129321 47.6107416,202.798574 C46.701926,202.423155 47.082411,199.293461 47.0465367,198.598576 C46.9334783,196.41149 45.0299661,187.926664 46.7611729,186.367683 C48.7353466,184.59031 48.7782871,186.540953 49.3093354,187.8662 Z M68.1928608,188.992366 C68.6054153,190.333405 72.8244505,200.071733 71.7639844,201.353211 C70.1425747,203.310623 69.6772959,200.536495 69.1467911,199.385872 C67.9689182,196.830588 64.9087316,190.540066 65.4006444,187.850317 C65.8784249,185.241788 67.775958,187.648619 68.1928608,188.992366 Z M33.3865269,185.392722 C33.4474045,186.856043 32.0651568,185.445967 31.7770753,185.438747 C31.6863025,185.43604 33.3087993,183.451554 33.3865269,185.392722 Z M29.29952,141.371402 C32.2645853,141.329473 34.0501471,179.106894 32.1210881,179.161518 C30.6611128,179.198041 27.2171799,141.400766 29.29952,141.371402 Z M58.6844317,170.628746 C58.6317074,173.476424 56.26346,174.943806 56.230847,171.730185 C56.215084,170.119764 58.7137834,168.720066 58.6844317,170.628746 Z M181.434114,170.746831 C182.308686,171.080286 182.322818,171.437656 181.476511,171.818489 C180.601939,171.485034 180.587263,171.127665 181.434114,170.746831 Z M208.425286,157.447168 C210.967469,157.447168 209.736329,170.785817 208.025233,170.015125 C206.370123,169.269251 206.274459,157.447168 208.425286,157.447168 Z M57.7950752,165.998415 C57.7863784,167.012316 56.722651,166.95095 55.9633116,166.68563 C55.0256879,166.358041 55.5996767,164.201639 55.5502136,163.49457 C55.4197616,161.635525 54.5272525,156.156756 55.8904759,154.62169 C58.6158357,151.553363 57.8059462,164.569838 57.7950752,165.998415 Z M187.023004,155.587221 C189.670093,156.113348 186.238118,166.132789 184.321017,164.602687 C183.16543,163.680835 184.490605,155.085459 187.023004,155.587221 Z M188.023082,96.7451491 C189.152035,105.213731 189.651014,113.824449 190.242397,122.33319 C190.352194,123.795609 191.311016,133.35074 189.717871,134.079016 C186.975661,135.332969 188.156795,129.428696 188.167666,128.666127 C188.274745,121.229044 187.19906,113.85423 186.381017,106.456855 C186.225562,105.052193 183.755671,94.2318284 185.564605,93.3352452 C188.272028,91.9937546 187.86817,95.5809897 188.023082,96.7451491 Z M52.5187808,122.883143 C53.7673152,122.883143 53.3536737,124.142962 52.5698745,124.148828 C51.3854791,124.119498 51.7148704,122.883143 52.5187808,122.883143 Z M51.7170446,104.962941 C51.7605286,106.500263 52.928074,118.098087 50.7897482,118.046818 C48.6579451,117.995659 49.4428313,109.828495 49.3607552,108.248307 C49.2357387,105.826133 47.3806025,97.711311 49.6885159,96.3093564 C52.2181977,94.7715832 51.6909542,104.01582 51.7170446,104.962941 Z M203.071753,101.471004 C204.839921,101.328868 209.831341,114.242012 208.249611,114.654432 C205.847663,115.273512 200.377376,101.688494 203.071753,101.471004 Z M37.5995831,84.0632577 C39.9509805,84.0632577 39.6063697,90.801845 37.0864719,90.1859235 C35.5754028,89.8168218 35.2318792,84.0632577 37.5995831,84.0632577 Z M43.1472813,69.9684372 L43.2540252,69.9805849 C45.7005438,70.4661025 40.6167205,83.4857354 38.693097,81.5359942 C37.4601152,80.2871211 40.8406343,70.2320447 43.0384053,69.9731332 L43.1472813,69.9684372 Z M175.668081,41.3306242 C177.959145,41.8698375 181.116083,48.6833281 182.149372,50.7413632 C182.743472,51.9235715 186.133593,57.2006425 182.541271,56.8270286 C181.563968,56.7259543 178.951667,50.0063184 178.139603,48.8435128 C177.531371,47.9735519 170.964743,40.2233192 175.668081,41.3306242 Z M70.6188876,41.486432 C68.6137316,43.3296843 61.07578,54.0047545 58.4928303,54.1116947 C53.7862308,54.3066237 62.7711125,45.0867526 63.7902688,43.9135688 C64.2452201,43.387441 66.275923,40.8222295 67.5119557,40.1914176 C68.7729918,39.5475202 72.9556091,39.3322861 70.6188876,41.486432 Z M155.04775,33.3564939 C155.922322,33.6904 155.936998,34.0473186 155.090147,34.4281522 C154.215575,34.0946972 154.201443,33.7373274 155.04775,33.3564939 Z M86.479514,19.5090896 C90.7371413,19.5090896 80.6358078,26.5179603 78.2392958,25.6588288 C74.3192131,24.2532644 84.8080977,19.5090896 86.479514,19.5090896 Z" id="dreads_Highlights" fill-opacity="0.300000012" fill="#FFFFFF" mask="url(#dreads_mask-2)" />
        </g>
        <g id="dreads_Accessory" transform="translate(62.000000, 85.000000)" />
        <g id="dreads_Accessory" transform="translate(44.000000, 33.000000)" />
    </g>
</g>
        </g>
    </g>
</svg>