<svg xmlns="http://www.w3.org/2000/svg" xmlns:xlink="http://www.w3.org/1999/xlink" width="264px" height="280px" viewBox="0 0 264 280" version="1.1">
    <title id="circle_Title">Avataaar/Circle</title>
    <desc>Created with python_avatars</desc>
    <defs>
        <circle id="circle_path-1" cx="120" cy="120" r="120" />
        <path d="M-3.19744231e-14,160 L-3.19744231e-14,-1.42108547e-14 L264,-1.42108547e-14 L264,160 L252,160 C252,226.27417 198.27417,280 132,280 C65.72583,280 12,226.27417 12,160 L12,160 L-3.19744231e-14,160 Z" id="circle_path-3" />
        <path d="M100,0 C130.927946,-5.68137151e-15 156,25.072054 156,56 L156.000809,62.1660527 C161.675838,63.1185422 166,68.05429 166,74 L166,88 C166,94.0524166 161.519235,99.0582945 155.693975,99.8813638 C153.627928,119.686472 141.237929,136.421678 124.001014,144.610469 L124,163 L128,163 C167.764502,163 200,195.235498 200,235 L200,244 L0,244 L0,235 C-4.86974701e-15,195.235498 32.235498,163 72,163 L76,163 L75.9999836,144.610943 C58.7625487,136.422324 46.3721119,119.686854 44.3051107,99.8809698 C38.480765,99.0582945 34,94.0524166 34,88 L34,74 C34,68.053942 38.3246685,63.1179645 44.0001873,62.1658855 L44,56 C44,25.072054 69.072054,5.68137151e-15 100,0 Z" id="circle_path-5" />
        <path d="M83,36.3476251 C83,52.6289957 105.161905,65.8276544 132.5,65.8276544 C159.838095,65.8276544 182,52.6289957 182,36.3476251 C182,34.9853134 181.844841,33.6445843 181.544472,32.3313638 C210.784239,41.4879251 232,68.792221 232,101.051724 L232,110 L32,110 L32,101.051724 C32,68.3970853 53.7386736,40.8197864 83.5337207,32.0021267 C83.1821692,33.4207025 83,34.871494 83,36.3476251 Z" id="circle_path-7" />
        <rect id="circle_path-9" x="0" y="0" width="264" height="280" />
        <path d="M74,0 C114.869071,0 148,33.1309285 148,74 L148,84.1482318 L148,197.608051 C135.525121,187.236892 119.490913,181 102,181 L102,181 L98,181 L98,162.610951 C115.530782,154.282984 128.048193,137.114792 129.791419,116.867187 C135.569129,116.002364 140,111.018625 140,105 L140,105 L140,92 C140,87.3536213 137.359271,83.3240177 133.496777,81.3301515 C132.723933,81.0500337 131.951808,80.748163 131.180891,80.4262497 C130.794819,80.3202581 130.400778,80.2331546 130,80.1659169 L130,80.1659169 L130.000458,79.9172528 C117.224481,74.2339715 104.877985,63.0706967 96.1104311,47.8848473 C93.1752556,42.8009742 90.8310687,37.5951441 89.0661426,32.3970356 C80.4313947,42.9409152 67.7445474,53.6023901 52.3415164,62.4953343 C42.777598,68.0170651 33.1467898,72.2910056 24,75.2659587 L24.0003852,137.246608 C29.6019576,148.318362 38.7728825,157.277529 50,162.610951 L50,162.610951 L50,181 L46,181 C38.3273639,181 30.9350359,182.200142 24.0004995,184.422941 L24,230 C24,244.105888 13.5691766,255.775526 0,257.716445 L0,74 C0,33.1309285 33.1309285,0 74,0 Z" id="circle_path-11" />
    </defs>
    <g id="circle_Avataaar/Circle" stroke="none" stroke-width="1" fill="none" fill-rule="evenodd">
        <g id="circle_Circle" transform="translate(12.000000, 40.000000)">
            <mask id="circle_mask-2" fill="white">
                <use xlink:href="#circle_path-1" />
            </mask>
            <use id="circle_Background-Color" fill="rgba(0,0,0,0.0" xlink:href="#circle_path-1" />
            <g id="circle_Fabric-Color" mask="url(#circle_mask-2)" fill="">
                <rect id="circle_ðŸ–Color" x="0" y="0" width="240" height="240" />
            </g>
        </g>
        <mask id="circle_mask-4" fill="white">
            <use xlink:href="#circle_path-3" />
        </mask>
        <g id="circle_Mask" />
        <g id="circle_Avataaar" mask="url(#circle_mask-4)">
            <g id="circle_Body" transform="translate(32.000000, 36.000000)">
                <mask id="circle_mask-6" fill="white">
                    <use xlink:href="#circle_path-5" />
                </mask>
                <use fill="#D0C6AC" xlink:href="#circle_path-5" />
                <g id="circle_Skin-Color" mask="url(#circle_mask-6)" fill="#614335">
                    <g transform="translate(-32.000000, 0.000000)" id="circle_Color">
                        <rect x="0" y="0" width="264" height="244" />
                    </g>
                </g>
                <path d="M44,94 C44,124.927946 69.072054,150 100,150 C130.927946,150 156,124.927946 156,94 L156,94 L156,102 C156,132.927946 130.927946,158 100,158 C69.072054,158 44,132.927946 44,102 Z" id="circle_Neck-Shadow" fill-opacity="0.100000001" fill="#000000" mask="url(#circle_mask-6)" />
            </g>
            <g id="circle_Clothing" transform="translate(0.000000, 170.000000)">
                
            <defs>
        <path d="M99,32.5 C99,44.3741221 113.998461,54 132.5,54 C151.001539,54 166,44.3741221 166,32.5 C166,31.4019929 165.871751,30.3232102 165.624342,29.2694852 C202.75978,32.1370674 232,63.1796858 232,101.051724 L232,110 L32,110 L32,101.051724 C32,62.8342194 61.7761079,31.571298 99.3946469,29.196636 C99.1341902,30.2738104 99,31.3768477 99,32.5 Z" id="graphic_shirt_path-1" />
    </defs>
    <g id="graphic_shirt_Clothing/Graphic-Shirt" stroke="none" stroke-width="1" fill="none" fill-rule="evenodd">
        <mask id="graphic_shirt_mask-2" fill="white">
            <use xlink:href="#graphic_shirt_path-1" />
        </mask>
        <use id="graphic_shirt_Clothes" fill="#E6E6E6" xlink:href="#graphic_shirt_path-1" />
        <g id="graphic_shirt_Fabric-Color" mask="url(#graphic_shirt_mask-2)" fill="#FFFFB1">
            <rect id="graphic_shirt_ðŸ–Color" x="0" y="0" width="264" height="110" />
        </g>
        <g id="graphic_shirt_Graphic" fill="#FFFFFF" transform="translate(77.000000, 58.000000)">
        <g id="skull_Clothing/Graphic/Skull" stroke="none" stroke-width="1" fill="none" fill-rule="evenodd">
        <path d="M65.2820354,19.9288113 C64.9841617,22.7059411 59.588846,24.2025715 57.6102394,22.3766824 C56.6984983,21.5350479 56.6825881,19.8029182 56.4815012,18.6751632 C56.1014249,16.5420247 55.8256486,14.4172496 55.7306295,12.2519776 C55.6727342,10.9274596 55.3253621,9.86749314 56.7745135,9.67029008 C57.65797,9.55055964 58.5675014,10.137767 59.2896464,10.6026028 C61.736719,12.1758255 65.6201265,16.7414286 65.2820354,19.9288113 M52.8813831,14.0756657 C53.1659984,16.901216 54.2014853,21.8145656 51.9457767,24.1810024 C49.9296045,26.2960933 45.7863308,24.19905 45.1631825,21.7084809 C44.3897714,18.6188195 47.4383369,14.9274245 49.307782,12.8387447 C49.881874,12.1969544 51.151594,10.4256483 52.1442119,11.018578 C52.526056,11.2461539 52.8367463,13.6301981 52.8813831,14.0756657 M54.3212536,25.1062722 C54.9678252,23.5832306 61.2342228,28.1246236 58.2744891,30.2850536 C57.7918806,30.6376421 54.1148633,31.7513112 53.4099544,31.2274906 C51.9250051,30.1235056 53.8408548,26.2630794 54.3212536,25.1062722 M73.3250687,17.5267194 C72.8817937,2.05112066 53.065234,-2.31331777 42.4756895,6.50447654 C38.426551,9.87585667 36.113389,14.0039155 36.0073212,19.2826191 C35.9171635,23.7544627 36.6256081,27.9718792 40.0409914,31.0465744 C41.5219631,32.379896 42.5004386,33.1955596 43.2862243,35.0170469 C44.1095756,36.9234899 44.4852324,39.3524331 46.0280771,40.8495037 C46.8788292,41.6752915 48.1176128,42.3417322 49.2940816,41.8091079 C51.455655,40.8301355 50.7644465,37.8320326 51.4194152,36.1606486 C53.4559171,41.1294616 58.6302582,42.7141291 59.5694002,36.4097935 C60.6000257,38.2286397 63.2945899,40.610483 65.268335,38.6195243 C66.0806376,37.8003393 66.2030575,36.4705391 66.3409457,35.3929652 C66.5857855,33.4807998 66.1601884,32.7294032 67.6955199,31.4180909 C71.7349355,27.9683578 73.4691441,22.7464381 73.3250687,17.5267194" id="skull_Fill-49" fill="#FFFFFF" />
    </g>
</g>
    </g>
</g>
            <g id="circle_Face" transform="translate(76.000000, 82.000000)" fill="#000000">
                <g id="circle_Mouth" transform="translate(2.000000, 52.000000)">    
                    
                <g id="default_Mouth/Default" stroke="none" stroke-width="1" fill="none" fill-rule="evenodd" fill-opacity="0.699999988">
        <path d="M40,15 C40,22.7319865 46.2680135,29 54,29 L54,29 C61.7319865,29 68,22.7319865 68,15" id="default_Mouth" fill="#000000" />
    </g>
</g>
                <g id="circle_Nose" transform="translate(28.000000, 40.000000)" fill-opacity="0.16">
                    
                <g id="default_Nose/Default" stroke="none" stroke-width="1" fill="none" fill-rule="evenodd" fill-opacity="0.16">
        <path d="M16,8 C16,12.418278 21.372583,16 28,16 L28,16 C34.627417,16 40,12.418278 40,8" id="default_Nose" fill="#000000" />
    </g>
</g>
                <g id="circle_Eyes" transform="translate(0.000000, 8.000000)">
                    
                <defs>
        <path d="M14,14.0481187 C23.6099827,14.0481187 28,18.4994466 28,11.5617716 C28,4.62409673 21.7319865,0 14,0 C6.2680135,0 0,4.62409673 0,11.5617716 C0,18.4994466 4.39001726,14.0481187 14,14.0481187 Z" id="squint_path-1" />
        <path d="M14,14.0481187 C23.6099827,14.0481187 28,18.4994466 28,11.5617716 C28,4.62409673 21.7319865,0 14,0 C6.2680135,0 0,4.62409673 0,11.5617716 C0,18.4994466 4.39001726,14.0481187 14,14.0481187 Z" id="squint_path-3" />
    </defs>
    <g id="squint_Eyes/Squint-ðŸ˜Š" stroke="none" stroke-width="1" fill="none" fill-rule="evenodd">
        <g id="squint_Eye" transform="translate(16.000000, 13.000000)">
            <mask id="squint_mask-2" fill="white">
                <use xlink:href="#squint_path-1" />
            </mask>
            <use id="squint_The-white-stuff" fill="#FFFFFF" xlink:href="#squint_path-1" />
            <circle fill-opacity="0.699999988" fill="#000000" mask="url(#squint_mask-2)" cx="14" cy="10" r="6" />
        </g>
        <g id="squint_Eye" transform="translate(68.000000, 13.000000)">
            <mask id="squint_mask-4" fill="white">
                <use xlink:href="#squint_path-3" />
            </mask>
            <use id="squint_Eyeball-Mask" fill="#FFFFFF" xlink:href="#squint_path-3" />
            <circle fill-opacity="0.699999988" fill="#000000" mask="url(#squint_mask-4)" cx="14" cy="10" r="6" />
        </g>
    </g>
</g>
                <g id="circle_Eyebrow" fill-opacity="0.599999964">
                    
                <g id="raised_excited_Eyebrow/Outline/Raised-Excited" stroke="none" stroke-width="1" fill="none" fill-rule="evenodd" fill-opacity="0.599999964">
        <g id="raised_excited_I-Browse" transform="translate(12.000000, 0.000000)" fill="#000000" fill-rule="nonzero">
            <path d="M3.97579559,17.1279169 C5.47099148,7.60476158 18.0585488,1.10867597 27.1635167,5.30104271 C28.1668367,5.76301969 29.3546946,5.32417444 29.8166716,4.32085442 C30.2786486,3.3175344 29.8398033,2.12967649 28.8364833,1.66769952 C17.3488212,-3.62177466 1.93575948,4.3324746 0.0242044059,16.507492 C-0.147121205,17.5986938 0.598585765,18.6221744 1.68978754,18.7935 C2.78098932,18.9648257 3.80446998,18.2191187 3.97579559,17.1279169 Z" id="raised_excited_Eyebrow" />
            <path d="M61.9757956,17.1279169 C63.4709915,7.60476158 76.0585488,1.10867597 85.1635167,5.30104271 C86.1668367,5.76301969 87.3546946,5.32417444 87.8166716,4.32085442 C88.2786486,3.3175344 87.8398033,2.12967649 86.8364833,1.66769952 C75.3488212,-3.62177466 59.9357595,4.3324746 58.0242044,16.507492 C57.8528788,17.5986938 58.5985858,18.6221744 59.6897875,18.7935 C60.7809893,18.9648257 61.80447,18.2191187 61.9757956,17.1279169 Z" id="raised_excited_Eyebrow" transform="translate(73.000097, 9.410436) scale(-1, 1) translate(-73.000097, -9.410436) " />
        </g>
    </g>
</g>
            </g>
            <g id="circle_Top">
                
            <defs>
        <path d="M32.4485915,77.5347425 C26.3649028,77.5347425 22.6330986,80.4596103 22.6330986,86.5347425 L22.6330986,165.988782 C22.6330986,196.446757 0,196.404852 0,176.910255 L0,103.04488 C0,68.8032255 17.2273451,21 72,21 L73.6319364,21.0142796 C127.115479,21.9547084 144,69.1456421 144,103.04488 L144,103.04488 L144,176.910255 C144,196.404852 121.366901,196.446757 121.366901,165.988782 L121.366901,165.988782 L121.366901,86.5347425 C121.366901,80.4596103 117.635097,77.5347425 111.551408,77.5347425 L111.551408,77.5347425 L72,77.5347425 L32.4485915,77.5347425 Z" id="winter_hat_2_path-1" />
    </defs>
    <g id="winter_hat_2_Facial-Hair" transform="translate(49.000000, 72.000000)" />
    <g id="winter_hat_2_Top/Accessories/Winter-Hat-2" stroke="none" stroke-width="1" fill="none" fill-rule="evenodd">
        <g id="winter_hat_2_hat" transform="translate(61.000000, 0.000000)">
            <g id="winter_hat_2_string" transform="translate(0.000000, 176.000000)" fill="#F4F4F4">
                <circle id="winter_hat_2_puff" cx="9" cy="65" r="9" />
                <rect x="8" y="0" width="2" height="58" />
            </g>
            <g id="winter_hat_2_string" transform="translate(126.000000, 168.000000)" fill="#F4F4F4">
                <circle id="winter_hat_2_puff" cx="9" cy="65" r="9" />
                <rect x="8" y="0" width="2" height="58" />
            </g>
            <circle id="winter_hat_2_puff" fill="#F4F4F4" cx="72" cy="20" r="20" />
            <mask id="winter_hat_2_mask-2" fill="white">
                <use xlink:href="#winter_hat_2_path-1" />
            </mask>
            <use id="winter_hat_2_Combined-Shape" fill="#F4F4F4" xlink:href="#winter_hat_2_path-1" />
            <g id="winter_hat_2_Fabric-Color" mask="url(#winter_hat_2_mask-2)" fill="#262E33">
                <g transform="translate(-2.000000, 19.000000)" id="winter_hat_2_ðŸ–Color">
                    <rect x="0" y="0" width="149" height="172" />
                </g>
            </g>
            <rect id="winter_hat_2_color-dark" fill-opacity="0.2" fill="#000000" mask="url(#winter_hat_2_mask-2)" x="-1" y="21" width="146" height="46" />
            <g id="winter_hat_2_light-triangles" mask="url(#winter_hat_2_mask-2)" fill="#FFFFFF" fill-opacity="0.5">
                <g transform="translate(29.000000, 32.000000)" id="winter_hat_2_Triangle">
                    <polygon transform="translate(12.500000, 9.000000) rotate(180.000000) translate(-12.500000, -9.000000) " points="12.5 0 25 18 0 18" />
                    <polygon transform="translate(43.500000, 9.000000) rotate(180.000000) translate(-43.500000, -9.000000) " points="43.5 0 56 18 31 18" />
                    <polygon transform="translate(74.500000, 9.000000) rotate(180.000000) translate(-74.500000, -9.000000) " points="74.5 0 87 18 62 18" />
                </g>
            </g>
            <g id="winter_hat_2_dark-triangles" mask="url(#winter_hat_2_mask-2)" fill="#000000" fill-opacity="0.5">
                <g transform="translate(13.000000, 41.000000)" id="winter_hat_2_Triangle">
                    <polygon points="12.5 0 25 18 0 18" />
                    <polygon points="43.5 0 56 18 31 18" />
                    <polygon points="74.5 0 87 18 62 18" />
                    <polygon points="105.5 0 118 18 93 18" />
                </g>
            </g>
        </g>
        <g id="winter_hat_2_Accessory" transform="translate(62.000000, 85.000000)"><defs>
        <filter x="-3.2%" y="-10.5%" width="106.3%" height="121.1%" filterUnits="objectBoundingBox" id="sunglasses_filter-1">
            <feOffset dx="0" dy="2" in="SourceAlpha" result="shadowOffsetOuter1" />
            <feColorMatrix values="0 0 0 0 0   0 0 0 0 0   0 0 0 0 0  0 0 0 0.1 0" type="matrix" in="shadowOffsetOuter1" result="shadowMatrixOuter1" />
            <feMerge>
                <feMergeNode in="shadowMatrixOuter1" />
                <feMergeNode in="SourceGraphic" />
            </feMerge>
        </filter>
        <linearGradient x1="50%" y1="0%" x2="50%" y2="70.5058195%" id="sunglasses_linearGradient-2">
            <stop stop-color="#FFFFFF" stop-opacity="0.5" offset="0%" />
            <stop stop-color="#000000" stop-opacity="0.5" offset="100%" />
        </linearGradient>
        <path d="M47.0104611,6.27728008 C49.5212682,6.30134922 50.7082016,6.72633117 51.1359635,9.39189846 C51.5693724,12.0919529 51.1479634,15.1275382 50.648202,17.7869984 C49.8855011,21.8478573 48.6170388,25.8264499 45.6643523,28.794498 C44.1089507,30.3575551 42.2119044,31.6034024 40.1941529,32.4540848 C39.1226305,32.9060098 37.9911085,33.2322006 36.8599395,33.4797175 C36.5292357,33.5519249 33.7060778,33.9478084 35.4375958,33.7466335 C31.3967988,34.2161613 27.0129452,34.1974808 23.6381438,31.5793333 C19.8980507,28.6777448 17.3367734,24.0862872 16.2105455,19.5127916 C15.5516086,16.8368063 14.1670294,10.4365709 16.6968952,8.29693227 C19.5948762,5.84547255 47.0104611,6.27728008 47.0104611,6.27728008 L47.0104611,6.27728008 Z" id="sunglasses_path-3" />
        <linearGradient x1="50%" y1="0%" x2="50%" y2="100%" id="sunglasses_linearGradient-4">
            <stop stop-color="#FFFFFF" stop-opacity="0.5" offset="0%" />
            <stop stop-color="#000000" stop-opacity="0.5" offset="70.5058195%" />
        </linearGradient>
        <path d="M78.9192315,6.27468008 C76.4084239,6.29910846 75.2214902,6.72373117 74.7937283,9.38929846 C74.3603192,12.0893529 74.7817283,15.1249382 75.2811369,17.7843984 C76.0441909,21.8452573 77.3126534,25.8238499 80.2653406,28.791898 C81.8207425,30.3549551 83.7177893,31.6008024 85.7355412,32.4518441 C86.8070638,32.9034098 87.938586,33.2296006 89.0697553,33.4771175 C89.4004591,33.5493249 92.2232647,33.9455676 90.4920992,33.7440335 C94.5328971,34.2135613 98.9167517,34.1948808 102.291554,31.5767333 C106.031648,28.6751448 108.592926,24.0840464 109.719154,19.5105508 C110.378091,16.8342063 111.762317,10.4343302 109.232804,8.29433227 C106.334822,5.84287255 78.9192315,6.27468008 78.9192315,6.27468008 L78.9192315,6.27468008 Z" id="sunglasses_path-5" />
    </defs>
    <g id="sunglasses_Top/_Resources/Sunglasses" stroke="none" stroke-width="1" fill="none" fill-rule="evenodd">
        <g id="sunglasses_Sunglasses" filter="url(#sunglasses_filter-1)" transform="translate(8.000000, 8.000000)">
            <g id="sunglasses_shades">
                <use fill-opacity="0.700000048" fill="#000000" xlink:href="#sunglasses_path-3" />
                <use fill="url(#linearGradient-2)" style="mix-blend-mode: screen;" xlink:href="#sunglasses_path-3" />
            </g>
            <g id="sunglasses_shades">
                <use fill-opacity="0.700000048" fill="#000000" xlink:href="#sunglasses_path-5" />
                <use fill="url(#linearGradient-4)" style="mix-blend-mode: screen;" xlink:href="#sunglasses_path-5" />
            </g>
            <g id="sunglasses_Glasses" fill="#252C2F">
                <path d="M46.2491397,7.27516667 C48.6207695,7.2975 49.7419096,7.69183333 50.1459601,10.1651667 C50.5553446,12.6705 50.1572949,15.4871667 49.6852359,17.9548333 C48.9648125,21.7228333 47.7666627,25.4145 44.9776475,28.1685 C43.5084639,29.6188333 41.7165732,30.7748333 39.8106684,31.5641667 C38.7985419,31.9835 37.7297416,32.2861667 36.6612747,32.5158333 C36.3489024,32.5828333 33.6822357,32.9501667 35.3177735,32.7635 C31.5009631,33.1991667 27.3601122,33.1818333 24.1723805,30.7525 C20.6396056,28.0601667 18.2203032,23.7998333 17.1565036,19.5561667 C16.5340925,17.0731667 15.2262624,11.1345 17.6158944,9.14916667 C20.3532365,6.8745 46.2491397,7.27516667 46.2491397,7.27516667 L46.2491397,7.27516667 Z M22.2178029,0.4905 C16.7774562,0.677833333 13.1466691,1.63383333 10.4633337,7.06916667 C5.54571911,17.0301667 13.9627711,31.9688333 23.352278,36.0395 C34.3293166,40.7991667 46.5921826,35.5318333 52.3955746,26.0058333 C55.4689587,20.9621667 57.0224862,13.3231667 56.9224737,7.50383333 C56.7951245,0.0765 51.6071427,-0.1295 45.5090472,0.0338333333 L22.2178029,0.4905 Z" id="sunglasses_Frame" />
                <path d="M79.6805515,7.27256667 C77.3089217,7.29523333 76.1877816,7.68923333 75.7837311,10.1625667 C75.3743466,12.6679 75.7723963,15.4845667 76.244122,17.9522333 C76.9648787,21.7202333 78.1630285,25.4119 80.9520437,28.1659 C82.4212273,29.6162333 84.213118,30.7722333 86.1190228,31.5619 C87.1311493,31.9809 88.1999496,32.2835667 89.2684165,32.5132333 C89.5807888,32.5802333 92.2471221,32.9479 90.6119177,32.7609 C94.4287281,33.1965667 98.569579,33.1792333 101.757311,30.7499 C105.290086,28.0575667 107.709388,23.7975667 108.773188,19.5539 C109.395599,17.0705667 110.703095,11.1322333 108.313797,9.14656667 C105.576455,6.8719 79.6805515,7.27256667 79.6805515,7.27256667 L79.6805515,7.27256667 Z M103.711555,0.4879 C109.152235,0.675233333 112.783022,1.63156667 115.466357,7.06656667 C120.383639,17.0275667 111.96692,31.9662333 102.577413,36.0372333 C91.6003746,40.7965667 79.3375086,35.5292333 73.5337832,26.0035667 C70.4607325,20.9595667 68.907205,13.3205667 69.0068841,7.50123333 C69.1345667,0.0739 74.3225485,-0.1321 80.420644,0.0315666667 L103.711555,0.4879 Z" id="sunglasses_Frame" />
                <path d="M13.1969483,4.9267 C9.78501392,5.11836667 5.88606327,5.16436667 2.69005822,6.63936667 C-0.69461078,8.20136667 -1.2176675,11.7387 3.04920921,12.2260333 C4.97094906,12.4457 6.89488267,12.0827 8.78716336,11.7450333 C10.336903,11.4683667 12.4419791,11.5580333 13.9064752,10.9657 C16.6355213,9.86236667 16.4603333,4.74003333 13.1969483,4.9267" id="sunglasses_Frame" />
                <path d="M112.73467,4.9267 C116.146606,5.11836667 120.045559,5.16436667 123.241565,6.63936667 C126.626236,8.20136667 127.149293,11.7387 122.882414,12.2260333 C120.960673,12.4457 119.036739,12.0827 117.144457,11.7450333 C115.594717,11.4683667 113.489639,11.5580333 112.025143,10.9657 C109.295782,9.86236667 109.471283,4.74003333 112.73467,4.9267" id="sunglasses_Frame" />
                <path d="M73.1094302,7.01263333 C71.1631869,4.71263333 66.0912197,3.38463333 62.8914864,3.38463333 C59.6914198,3.38463333 54.7681378,4.71263333 52.8222279,7.01263333 C51.8407719,8.1723 51.8074344,9.72396667 53.5083137,10.4509667 C55.6262451,11.3566333 57.5174814,9.7143 59.2126933,8.8553 C61.3809643,7.75663333 64.7120473,7.8773 66.7189648,8.8553 C68.4271783,9.68796667 70.3050797,11.3566333 72.4233444,10.4509667 C74.1242237,9.72396667 74.0908862,8.1723 73.1094302,7.01263333" id="sunglasses_Frame" />
            </g>
        </g>
    </g>
</g>
    </g>
</g>
        </g>
    </g>
</svg>