<svg xmlns="http://www.w3.org/2000/svg" xmlns:xlink="http://www.w3.org/1999/xlink" width="264px" height="280px" viewBox="0 0 264 280" version="1.1">
    <title id="transparent_Title">Avataaar/Default</title>
    <desc>Created with python_avatars</desc>
    <defs>
        <path d="M100,0 C130.927946,-5.68137151e-15 156,25.072054 156,56 L156.000809,62.1660527 C161.675838,63.1185422 166,68.05429 166,74 L166,88 C166,94.0524166 161.519235,99.0582945 155.693975,99.8813638 C153.627928,119.686472 141.237929,136.421678 124.001014,144.610469 L124,163 L128,163 C167.764502,163 200,195.235498 200,235 L200,244 L0,244 L0,235 C-4.86974701e-15,195.235498 32.235498,163 72,163 L76,163 L75.9999836,144.610943 C58.7625487,136.422324 46.3721119,119.686854 44.3051107,99.8809698 C38.480765,99.0582945 34,94.0524166 34,88 L34,74 C34,68.053942 38.3246685,63.1179645 44.0001873,62.1658855 L44,56 C44,25.072054 69.072054,5.68137151e-15 100,0 Z" id="transparent_path-1" />
        <path d="M83,36.3476251 C83,52.6289957 105.161905,65.8276544 132.5,65.8276544 C159.838095,65.8276544 182,52.6289957 182,36.3476251 C182,34.9853134 181.844841,33.6445843 181.544472,32.3313638 C210.784239,41.4879251 232,68.792221 232,101.051724 L232,110 L32,110 L32,101.051724 C32,68.3970853 53.7386736,40.8197864 83.5337207,32.0021267 C83.1821692,33.4207025 83,34.871494 83,36.3476251 Z" id="transparent_path-3" />
        <rect id="transparent_path-5" x="0" y="0" width="264" height="280" />
        <path d="M74,0 C114.869071,0 148,33.1309285 148,74 L148,84.1482318 L148,197.608051 C135.525121,187.236892 119.490913,181 102,181 L102,181 L98,181 L98,162.610951 C115.530782,154.282984 128.048193,137.114792 129.791419,116.867187 C135.569129,116.002364 140,111.018625 140,105 L140,105 L140,92 C140,87.3536213 137.359271,83.3240177 133.496777,81.3301515 C132.723933,81.0500337 131.951808,80.748163 131.180891,80.4262497 C130.794819,80.3202581 130.400778,80.2331546 130,80.1659169 L130,80.1659169 L130.000458,79.9172528 C117.224481,74.2339715 104.877985,63.0706967 96.1104311,47.8848473 C93.1752556,42.8009742 90.8310687,37.5951441 89.0661426,32.3970356 C80.4313947,42.9409152 67.7445474,53.6023901 52.3415164,62.4953343 C42.777598,68.0170651 33.1467898,72.2910056 24,75.2659587 L24.0003852,137.246608 C29.6019576,148.318362 38.7728825,157.277529 50,162.610951 L50,162.610951 L50,181 L46,181 C38.3273639,181 30.9350359,182.200142 24.0004995,184.422941 L24,230 C24,244.105888 13.5691766,255.775526 0,257.716445 L0,74 C0,33.1309285 33.1309285,0 74,0 Z" id="transparent_path-7" />
    </defs>
    <g id="transparent_Avataaar/Default" stroke="none" stroke-width="1" fill="none" fill-rule="evenodd">
        <g id="transparent_Body" transform="translate(32.000000, 36.000000)">
            <mask id="transparent_mask-2" fill="white">
                <use xlink:href="#transparent_path-1" />
            </mask>
            <use fill="#D0C6AC" xlink:href="#transparent_path-1" />
            <g id="transparent_Skin-Color" mask="url(#transparent_mask-2)" fill="#614335">
                <g transform="translate(-32.000000, 0.000000)" id="transparent_Color">
                    <rect x="0" y="0" width="264" height="244" />
                </g>
            </g>
            <path d="M44,94 C44,124.927946 69.072054,150 100,150 C130.927946,150 156,124.927946 156,94 L156,94 L156,102 C156,132.927946 130.927946,158 100,158 C69.072054,158 44,132.927946 44,102 Z" id="transparent_Neck-Shadow" fill-opacity="0.100000001" fill="#000000" mask="url(#transparent_mask-2)" />
        </g>
        <g id="transparent_Clothing" transform="translate(0.000000, 170.000000)">
            
        <defs>
        <path d="M160,29.0517235 C199.764502,29.0517235 232,61.2872215 232,101.051724 L232,110 L32,110 L32,101.051724 C32,61.2872215 64.235498,29.0517235 104,29.0517235 L105.192363,29.0520252 C105.065349,30.0355191 105,31.0365551 105,32.0517235 C105,45.8588423 117.088312,57.0517235 132,57.0517235 C146.911688,57.0517235 159,45.8588423 159,32.0517235 C159,31.0365551 158.934651,30.0355191 158.807637,29.0520252 L160,29.0517235 Z" id="blazer_sweater_path-1" />
    </defs>
    <g id="blazer_sweater_Clothing/Blazer-+-Sweater" stroke="none" stroke-width="1" fill="none" fill-rule="evenodd">
        <mask id="blazer_sweater_mask-2" fill="white">
            <use xlink:href="#blazer_sweater_path-1" />
        </mask>
        <use id="blazer_sweater_Clothes" fill="#E6E6E6" xlink:href="#blazer_sweater_path-1" />
        <g id="blazer_sweater_Fabric-Color" mask="url(#blazer_sweater_mask-2)" fill="#929598">
            <rect id="blazer_sweater_ðŸ–Color" x="0" y="0" width="264" height="110" />
        </g>
        <g id="blazer_sweater_Blazer" transform="translate(32.000000, 28.000000)">
            <path d="M64,40.5 C64,55.7092257 65.9608691,69.9209213 69.3620096,82.0011822 L0,82 L0,73.0517235 C-4.73779789e-15,34.3646678 30.512279,2.80413671 68.7847355,1.12223161 C65.7400343,12.7307619 64,26.1727873 64,40.5 Z M200,73.0517235 L200,82 L131.63799,82.0011822 C135.039131,69.9209213 137,55.7092257 137,40.5 C137,26.194165 135.265154,12.7708778 132.228695,1.1737534 C170.025091,3.36299447 200,34.7068514 200,73.0517235 Z" id="blazer_sweater_Saco" fill="#3A4C5A" />
            <path d="M149,58 L158.555853,50.83311 C159.998897,49.7508275 161.987779,49.7682725 163.411616,50.8757011 L170,56 L170,56 L149,58 Z" id="blazer_sweater_Pocket-hanky" fill="#E6E6E6" />
            <path d="M69,0 C65,19.3333333 66.6666667,46.6666667 74,82 L58,82 L44,46 L50,37 L44,31 L63,1 C65.027659,0.369238637 67.027659,0.0359053037 69,0 Z" id="blazer_sweater_Wing" fill="#2F4351" />
            <path d="M151,0 C147,19.3333333 148.666667,46.6666667 156,82 L140,82 L126,46 L132,37 L126,31 L145,1 C147.027659,0.369238637 149.027659,0.0359053037 151,0 Z" id="blazer_sweater_Wing" fill="#2F4351" transform="translate(141.000000, 41.000000) scale(-1, 1) translate(-141.000000, -41.000000) " />
        </g>
        <path d="M167,39.8878801 C167,47.2887654 162.572022,53.9447584 155.520121,58.5564834 L149.58,53.8760062 L145,54.207887 L146,51.0567821 L145.92205,50.9956082 C152.022413,47.8531513 156,42.7004148 156,36.8768102 L156.000381,21.539265 C162.772478,26.1362012 167,32.6564553 167,39.8878801 Z M118.07795,50.9956082 L118,51.0567821 L119,54.207887 L114.419,53.8760062 L108.479879,58.5564834 C101.427978,53.9447584 97,47.2887654 97,39.8878801 C97,32.6560965 101.227942,26.1355541 108.000627,21.5385807 L108,36.8768102 C108,42.7004148 111.977587,47.8531513 118.07795,50.9956082 Z" id="blazer_sweater_Collar" fill="#F2F2F2" />
    </g>
</g>
        <g id="transparent_Face" transform="translate(76.000000, 82.000000)" fill="#000000">
            <g id="transparent_Mouth" transform="translate(2.000000, 52.000000)">    
                
            <defs>
        <path d="M34.0082051,15.1361102 C35.1280248,29.123916 38.2345159,40.9925405 53.9961505,40.9999965 C69.757785,41.0074525 72.9169073,29.0566179 73.9942614,15.0063928 C74.0809675,13.8756222 73.1738581,12.9999965 72.0369872,12.9999965 C65.3505138,12.9999965 62.6703194,14.9936002 53.9894323,14.9999965 C45.3085452,15.0063928 40.7567994,12.9999965 36.0924943,12.9999965 C34.9490269,12.9999965 33.8961688,13.7366502 34.0082051,15.1361102 Z" id="scream_open_path-1" />
    </defs>
    <g id="scream_open_Mouth/Scream-Open" stroke="none" stroke-width="1" fill="none" fill-rule="evenodd">
        <mask id="scream_open_mask-2" fill="white">
            <use xlink:href="#scream_open_path-1" transform="translate(54.000000, 26.999998) scale(1, -1) translate(-54.000000, -26.999998)" />
        </mask>
        <use id="scream_open_Mouth" fill-opacity="0.699999988" fill="#000000" transform="translate(54.000000, 26.999998) scale(1, -1) translate(-54.000000, -26.999998)" xlink:href="#scream_open_path-1" />
        <path d="M44,2 L65,2 C67.7614237,2 70,4.23857625 70,7 L70,13 C70,15.7614237 67.7614237,18 65,18 L44,18 C41.2385763,18 39,15.7614237 39,13 L39,7 C39,4.23857625 41.2385763,2 44,2 Z" id="scream_open_Teeth" fill="#FFFFFF" mask="url(#scream_open_mask-2)" />
        <g id="scream_open_Tongue" mask="url(#scream_open_mask-2)" fill="#FF4F6D">
            <g transform="translate(38.000000, 32.000000)" id="scream_open_Say-ahhhh">
                <circle cx="11" cy="11" r="11" />
                <circle cx="21" cy="11" r="11" />
            </g>
        </g>
    </g>
</g>
            <g id="transparent_Nose" transform="translate(28.000000, 40.000000)" fill-opacity="0.16">
                
            <g id="default_Nose/Default" stroke="none" stroke-width="1" fill="none" fill-rule="evenodd" fill-opacity="0.16">
        <path d="M16,8 C16,12.418278 21.372583,16 28,16 L28,16 C34.627417,16 40,12.418278 40,8" id="default_Nose" fill="#000000" />
    </g>
</g>
            <g id="transparent_Eyes" transform="translate(0.000000, 8.000000)">
                
            <g id="happy_Eyes/Happy-ðŸ˜" stroke="none" stroke-width="1" fill="none" fill-rule="evenodd" fill-opacity="0.599999964">
        <path d="M16.1601674,22.4473116 C18.006676,18.648508 22.1644225,16 26.9975803,16 C31.8136766,16 35.9591217,18.629842 37.8153518,22.4071242 C38.3667605,23.5291977 37.5821037,24.4474817 36.790607,23.7670228 C34.3395063,21.6597833 30.8587163,20.3437884 26.9975803,20.3437884 C23.2572061,20.3437884 19.8737584,21.5787519 17.4375392,23.5716412 C16.5467928,24.3002944 15.6201012,23.5583844 16.1601674,22.4473116 Z" id="happy_Squint" fill="#000000" />
        <path d="M74.1601674,22.4473116 C76.006676,18.648508 80.1644225,16 84.9975803,16 C89.8136766,16 93.9591217,18.629842 95.8153518,22.4071242 C96.3667605,23.5291977 95.5821037,24.4474817 94.790607,23.7670228 C92.3395063,21.6597833 88.8587163,20.3437884 84.9975803,20.3437884 C81.2572061,20.3437884 77.8737584,21.5787519 75.4375392,23.5716412 C74.5467928,24.3002944 73.6201012,23.5583844 74.1601674,22.4473116 Z" id="happy_Squint" fill="#000000" />
    </g>
</g>
            <g id="transparent_Eyebrow" fill-opacity="0.599999964">
                
            <g id="raised_excited_Eyebrow/Outline/Raised-Excited" stroke="none" stroke-width="1" fill="none" fill-rule="evenodd" fill-opacity="0.599999964">
        <g id="raised_excited_I-Browse" transform="translate(12.000000, 0.000000)" fill="#000000" fill-rule="nonzero">
            <path d="M3.97579559,17.1279169 C5.47099148,7.60476158 18.0585488,1.10867597 27.1635167,5.30104271 C28.1668367,5.76301969 29.3546946,5.32417444 29.8166716,4.32085442 C30.2786486,3.3175344 29.8398033,2.12967649 28.8364833,1.66769952 C17.3488212,-3.62177466 1.93575948,4.3324746 0.0242044059,16.507492 C-0.147121205,17.5986938 0.598585765,18.6221744 1.68978754,18.7935 C2.78098932,18.9648257 3.80446998,18.2191187 3.97579559,17.1279169 Z" id="raised_excited_Eyebrow" />
            <path d="M61.9757956,17.1279169 C63.4709915,7.60476158 76.0585488,1.10867597 85.1635167,5.30104271 C86.1668367,5.76301969 87.3546946,5.32417444 87.8166716,4.32085442 C88.2786486,3.3175344 87.8398033,2.12967649 86.8364833,1.66769952 C75.3488212,-3.62177466 59.9357595,4.3324746 58.0242044,16.507492 C57.8528788,17.5986938 58.5985858,18.6221744 59.6897875,18.7935 C60.7809893,18.9648257 61.80447,18.2191187 61.9757956,17.1279169 Z" id="raised_excited_Eyebrow" transform="translate(73.000097, 9.410436) scale(-1, 1) translate(-73.000097, -9.410436) " />
        </g>
    </g>
</g>
        </g>
        <g id="transparent_Top">
            
        <defs>
        <path d="M115.047127,11.5221924 C123.696621,7.68056516 136.518413,11.1815193 146,20 C155.565732,29.4156112 163.20059,50.1998818 158.656587,67.206592 C158.762179,68.4709859 158.815476,69.7499388 158.815476,71.0408963 L158.81538,92.8915741 C157.93388,87.918162 153.989047,84.0031135 149.000444,83.1659914 L149,83 C142.96334,61.4623862 125.226514,51.5783743 114.426942,41.7746242 C97.7068349,60.4842687 45.8737931,60.735696 27.5450892,96.8932694 L27,98 L27,108 C27,114.018777 31.4310943,119.002616 37.2090181,119.867253 C38.9518263,140.114813 51.4692242,157.28298 68.9999836,165.610943 L68.9989935,165.999757 C68.999329,165.999838 68.9996645,165.999919 69,166 C71.9303712,209.855112 62.358462,264.797432 0,248 C13.642322,240.016339 20.8468043,188.781043 21.001396,157.286981 L21,69.046252 C21,65.5176475 21.3973049,62.0818385 22.1496203,58.7811194 C25.2010611,38.7368957 36.7729938,22.8125737 50,13 C69.9046773,-1.75964173 103.442051,-6.01829672 115.047127,11.5221924 Z M158.81538,110.108426 L158.815476,111.47039 C158.815476,127.298552 162.572711,142.900645 169.7782,156.993609 L196.726668,209.701177 C203.690155,223.320818 201.645331,239.175364 192.789213,250.470883 C189.995202,213.661344 159.522394,184.58658 122.135045,184.008765 L121,184 L117,183.999002 L117.001014,165.610469 C134.530962,157.282467 147.047794,140.114995 148.791329,119.868237 C153.877493,119.106788 157.921483,115.151777 158.81538,110.108426 Z" id="straight_1_path-1" />
    </defs>
    <g id="straight_1_Top/Long-Hair/Straight" stroke="none" stroke-width="1" fill="none" fill-rule="evenodd">
        <g id="straight_1_Hair" transform="translate(39.000000, 15.000000)">
            <mask id="straight_1_mask-2" fill="white">
                <use xlink:href="#straight_1_path-1" />
            </mask>
            <use fill="#272C2E" xlink:href="#straight_1_path-1" />
            <g id="straight_1_Hair-Color" mask="url(#straight_1_mask-2)" fill="#C93305">
                <g transform="translate(-39.000000, -15.000000)" id="straight_1_Color">
                    <rect x="0" y="0" width="264" height="280" />
                </g>
            </g>
        </g>
        <path d="M188.684881,96.9208507 L188.952,97.836113 L188.761365,97.2675805 C182.508878,79.1238261 165.090633,72.6061964 154.429684,64.2083647 C137.535357,80.6069148 84.8226408,80.6646674 67,113 C84.8233411,75.7383428 137.539499,75.6732531 154.431675,56.7748854 C165.044492,66.4131358 182.367415,76.1292263 188.684881,96.9208507 Z M188.952,97.836113 L188.959163,97.8569124 L189,98 L189,98 L188.952,97.836113 Z" id="straight_1_Shadow" fill-opacity="0.16" fill="#000000" />
        <g id="straight_1_Facial-Hair" transform="translate(49.000000, 72.000000)"><defs>
        <path d="M65.1802189,77.7372986 C67.3631845,76.1045334 80.4065113,75.4786511 82.757829,74.0894494 C83.4916461,73.6553857 84.0610723,73.215719 84.4997781,72.7800074 C84.938814,73.215719 85.5085703,73.6553857 86.2423874,74.0894494 C88.593375,75.4786511 101.636702,76.1045334 103.819667,77.7372986 C106.030032,79.3908276 107.643571,83.1846831 107.466966,86.15095 C107.255041,89.7101408 103.361486,98.2028927 93.6723269,99.1811016 C91.5576925,96.8281927 88.2368647,95.3104528 84.4997781,95.3104528 C80.7633517,95.3104528 77.4421938,96.8281927 75.3275594,99.1811016 C65.6387308,98.2028927 61.7451757,89.7101408 61.5332501,86.15095 C61.3566455,83.1846831 62.9701849,79.3908276 65.1802189,77.7372986 M103.141638,94.9063813 C103.142958,94.9057221 103.144609,94.905063 103.145929,94.9047334 C103.144278,94.905063 103.142958,94.9057221 103.141638,94.9063813 M65.8453747,94.9014375 C65.8493359,94.9030855 65.8565982,94.9057221 65.8618798,94.9076997 C65.8565982,94.9057221 65.8509864,94.9034151 65.8453747,94.9014375 M144.86259,55.9853335 C144.47439,50.0303878 143.277769,44.1519058 142.233986,38.2862777 C141.952739,36.7072349 140.423706,26 139.734783,26 C139.502391,35.1094058 138.701893,44.0803858 137.669664,53.1393651 C137.361018,55.8475668 137.037848,58.5564277 136.825262,61.2741874 C136.653609,63.4695546 136.959614,66.1220564 136.427819,68.2455739 C135.749129,70.9524573 132.348087,73.4783984 129.702978,74.410795 C123.102915,76.7373371 117.597802,67.1077689 111.960977,64.2911336 C104.643272,60.6347152 92.0637391,59.7639895 84.5816434,64.5297918 C76.9361472,59.7639895 64.356614,60.6347152 57.0389092,64.2911336 C51.4024147,67.1077689 45.8969708,76.7373371 39.2972383,74.410795 C36.6521296,73.4783984 33.2504268,70.9524573 32.572397,68.2455739 C32.0402723,66.1220564 32.346277,63.4695546 32.174954,61.2741874 C31.9623682,58.5564277 31.6388681,55.8475668 31.3302226,53.1393651 C30.2983232,44.0803858 29.4974953,35.1094058 29.2654335,26 C28.5761802,26 27.0468169,36.7072349 26.7658999,38.2862777 C25.7221169,44.1519058 24.5258266,50.0303878 24.1376265,55.9853335 C23.738533,62.1047422 24.2148704,68.1674622 25.4695887,74.1632765 C26.0687242,77.0277016 26.7685407,79.8756475 27.518863,82.7041478 C28.352701,85.8467429 27.198994,91.9661516 27.5723395,95.1921317 C28.2787581,101.29572 31.1542781,113.199679 34.3833375,118.45096 C35.9440605,120.989096 37.7734867,122.573742 39.816489,124.619148 C41.7825775,126.58809 42.6038717,129.640049 44.7260985,131.73687 C48.6820428,135.645092 54.4456266,137.971304 60.3656788,138.543134 C65.6773527,143.050212 74.505605,146 84.4997781,146 C94.4946114,146 103.322534,143.050212 108.634538,138.543134 C114.55393,137.971304 120.317843,135.645092 124.274118,131.73687 C126.396015,129.640049 127.217309,126.58809 129.183727,124.619148 C131.2264,122.573742 133.055826,120.989096 134.616879,118.45096 C137.845608,113.199679 140.721458,101.29572 141.427547,95.1921317 C141.800892,91.9661516 140.647185,85.8467429 141.481353,82.7041478 C142.231676,79.8756475 142.931162,77.0277016 143.530628,74.1632765 C144.784686,68.1674622 145.261353,62.1047422 144.86259,55.9853335 Z" id="beard_magestic_path-1" />
    </defs>
    <g id="beard_magestic_Facial-Hair/Beard-Magestic" stroke="none" stroke-width="1" fill="none" fill-rule="evenodd">
        <mask id="beard_magestic_mask-2" fill="white">
            <use xlink:href="#beard_magestic_path-1" />
        </mask>
        <use id="beard_magestic_Glorious-Beard" fill="#5E7AA9" xlink:href="#beard_magestic_path-1" />
        <g id="beard_magestic_Facial-Hair-Color" mask="url(#beard_magestic_mask-2)" fill="#A55728">
            <rect id="beard_magestic_Color" x="0" y="0" width="168" height="152" />
        </g>
    </g>
</g>
        <g id="straight_1_Accessory" transform="translate(62.000000, 85.000000)" />
    </g>
</g>
    </g>
</svg>